G04 #@! TF.FileFunction,Soldermask,Top*
%FSLAX46Y46*%
G04 Gerber Fmt 4.6, Leading zero omitted, Abs format (unit mm)*
G04 Created by KiCad (PCBNEW 4.0.7) date 07/02/21 11:45:22*
%MOMM*%
%LPD*%
G01*
G04 APERTURE LIST*
%ADD10C,0.200000*%
%ADD11R,3.200000X2.600000*%
%ADD12R,1.700000X1.600000*%
%ADD13R,1.600000X1.700000*%
%ADD14R,1.800000X6.200000*%
%ADD15R,0.450000X2.000000*%
%ADD16R,2.000000X0.450000*%
%ADD17O,2.400000X0.403200*%
%ADD18R,1.500000X2.700000*%
%ADD19R,4.050000X2.800000*%
%ADD20C,6.300000*%
%ADD21C,0.254000*%
G04 APERTURE END LIST*
D10*
D11*
X6499000Y-20468000D03*
X6499000Y-15068000D03*
D12*
X17802000Y-15261000D03*
X17802000Y-13216300D03*
D13*
X60474000Y-18944000D03*
X58429300Y-18944000D03*
D12*
X63903000Y-9165000D03*
X63903000Y-11209700D03*
X17802000Y-10562000D03*
X17802000Y-8517300D03*
X44980000Y-19706000D03*
X44980000Y-21750700D03*
D14*
X81140000Y-36000000D03*
X78600000Y-36000000D03*
X76060000Y-36000000D03*
X73520000Y-36000000D03*
X70980000Y-36000000D03*
X68440000Y-36000000D03*
X65900000Y-36000000D03*
X63360000Y-36000000D03*
X60820000Y-36000000D03*
X58280000Y-36000000D03*
X55740000Y-36000000D03*
X53200000Y-36000000D03*
X50660000Y-36000000D03*
X48120000Y-36000000D03*
X45580000Y-36000000D03*
X43040000Y-36000000D03*
X40500000Y-36000000D03*
X37960000Y-36000000D03*
X35420000Y-36000000D03*
X32880000Y-36000000D03*
X30340000Y-36000000D03*
X27800000Y-36000000D03*
X25260000Y-36000000D03*
X22720000Y-36000000D03*
X20180000Y-36000000D03*
X17640000Y-36000000D03*
X15100000Y-36000000D03*
X12560000Y-36000000D03*
X10020000Y-36000000D03*
X7480000Y-36000000D03*
X4940000Y-36000000D03*
X2400000Y-36000000D03*
D15*
X47139000Y-25040000D03*
X47789000Y-25040000D03*
X48439000Y-25040000D03*
X49089000Y-25040000D03*
X49739000Y-25040000D03*
X50389000Y-25040000D03*
X51039000Y-25040000D03*
X51689000Y-25040000D03*
X52339000Y-25040000D03*
X52989000Y-25040000D03*
X52989000Y-19440000D03*
X52339000Y-19440000D03*
X51689000Y-19440000D03*
X51039000Y-19440000D03*
X50389000Y-19440000D03*
X49739000Y-19440000D03*
X49089000Y-19440000D03*
X48439000Y-19440000D03*
X47789000Y-19440000D03*
X47139000Y-19440000D03*
D16*
X60474000Y-16912000D03*
X60474000Y-16262000D03*
X60474000Y-15612000D03*
X60474000Y-14962000D03*
X60474000Y-14312000D03*
X60474000Y-13662000D03*
X60474000Y-13012000D03*
X60474000Y-12362000D03*
X60474000Y-11712000D03*
X60474000Y-11062000D03*
X54874000Y-11062000D03*
X54874000Y-11712000D03*
X54874000Y-12362000D03*
X54874000Y-13012000D03*
X54874000Y-13662000D03*
X54874000Y-14312000D03*
X54874000Y-14962000D03*
X54874000Y-15612000D03*
X54874000Y-16262000D03*
X54874000Y-16912000D03*
X60347000Y-8403000D03*
X60347000Y-7753000D03*
X60347000Y-7103000D03*
X60347000Y-6453000D03*
X60347000Y-5803000D03*
X60347000Y-5153000D03*
X60347000Y-4503000D03*
X60347000Y-3853000D03*
X60347000Y-3203000D03*
X60347000Y-2553000D03*
X54747000Y-2553000D03*
X54747000Y-3203000D03*
X54747000Y-3853000D03*
X54747000Y-4503000D03*
X54747000Y-5153000D03*
X54747000Y-5803000D03*
X54747000Y-6453000D03*
X54747000Y-7103000D03*
X54747000Y-7753000D03*
X54747000Y-8403000D03*
D17*
X45074000Y-16054000D03*
X45074000Y-15554000D03*
X45074000Y-15054000D03*
X45074000Y-14554000D03*
X45074000Y-14054000D03*
X45074000Y-13554000D03*
X45074000Y-13054000D03*
X45074000Y-12554000D03*
X45074000Y-12054000D03*
X45074000Y-11554000D03*
X45074000Y-11054000D03*
X45074000Y-10554000D03*
X45074000Y-10054000D03*
X45074000Y-9554000D03*
X45074000Y-9054000D03*
X45074000Y-8554000D03*
X45074000Y-8054000D03*
X45074000Y-7554000D03*
X45074000Y-7054000D03*
X45074000Y-6554000D03*
X45074000Y-6054000D03*
X45074000Y-5554000D03*
X45074000Y-5054000D03*
X45074000Y-4554000D03*
X25074000Y-4554000D03*
X25074000Y-5054000D03*
X25074000Y-5554000D03*
X25074000Y-6054000D03*
X25074000Y-6554000D03*
X25074000Y-7054000D03*
X25074000Y-7554000D03*
X25074000Y-8054000D03*
X25074000Y-8554000D03*
X25074000Y-9054000D03*
X25074000Y-9554000D03*
X25074000Y-10054000D03*
X25074000Y-10554000D03*
X25074000Y-11054000D03*
X25074000Y-11554000D03*
X25074000Y-12054000D03*
X25074000Y-12554000D03*
X25074000Y-13054000D03*
X25074000Y-13554000D03*
X25074000Y-14054000D03*
X25074000Y-14554000D03*
X25074000Y-15054000D03*
X25074000Y-15554000D03*
X25074000Y-16054000D03*
D18*
X10182000Y-16785000D03*
X12480700Y-16785000D03*
X14779400Y-16785000D03*
D19*
X12480700Y-10689000D03*
D20*
X6400000Y-6100000D03*
X75800000Y-6100000D03*
D10*
G36*
X51401251Y-11591565D02*
X50835565Y-12157251D01*
X50199169Y-11520855D01*
X50764855Y-10955169D01*
X51401251Y-11591565D01*
X51401251Y-11591565D01*
G37*
G36*
X50727732Y-10918046D02*
X50162046Y-11483732D01*
X49525650Y-10847336D01*
X50091336Y-10281650D01*
X50727732Y-10918046D01*
X50727732Y-10918046D01*
G37*
D21*
G36*
X83473000Y-39873000D02*
X127000Y-39873000D01*
X127000Y-32827000D01*
X83473000Y-32827000D01*
X83473000Y-39873000D01*
X83473000Y-39873000D01*
G37*
X83473000Y-39873000D02*
X127000Y-39873000D01*
X127000Y-32827000D01*
X83473000Y-32827000D01*
X83473000Y-39873000D01*
M02*
