G04 #@! TF.FileFunction,Copper,L2,Bot,Signal*
%FSLAX46Y46*%
G04 Gerber Fmt 4.6, Leading zero omitted, Abs format (unit mm)*
G04 Created by KiCad (PCBNEW 4.0.7) date 07/02/21 15:20:09*
%MOMM*%
%LPD*%
G01*
G04 APERTURE LIST*
%ADD10C,0.200000*%
%ADD11C,0.250000*%
%ADD12R,1.600000X6.000000*%
%ADD13C,6.100000*%
%ADD14C,0.700000*%
%ADD15C,0.600000*%
%ADD16C,0.400000*%
%ADD17C,0.500000*%
%ADD18C,0.203200*%
G04 APERTURE END LIST*
D10*
D11*
X5780952Y-36128571D02*
X5638095Y-36176190D01*
X5590476Y-36223810D01*
X5542857Y-36319048D01*
X5542857Y-36461905D01*
X5590476Y-36557143D01*
X5638095Y-36604762D01*
X5733333Y-36652381D01*
X6114286Y-36652381D01*
X6114286Y-35652381D01*
X5780952Y-35652381D01*
X5685714Y-35700000D01*
X5638095Y-35747619D01*
X5590476Y-35842857D01*
X5590476Y-35938095D01*
X5638095Y-36033333D01*
X5685714Y-36080952D01*
X5780952Y-36128571D01*
X6114286Y-36128571D01*
X5209524Y-35652381D02*
X4590476Y-35652381D01*
X4923810Y-36033333D01*
X4780952Y-36033333D01*
X4685714Y-36080952D01*
X4638095Y-36128571D01*
X4590476Y-36223810D01*
X4590476Y-36461905D01*
X4638095Y-36557143D01*
X4685714Y-36604762D01*
X4780952Y-36652381D01*
X5066667Y-36652381D01*
X5161905Y-36604762D01*
X5209524Y-36557143D01*
X3638095Y-36652381D02*
X4209524Y-36652381D01*
X3923810Y-36652381D02*
X3923810Y-35652381D01*
X4019048Y-35795238D01*
X4114286Y-35890476D01*
X4209524Y-35938095D01*
X31180952Y-36128571D02*
X31038095Y-36176190D01*
X30990476Y-36223810D01*
X30942857Y-36319048D01*
X30942857Y-36461905D01*
X30990476Y-36557143D01*
X31038095Y-36604762D01*
X31133333Y-36652381D01*
X31514286Y-36652381D01*
X31514286Y-35652381D01*
X31180952Y-35652381D01*
X31085714Y-35700000D01*
X31038095Y-35747619D01*
X30990476Y-35842857D01*
X30990476Y-35938095D01*
X31038095Y-36033333D01*
X31085714Y-36080952D01*
X31180952Y-36128571D01*
X31514286Y-36128571D01*
X30561905Y-35747619D02*
X30514286Y-35700000D01*
X30419048Y-35652381D01*
X30180952Y-35652381D01*
X30085714Y-35700000D01*
X30038095Y-35747619D01*
X29990476Y-35842857D01*
X29990476Y-35938095D01*
X30038095Y-36080952D01*
X30609524Y-36652381D01*
X29990476Y-36652381D01*
X29038095Y-36652381D02*
X29609524Y-36652381D01*
X29323810Y-36652381D02*
X29323810Y-35652381D01*
X29419048Y-35795238D01*
X29514286Y-35890476D01*
X29609524Y-35938095D01*
X46480952Y-36128571D02*
X46338095Y-36176190D01*
X46290476Y-36223810D01*
X46242857Y-36319048D01*
X46242857Y-36461905D01*
X46290476Y-36557143D01*
X46338095Y-36604762D01*
X46433333Y-36652381D01*
X46814286Y-36652381D01*
X46814286Y-35652381D01*
X46480952Y-35652381D01*
X46385714Y-35700000D01*
X46338095Y-35747619D01*
X46290476Y-35842857D01*
X46290476Y-35938095D01*
X46338095Y-36033333D01*
X46385714Y-36080952D01*
X46480952Y-36128571D01*
X46814286Y-36128571D01*
X45290476Y-36652381D02*
X45861905Y-36652381D01*
X45576191Y-36652381D02*
X45576191Y-35652381D01*
X45671429Y-35795238D01*
X45766667Y-35890476D01*
X45861905Y-35938095D01*
X44385714Y-35652381D02*
X44861905Y-35652381D01*
X44909524Y-36128571D01*
X44861905Y-36080952D01*
X44766667Y-36033333D01*
X44528571Y-36033333D01*
X44433333Y-36080952D01*
X44385714Y-36128571D01*
X44338095Y-36223810D01*
X44338095Y-36461905D01*
X44385714Y-36557143D01*
X44433333Y-36604762D01*
X44528571Y-36652381D01*
X44766667Y-36652381D01*
X44861905Y-36604762D01*
X44909524Y-36557143D01*
X81504761Y-36128571D02*
X81361904Y-36176190D01*
X81314285Y-36223810D01*
X81266666Y-36319048D01*
X81266666Y-36461905D01*
X81314285Y-36557143D01*
X81361904Y-36604762D01*
X81457142Y-36652381D01*
X81838095Y-36652381D01*
X81838095Y-35652381D01*
X81504761Y-35652381D01*
X81409523Y-35700000D01*
X81361904Y-35747619D01*
X81314285Y-35842857D01*
X81314285Y-35938095D01*
X81361904Y-36033333D01*
X81409523Y-36080952D01*
X81504761Y-36128571D01*
X81838095Y-36128571D01*
X80314285Y-36652381D02*
X80885714Y-36652381D01*
X80600000Y-36652381D02*
X80600000Y-35652381D01*
X80695238Y-35795238D01*
X80790476Y-35890476D01*
X80885714Y-35938095D01*
D12*
X81140000Y-41000000D03*
X78600000Y-41000000D03*
X76060000Y-41000000D03*
X73520000Y-41000000D03*
X70980000Y-41000000D03*
X68440000Y-41000000D03*
X65900000Y-41000000D03*
X63360000Y-41000000D03*
X60820000Y-41000000D03*
X58280000Y-41000000D03*
X55740000Y-41000000D03*
X53200000Y-41000000D03*
X50660000Y-41000000D03*
X48120000Y-41000000D03*
X45580000Y-41000000D03*
X43040000Y-41000000D03*
X40500000Y-41000000D03*
X37960000Y-41000000D03*
X35420000Y-41000000D03*
X32880000Y-41000000D03*
X30340000Y-41000000D03*
X27800000Y-41000000D03*
X25260000Y-41000000D03*
X22720000Y-41000000D03*
X20180000Y-41000000D03*
X17640000Y-41000000D03*
X15100000Y-41000000D03*
X12560000Y-41000000D03*
X10020000Y-41000000D03*
X7480000Y-41000000D03*
X4940000Y-41000000D03*
X2400000Y-41000000D03*
D13*
X6400000Y-11100000D03*
X75800000Y-11100000D03*
D14*
X63268000Y-17848000D03*
X20723000Y-17975000D03*
X79524000Y-4513000D03*
X71777000Y-3751000D03*
X66316000Y-5021000D03*
X24533000Y-7180000D03*
X26819000Y-3751000D03*
X68983000Y-14038000D03*
X68983000Y-10228000D03*
X65808000Y-9085000D03*
X63268000Y-7053000D03*
X66824000Y-17467000D03*
X70253000Y-19880000D03*
X54632000Y-4005000D03*
X60220000Y-4132000D03*
X21612000Y-2862000D03*
X16786000Y-2862000D03*
X3070000Y-4513000D03*
X9420000Y-2735000D03*
X14500000Y-4894000D03*
X24787000Y-23055000D03*
X35074000Y-14419000D03*
X33550000Y-18356000D03*
X38630000Y-18356000D03*
X41424000Y-14419000D03*
X47901000Y-15054000D03*
X50695000Y-12387000D03*
X57807000Y-16959000D03*
X74952000Y-17594000D03*
X81048000Y-15435000D03*
X76476000Y-28897000D03*
X81556000Y-26992000D03*
X72539000Y-25214000D03*
X76222000Y-22293000D03*
X80159000Y-19880000D03*
X70126000Y-30675000D03*
X67840000Y-28389000D03*
X63903000Y-33596000D03*
X62252000Y-28389000D03*
X63141000Y-30802000D03*
X54886000Y-30548000D03*
X57934000Y-29278000D03*
X54886000Y-27627000D03*
X57807000Y-26230000D03*
X54886000Y-24960000D03*
X51457000Y-28262000D03*
X49679000Y-26484000D03*
X42694000Y-32453000D03*
X44091000Y-30421000D03*
X28089000Y-16324000D03*
X22501000Y-16451000D03*
X22374000Y-14165000D03*
X20469000Y-12133000D03*
X41678000Y-9974000D03*
X37614000Y-12260000D03*
X34947000Y-9974000D03*
X32026000Y-12260000D03*
X29740000Y-9974000D03*
X21485000Y-9593000D03*
X19834000Y-7434000D03*
X16532000Y-9720000D03*
X12341000Y-9720000D03*
X12341000Y-12514000D03*
X2435000Y-20134000D03*
X5102000Y-17340000D03*
X1800000Y-15689000D03*
X1419000Y-29913000D03*
X3578000Y-27500000D03*
X38503000Y-28770000D03*
X35328000Y-32072000D03*
X33804000Y-28643000D03*
X41678000Y-24198000D03*
X39900000Y-26357000D03*
X37614000Y-24198000D03*
X35582000Y-26103000D03*
X33804000Y-24198000D03*
X26311000Y-29532000D03*
X25422000Y-32453000D03*
X23771000Y-34104000D03*
X31010000Y-25595000D03*
X29994000Y-28262000D03*
X30502000Y-33469000D03*
X29232000Y-30421000D03*
X21231000Y-32961000D03*
X19326000Y-33977000D03*
X17675000Y-31183000D03*
X15389000Y-33215000D03*
X18310000Y-24960000D03*
X13992000Y-27246000D03*
X11960000Y-30294000D03*
X8404000Y-33215000D03*
X6372000Y-30675000D03*
X7769000Y-28516000D03*
X9674000Y-26865000D03*
X51203000Y-20515000D03*
X64284000Y-25976000D03*
X67205000Y-23055000D03*
X15770000Y-13530000D03*
X42821000Y-26738000D03*
X46123000Y-22801000D03*
X10182000Y-18610000D03*
X15135000Y-18737000D03*
D15*
X52219000Y-12768000D03*
X20723000Y-16959000D03*
X41551000Y-20007000D03*
X62125000Y-16705000D03*
X67713000Y-32326000D03*
X65935000Y-32834000D03*
X61998000Y-13403000D03*
X56918000Y-12768000D03*
X60093000Y-33342000D03*
X55775000Y-33977000D03*
X57680000Y-11498000D03*
X57045000Y-10863000D03*
X50695000Y-33342000D03*
X45615000Y-33723000D03*
X58061000Y-10101000D03*
X40535000Y-32834000D03*
X58442000Y-8196000D03*
X21231000Y-22420000D03*
X33296000Y-32834000D03*
X27835000Y-28389000D03*
X23771000Y-24325000D03*
X21866000Y-26865000D03*
X21866000Y-31310000D03*
X19961000Y-27627000D03*
X19453000Y-29913000D03*
X67332000Y-30040000D03*
X66443000Y-30167000D03*
X62252000Y-20134000D03*
X58569000Y-18610000D03*
X58569000Y-20134000D03*
X57426000Y-20261000D03*
X57172000Y-9466000D03*
X57807000Y-8831000D03*
X22628000Y-23182000D03*
X21485000Y-23563000D03*
X22374000Y-25976000D03*
X21104000Y-27500000D03*
X25676000Y-22039000D03*
X47520000Y-22039000D03*
D16*
X26438000Y-21277000D02*
X24025000Y-21277000D01*
X62887000Y-10990000D02*
X62887000Y-13149000D01*
X48790000Y-21277000D02*
X49171000Y-21277000D01*
X41678000Y-21277000D02*
X31772000Y-21277000D01*
X26438000Y-21277000D02*
X31772000Y-21277000D01*
X41678000Y-21277000D02*
X48790000Y-21277000D01*
X59331000Y-7434000D02*
X62252000Y-10355000D01*
X56791000Y-7434000D02*
X59331000Y-7434000D01*
X53108000Y-11117000D02*
X56791000Y-7434000D01*
X53108000Y-17340000D02*
X53108000Y-11117000D01*
X49171000Y-21277000D02*
X53108000Y-17340000D01*
X62887000Y-17467000D02*
X62887000Y-13149000D01*
X63268000Y-17848000D02*
X62887000Y-17467000D01*
X62252000Y-10355000D02*
X62887000Y-10990000D01*
X24025000Y-21277000D02*
X20723000Y-17975000D01*
D11*
X70507000Y-5021000D02*
X71777000Y-3751000D01*
X66316000Y-5021000D02*
X70507000Y-5021000D01*
X24533000Y-7180000D02*
X24533000Y-6037000D01*
X24533000Y-6037000D02*
X26819000Y-3751000D01*
X63268000Y-7053000D02*
X63141000Y-7053000D01*
X68983000Y-15308000D02*
X68983000Y-14038000D01*
X68983000Y-10228000D02*
X66951000Y-10228000D01*
X66951000Y-10228000D02*
X65808000Y-9085000D01*
D17*
X74952000Y-19880000D02*
X70253000Y-19880000D01*
D11*
X66824000Y-17467000D02*
X68983000Y-15308000D01*
X63141000Y-7053000D02*
X60220000Y-4132000D01*
X16532000Y-2862000D02*
X16786000Y-2862000D01*
X16532000Y-2862000D02*
X14500000Y-4894000D01*
X18119500Y-8132500D02*
X17738500Y-8132500D01*
X4848000Y-2735000D02*
X3070000Y-4513000D01*
X9420000Y-2735000D02*
X4848000Y-2735000D01*
X17738500Y-8132500D02*
X14500000Y-4894000D01*
X50695000Y-12387000D02*
X50568000Y-12514000D01*
X47901000Y-15054000D02*
X48028000Y-15054000D01*
X41424000Y-14419000D02*
X47266000Y-14419000D01*
X35074000Y-14419000D02*
X33550000Y-15943000D01*
X33550000Y-15943000D02*
X33550000Y-18356000D01*
X38630000Y-18356000D02*
X41424000Y-15562000D01*
X41424000Y-15562000D02*
X41424000Y-14419000D01*
X47266000Y-14419000D02*
X47901000Y-15054000D01*
X48028000Y-15054000D02*
X50568000Y-12514000D01*
D17*
X74952000Y-19880000D02*
X74952000Y-17594000D01*
D11*
X80159000Y-19880000D02*
X81048000Y-18991000D01*
X81048000Y-18991000D02*
X81048000Y-15435000D01*
D17*
X76476000Y-28897000D02*
X79651000Y-28897000D01*
X79651000Y-28897000D02*
X81556000Y-26992000D01*
X72539000Y-25214000D02*
X75460000Y-22293000D01*
X75460000Y-22293000D02*
X76222000Y-22293000D01*
X80159000Y-19880000D02*
X74952000Y-19880000D01*
D11*
X65427000Y-25976000D02*
X67840000Y-28389000D01*
X65427000Y-25976000D02*
X64284000Y-25976000D01*
X63141000Y-32834000D02*
X63903000Y-33596000D01*
X63141000Y-30802000D02*
X63141000Y-32834000D01*
X62252000Y-28389000D02*
X63141000Y-29278000D01*
X63141000Y-29278000D02*
X63141000Y-30802000D01*
X56283000Y-27627000D02*
X57934000Y-29278000D01*
X54886000Y-27627000D02*
X56283000Y-27627000D01*
X56537000Y-24960000D02*
X57807000Y-26230000D01*
X54886000Y-24960000D02*
X56537000Y-24960000D01*
D17*
X44091000Y-31056000D02*
X42694000Y-32453000D01*
X44091000Y-30421000D02*
X44091000Y-31056000D01*
D11*
X28089000Y-16324000D02*
X28089000Y-11625000D01*
X27962000Y-16451000D02*
X28089000Y-16324000D01*
X15770000Y-13530000D02*
X19072000Y-13530000D01*
X22501000Y-14292000D02*
X22501000Y-16451000D01*
X22374000Y-14165000D02*
X22501000Y-14292000D01*
X19072000Y-13530000D02*
X20469000Y-12133000D01*
X22501000Y-16451000D02*
X27962000Y-16451000D01*
X39392000Y-12260000D02*
X41678000Y-9974000D01*
X37614000Y-12260000D02*
X39392000Y-12260000D01*
X32661000Y-12260000D02*
X34947000Y-9974000D01*
X32026000Y-12260000D02*
X32661000Y-12260000D01*
X28089000Y-11625000D02*
X29740000Y-9974000D01*
X18818000Y-7434000D02*
X19834000Y-7434000D01*
X16532000Y-9720000D02*
X18119500Y-8132500D01*
X18119500Y-8132500D02*
X18818000Y-7434000D01*
X12341000Y-12514000D02*
X12341000Y-9720000D01*
X2435000Y-20134000D02*
X2435000Y-16324000D01*
X2435000Y-16324000D02*
X1800000Y-15689000D01*
X2400000Y-27500000D02*
X3578000Y-27500000D01*
X33804000Y-30548000D02*
X35328000Y-32072000D01*
X33804000Y-28643000D02*
X33804000Y-30548000D01*
X33423000Y-23055000D02*
X33423000Y-23817000D01*
X41678000Y-24579000D02*
X41678000Y-24198000D01*
X39900000Y-26357000D02*
X41678000Y-24579000D01*
X37487000Y-24198000D02*
X37614000Y-24198000D01*
X35582000Y-26103000D02*
X37487000Y-24198000D01*
X33423000Y-23817000D02*
X33804000Y-24198000D01*
X28343000Y-29532000D02*
X26311000Y-29532000D01*
X28343000Y-29532000D02*
X29232000Y-30421000D01*
X31010000Y-23055000D02*
X31010000Y-25595000D01*
X30502000Y-31691000D02*
X30502000Y-33469000D01*
X29232000Y-30421000D02*
X30502000Y-31691000D01*
X15389000Y-33215000D02*
X18564000Y-33215000D01*
X18564000Y-33215000D02*
X19326000Y-33977000D01*
X11960000Y-30294000D02*
X14881000Y-33215000D01*
X14881000Y-33215000D02*
X15389000Y-33215000D01*
X6435500Y-22356500D02*
X6435500Y-23626500D01*
X16024000Y-27246000D02*
X18310000Y-24960000D01*
X13992000Y-27246000D02*
X16024000Y-27246000D01*
X9039000Y-33215000D02*
X11960000Y-30294000D01*
X8404000Y-33215000D02*
X9039000Y-33215000D01*
X6372000Y-29913000D02*
X6372000Y-30675000D01*
X7769000Y-28516000D02*
X6372000Y-29913000D01*
X6435500Y-23626500D02*
X9674000Y-26865000D01*
X48663000Y-22801000D02*
X48917000Y-22801000D01*
X46123000Y-22801000D02*
X48663000Y-22801000D01*
X48917000Y-22801000D02*
X51203000Y-20515000D01*
X24787000Y-23055000D02*
X23390000Y-21658000D01*
X18056000Y-21658000D02*
X15135000Y-18737000D01*
X23390000Y-21658000D02*
X18056000Y-21658000D01*
X67205000Y-23055000D02*
X66570000Y-23690000D01*
X64284000Y-25976000D02*
X66570000Y-23690000D01*
D17*
X2400000Y-41000000D02*
X2400000Y-27500000D01*
X2400000Y-27500000D02*
X2400000Y-26392000D01*
X2400000Y-26392000D02*
X6435500Y-22356500D01*
X6435500Y-22356500D02*
X10182000Y-18610000D01*
D11*
X15135000Y-18737000D02*
X15135000Y-14165000D01*
X15135000Y-14165000D02*
X15770000Y-13530000D01*
X42821000Y-23055000D02*
X42821000Y-26738000D01*
X34439000Y-23055000D02*
X42821000Y-23055000D01*
X42821000Y-23055000D02*
X45869000Y-23055000D01*
X24787000Y-23055000D02*
X31010000Y-23055000D01*
X31010000Y-23055000D02*
X33423000Y-23055000D01*
X33423000Y-23055000D02*
X34439000Y-23055000D01*
X45869000Y-23055000D02*
X46123000Y-22801000D01*
X10309000Y-18737000D02*
X15135000Y-18737000D01*
X10182000Y-18610000D02*
X10309000Y-18737000D01*
X2435000Y-40965000D02*
X2400000Y-41000000D01*
D18*
X52473000Y-13022000D02*
X52219000Y-12768000D01*
X43202000Y-20642000D02*
X49025916Y-20642000D01*
X49025916Y-20642000D02*
X52473000Y-17194916D01*
X52473000Y-17194916D02*
X52473000Y-13530000D01*
X43202000Y-20642000D02*
X41551000Y-20642000D01*
X52473000Y-13530000D02*
X52473000Y-13022000D01*
X20723000Y-16959000D02*
X24406000Y-20642000D01*
X24406000Y-20642000D02*
X32407000Y-20642000D01*
X40916000Y-20642000D02*
X41551000Y-20642000D01*
X40662000Y-20642000D02*
X32407000Y-20642000D01*
X40662000Y-20642000D02*
X40916000Y-20642000D01*
X41551000Y-20642000D02*
X41551000Y-20007000D01*
X62887000Y-25849000D02*
X62887000Y-19880000D01*
X65300000Y-28262000D02*
X65681000Y-28643000D01*
X62887000Y-25849000D02*
X65300000Y-28262000D01*
X67078000Y-31691000D02*
X67713000Y-32326000D01*
X65681000Y-30294000D02*
X67078000Y-31691000D01*
X65681000Y-28643000D02*
X65681000Y-30294000D01*
X62125000Y-19118000D02*
X62125000Y-16705000D01*
X62887000Y-19880000D02*
X62125000Y-19118000D01*
X61490000Y-25722000D02*
X61490000Y-16578000D01*
X64665000Y-28897000D02*
X64665000Y-30802000D01*
X64665000Y-30802000D02*
X65935000Y-32072000D01*
X65935000Y-32072000D02*
X65935000Y-32834000D01*
X64284000Y-28516000D02*
X61490000Y-25722000D01*
X64284000Y-28516000D02*
X64665000Y-28897000D01*
X61490000Y-13911000D02*
X61998000Y-13403000D01*
X61490000Y-16578000D02*
X61490000Y-13911000D01*
X56791000Y-19753000D02*
X56791000Y-20515000D01*
X56918000Y-12768000D02*
X56791000Y-12895000D01*
X56791000Y-12895000D02*
X56791000Y-19753000D01*
X60093000Y-26865000D02*
X60093000Y-33342000D01*
X57680000Y-24452000D02*
X60093000Y-26865000D01*
X57680000Y-21404000D02*
X57680000Y-24452000D01*
X56791000Y-20515000D02*
X57680000Y-21404000D01*
X53489000Y-30675000D02*
X53489000Y-31056000D01*
X53489000Y-22420000D02*
X53489000Y-30675000D01*
X56283000Y-19626000D02*
X54251000Y-21658000D01*
X56918000Y-11498000D02*
X56283000Y-12133000D01*
X57680000Y-11498000D02*
X56918000Y-11498000D01*
X56283000Y-12133000D02*
X56283000Y-19626000D01*
X54251000Y-21658000D02*
X53489000Y-22420000D01*
X55775000Y-33342000D02*
X55775000Y-33977000D01*
X53489000Y-31056000D02*
X55775000Y-33342000D01*
X54505000Y-20769000D02*
X52981000Y-22293000D01*
X55775000Y-19499000D02*
X54505000Y-20769000D01*
X55775000Y-11879000D02*
X55775000Y-19499000D01*
X56791000Y-10863000D02*
X55775000Y-11879000D01*
X57045000Y-10863000D02*
X56791000Y-10863000D01*
X52981000Y-31056000D02*
X50695000Y-33342000D01*
X52981000Y-22293000D02*
X52981000Y-31056000D01*
X56664000Y-10355000D02*
X56918000Y-10101000D01*
X45615000Y-33723000D02*
X45615000Y-31945000D01*
X45615000Y-29024000D02*
X45615000Y-31945000D01*
X55267000Y-19372000D02*
X45615000Y-29024000D01*
X55267000Y-11752000D02*
X55267000Y-19372000D01*
X56664000Y-10355000D02*
X55267000Y-11752000D01*
X56918000Y-10101000D02*
X58061000Y-10101000D01*
X53743000Y-11752000D02*
X53743000Y-11371000D01*
X53743000Y-18991000D02*
X40535000Y-32199000D01*
X53743000Y-11752000D02*
X53743000Y-18991000D01*
X40535000Y-32199000D02*
X40535000Y-32834000D01*
X56918000Y-8196000D02*
X58442000Y-8196000D01*
X53743000Y-11371000D02*
X56918000Y-8196000D01*
X58442000Y-8196000D02*
X58435000Y-8203000D01*
X21231000Y-22420000D02*
X22882000Y-22420000D01*
X22882000Y-22420000D02*
X33042000Y-32580000D01*
X33296000Y-32834000D02*
X33042000Y-32580000D01*
X23771000Y-24325000D02*
X24212260Y-24325000D01*
X27835000Y-27947740D02*
X27835000Y-28389000D01*
X24212260Y-24325000D02*
X27835000Y-27947740D01*
X21866000Y-26865000D02*
X22247000Y-27246000D01*
X22247000Y-30929000D02*
X21866000Y-31310000D01*
X22247000Y-27246000D02*
X22247000Y-30929000D01*
X19707000Y-27881000D02*
X19961000Y-27627000D01*
X19707000Y-29659000D02*
X19707000Y-27881000D01*
X19453000Y-29913000D02*
X19707000Y-29659000D01*
X73520000Y-36482000D02*
X73520000Y-37625000D01*
X67332000Y-30040000D02*
X67332000Y-30294000D01*
X67332000Y-30294000D02*
X73047000Y-36009000D01*
X73520000Y-37625000D02*
X73520000Y-41000000D01*
X73047000Y-36009000D02*
X73520000Y-36482000D01*
X70980000Y-35720000D02*
X70980000Y-34577000D01*
X70980000Y-41000000D02*
X70980000Y-35720000D01*
X66443000Y-30167000D02*
X66570000Y-30167000D01*
X66570000Y-30167000D02*
X67967000Y-31564000D01*
X67967000Y-31564000D02*
X70126000Y-33723000D01*
X70980000Y-34577000D02*
X70126000Y-33723000D01*
X68440000Y-34450000D02*
X68440000Y-33942000D01*
X68440000Y-41000000D02*
X68440000Y-34450000D01*
X65173000Y-28770000D02*
X65173000Y-30421000D01*
X65173000Y-30421000D02*
X65173000Y-30675000D01*
X65173000Y-30675000D02*
X67459000Y-32961000D01*
X62252000Y-25849000D02*
X64030000Y-27627000D01*
X62252000Y-20134000D02*
X62252000Y-25849000D01*
X64030000Y-27627000D02*
X64792000Y-28389000D01*
X64792000Y-28389000D02*
X65173000Y-28770000D01*
X68440000Y-33942000D02*
X67459000Y-32961000D01*
X65300000Y-33215000D02*
X65300000Y-32072000D01*
X63776000Y-28643000D02*
X62887000Y-27754000D01*
X59204000Y-19245000D02*
X58569000Y-18610000D01*
X59204000Y-24071000D02*
X59204000Y-19245000D01*
X62887000Y-27754000D02*
X59204000Y-24071000D01*
X65900000Y-33815000D02*
X65900000Y-41000000D01*
X65900000Y-33815000D02*
X65300000Y-33215000D01*
X64157000Y-29024000D02*
X63776000Y-28643000D01*
X64157000Y-30929000D02*
X64157000Y-29024000D01*
X65300000Y-32072000D02*
X64157000Y-30929000D01*
X61236000Y-32961000D02*
X63360000Y-35085000D01*
X60982000Y-26484000D02*
X61236000Y-26738000D01*
X61236000Y-26738000D02*
X61236000Y-32961000D01*
X58569000Y-20134000D02*
X58696000Y-20261000D01*
X58696000Y-20261000D02*
X58696000Y-24198000D01*
X58696000Y-24198000D02*
X60982000Y-26484000D01*
X63360000Y-35085000D02*
X63360000Y-41000000D01*
X60728000Y-33088000D02*
X60728000Y-26865000D01*
X60728000Y-40908000D02*
X60728000Y-33088000D01*
X58188000Y-21023000D02*
X58188000Y-24325000D01*
X58188000Y-24325000D02*
X60220000Y-26357000D01*
X60220000Y-26357000D02*
X60601000Y-26738000D01*
X58188000Y-21023000D02*
X57426000Y-20261000D01*
X60728000Y-26865000D02*
X60601000Y-26738000D01*
X57426000Y-20261000D02*
X57299000Y-20388000D01*
X60820000Y-41000000D02*
X60728000Y-40908000D01*
X60820000Y-41000000D02*
X60728000Y-40908000D01*
X56918000Y-9466000D02*
X57172000Y-9466000D01*
X56918000Y-9466000D02*
X56664000Y-9720000D01*
X45488000Y-28516000D02*
X45107000Y-28897000D01*
X45107000Y-28897000D02*
X45107000Y-33088000D01*
X45107000Y-33088000D02*
X43075000Y-35120000D01*
X43075000Y-35120000D02*
X43075000Y-40965000D01*
X45488000Y-28516000D02*
X54759000Y-19245000D01*
X54759000Y-19245000D02*
X54759000Y-11625000D01*
X54759000Y-11625000D02*
X56029000Y-10355000D01*
X56029000Y-10355000D02*
X56664000Y-9720000D01*
X56664000Y-9720000D02*
X56664000Y-9720000D01*
X43075000Y-40965000D02*
X43040000Y-41000000D01*
X43075000Y-40965000D02*
X43040000Y-41000000D01*
X54251000Y-11879000D02*
X54251000Y-11498000D01*
X54251000Y-11879000D02*
X54251000Y-19118000D01*
X54251000Y-19118000D02*
X41297000Y-32072000D01*
X41297000Y-32072000D02*
X41297000Y-33088000D01*
X41297000Y-33088000D02*
X40500000Y-33885000D01*
X40500000Y-41000000D02*
X40500000Y-33885000D01*
X56918000Y-8831000D02*
X57807000Y-8831000D01*
X54251000Y-11498000D02*
X56918000Y-8831000D01*
X23136000Y-24579000D02*
X23136000Y-25087000D01*
X23136000Y-23690000D02*
X23136000Y-24579000D01*
X22628000Y-23182000D02*
X23136000Y-23690000D01*
X27800000Y-36355000D02*
X27800000Y-41000000D01*
X23771000Y-32326000D02*
X27800000Y-36355000D01*
X23771000Y-25722000D02*
X23771000Y-32326000D01*
X23136000Y-25087000D02*
X23771000Y-25722000D01*
X23263000Y-32326000D02*
X23263000Y-32453000D01*
X21485000Y-24071000D02*
X23263000Y-25849000D01*
X23263000Y-25849000D02*
X23263000Y-32326000D01*
X21485000Y-23563000D02*
X21485000Y-24071000D01*
X25260000Y-34450000D02*
X25260000Y-41000000D01*
X23263000Y-32453000D02*
X25260000Y-34450000D01*
X22374000Y-25976000D02*
X22720000Y-26322000D01*
X22720000Y-26322000D02*
X22720000Y-29243000D01*
X22720000Y-29243000D02*
X22720000Y-41000000D01*
X20180000Y-28424000D02*
X21104000Y-27500000D01*
X20180000Y-30202000D02*
X20180000Y-41000000D01*
X20180000Y-30202000D02*
X20180000Y-28424000D01*
X47393000Y-21912000D02*
X25803000Y-21912000D01*
X25803000Y-21912000D02*
X25676000Y-22039000D01*
X47520000Y-22039000D02*
X47393000Y-21912000D01*
D11*
G36*
X83100000Y-34875000D02*
X72657725Y-34875000D01*
X68030671Y-30247947D01*
X68056874Y-30184844D01*
X68057126Y-29896421D01*
X67946984Y-29629857D01*
X67743216Y-29425733D01*
X67476844Y-29315126D01*
X67188421Y-29314874D01*
X66921857Y-29425016D01*
X66811631Y-29535050D01*
X66587844Y-29442126D01*
X66299421Y-29441874D01*
X66207600Y-29479814D01*
X66207600Y-28643000D01*
X66167515Y-28441479D01*
X66138221Y-28397637D01*
X66053362Y-28270637D01*
X65672364Y-27889640D01*
X65672362Y-27889637D01*
X63413600Y-25630876D01*
X63413600Y-19880000D01*
X63373515Y-19678479D01*
X63259363Y-19507638D01*
X62651600Y-18899876D01*
X62651600Y-18327497D01*
X62828425Y-18504630D01*
X63113167Y-18622865D01*
X63421481Y-18623134D01*
X63706429Y-18505396D01*
X63924630Y-18287575D01*
X64042865Y-18002833D01*
X64043134Y-17694519D01*
X63925396Y-17409571D01*
X63707575Y-17191370D01*
X63512000Y-17110160D01*
X63512000Y-11966423D01*
X71424243Y-11966423D01*
X72088893Y-13575001D01*
X73318526Y-14806782D01*
X74925941Y-15474239D01*
X76666423Y-15475757D01*
X78275001Y-14811107D01*
X79506782Y-13581474D01*
X80174239Y-11974059D01*
X80175757Y-10233577D01*
X79511107Y-8624999D01*
X78281474Y-7393218D01*
X76674059Y-6725761D01*
X74933577Y-6724243D01*
X73324999Y-7388893D01*
X72093218Y-8618526D01*
X71425761Y-10225941D01*
X71424243Y-11966423D01*
X63512000Y-11966423D01*
X63512000Y-10990005D01*
X63512001Y-10990000D01*
X63464425Y-10750823D01*
X63328942Y-10548058D01*
X63328939Y-10548056D01*
X62693942Y-9913058D01*
X59772942Y-6992058D01*
X59570177Y-6856575D01*
X59331000Y-6809000D01*
X56791005Y-6809000D01*
X56791000Y-6808999D01*
X56551823Y-6856575D01*
X56349058Y-6992058D01*
X56349056Y-6992061D01*
X52666058Y-10675058D01*
X52530575Y-10877823D01*
X52483000Y-11117000D01*
X52483000Y-12092604D01*
X52363844Y-12043126D01*
X52075421Y-12042874D01*
X51808857Y-12153016D01*
X51604733Y-12356784D01*
X51494126Y-12623156D01*
X51493874Y-12911579D01*
X51604016Y-13178143D01*
X51807784Y-13382267D01*
X51946400Y-13439825D01*
X51946400Y-16976792D01*
X48807792Y-20115400D01*
X42275906Y-20115400D01*
X42276126Y-19863421D01*
X42165984Y-19596857D01*
X41962216Y-19392733D01*
X41695844Y-19282126D01*
X41407421Y-19281874D01*
X41140857Y-19392016D01*
X40936733Y-19595784D01*
X40826126Y-19862156D01*
X40825905Y-20115400D01*
X24624125Y-20115400D01*
X21448018Y-16939294D01*
X21448126Y-16815421D01*
X21337984Y-16548857D01*
X21134216Y-16344733D01*
X20867844Y-16234126D01*
X20579421Y-16233874D01*
X20312857Y-16344016D01*
X20108733Y-16547784D01*
X19998126Y-16814156D01*
X19997874Y-17102579D01*
X20108016Y-17369143D01*
X20170370Y-17431606D01*
X20066370Y-17535425D01*
X19948135Y-17820167D01*
X19947866Y-18128481D01*
X20065604Y-18413429D01*
X20283425Y-18631630D01*
X20568167Y-18749865D01*
X20614021Y-18749905D01*
X23583058Y-21718942D01*
X23785822Y-21854425D01*
X24025000Y-21902000D01*
X24951119Y-21902000D01*
X24950874Y-22182579D01*
X25061016Y-22449143D01*
X25264784Y-22653267D01*
X25531156Y-22763874D01*
X25819579Y-22764126D01*
X26086143Y-22653984D01*
X26290267Y-22450216D01*
X26295090Y-22438600D01*
X46900660Y-22438600D01*
X46905016Y-22449143D01*
X47108784Y-22653267D01*
X47375156Y-22763874D01*
X47663579Y-22764126D01*
X47930143Y-22653984D01*
X48134267Y-22450216D01*
X48244874Y-22183844D01*
X48245120Y-21902000D01*
X49171000Y-21902000D01*
X49410177Y-21854425D01*
X49612942Y-21718942D01*
X53216400Y-18115484D01*
X53216400Y-18772875D01*
X40162638Y-31826638D01*
X40048485Y-31997479D01*
X40008400Y-32199000D01*
X40008400Y-32335270D01*
X39920733Y-32422784D01*
X39810126Y-32689156D01*
X39809874Y-32977579D01*
X39920016Y-33244143D01*
X40123784Y-33448267D01*
X40171991Y-33468284D01*
X40127638Y-33512638D01*
X40013485Y-33683479D01*
X39973400Y-33885000D01*
X39973400Y-34875000D01*
X27064725Y-34875000D01*
X24297600Y-32107876D01*
X24297600Y-25722000D01*
X24257515Y-25520479D01*
X24143363Y-25349638D01*
X23843789Y-25050064D01*
X23914579Y-25050126D01*
X24111356Y-24968820D01*
X27191271Y-28048735D01*
X27110126Y-28244156D01*
X27109874Y-28532579D01*
X27220016Y-28799143D01*
X27423784Y-29003267D01*
X27690156Y-29113874D01*
X27978579Y-29114126D01*
X28245143Y-29003984D01*
X28449267Y-28800216D01*
X28469284Y-28752009D01*
X32570982Y-32853707D01*
X32570874Y-32977579D01*
X32681016Y-33244143D01*
X32884784Y-33448267D01*
X33151156Y-33558874D01*
X33439579Y-33559126D01*
X33706143Y-33448984D01*
X33910267Y-33245216D01*
X34020874Y-32978844D01*
X34021126Y-32690421D01*
X33910984Y-32423857D01*
X33707216Y-32219733D01*
X33440844Y-32109126D01*
X33315742Y-32109017D01*
X23254362Y-22047638D01*
X23083521Y-21933485D01*
X23069012Y-21930599D01*
X22882000Y-21893400D01*
X21729730Y-21893400D01*
X21642216Y-21805733D01*
X21375844Y-21695126D01*
X21087421Y-21694874D01*
X20820857Y-21805016D01*
X20616733Y-22008784D01*
X20506126Y-22275156D01*
X20505874Y-22563579D01*
X20616016Y-22830143D01*
X20819784Y-23034267D01*
X20938905Y-23083730D01*
X20870733Y-23151784D01*
X20760126Y-23418156D01*
X20759874Y-23706579D01*
X20870016Y-23973143D01*
X20958400Y-24061681D01*
X20958400Y-24071000D01*
X20994101Y-24250479D01*
X20998485Y-24272521D01*
X21112638Y-24443362D01*
X22010867Y-25341592D01*
X21963857Y-25361016D01*
X21759733Y-25564784D01*
X21649126Y-25831156D01*
X21648874Y-26119579D01*
X21666762Y-26162872D01*
X21455857Y-26250016D01*
X21251733Y-26453784D01*
X21141126Y-26720156D01*
X21141078Y-26775032D01*
X20960421Y-26774874D01*
X20693857Y-26885016D01*
X20489733Y-27088784D01*
X20477513Y-27118214D01*
X20372216Y-27012733D01*
X20105844Y-26902126D01*
X19817421Y-26901874D01*
X19550857Y-27012016D01*
X19346733Y-27215784D01*
X19236126Y-27482156D01*
X19235974Y-27656298D01*
X19220485Y-27679479D01*
X19180400Y-27881000D01*
X19180400Y-29241184D01*
X19042857Y-29298016D01*
X18838733Y-29501784D01*
X18728126Y-29768156D01*
X18727874Y-30056579D01*
X18838016Y-30323143D01*
X19041784Y-30527267D01*
X19308156Y-30637874D01*
X19596579Y-30638126D01*
X19653400Y-30614648D01*
X19653400Y-34875000D01*
X500000Y-34875000D01*
X500000Y-11966423D01*
X2024243Y-11966423D01*
X2688893Y-13575001D01*
X3918526Y-14806782D01*
X5525941Y-15474239D01*
X7266423Y-15475757D01*
X8875001Y-14811107D01*
X10106782Y-13581474D01*
X10774239Y-11974059D01*
X10775757Y-10233577D01*
X10111107Y-8624999D01*
X8881474Y-7393218D01*
X7274059Y-6725761D01*
X5533577Y-6724243D01*
X3924999Y-7388893D01*
X2693218Y-8618526D01*
X2025761Y-10225941D01*
X2024243Y-11966423D01*
X500000Y-11966423D01*
X500000Y-500000D01*
X83100000Y-500000D01*
X83100000Y-34875000D01*
X83100000Y-34875000D01*
G37*
X83100000Y-34875000D02*
X72657725Y-34875000D01*
X68030671Y-30247947D01*
X68056874Y-30184844D01*
X68057126Y-29896421D01*
X67946984Y-29629857D01*
X67743216Y-29425733D01*
X67476844Y-29315126D01*
X67188421Y-29314874D01*
X66921857Y-29425016D01*
X66811631Y-29535050D01*
X66587844Y-29442126D01*
X66299421Y-29441874D01*
X66207600Y-29479814D01*
X66207600Y-28643000D01*
X66167515Y-28441479D01*
X66138221Y-28397637D01*
X66053362Y-28270637D01*
X65672364Y-27889640D01*
X65672362Y-27889637D01*
X63413600Y-25630876D01*
X63413600Y-19880000D01*
X63373515Y-19678479D01*
X63259363Y-19507638D01*
X62651600Y-18899876D01*
X62651600Y-18327497D01*
X62828425Y-18504630D01*
X63113167Y-18622865D01*
X63421481Y-18623134D01*
X63706429Y-18505396D01*
X63924630Y-18287575D01*
X64042865Y-18002833D01*
X64043134Y-17694519D01*
X63925396Y-17409571D01*
X63707575Y-17191370D01*
X63512000Y-17110160D01*
X63512000Y-11966423D01*
X71424243Y-11966423D01*
X72088893Y-13575001D01*
X73318526Y-14806782D01*
X74925941Y-15474239D01*
X76666423Y-15475757D01*
X78275001Y-14811107D01*
X79506782Y-13581474D01*
X80174239Y-11974059D01*
X80175757Y-10233577D01*
X79511107Y-8624999D01*
X78281474Y-7393218D01*
X76674059Y-6725761D01*
X74933577Y-6724243D01*
X73324999Y-7388893D01*
X72093218Y-8618526D01*
X71425761Y-10225941D01*
X71424243Y-11966423D01*
X63512000Y-11966423D01*
X63512000Y-10990005D01*
X63512001Y-10990000D01*
X63464425Y-10750823D01*
X63328942Y-10548058D01*
X63328939Y-10548056D01*
X62693942Y-9913058D01*
X59772942Y-6992058D01*
X59570177Y-6856575D01*
X59331000Y-6809000D01*
X56791005Y-6809000D01*
X56791000Y-6808999D01*
X56551823Y-6856575D01*
X56349058Y-6992058D01*
X56349056Y-6992061D01*
X52666058Y-10675058D01*
X52530575Y-10877823D01*
X52483000Y-11117000D01*
X52483000Y-12092604D01*
X52363844Y-12043126D01*
X52075421Y-12042874D01*
X51808857Y-12153016D01*
X51604733Y-12356784D01*
X51494126Y-12623156D01*
X51493874Y-12911579D01*
X51604016Y-13178143D01*
X51807784Y-13382267D01*
X51946400Y-13439825D01*
X51946400Y-16976792D01*
X48807792Y-20115400D01*
X42275906Y-20115400D01*
X42276126Y-19863421D01*
X42165984Y-19596857D01*
X41962216Y-19392733D01*
X41695844Y-19282126D01*
X41407421Y-19281874D01*
X41140857Y-19392016D01*
X40936733Y-19595784D01*
X40826126Y-19862156D01*
X40825905Y-20115400D01*
X24624125Y-20115400D01*
X21448018Y-16939294D01*
X21448126Y-16815421D01*
X21337984Y-16548857D01*
X21134216Y-16344733D01*
X20867844Y-16234126D01*
X20579421Y-16233874D01*
X20312857Y-16344016D01*
X20108733Y-16547784D01*
X19998126Y-16814156D01*
X19997874Y-17102579D01*
X20108016Y-17369143D01*
X20170370Y-17431606D01*
X20066370Y-17535425D01*
X19948135Y-17820167D01*
X19947866Y-18128481D01*
X20065604Y-18413429D01*
X20283425Y-18631630D01*
X20568167Y-18749865D01*
X20614021Y-18749905D01*
X23583058Y-21718942D01*
X23785822Y-21854425D01*
X24025000Y-21902000D01*
X24951119Y-21902000D01*
X24950874Y-22182579D01*
X25061016Y-22449143D01*
X25264784Y-22653267D01*
X25531156Y-22763874D01*
X25819579Y-22764126D01*
X26086143Y-22653984D01*
X26290267Y-22450216D01*
X26295090Y-22438600D01*
X46900660Y-22438600D01*
X46905016Y-22449143D01*
X47108784Y-22653267D01*
X47375156Y-22763874D01*
X47663579Y-22764126D01*
X47930143Y-22653984D01*
X48134267Y-22450216D01*
X48244874Y-22183844D01*
X48245120Y-21902000D01*
X49171000Y-21902000D01*
X49410177Y-21854425D01*
X49612942Y-21718942D01*
X53216400Y-18115484D01*
X53216400Y-18772875D01*
X40162638Y-31826638D01*
X40048485Y-31997479D01*
X40008400Y-32199000D01*
X40008400Y-32335270D01*
X39920733Y-32422784D01*
X39810126Y-32689156D01*
X39809874Y-32977579D01*
X39920016Y-33244143D01*
X40123784Y-33448267D01*
X40171991Y-33468284D01*
X40127638Y-33512638D01*
X40013485Y-33683479D01*
X39973400Y-33885000D01*
X39973400Y-34875000D01*
X27064725Y-34875000D01*
X24297600Y-32107876D01*
X24297600Y-25722000D01*
X24257515Y-25520479D01*
X24143363Y-25349638D01*
X23843789Y-25050064D01*
X23914579Y-25050126D01*
X24111356Y-24968820D01*
X27191271Y-28048735D01*
X27110126Y-28244156D01*
X27109874Y-28532579D01*
X27220016Y-28799143D01*
X27423784Y-29003267D01*
X27690156Y-29113874D01*
X27978579Y-29114126D01*
X28245143Y-29003984D01*
X28449267Y-28800216D01*
X28469284Y-28752009D01*
X32570982Y-32853707D01*
X32570874Y-32977579D01*
X32681016Y-33244143D01*
X32884784Y-33448267D01*
X33151156Y-33558874D01*
X33439579Y-33559126D01*
X33706143Y-33448984D01*
X33910267Y-33245216D01*
X34020874Y-32978844D01*
X34021126Y-32690421D01*
X33910984Y-32423857D01*
X33707216Y-32219733D01*
X33440844Y-32109126D01*
X33315742Y-32109017D01*
X23254362Y-22047638D01*
X23083521Y-21933485D01*
X23069012Y-21930599D01*
X22882000Y-21893400D01*
X21729730Y-21893400D01*
X21642216Y-21805733D01*
X21375844Y-21695126D01*
X21087421Y-21694874D01*
X20820857Y-21805016D01*
X20616733Y-22008784D01*
X20506126Y-22275156D01*
X20505874Y-22563579D01*
X20616016Y-22830143D01*
X20819784Y-23034267D01*
X20938905Y-23083730D01*
X20870733Y-23151784D01*
X20760126Y-23418156D01*
X20759874Y-23706579D01*
X20870016Y-23973143D01*
X20958400Y-24061681D01*
X20958400Y-24071000D01*
X20994101Y-24250479D01*
X20998485Y-24272521D01*
X21112638Y-24443362D01*
X22010867Y-25341592D01*
X21963857Y-25361016D01*
X21759733Y-25564784D01*
X21649126Y-25831156D01*
X21648874Y-26119579D01*
X21666762Y-26162872D01*
X21455857Y-26250016D01*
X21251733Y-26453784D01*
X21141126Y-26720156D01*
X21141078Y-26775032D01*
X20960421Y-26774874D01*
X20693857Y-26885016D01*
X20489733Y-27088784D01*
X20477513Y-27118214D01*
X20372216Y-27012733D01*
X20105844Y-26902126D01*
X19817421Y-26901874D01*
X19550857Y-27012016D01*
X19346733Y-27215784D01*
X19236126Y-27482156D01*
X19235974Y-27656298D01*
X19220485Y-27679479D01*
X19180400Y-27881000D01*
X19180400Y-29241184D01*
X19042857Y-29298016D01*
X18838733Y-29501784D01*
X18728126Y-29768156D01*
X18727874Y-30056579D01*
X18838016Y-30323143D01*
X19041784Y-30527267D01*
X19308156Y-30637874D01*
X19596579Y-30638126D01*
X19653400Y-30614648D01*
X19653400Y-34875000D01*
X500000Y-34875000D01*
X500000Y-11966423D01*
X2024243Y-11966423D01*
X2688893Y-13575001D01*
X3918526Y-14806782D01*
X5525941Y-15474239D01*
X7266423Y-15475757D01*
X8875001Y-14811107D01*
X10106782Y-13581474D01*
X10774239Y-11974059D01*
X10775757Y-10233577D01*
X10111107Y-8624999D01*
X8881474Y-7393218D01*
X7274059Y-6725761D01*
X5533577Y-6724243D01*
X3924999Y-7388893D01*
X2693218Y-8618526D01*
X2025761Y-10225941D01*
X2024243Y-11966423D01*
X500000Y-11966423D01*
X500000Y-500000D01*
X83100000Y-500000D01*
X83100000Y-34875000D01*
G36*
X21720400Y-30585709D02*
X21455857Y-30695016D01*
X21251733Y-30898784D01*
X21141126Y-31165156D01*
X21140874Y-31453579D01*
X21251016Y-31720143D01*
X21454784Y-31924267D01*
X21721156Y-32034874D01*
X22009579Y-32035126D01*
X22193400Y-31959173D01*
X22193400Y-34875000D01*
X20706600Y-34875000D01*
X20706600Y-28642124D01*
X21123707Y-28225018D01*
X21247579Y-28225126D01*
X21514143Y-28114984D01*
X21718267Y-27911216D01*
X21720400Y-27906079D01*
X21720400Y-30585709D01*
X21720400Y-30585709D01*
G37*
X21720400Y-30585709D02*
X21455857Y-30695016D01*
X21251733Y-30898784D01*
X21141126Y-31165156D01*
X21140874Y-31453579D01*
X21251016Y-31720143D01*
X21454784Y-31924267D01*
X21721156Y-32034874D01*
X22009579Y-32035126D01*
X22193400Y-31959173D01*
X22193400Y-34875000D01*
X20706600Y-34875000D01*
X20706600Y-28642124D01*
X21123707Y-28225018D01*
X21247579Y-28225126D01*
X21514143Y-28114984D01*
X21718267Y-27911216D01*
X21720400Y-27906079D01*
X21720400Y-30585709D01*
G36*
X24733400Y-34668125D02*
X24733400Y-34875000D01*
X23246600Y-34875000D01*
X23246600Y-33181324D01*
X24733400Y-34668125D01*
X24733400Y-34668125D01*
G37*
X24733400Y-34668125D02*
X24733400Y-34875000D01*
X23246600Y-34875000D01*
X23246600Y-33181324D01*
X24733400Y-34668125D01*
G36*
X44580400Y-32869876D02*
X42702638Y-34747638D01*
X42617537Y-34875000D01*
X41026600Y-34875000D01*
X41026600Y-34103124D01*
X41669362Y-33460363D01*
X41783515Y-33289521D01*
X41792541Y-33244143D01*
X41823600Y-33088000D01*
X41823600Y-32290124D01*
X44580400Y-29533324D01*
X44580400Y-32869876D01*
X44580400Y-32869876D01*
G37*
X44580400Y-32869876D02*
X42702638Y-34747638D01*
X42617537Y-34875000D01*
X41026600Y-34875000D01*
X41026600Y-34103124D01*
X41669362Y-33460363D01*
X41783515Y-33289521D01*
X41792541Y-33244143D01*
X41823600Y-33088000D01*
X41823600Y-32290124D01*
X44580400Y-29533324D01*
X44580400Y-32869876D01*
G36*
X56264400Y-20515000D02*
X56287944Y-20633362D01*
X56304485Y-20716521D01*
X56418638Y-20887362D01*
X57153400Y-21622125D01*
X57153400Y-24452000D01*
X57193485Y-24653521D01*
X57307638Y-24824362D01*
X59566400Y-27083125D01*
X59566400Y-32843270D01*
X59478733Y-32930784D01*
X59368126Y-33197156D01*
X59367874Y-33485579D01*
X59478016Y-33752143D01*
X59681784Y-33956267D01*
X59948156Y-34066874D01*
X60201400Y-34067095D01*
X60201400Y-34875000D01*
X44064724Y-34875000D01*
X44943459Y-33996265D01*
X45000016Y-34133143D01*
X45203784Y-34337267D01*
X45470156Y-34447874D01*
X45758579Y-34448126D01*
X46025143Y-34337984D01*
X46229267Y-34134216D01*
X46339874Y-33867844D01*
X46340126Y-33579421D01*
X46229984Y-33312857D01*
X46141600Y-33224319D01*
X46141600Y-29242124D01*
X52454400Y-22929325D01*
X52454400Y-30837875D01*
X50675294Y-32616982D01*
X50551421Y-32616874D01*
X50284857Y-32727016D01*
X50080733Y-32930784D01*
X49970126Y-33197156D01*
X49969874Y-33485579D01*
X50080016Y-33752143D01*
X50283784Y-33956267D01*
X50550156Y-34066874D01*
X50838579Y-34067126D01*
X51105143Y-33956984D01*
X51309267Y-33753216D01*
X51419874Y-33486844D01*
X51419983Y-33361741D01*
X53235000Y-31546725D01*
X55207437Y-33519162D01*
X55160733Y-33565784D01*
X55050126Y-33832156D01*
X55049874Y-34120579D01*
X55160016Y-34387143D01*
X55363784Y-34591267D01*
X55630156Y-34701874D01*
X55918579Y-34702126D01*
X56185143Y-34591984D01*
X56389267Y-34388216D01*
X56499874Y-34121844D01*
X56500126Y-33833421D01*
X56389984Y-33566857D01*
X56301600Y-33478319D01*
X56301600Y-33342000D01*
X56261515Y-33140479D01*
X56238878Y-33106600D01*
X56147362Y-32969637D01*
X54015600Y-30837876D01*
X54015600Y-22638124D01*
X54623363Y-22030362D01*
X54623365Y-22030359D01*
X56264400Y-20389324D01*
X56264400Y-20515000D01*
X56264400Y-20515000D01*
G37*
X56264400Y-20515000D02*
X56287944Y-20633362D01*
X56304485Y-20716521D01*
X56418638Y-20887362D01*
X57153400Y-21622125D01*
X57153400Y-24452000D01*
X57193485Y-24653521D01*
X57307638Y-24824362D01*
X59566400Y-27083125D01*
X59566400Y-32843270D01*
X59478733Y-32930784D01*
X59368126Y-33197156D01*
X59367874Y-33485579D01*
X59478016Y-33752143D01*
X59681784Y-33956267D01*
X59948156Y-34066874D01*
X60201400Y-34067095D01*
X60201400Y-34875000D01*
X44064724Y-34875000D01*
X44943459Y-33996265D01*
X45000016Y-34133143D01*
X45203784Y-34337267D01*
X45470156Y-34447874D01*
X45758579Y-34448126D01*
X46025143Y-34337984D01*
X46229267Y-34134216D01*
X46339874Y-33867844D01*
X46340126Y-33579421D01*
X46229984Y-33312857D01*
X46141600Y-33224319D01*
X46141600Y-29242124D01*
X52454400Y-22929325D01*
X52454400Y-30837875D01*
X50675294Y-32616982D01*
X50551421Y-32616874D01*
X50284857Y-32727016D01*
X50080733Y-32930784D01*
X49970126Y-33197156D01*
X49969874Y-33485579D01*
X50080016Y-33752143D01*
X50283784Y-33956267D01*
X50550156Y-34066874D01*
X50838579Y-34067126D01*
X51105143Y-33956984D01*
X51309267Y-33753216D01*
X51419874Y-33486844D01*
X51419983Y-33361741D01*
X53235000Y-31546725D01*
X55207437Y-33519162D01*
X55160733Y-33565784D01*
X55050126Y-33832156D01*
X55049874Y-34120579D01*
X55160016Y-34387143D01*
X55363784Y-34591267D01*
X55630156Y-34701874D01*
X55918579Y-34702126D01*
X56185143Y-34591984D01*
X56389267Y-34388216D01*
X56499874Y-34121844D01*
X56500126Y-33833421D01*
X56389984Y-33566857D01*
X56301600Y-33478319D01*
X56301600Y-33342000D01*
X56261515Y-33140479D01*
X56238878Y-33106600D01*
X56147362Y-32969637D01*
X54015600Y-30837876D01*
X54015600Y-22638124D01*
X54623363Y-22030362D01*
X54623365Y-22030359D01*
X56264400Y-20389324D01*
X56264400Y-20515000D01*
G36*
X62514638Y-28126363D02*
X62514641Y-28126365D01*
X63403638Y-29015363D01*
X63403641Y-29015365D01*
X63630400Y-29242125D01*
X63630400Y-30929000D01*
X63666101Y-31108479D01*
X63670485Y-31130521D01*
X63784638Y-31301362D01*
X64773400Y-32290125D01*
X64773400Y-33215000D01*
X64813262Y-33415400D01*
X64813485Y-33416521D01*
X64927638Y-33587362D01*
X65373400Y-34033125D01*
X65373400Y-34875000D01*
X63840849Y-34875000D01*
X63776384Y-34778521D01*
X63732363Y-34712638D01*
X61762600Y-32742876D01*
X61762600Y-27374325D01*
X62514638Y-28126363D01*
X62514638Y-28126363D01*
G37*
X62514638Y-28126363D02*
X62514641Y-28126365D01*
X63403638Y-29015363D01*
X63403641Y-29015365D01*
X63630400Y-29242125D01*
X63630400Y-30929000D01*
X63666101Y-31108479D01*
X63670485Y-31130521D01*
X63784638Y-31301362D01*
X64773400Y-32290125D01*
X64773400Y-33215000D01*
X64813262Y-33415400D01*
X64813485Y-33416521D01*
X64927638Y-33587362D01*
X65373400Y-34033125D01*
X65373400Y-34875000D01*
X63840849Y-34875000D01*
X63776384Y-34778521D01*
X63732363Y-34712638D01*
X61762600Y-32742876D01*
X61762600Y-27374325D01*
X62514638Y-28126363D01*
G36*
X61810058Y-10796942D02*
X62262000Y-11248883D01*
X62262000Y-12727604D01*
X62142844Y-12678126D01*
X61854421Y-12677874D01*
X61587857Y-12788016D01*
X61383733Y-12991784D01*
X61273126Y-13258156D01*
X61273017Y-13383259D01*
X61117638Y-13538638D01*
X61003485Y-13709479D01*
X60963400Y-13911000D01*
X60963400Y-25085676D01*
X59730600Y-23852876D01*
X59730600Y-19245000D01*
X59690515Y-19043479D01*
X59674922Y-19020143D01*
X59576363Y-18872638D01*
X59294018Y-18590293D01*
X59294126Y-18466421D01*
X59183984Y-18199857D01*
X58980216Y-17995733D01*
X58713844Y-17885126D01*
X58425421Y-17884874D01*
X58158857Y-17995016D01*
X57954733Y-18198784D01*
X57844126Y-18465156D01*
X57843874Y-18753579D01*
X57954016Y-19020143D01*
X58157784Y-19224267D01*
X58424156Y-19334874D01*
X58549259Y-19334983D01*
X58623322Y-19409047D01*
X58425421Y-19408874D01*
X58158857Y-19519016D01*
X57954733Y-19722784D01*
X57942513Y-19752214D01*
X57837216Y-19646733D01*
X57570844Y-19536126D01*
X57317600Y-19535905D01*
X57317600Y-13387340D01*
X57328143Y-13382984D01*
X57532267Y-13179216D01*
X57642874Y-12912844D01*
X57643126Y-12624421D01*
X57532984Y-12357857D01*
X57329216Y-12153733D01*
X57101533Y-12059191D01*
X57136125Y-12024600D01*
X57181270Y-12024600D01*
X57268784Y-12112267D01*
X57535156Y-12222874D01*
X57823579Y-12223126D01*
X58090143Y-12112984D01*
X58294267Y-11909216D01*
X58404874Y-11642844D01*
X58405126Y-11354421D01*
X58294984Y-11087857D01*
X58091216Y-10883733D01*
X57951951Y-10825905D01*
X58204579Y-10826126D01*
X58471143Y-10715984D01*
X58675267Y-10512216D01*
X58785874Y-10245844D01*
X58786126Y-9957421D01*
X58675984Y-9690857D01*
X58472216Y-9486733D01*
X58263246Y-9399961D01*
X58421267Y-9242216D01*
X58531874Y-8975844D01*
X58531922Y-8921079D01*
X58585579Y-8921126D01*
X58852143Y-8810984D01*
X59056267Y-8607216D01*
X59166874Y-8340844D01*
X59167037Y-8153921D01*
X61810058Y-10796942D01*
X61810058Y-10796942D01*
G37*
X61810058Y-10796942D02*
X62262000Y-11248883D01*
X62262000Y-12727604D01*
X62142844Y-12678126D01*
X61854421Y-12677874D01*
X61587857Y-12788016D01*
X61383733Y-12991784D01*
X61273126Y-13258156D01*
X61273017Y-13383259D01*
X61117638Y-13538638D01*
X61003485Y-13709479D01*
X60963400Y-13911000D01*
X60963400Y-25085676D01*
X59730600Y-23852876D01*
X59730600Y-19245000D01*
X59690515Y-19043479D01*
X59674922Y-19020143D01*
X59576363Y-18872638D01*
X59294018Y-18590293D01*
X59294126Y-18466421D01*
X59183984Y-18199857D01*
X58980216Y-17995733D01*
X58713844Y-17885126D01*
X58425421Y-17884874D01*
X58158857Y-17995016D01*
X57954733Y-18198784D01*
X57844126Y-18465156D01*
X57843874Y-18753579D01*
X57954016Y-19020143D01*
X58157784Y-19224267D01*
X58424156Y-19334874D01*
X58549259Y-19334983D01*
X58623322Y-19409047D01*
X58425421Y-19408874D01*
X58158857Y-19519016D01*
X57954733Y-19722784D01*
X57942513Y-19752214D01*
X57837216Y-19646733D01*
X57570844Y-19536126D01*
X57317600Y-19535905D01*
X57317600Y-13387340D01*
X57328143Y-13382984D01*
X57532267Y-13179216D01*
X57642874Y-12912844D01*
X57643126Y-12624421D01*
X57532984Y-12357857D01*
X57329216Y-12153733D01*
X57101533Y-12059191D01*
X57136125Y-12024600D01*
X57181270Y-12024600D01*
X57268784Y-12112267D01*
X57535156Y-12222874D01*
X57823579Y-12223126D01*
X58090143Y-12112984D01*
X58294267Y-11909216D01*
X58404874Y-11642844D01*
X58405126Y-11354421D01*
X58294984Y-11087857D01*
X58091216Y-10883733D01*
X57951951Y-10825905D01*
X58204579Y-10826126D01*
X58471143Y-10715984D01*
X58675267Y-10512216D01*
X58785874Y-10245844D01*
X58786126Y-9957421D01*
X58675984Y-9690857D01*
X58472216Y-9486733D01*
X58263246Y-9399961D01*
X58421267Y-9242216D01*
X58531874Y-8975844D01*
X58531922Y-8921079D01*
X58585579Y-8921126D01*
X58852143Y-8810984D01*
X59056267Y-8607216D01*
X59166874Y-8340844D01*
X59167037Y-8153921D01*
X61810058Y-10796942D01*
M02*
