G04 #@! TF.FileFunction,Soldermask,Bot*
%FSLAX46Y46*%
G04 Gerber Fmt 4.6, Leading zero omitted, Abs format (unit mm)*
G04 Created by KiCad (PCBNEW 4.0.7) date 07/02/21 11:45:22*
%MOMM*%
%LPD*%
G01*
G04 APERTURE LIST*
%ADD10C,0.200000*%
%ADD11C,0.300000*%
%ADD12R,1.800000X6.200000*%
%ADD13C,6.300000*%
%ADD14C,0.254000*%
G04 APERTURE END LIST*
D10*
D11*
X52241428Y-2787143D02*
X52027142Y-2858571D01*
X51669999Y-2858571D01*
X51527142Y-2787143D01*
X51455713Y-2715714D01*
X51384285Y-2572857D01*
X51384285Y-2430000D01*
X51455713Y-2287143D01*
X51527142Y-2215714D01*
X51669999Y-2144286D01*
X51955713Y-2072857D01*
X52098571Y-2001429D01*
X52169999Y-1930000D01*
X52241428Y-1787143D01*
X52241428Y-1644286D01*
X52169999Y-1501429D01*
X52098571Y-1430000D01*
X51955713Y-1358571D01*
X51598571Y-1358571D01*
X51384285Y-1430000D01*
X50455714Y-2144286D02*
X50455714Y-2858571D01*
X50955714Y-1358571D02*
X50455714Y-2144286D01*
X49955714Y-1358571D01*
X49527143Y-2787143D02*
X49312857Y-2858571D01*
X48955714Y-2858571D01*
X48812857Y-2787143D01*
X48741428Y-2715714D01*
X48670000Y-2572857D01*
X48670000Y-2430000D01*
X48741428Y-2287143D01*
X48812857Y-2215714D01*
X48955714Y-2144286D01*
X49241428Y-2072857D01*
X49384286Y-2001429D01*
X49455714Y-1930000D01*
X49527143Y-1787143D01*
X49527143Y-1644286D01*
X49455714Y-1501429D01*
X49384286Y-1430000D01*
X49241428Y-1358571D01*
X48884286Y-1358571D01*
X48670000Y-1430000D01*
X48241429Y-1358571D02*
X47384286Y-1358571D01*
X47812857Y-2858571D02*
X47812857Y-1358571D01*
X46884286Y-2072857D02*
X46384286Y-2072857D01*
X46170000Y-2858571D02*
X46884286Y-2858571D01*
X46884286Y-1358571D01*
X46170000Y-1358571D01*
X45527143Y-2858571D02*
X45527143Y-1358571D01*
X45027143Y-2430000D01*
X44527143Y-1358571D01*
X44527143Y-2858571D01*
X42170000Y-2072857D02*
X42670000Y-2072857D01*
X42670000Y-2858571D02*
X42670000Y-1358571D01*
X41955714Y-1358571D01*
X40527143Y-2858571D02*
X41027143Y-2144286D01*
X41384286Y-2858571D02*
X41384286Y-1358571D01*
X40812858Y-1358571D01*
X40670000Y-1430000D01*
X40598572Y-1501429D01*
X40527143Y-1644286D01*
X40527143Y-1858571D01*
X40598572Y-2001429D01*
X40670000Y-2072857D01*
X40812858Y-2144286D01*
X41384286Y-2144286D01*
X39598572Y-1358571D02*
X39312858Y-1358571D01*
X39170000Y-1430000D01*
X39027143Y-1572857D01*
X38955715Y-1858571D01*
X38955715Y-2358571D01*
X39027143Y-2644286D01*
X39170000Y-2787143D01*
X39312858Y-2858571D01*
X39598572Y-2858571D01*
X39741429Y-2787143D01*
X39884286Y-2644286D01*
X39955715Y-2358571D01*
X39955715Y-1858571D01*
X39884286Y-1572857D01*
X39741429Y-1430000D01*
X39598572Y-1358571D01*
X38312857Y-2858571D02*
X38312857Y-1358571D01*
X37455714Y-2858571D01*
X37455714Y-1358571D01*
X36955714Y-1358571D02*
X36098571Y-1358571D01*
X36527142Y-2858571D02*
X36527142Y-1358571D01*
X34527143Y-2787143D02*
X34312857Y-2858571D01*
X33955714Y-2858571D01*
X33812857Y-2787143D01*
X33741428Y-2715714D01*
X33670000Y-2572857D01*
X33670000Y-2430000D01*
X33741428Y-2287143D01*
X33812857Y-2215714D01*
X33955714Y-2144286D01*
X34241428Y-2072857D01*
X34384286Y-2001429D01*
X34455714Y-1930000D01*
X34527143Y-1787143D01*
X34527143Y-1644286D01*
X34455714Y-1501429D01*
X34384286Y-1430000D01*
X34241428Y-1358571D01*
X33884286Y-1358571D01*
X33670000Y-1430000D01*
X33027143Y-2858571D02*
X33027143Y-1358571D01*
X32312857Y-2858571D02*
X32312857Y-1358571D01*
X31955714Y-1358571D01*
X31741429Y-1430000D01*
X31598571Y-1572857D01*
X31527143Y-1715714D01*
X31455714Y-2001429D01*
X31455714Y-2215714D01*
X31527143Y-2501429D01*
X31598571Y-2644286D01*
X31741429Y-2787143D01*
X31955714Y-2858571D01*
X32312857Y-2858571D01*
X30812857Y-2072857D02*
X30312857Y-2072857D01*
X30098571Y-2858571D02*
X30812857Y-2858571D01*
X30812857Y-1358571D01*
X30098571Y-1358571D01*
D12*
X81140000Y-36000000D03*
X78600000Y-36000000D03*
X76060000Y-36000000D03*
X73520000Y-36000000D03*
X70980000Y-36000000D03*
X68440000Y-36000000D03*
X65900000Y-36000000D03*
X63360000Y-36000000D03*
X60820000Y-36000000D03*
X58280000Y-36000000D03*
X55740000Y-36000000D03*
X53200000Y-36000000D03*
X50660000Y-36000000D03*
X48120000Y-36000000D03*
X45580000Y-36000000D03*
X43040000Y-36000000D03*
X40500000Y-36000000D03*
X37960000Y-36000000D03*
X35420000Y-36000000D03*
X32880000Y-36000000D03*
X30340000Y-36000000D03*
X27800000Y-36000000D03*
X25260000Y-36000000D03*
X22720000Y-36000000D03*
X20180000Y-36000000D03*
X17640000Y-36000000D03*
X15100000Y-36000000D03*
X12560000Y-36000000D03*
X10020000Y-36000000D03*
X7480000Y-36000000D03*
X4940000Y-36000000D03*
X2400000Y-36000000D03*
D13*
X6400000Y-6100000D03*
X75800000Y-6100000D03*
D14*
G36*
X83473000Y-39873000D02*
X127000Y-39873000D01*
X127000Y-32827000D01*
X83473000Y-32827000D01*
X83473000Y-39873000D01*
X83473000Y-39873000D01*
G37*
X83473000Y-39873000D02*
X127000Y-39873000D01*
X127000Y-32827000D01*
X83473000Y-32827000D01*
X83473000Y-39873000D01*
M02*
