G04 #@! TF.FileFunction,Legend,Top*
%FSLAX46Y46*%
G04 Gerber Fmt 4.6, Leading zero omitted, Abs format (unit mm)*
G04 Created by KiCad (PCBNEW 4.0.7) date 07/02/21 15:20:09*
%MOMM*%
%LPD*%
G01*
G04 APERTURE LIST*
%ADD10C,0.200000*%
%ADD11C,0.300000*%
%ADD12C,0.150000*%
%ADD13R,3.200000X2.600000*%
%ADD14R,1.700000X1.600000*%
%ADD15R,1.600000X1.700000*%
%ADD16R,1.800000X6.200000*%
%ADD17R,0.450000X2.000000*%
%ADD18R,2.000000X0.450000*%
%ADD19O,2.400000X0.403200*%
%ADD20R,1.500000X2.700000*%
%ADD21R,4.050000X2.800000*%
%ADD22C,6.300000*%
%ADD23C,0.254000*%
G04 APERTURE END LIST*
D10*
D11*
X76574679Y-31086286D02*
X76717536Y-31086286D01*
X76849679Y-31172000D01*
X76910394Y-31257714D01*
X76960394Y-31429143D01*
X76988965Y-31772000D01*
X76935394Y-32200571D01*
X76821108Y-32543429D01*
X76728251Y-32714857D01*
X76646108Y-32800571D01*
X76492536Y-32886286D01*
X76349679Y-32886286D01*
X76217537Y-32800571D01*
X76156822Y-32714857D01*
X76106822Y-32543429D01*
X76078251Y-32200571D01*
X76131822Y-31772000D01*
X76246108Y-31429143D01*
X76338965Y-31257714D01*
X76421108Y-31172000D01*
X76574679Y-31086286D01*
X78003250Y-31086286D02*
X78146107Y-31086286D01*
X78278250Y-31172000D01*
X78338965Y-31257714D01*
X78388965Y-31429143D01*
X78417536Y-31772000D01*
X78363965Y-32200571D01*
X78249679Y-32543429D01*
X78156822Y-32714857D01*
X78074679Y-32800571D01*
X77921107Y-32886286D01*
X77778250Y-32886286D01*
X77646108Y-32800571D01*
X77585393Y-32714857D01*
X77535393Y-32543429D01*
X77506822Y-32200571D01*
X77560393Y-31772000D01*
X77674679Y-31429143D01*
X77767536Y-31257714D01*
X77849679Y-31172000D01*
X78003250Y-31086286D01*
X79706821Y-32886286D02*
X78849678Y-32886286D01*
X79278250Y-32886286D02*
X79503250Y-31086286D01*
X79328250Y-31343429D01*
X79163964Y-31514857D01*
X79010393Y-31600571D01*
X80349678Y-32886286D02*
X80574678Y-31086286D01*
X81146106Y-31086286D01*
X81278250Y-31172000D01*
X81338964Y-31257714D01*
X81388964Y-31429143D01*
X81356821Y-31686286D01*
X81263964Y-31857714D01*
X81181821Y-31943429D01*
X81028249Y-32029143D01*
X80456821Y-32029143D01*
X81981821Y-31257714D02*
X82063964Y-31172000D01*
X82217535Y-31086286D01*
X82574678Y-31086286D01*
X82706821Y-31172000D01*
X82767536Y-31257714D01*
X82817535Y-31429143D01*
X82796107Y-31600571D01*
X82692536Y-31857714D01*
X81706821Y-32886286D01*
X82635392Y-32886286D01*
X1311108Y-32800571D02*
X1514679Y-32886286D01*
X1871822Y-32886286D01*
X2025394Y-32800571D01*
X2107537Y-32714857D01*
X2200393Y-32543429D01*
X2221822Y-32372000D01*
X2171823Y-32200571D01*
X2111108Y-32114857D01*
X1978965Y-32029143D01*
X1703965Y-31943429D01*
X1571822Y-31857714D01*
X1511108Y-31772000D01*
X1461108Y-31600571D01*
X1482536Y-31429143D01*
X1575394Y-31257714D01*
X1657536Y-31172000D01*
X1811108Y-31086286D01*
X2168250Y-31086286D01*
X2371822Y-31172000D01*
X3800393Y-31172000D02*
X3668250Y-31086286D01*
X3453964Y-31086286D01*
X3228965Y-31172000D01*
X3064678Y-31343429D01*
X2971822Y-31514857D01*
X2857536Y-31857714D01*
X2825393Y-32114857D01*
X2853965Y-32457714D01*
X2903964Y-32629143D01*
X3025394Y-32800571D01*
X3228964Y-32886286D01*
X3371821Y-32886286D01*
X3596822Y-32800571D01*
X3678965Y-32714857D01*
X3753965Y-32114857D01*
X3468250Y-32114857D01*
D10*
X1209524Y-36366667D02*
X1685715Y-36366667D01*
X1114286Y-36652381D02*
X1447619Y-35652381D01*
X1780953Y-36652381D01*
X2019048Y-35652381D02*
X2638096Y-35652381D01*
X2304762Y-36033333D01*
X2447620Y-36033333D01*
X2542858Y-36080952D01*
X2590477Y-36128571D01*
X2638096Y-36223810D01*
X2638096Y-36461905D01*
X2590477Y-36557143D01*
X2542858Y-36604762D01*
X2447620Y-36652381D01*
X2161905Y-36652381D01*
X2066667Y-36604762D01*
X2019048Y-36557143D01*
X3019048Y-35747619D02*
X3066667Y-35700000D01*
X3161905Y-35652381D01*
X3400001Y-35652381D01*
X3495239Y-35700000D01*
X3542858Y-35747619D01*
X3590477Y-35842857D01*
X3590477Y-35938095D01*
X3542858Y-36080952D01*
X2971429Y-36652381D01*
X3590477Y-36652381D01*
X21609524Y-36366667D02*
X22085715Y-36366667D01*
X21514286Y-36652381D02*
X21847619Y-35652381D01*
X22180953Y-36652381D01*
X22466667Y-35747619D02*
X22514286Y-35700000D01*
X22609524Y-35652381D01*
X22847620Y-35652381D01*
X22942858Y-35700000D01*
X22990477Y-35747619D01*
X23038096Y-35842857D01*
X23038096Y-35938095D01*
X22990477Y-36080952D01*
X22419048Y-36652381D01*
X23038096Y-36652381D01*
X23895239Y-35985714D02*
X23895239Y-36652381D01*
X23657143Y-35604762D02*
X23419048Y-36319048D01*
X24038096Y-36319048D01*
X41809524Y-36366667D02*
X42285715Y-36366667D01*
X41714286Y-36652381D02*
X42047619Y-35652381D01*
X42380953Y-36652381D01*
X43238096Y-36652381D02*
X42666667Y-36652381D01*
X42952381Y-36652381D02*
X42952381Y-35652381D01*
X42857143Y-35795238D01*
X42761905Y-35890476D01*
X42666667Y-35938095D01*
X44095239Y-35652381D02*
X43904762Y-35652381D01*
X43809524Y-35700000D01*
X43761905Y-35747619D01*
X43666667Y-35890476D01*
X43619048Y-36080952D01*
X43619048Y-36461905D01*
X43666667Y-36557143D01*
X43714286Y-36604762D01*
X43809524Y-36652381D01*
X44000001Y-36652381D01*
X44095239Y-36604762D01*
X44142858Y-36557143D01*
X44190477Y-36461905D01*
X44190477Y-36223810D01*
X44142858Y-36128571D01*
X44095239Y-36080952D01*
X44000001Y-36033333D01*
X43809524Y-36033333D01*
X43714286Y-36080952D01*
X43666667Y-36128571D01*
X43619048Y-36223810D01*
X62685714Y-36366667D02*
X63161905Y-36366667D01*
X62590476Y-36652381D02*
X62923809Y-35652381D01*
X63257143Y-36652381D01*
X63733333Y-36080952D02*
X63638095Y-36033333D01*
X63590476Y-35985714D01*
X63542857Y-35890476D01*
X63542857Y-35842857D01*
X63590476Y-35747619D01*
X63638095Y-35700000D01*
X63733333Y-35652381D01*
X63923810Y-35652381D01*
X64019048Y-35700000D01*
X64066667Y-35747619D01*
X64114286Y-35842857D01*
X64114286Y-35890476D01*
X64066667Y-35985714D01*
X64019048Y-36033333D01*
X63923810Y-36080952D01*
X63733333Y-36080952D01*
X63638095Y-36128571D01*
X63590476Y-36176190D01*
X63542857Y-36271429D01*
X63542857Y-36461905D01*
X63590476Y-36557143D01*
X63638095Y-36604762D01*
X63733333Y-36652381D01*
X63923810Y-36652381D01*
X64019048Y-36604762D01*
X64066667Y-36557143D01*
X64114286Y-36461905D01*
X64114286Y-36271429D01*
X64066667Y-36176190D01*
X64019048Y-36128571D01*
X63923810Y-36080952D01*
X80585714Y-36366667D02*
X81061905Y-36366667D01*
X80490476Y-36652381D02*
X80823809Y-35652381D01*
X81157143Y-36652381D01*
X82014286Y-36652381D02*
X81442857Y-36652381D01*
X81728571Y-36652381D02*
X81728571Y-35652381D01*
X81633333Y-35795238D01*
X81538095Y-35890476D01*
X81442857Y-35938095D01*
D11*
X30685858Y-4358143D02*
X30900144Y-4429571D01*
X31257287Y-4429571D01*
X31400144Y-4358143D01*
X31471573Y-4286714D01*
X31543001Y-4143857D01*
X31543001Y-4001000D01*
X31471573Y-3858143D01*
X31400144Y-3786714D01*
X31257287Y-3715286D01*
X30971573Y-3643857D01*
X30828715Y-3572429D01*
X30757287Y-3501000D01*
X30685858Y-3358143D01*
X30685858Y-3215286D01*
X30757287Y-3072429D01*
X30828715Y-3001000D01*
X30971573Y-2929571D01*
X31328715Y-2929571D01*
X31543001Y-3001000D01*
X32471572Y-3715286D02*
X32471572Y-4429571D01*
X31971572Y-2929571D02*
X32471572Y-3715286D01*
X32971572Y-2929571D01*
X33400143Y-4358143D02*
X33614429Y-4429571D01*
X33971572Y-4429571D01*
X34114429Y-4358143D01*
X34185858Y-4286714D01*
X34257286Y-4143857D01*
X34257286Y-4001000D01*
X34185858Y-3858143D01*
X34114429Y-3786714D01*
X33971572Y-3715286D01*
X33685858Y-3643857D01*
X33543000Y-3572429D01*
X33471572Y-3501000D01*
X33400143Y-3358143D01*
X33400143Y-3215286D01*
X33471572Y-3072429D01*
X33543000Y-3001000D01*
X33685858Y-2929571D01*
X34043000Y-2929571D01*
X34257286Y-3001000D01*
X34685857Y-2929571D02*
X35543000Y-2929571D01*
X35114429Y-4429571D02*
X35114429Y-2929571D01*
X36043000Y-3643857D02*
X36543000Y-3643857D01*
X36757286Y-4429571D02*
X36043000Y-4429571D01*
X36043000Y-2929571D01*
X36757286Y-2929571D01*
X37400143Y-4429571D02*
X37400143Y-2929571D01*
X37900143Y-4001000D01*
X38400143Y-2929571D01*
X38400143Y-4429571D01*
X41114429Y-4429571D02*
X40614429Y-3715286D01*
X40257286Y-4429571D02*
X40257286Y-2929571D01*
X40828714Y-2929571D01*
X40971572Y-3001000D01*
X41043000Y-3072429D01*
X41114429Y-3215286D01*
X41114429Y-3429571D01*
X41043000Y-3572429D01*
X40971572Y-3643857D01*
X40828714Y-3715286D01*
X40257286Y-3715286D01*
X41757286Y-3643857D02*
X42257286Y-3643857D01*
X42471572Y-4429571D02*
X41757286Y-4429571D01*
X41757286Y-2929571D01*
X42471572Y-2929571D01*
X43043000Y-4001000D02*
X43757286Y-4001000D01*
X42900143Y-4429571D02*
X43400143Y-2929571D01*
X43900143Y-4429571D01*
X45257286Y-4429571D02*
X44757286Y-3715286D01*
X44400143Y-4429571D02*
X44400143Y-2929571D01*
X44971571Y-2929571D01*
X45114429Y-3001000D01*
X45185857Y-3072429D01*
X45257286Y-3215286D01*
X45257286Y-3429571D01*
X45185857Y-3572429D01*
X45114429Y-3643857D01*
X44971571Y-3715286D01*
X44400143Y-3715286D01*
X46971571Y-4358143D02*
X47185857Y-4429571D01*
X47543000Y-4429571D01*
X47685857Y-4358143D01*
X47757286Y-4286714D01*
X47828714Y-4143857D01*
X47828714Y-4001000D01*
X47757286Y-3858143D01*
X47685857Y-3786714D01*
X47543000Y-3715286D01*
X47257286Y-3643857D01*
X47114428Y-3572429D01*
X47043000Y-3501000D01*
X46971571Y-3358143D01*
X46971571Y-3215286D01*
X47043000Y-3072429D01*
X47114428Y-3001000D01*
X47257286Y-2929571D01*
X47614428Y-2929571D01*
X47828714Y-3001000D01*
X48471571Y-4429571D02*
X48471571Y-2929571D01*
X49185857Y-4429571D02*
X49185857Y-2929571D01*
X49543000Y-2929571D01*
X49757285Y-3001000D01*
X49900143Y-3143857D01*
X49971571Y-3286714D01*
X50043000Y-3572429D01*
X50043000Y-3786714D01*
X49971571Y-4072429D01*
X49900143Y-4215286D01*
X49757285Y-4358143D01*
X49543000Y-4429571D01*
X49185857Y-4429571D01*
X50685857Y-3643857D02*
X51185857Y-3643857D01*
X51400143Y-4429571D02*
X50685857Y-4429571D01*
X50685857Y-2929571D01*
X51400143Y-2929571D01*
D12*
X8299000Y-25468000D02*
X8299000Y-20068000D01*
X4699000Y-25468000D02*
X4699000Y-20068000D01*
X16544700Y-21467500D02*
X16544700Y-17009800D01*
X16544700Y-17009800D02*
X19059300Y-17009800D01*
X19059300Y-17009800D02*
X19059300Y-21467500D01*
X19059300Y-21467500D02*
X16544700Y-21467500D01*
X61680500Y-25201300D02*
X57222800Y-25201300D01*
X57222800Y-25201300D02*
X57222800Y-22686700D01*
X57222800Y-22686700D02*
X61680500Y-22686700D01*
X61680500Y-22686700D02*
X61680500Y-25201300D01*
X65160300Y-12958500D02*
X65160300Y-17416200D01*
X65160300Y-17416200D02*
X62645700Y-17416200D01*
X62645700Y-17416200D02*
X62645700Y-12958500D01*
X62645700Y-12958500D02*
X65160300Y-12958500D01*
X16544700Y-16768500D02*
X16544700Y-12310800D01*
X16544700Y-12310800D02*
X19059300Y-12310800D01*
X19059300Y-12310800D02*
X19059300Y-16768500D01*
X19059300Y-16768500D02*
X16544700Y-16768500D01*
X46237300Y-23499500D02*
X46237300Y-27957200D01*
X46237300Y-27957200D02*
X43722700Y-27957200D01*
X43722700Y-27957200D02*
X43722700Y-23499500D01*
X43722700Y-23499500D02*
X46237300Y-23499500D01*
X48322095Y-27940000D02*
G75*
G03X48322095Y-27940000I-583095J0D01*
G01*
X46839000Y-28840000D02*
X46839000Y-25640000D01*
X46839000Y-25640000D02*
X53239000Y-25640000D01*
X53239000Y-25640000D02*
X53239000Y-28840000D01*
X53239000Y-28840000D02*
X46839000Y-28840000D01*
X58957095Y-21312000D02*
G75*
G03X58957095Y-21312000I-583095J0D01*
G01*
X59274000Y-22212000D02*
X56074000Y-22212000D01*
X56074000Y-22212000D02*
X56074000Y-15812000D01*
X56074000Y-15812000D02*
X59274000Y-15812000D01*
X59274000Y-15812000D02*
X59274000Y-22212000D01*
X58830095Y-12803000D02*
G75*
G03X58830095Y-12803000I-583095J0D01*
G01*
X59147000Y-13703000D02*
X55947000Y-13703000D01*
X55947000Y-13703000D02*
X55947000Y-7303000D01*
X55947000Y-7303000D02*
X59147000Y-7303000D01*
X59147000Y-7303000D02*
X59147000Y-13703000D01*
X42692034Y-19554000D02*
G75*
G03X42692034Y-19554000I-1118034J0D01*
G01*
X43574000Y-21554000D02*
X26574000Y-21554000D01*
X26574000Y-21554000D02*
X26574000Y-9054000D01*
X26574000Y-9054000D02*
X43574000Y-9054000D01*
X43574000Y-9054000D02*
X43574000Y-21554000D01*
X8988200Y-16730400D02*
X15985900Y-16730400D01*
X15985900Y-16730400D02*
X15985900Y-20629300D01*
X15985900Y-20629300D02*
X8988200Y-20629300D01*
X8988200Y-20629300D02*
X8988200Y-16730400D01*
X3284334Y-22904143D02*
X3236715Y-22951762D01*
X3093858Y-22999381D01*
X2998620Y-22999381D01*
X2855762Y-22951762D01*
X2760524Y-22856524D01*
X2712905Y-22761286D01*
X2665286Y-22570810D01*
X2665286Y-22427952D01*
X2712905Y-22237476D01*
X2760524Y-22142238D01*
X2855762Y-22047000D01*
X2998620Y-21999381D01*
X3093858Y-21999381D01*
X3236715Y-22047000D01*
X3284334Y-22094619D01*
X4236715Y-22999381D02*
X3665286Y-22999381D01*
X3951000Y-22999381D02*
X3951000Y-21999381D01*
X3855762Y-22142238D01*
X3760524Y-22237476D01*
X3665286Y-22285095D01*
X17635334Y-22777143D02*
X17587715Y-22824762D01*
X17444858Y-22872381D01*
X17349620Y-22872381D01*
X17206762Y-22824762D01*
X17111524Y-22729524D01*
X17063905Y-22634286D01*
X17016286Y-22443810D01*
X17016286Y-22300952D01*
X17063905Y-22110476D01*
X17111524Y-22015238D01*
X17206762Y-21920000D01*
X17349620Y-21872381D01*
X17444858Y-21872381D01*
X17587715Y-21920000D01*
X17635334Y-21967619D01*
X18016286Y-21967619D02*
X18063905Y-21920000D01*
X18159143Y-21872381D01*
X18397239Y-21872381D01*
X18492477Y-21920000D01*
X18540096Y-21967619D01*
X18587715Y-22062857D01*
X18587715Y-22158095D01*
X18540096Y-22300952D01*
X17968667Y-22872381D01*
X18587715Y-22872381D01*
X59291334Y-26460143D02*
X59243715Y-26507762D01*
X59100858Y-26555381D01*
X59005620Y-26555381D01*
X58862762Y-26507762D01*
X58767524Y-26412524D01*
X58719905Y-26317286D01*
X58672286Y-26126810D01*
X58672286Y-25983952D01*
X58719905Y-25793476D01*
X58767524Y-25698238D01*
X58862762Y-25603000D01*
X59005620Y-25555381D01*
X59100858Y-25555381D01*
X59243715Y-25603000D01*
X59291334Y-25650619D01*
X59624667Y-25555381D02*
X60243715Y-25555381D01*
X59910381Y-25936333D01*
X60053239Y-25936333D01*
X60148477Y-25983952D01*
X60196096Y-26031571D01*
X60243715Y-26126810D01*
X60243715Y-26364905D01*
X60196096Y-26460143D01*
X60148477Y-26507762D01*
X60053239Y-26555381D01*
X59767524Y-26555381D01*
X59672286Y-26507762D01*
X59624667Y-26460143D01*
X63736334Y-12490143D02*
X63688715Y-12537762D01*
X63545858Y-12585381D01*
X63450620Y-12585381D01*
X63307762Y-12537762D01*
X63212524Y-12442524D01*
X63164905Y-12347286D01*
X63117286Y-12156810D01*
X63117286Y-12013952D01*
X63164905Y-11823476D01*
X63212524Y-11728238D01*
X63307762Y-11633000D01*
X63450620Y-11585381D01*
X63545858Y-11585381D01*
X63688715Y-11633000D01*
X63736334Y-11680619D01*
X64593477Y-11918714D02*
X64593477Y-12585381D01*
X64355381Y-11537762D02*
X64117286Y-12252048D01*
X64736334Y-12252048D01*
X17635334Y-11855143D02*
X17587715Y-11902762D01*
X17444858Y-11950381D01*
X17349620Y-11950381D01*
X17206762Y-11902762D01*
X17111524Y-11807524D01*
X17063905Y-11712286D01*
X17016286Y-11521810D01*
X17016286Y-11378952D01*
X17063905Y-11188476D01*
X17111524Y-11093238D01*
X17206762Y-10998000D01*
X17349620Y-10950381D01*
X17444858Y-10950381D01*
X17587715Y-10998000D01*
X17635334Y-11045619D01*
X18540096Y-10950381D02*
X18063905Y-10950381D01*
X18016286Y-11426571D01*
X18063905Y-11378952D01*
X18159143Y-11331333D01*
X18397239Y-11331333D01*
X18492477Y-11378952D01*
X18540096Y-11426571D01*
X18587715Y-11521810D01*
X18587715Y-11759905D01*
X18540096Y-11855143D01*
X18492477Y-11902762D01*
X18397239Y-11950381D01*
X18159143Y-11950381D01*
X18063905Y-11902762D01*
X18016286Y-11855143D01*
X44432334Y-23031143D02*
X44384715Y-23078762D01*
X44241858Y-23126381D01*
X44146620Y-23126381D01*
X44003762Y-23078762D01*
X43908524Y-22983524D01*
X43860905Y-22888286D01*
X43813286Y-22697810D01*
X43813286Y-22554952D01*
X43860905Y-22364476D01*
X43908524Y-22269238D01*
X44003762Y-22174000D01*
X44146620Y-22126381D01*
X44241858Y-22126381D01*
X44384715Y-22174000D01*
X44432334Y-22221619D01*
X45289477Y-22126381D02*
X45099000Y-22126381D01*
X45003762Y-22174000D01*
X44956143Y-22221619D01*
X44860905Y-22364476D01*
X44813286Y-22554952D01*
X44813286Y-22935905D01*
X44860905Y-23031143D01*
X44908524Y-23078762D01*
X45003762Y-23126381D01*
X45194239Y-23126381D01*
X45289477Y-23078762D01*
X45337096Y-23031143D01*
X45384715Y-22935905D01*
X45384715Y-22697810D01*
X45337096Y-22602571D01*
X45289477Y-22554952D01*
X45194239Y-22507333D01*
X45003762Y-22507333D01*
X44908524Y-22554952D01*
X44860905Y-22602571D01*
X44813286Y-22697810D01*
X41082905Y-34334143D02*
X41035286Y-34381762D01*
X40892429Y-34429381D01*
X40797191Y-34429381D01*
X40654333Y-34381762D01*
X40559095Y-34286524D01*
X40511476Y-34191286D01*
X40463857Y-34000810D01*
X40463857Y-33857952D01*
X40511476Y-33667476D01*
X40559095Y-33572238D01*
X40654333Y-33477000D01*
X40797191Y-33429381D01*
X40892429Y-33429381D01*
X41035286Y-33477000D01*
X41082905Y-33524619D01*
X41701952Y-33429381D02*
X41892429Y-33429381D01*
X41987667Y-33477000D01*
X42082905Y-33572238D01*
X42130524Y-33762714D01*
X42130524Y-34096048D01*
X42082905Y-34286524D01*
X41987667Y-34381762D01*
X41892429Y-34429381D01*
X41701952Y-34429381D01*
X41606714Y-34381762D01*
X41511476Y-34286524D01*
X41463857Y-34096048D01*
X41463857Y-33762714D01*
X41511476Y-33572238D01*
X41606714Y-33477000D01*
X41701952Y-33429381D01*
X42559095Y-34429381D02*
X42559095Y-33429381D01*
X43130524Y-34429381D01*
X43130524Y-33429381D01*
X43606714Y-34429381D02*
X43606714Y-33429381D01*
X44178143Y-34429381D01*
X44178143Y-33429381D01*
X45178143Y-34429381D02*
X44606714Y-34429381D01*
X44892428Y-34429381D02*
X44892428Y-33429381D01*
X44797190Y-33572238D01*
X44701952Y-33667476D01*
X44606714Y-33715095D01*
X44980095Y-28603381D02*
X44980095Y-29412905D01*
X45027714Y-29508143D01*
X45075333Y-29555762D01*
X45170571Y-29603381D01*
X45361048Y-29603381D01*
X45456286Y-29555762D01*
X45503905Y-29508143D01*
X45551524Y-29412905D01*
X45551524Y-28603381D01*
X46551524Y-29603381D02*
X45980095Y-29603381D01*
X46265809Y-29603381D02*
X46265809Y-28603381D01*
X46170571Y-28746238D01*
X46075333Y-28841476D01*
X45980095Y-28889095D01*
X54886095Y-22634381D02*
X54886095Y-23443905D01*
X54933714Y-23539143D01*
X54981333Y-23586762D01*
X55076571Y-23634381D01*
X55267048Y-23634381D01*
X55362286Y-23586762D01*
X55409905Y-23539143D01*
X55457524Y-23443905D01*
X55457524Y-22634381D01*
X55886095Y-22729619D02*
X55933714Y-22682000D01*
X56028952Y-22634381D01*
X56267048Y-22634381D01*
X56362286Y-22682000D01*
X56409905Y-22729619D01*
X56457524Y-22824857D01*
X56457524Y-22920095D01*
X56409905Y-23062952D01*
X55838476Y-23634381D01*
X56457524Y-23634381D01*
X56918095Y-13998381D02*
X56918095Y-14807905D01*
X56965714Y-14903143D01*
X57013333Y-14950762D01*
X57108571Y-14998381D01*
X57299048Y-14998381D01*
X57394286Y-14950762D01*
X57441905Y-14903143D01*
X57489524Y-14807905D01*
X57489524Y-13998381D01*
X57870476Y-13998381D02*
X58489524Y-13998381D01*
X58156190Y-14379333D01*
X58299048Y-14379333D01*
X58394286Y-14426952D01*
X58441905Y-14474571D01*
X58489524Y-14569810D01*
X58489524Y-14807905D01*
X58441905Y-14903143D01*
X58394286Y-14950762D01*
X58299048Y-14998381D01*
X58013333Y-14998381D01*
X57918095Y-14950762D01*
X57870476Y-14903143D01*
X33812095Y-22006381D02*
X33812095Y-22815905D01*
X33859714Y-22911143D01*
X33907333Y-22958762D01*
X34002571Y-23006381D01*
X34193048Y-23006381D01*
X34288286Y-22958762D01*
X34335905Y-22911143D01*
X34383524Y-22815905D01*
X34383524Y-22006381D01*
X35288286Y-22339714D02*
X35288286Y-23006381D01*
X35050190Y-21958762D02*
X34812095Y-22673048D01*
X35431143Y-22673048D01*
X6880095Y-17046381D02*
X6880095Y-17855905D01*
X6927714Y-17951143D01*
X6975333Y-17998762D01*
X7070571Y-18046381D01*
X7261048Y-18046381D01*
X7356286Y-17998762D01*
X7403905Y-17951143D01*
X7451524Y-17855905D01*
X7451524Y-17046381D01*
X8403905Y-17046381D02*
X7927714Y-17046381D01*
X7880095Y-17522571D01*
X7927714Y-17474952D01*
X8022952Y-17427333D01*
X8261048Y-17427333D01*
X8356286Y-17474952D01*
X8403905Y-17522571D01*
X8451524Y-17617810D01*
X8451524Y-17855905D01*
X8403905Y-17951143D01*
X8356286Y-17998762D01*
X8261048Y-18046381D01*
X8022952Y-18046381D01*
X7927714Y-17998762D01*
X7880095Y-17951143D01*
X10293333Y-8394381D02*
X10293333Y-7394381D01*
X10626667Y-8108667D01*
X10960000Y-7394381D01*
X10960000Y-8394381D01*
X11864762Y-7394381D02*
X11674285Y-7394381D01*
X11579047Y-7442000D01*
X11531428Y-7489619D01*
X11436190Y-7632476D01*
X11388571Y-7822952D01*
X11388571Y-8203905D01*
X11436190Y-8299143D01*
X11483809Y-8346762D01*
X11579047Y-8394381D01*
X11769524Y-8394381D01*
X11864762Y-8346762D01*
X11912381Y-8299143D01*
X11960000Y-8203905D01*
X11960000Y-7965810D01*
X11912381Y-7870571D01*
X11864762Y-7822952D01*
X11769524Y-7775333D01*
X11579047Y-7775333D01*
X11483809Y-7822952D01*
X11436190Y-7870571D01*
X11388571Y-7965810D01*
X12150476Y-8489619D02*
X12912381Y-8489619D01*
X13674286Y-8394381D02*
X13102857Y-8394381D01*
X13388571Y-8394381D02*
X13388571Y-7394381D01*
X13293333Y-7537238D01*
X13198095Y-7632476D01*
X13102857Y-7680095D01*
X68459333Y-8394381D02*
X68459333Y-7394381D01*
X68792667Y-8108667D01*
X69126000Y-7394381D01*
X69126000Y-8394381D01*
X70030762Y-7394381D02*
X69840285Y-7394381D01*
X69745047Y-7442000D01*
X69697428Y-7489619D01*
X69602190Y-7632476D01*
X69554571Y-7822952D01*
X69554571Y-8203905D01*
X69602190Y-8299143D01*
X69649809Y-8346762D01*
X69745047Y-8394381D01*
X69935524Y-8394381D01*
X70030762Y-8346762D01*
X70078381Y-8299143D01*
X70126000Y-8203905D01*
X70126000Y-7965810D01*
X70078381Y-7870571D01*
X70030762Y-7822952D01*
X69935524Y-7775333D01*
X69745047Y-7775333D01*
X69649809Y-7822952D01*
X69602190Y-7870571D01*
X69554571Y-7965810D01*
X70316476Y-8489619D02*
X71078381Y-8489619D01*
X71268857Y-7489619D02*
X71316476Y-7442000D01*
X71411714Y-7394381D01*
X71649810Y-7394381D01*
X71745048Y-7442000D01*
X71792667Y-7489619D01*
X71840286Y-7584857D01*
X71840286Y-7680095D01*
X71792667Y-7822952D01*
X71221238Y-8394381D01*
X71840286Y-8394381D01*
X49340944Y-16118545D02*
X48835867Y-16623622D01*
X48701180Y-16690965D01*
X48566493Y-16690965D01*
X48431806Y-16623621D01*
X48364462Y-16556278D01*
X48970554Y-17162369D02*
X49677661Y-16455263D01*
X49947035Y-16724637D01*
X49980707Y-16825652D01*
X49980707Y-16892996D01*
X49947035Y-16994011D01*
X49846020Y-17095026D01*
X49745005Y-17128698D01*
X49677662Y-17128698D01*
X49576646Y-17095026D01*
X49307272Y-16825652D01*
X50048050Y-18239866D02*
X49643989Y-17835804D01*
X49846019Y-18037835D02*
X50553126Y-17330728D01*
X50384768Y-17364400D01*
X50250081Y-17364400D01*
X50149066Y-17330728D01*
%LPC*%
D13*
X6499000Y-25468000D03*
X6499000Y-20068000D03*
D14*
X17802000Y-20261000D03*
X17802000Y-18216300D03*
D15*
X60474000Y-23944000D03*
X58429300Y-23944000D03*
D14*
X63903000Y-14165000D03*
X63903000Y-16209700D03*
X17802000Y-15562000D03*
X17802000Y-13517300D03*
X44980000Y-24706000D03*
X44980000Y-26750700D03*
D16*
X81140000Y-41000000D03*
X78600000Y-41000000D03*
X76060000Y-41000000D03*
X73520000Y-41000000D03*
X70980000Y-41000000D03*
X68440000Y-41000000D03*
X65900000Y-41000000D03*
X63360000Y-41000000D03*
X60820000Y-41000000D03*
X58280000Y-41000000D03*
X55740000Y-41000000D03*
X53200000Y-41000000D03*
X50660000Y-41000000D03*
X48120000Y-41000000D03*
X45580000Y-41000000D03*
X43040000Y-41000000D03*
X40500000Y-41000000D03*
X37960000Y-41000000D03*
X35420000Y-41000000D03*
X32880000Y-41000000D03*
X30340000Y-41000000D03*
X27800000Y-41000000D03*
X25260000Y-41000000D03*
X22720000Y-41000000D03*
X20180000Y-41000000D03*
X17640000Y-41000000D03*
X15100000Y-41000000D03*
X12560000Y-41000000D03*
X10020000Y-41000000D03*
X7480000Y-41000000D03*
X4940000Y-41000000D03*
X2400000Y-41000000D03*
D17*
X47139000Y-30040000D03*
X47789000Y-30040000D03*
X48439000Y-30040000D03*
X49089000Y-30040000D03*
X49739000Y-30040000D03*
X50389000Y-30040000D03*
X51039000Y-30040000D03*
X51689000Y-30040000D03*
X52339000Y-30040000D03*
X52989000Y-30040000D03*
X52989000Y-24440000D03*
X52339000Y-24440000D03*
X51689000Y-24440000D03*
X51039000Y-24440000D03*
X50389000Y-24440000D03*
X49739000Y-24440000D03*
X49089000Y-24440000D03*
X48439000Y-24440000D03*
X47789000Y-24440000D03*
X47139000Y-24440000D03*
D18*
X60474000Y-21912000D03*
X60474000Y-21262000D03*
X60474000Y-20612000D03*
X60474000Y-19962000D03*
X60474000Y-19312000D03*
X60474000Y-18662000D03*
X60474000Y-18012000D03*
X60474000Y-17362000D03*
X60474000Y-16712000D03*
X60474000Y-16062000D03*
X54874000Y-16062000D03*
X54874000Y-16712000D03*
X54874000Y-17362000D03*
X54874000Y-18012000D03*
X54874000Y-18662000D03*
X54874000Y-19312000D03*
X54874000Y-19962000D03*
X54874000Y-20612000D03*
X54874000Y-21262000D03*
X54874000Y-21912000D03*
X60347000Y-13403000D03*
X60347000Y-12753000D03*
X60347000Y-12103000D03*
X60347000Y-11453000D03*
X60347000Y-10803000D03*
X60347000Y-10153000D03*
X60347000Y-9503000D03*
X60347000Y-8853000D03*
X60347000Y-8203000D03*
X60347000Y-7553000D03*
X54747000Y-7553000D03*
X54747000Y-8203000D03*
X54747000Y-8853000D03*
X54747000Y-9503000D03*
X54747000Y-10153000D03*
X54747000Y-10803000D03*
X54747000Y-11453000D03*
X54747000Y-12103000D03*
X54747000Y-12753000D03*
X54747000Y-13403000D03*
D19*
X45074000Y-21054000D03*
X45074000Y-20554000D03*
X45074000Y-20054000D03*
X45074000Y-19554000D03*
X45074000Y-19054000D03*
X45074000Y-18554000D03*
X45074000Y-18054000D03*
X45074000Y-17554000D03*
X45074000Y-17054000D03*
X45074000Y-16554000D03*
X45074000Y-16054000D03*
X45074000Y-15554000D03*
X45074000Y-15054000D03*
X45074000Y-14554000D03*
X45074000Y-14054000D03*
X45074000Y-13554000D03*
X45074000Y-13054000D03*
X45074000Y-12554000D03*
X45074000Y-12054000D03*
X45074000Y-11554000D03*
X45074000Y-11054000D03*
X45074000Y-10554000D03*
X45074000Y-10054000D03*
X45074000Y-9554000D03*
X25074000Y-9554000D03*
X25074000Y-10054000D03*
X25074000Y-10554000D03*
X25074000Y-11054000D03*
X25074000Y-11554000D03*
X25074000Y-12054000D03*
X25074000Y-12554000D03*
X25074000Y-13054000D03*
X25074000Y-13554000D03*
X25074000Y-14054000D03*
X25074000Y-14554000D03*
X25074000Y-15054000D03*
X25074000Y-15554000D03*
X25074000Y-16054000D03*
X25074000Y-16554000D03*
X25074000Y-17054000D03*
X25074000Y-17554000D03*
X25074000Y-18054000D03*
X25074000Y-18554000D03*
X25074000Y-19054000D03*
X25074000Y-19554000D03*
X25074000Y-20054000D03*
X25074000Y-20554000D03*
X25074000Y-21054000D03*
D20*
X10182000Y-21785000D03*
X12480700Y-21785000D03*
X14779400Y-21785000D03*
D21*
X12480700Y-15689000D03*
D22*
X6400000Y-11100000D03*
X75800000Y-11100000D03*
D10*
G36*
X51401251Y-16591565D02*
X50835565Y-17157251D01*
X50199169Y-16520855D01*
X50764855Y-15955169D01*
X51401251Y-16591565D01*
X51401251Y-16591565D01*
G37*
G36*
X50727732Y-15918046D02*
X50162046Y-16483732D01*
X49525650Y-15847336D01*
X50091336Y-15281650D01*
X50727732Y-15918046D01*
X50727732Y-15918046D01*
G37*
D23*
G36*
X83473000Y-44873000D02*
X127000Y-44873000D01*
X127000Y-37827000D01*
X83473000Y-37827000D01*
X83473000Y-44873000D01*
X83473000Y-44873000D01*
G37*
X83473000Y-44873000D02*
X127000Y-44873000D01*
X127000Y-37827000D01*
X83473000Y-37827000D01*
X83473000Y-44873000D01*
M02*
