M48
;DRILL file {KiCad 4.0.7} date 07/02/21 15:20:18
;FORMAT={-:-/ absolute / metric / decimal}
FMAT,2
METRIC,TZ
T1C0.400
T2C0.500
T3C6.100
%
G90
G05
M71
T1
X19.453Y-29.913
X19.961Y-27.627
X20.723Y-16.959
X21.104Y-27.5
X21.231Y-22.42
X21.485Y-23.563
X21.866Y-26.865
X21.866Y-31.31
X22.374Y-25.976
X22.628Y-23.182
X23.771Y-24.325
X25.676Y-22.039
X27.835Y-28.389
X33.296Y-32.834
X40.535Y-32.834
X41.551Y-20.007
X45.615Y-33.723
X47.52Y-22.039
X50.695Y-33.342
X52.219Y-12.768
X55.775Y-33.977
X56.918Y-12.768
X57.045Y-10.863
X57.172Y-9.466
X57.426Y-20.261
X57.68Y-11.498
X57.807Y-8.831
X58.061Y-10.101
X58.442Y-8.196
X58.569Y-18.61
X58.569Y-20.134
X60.093Y-33.342
X61.998Y-13.403
X62.125Y-16.705
X62.252Y-20.134
X65.935Y-32.834
X66.443Y-30.167
X67.332Y-30.04
X67.713Y-32.326
T2
X1.419Y-29.913
X1.8Y-15.689
X2.435Y-20.134
X3.07Y-4.513
X3.578Y-27.5
X5.102Y-17.34
X6.372Y-30.675
X7.769Y-28.516
X8.404Y-33.215
X9.42Y-2.735
X9.674Y-26.865
X10.182Y-18.61
X11.96Y-30.294
X12.341Y-9.72
X12.341Y-12.514
X13.992Y-27.246
X14.5Y-4.894
X15.135Y-18.737
X15.389Y-33.215
X15.77Y-13.53
X16.532Y-9.72
X16.786Y-2.862
X17.675Y-31.183
X18.31Y-24.96
X19.326Y-33.977
X19.834Y-7.434
X20.469Y-12.133
X20.723Y-17.975
X21.231Y-32.961
X21.485Y-9.593
X21.612Y-2.862
X22.374Y-14.165
X22.501Y-16.451
X23.771Y-34.104
X24.533Y-7.18
X24.787Y-23.055
X25.422Y-32.453
X26.311Y-29.532
X26.819Y-3.751
X28.089Y-16.324
X29.232Y-30.421
X29.74Y-9.974
X29.994Y-28.262
X30.502Y-33.469
X31.01Y-25.595
X32.026Y-12.26
X33.55Y-18.356
X33.804Y-24.198
X33.804Y-28.643
X34.947Y-9.974
X35.074Y-14.419
X35.328Y-32.072
X35.582Y-26.103
X37.614Y-12.26
X37.614Y-24.198
X38.503Y-28.77
X38.63Y-18.356
X39.9Y-26.357
X41.424Y-14.419
X41.678Y-9.974
X41.678Y-24.198
X42.694Y-32.453
X42.821Y-26.738
X44.091Y-30.421
X46.123Y-22.801
X47.901Y-15.054
X49.679Y-26.484
X50.695Y-12.387
X51.203Y-20.515
X51.457Y-28.262
X54.632Y-4.005
X54.886Y-24.96
X54.886Y-27.627
X54.886Y-30.548
X57.807Y-16.959
X57.807Y-26.23
X57.934Y-29.278
X60.22Y-4.132
X62.252Y-28.389
X63.141Y-30.802
X63.268Y-7.053
X63.268Y-17.848
X63.903Y-33.596
X64.284Y-25.976
X65.808Y-9.085
X66.316Y-5.021
X66.824Y-17.467
X67.205Y-23.055
X67.84Y-28.389
X68.983Y-10.228
X68.983Y-14.038
X70.126Y-30.675
X70.253Y-19.88
X71.777Y-3.751
X72.539Y-25.214
X74.952Y-17.594
X76.222Y-22.293
X76.476Y-28.897
X79.524Y-4.513
X80.159Y-19.88
X81.048Y-15.435
X81.556Y-26.992
T3
X6.4Y-11.1
X75.8Y-11.1
T0
M30
