%FSLAX45Y45*%
G04 Gerber Fmt 4.5, Leading zero omitted, Abs format (unit mm)*
G04 Created by KiCad (PCBNEW 4.0.7) date 07/02/21 15:20:19*
%MOMM*%
%LPD*%
G01*
G04 APERTURE LIST*
%ADD10C,0.127000*%
%ADD11C,0.150000*%
%ADD12C,0.200000*%
%ADD13C,0.300000*%
G04 APERTURE END LIST*
D10*
D11*
X8360000Y0D02*
X8360000Y-500000D01*
X0Y0D02*
X8360000Y0D01*
X0Y-500000D02*
X0Y0D01*
X8360000Y-4500000D02*
X0Y-4500000D01*
X8360000Y-500000D02*
X8360000Y-4500000D01*
X0Y-4500000D02*
X0Y-500000D01*
D12*
X1925300Y-2971300D02*
X1965300Y-3011300D01*
X1965300Y-2971300D02*
X1925300Y-3011300D01*
X1976100Y-2742700D02*
X2016100Y-2782700D01*
X2016100Y-2742700D02*
X1976100Y-2782700D01*
X2052300Y-1675900D02*
X2092300Y-1715900D01*
X2092300Y-1675900D02*
X2052300Y-1715900D01*
X2090400Y-2730000D02*
X2130400Y-2770000D01*
X2130400Y-2730000D02*
X2090400Y-2770000D01*
X2103100Y-2222000D02*
X2143100Y-2262000D01*
X2143100Y-2222000D02*
X2103100Y-2262000D01*
X2128500Y-2336300D02*
X2168500Y-2376300D01*
X2168500Y-2336300D02*
X2128500Y-2376300D01*
X2166600Y-2666500D02*
X2206600Y-2706500D01*
X2206600Y-2666500D02*
X2166600Y-2706500D01*
X2166600Y-3111000D02*
X2206600Y-3151000D01*
X2206600Y-3111000D02*
X2166600Y-3151000D01*
X2217400Y-2577600D02*
X2257400Y-2617600D01*
X2257400Y-2577600D02*
X2217400Y-2617600D01*
X2242800Y-2298200D02*
X2282800Y-2338200D01*
X2282800Y-2298200D02*
X2242800Y-2338200D01*
X2357100Y-2412500D02*
X2397100Y-2452500D01*
X2397100Y-2412500D02*
X2357100Y-2452500D01*
X2547600Y-2183900D02*
X2587600Y-2223900D01*
X2587600Y-2183900D02*
X2547600Y-2223900D01*
X2763500Y-2818900D02*
X2803500Y-2858900D01*
X2803500Y-2818900D02*
X2763500Y-2858900D01*
X3309600Y-3263400D02*
X3349600Y-3303400D01*
X3349600Y-3263400D02*
X3309600Y-3303400D01*
X4033500Y-3263400D02*
X4073500Y-3303400D01*
X4073500Y-3263400D02*
X4033500Y-3303400D01*
X4135100Y-1980700D02*
X4175100Y-2020700D01*
X4175100Y-1980700D02*
X4135100Y-2020700D01*
X4541500Y-3352300D02*
X4581500Y-3392300D01*
X4581500Y-3352300D02*
X4541500Y-3392300D01*
X4732000Y-2183900D02*
X4772000Y-2223900D01*
X4772000Y-2183900D02*
X4732000Y-2223900D01*
X5049500Y-3314200D02*
X5089500Y-3354200D01*
X5089500Y-3314200D02*
X5049500Y-3354200D01*
X5201900Y-1256800D02*
X5241900Y-1296800D01*
X5241900Y-1256800D02*
X5201900Y-1296800D01*
X5557500Y-3377700D02*
X5597500Y-3417700D01*
X5597500Y-3377700D02*
X5557500Y-3417700D01*
X5671800Y-1256800D02*
X5711800Y-1296800D01*
X5711800Y-1256800D02*
X5671800Y-1296800D01*
X5684500Y-1066300D02*
X5724500Y-1106300D01*
X5724500Y-1066300D02*
X5684500Y-1106300D01*
X5697200Y-926600D02*
X5737200Y-966600D01*
X5737200Y-926600D02*
X5697200Y-966600D01*
X5722600Y-2006100D02*
X5762600Y-2046100D01*
X5762600Y-2006100D02*
X5722600Y-2046100D01*
X5748000Y-1129800D02*
X5788000Y-1169800D01*
X5788000Y-1129800D02*
X5748000Y-1169800D01*
X5760700Y-863100D02*
X5800700Y-903100D01*
X5800700Y-863100D02*
X5760700Y-903100D01*
X5786100Y-990100D02*
X5826100Y-1030100D01*
X5826100Y-990100D02*
X5786100Y-1030100D01*
X5824200Y-799600D02*
X5864200Y-839600D01*
X5864200Y-799600D02*
X5824200Y-839600D01*
X5836900Y-1841000D02*
X5876900Y-1881000D01*
X5876900Y-1841000D02*
X5836900Y-1881000D01*
X5836900Y-1993400D02*
X5876900Y-2033400D01*
X5876900Y-1993400D02*
X5836900Y-2033400D01*
X5989300Y-3314200D02*
X6029300Y-3354200D01*
X6029300Y-3314200D02*
X5989300Y-3354200D01*
X6179800Y-1320300D02*
X6219800Y-1360300D01*
X6219800Y-1320300D02*
X6179800Y-1360300D01*
X6192500Y-1650500D02*
X6232500Y-1690500D01*
X6232500Y-1650500D02*
X6192500Y-1690500D01*
X6205200Y-1993400D02*
X6245200Y-2033400D01*
X6245200Y-1993400D02*
X6205200Y-2033400D01*
X6573500Y-3263400D02*
X6613500Y-3303400D01*
X6613500Y-3263400D02*
X6573500Y-3303400D01*
X6624300Y-2996700D02*
X6664300Y-3036700D01*
X6664300Y-2996700D02*
X6624300Y-3036700D01*
X6713200Y-2984000D02*
X6753200Y-3024000D01*
X6753200Y-2984000D02*
X6713200Y-3024000D01*
X6751300Y-3212600D02*
X6791300Y-3252600D01*
X6791300Y-3212600D02*
X6751300Y-3252600D01*
X166900Y-2991300D02*
G75*
G03X166900Y-2991300I-25000J0D01*
G01*
X205000Y-1568900D02*
G75*
G03X205000Y-1568900I-25000J0D01*
G01*
X268500Y-2013400D02*
G75*
G03X268500Y-2013400I-25000J0D01*
G01*
X332000Y-451300D02*
G75*
G03X332000Y-451300I-25000J0D01*
G01*
X382800Y-2750000D02*
G75*
G03X382800Y-2750000I-25000J0D01*
G01*
X535200Y-1734000D02*
G75*
G03X535200Y-1734000I-25000J0D01*
G01*
X662200Y-3067500D02*
G75*
G03X662200Y-3067500I-25000J0D01*
G01*
X801900Y-2851600D02*
G75*
G03X801900Y-2851600I-25000J0D01*
G01*
X865400Y-3321500D02*
G75*
G03X865400Y-3321500I-25000J0D01*
G01*
X967000Y-273500D02*
G75*
G03X967000Y-273500I-25000J0D01*
G01*
X992400Y-2686500D02*
G75*
G03X992400Y-2686500I-25000J0D01*
G01*
X1043200Y-1861000D02*
G75*
G03X1043200Y-1861000I-25000J0D01*
G01*
X1221000Y-3029400D02*
G75*
G03X1221000Y-3029400I-25000J0D01*
G01*
X1259100Y-972000D02*
G75*
G03X1259100Y-972000I-25000J0D01*
G01*
X1259100Y-1251400D02*
G75*
G03X1259100Y-1251400I-25000J0D01*
G01*
X1424200Y-2724600D02*
G75*
G03X1424200Y-2724600I-25000J0D01*
G01*
X1475000Y-489400D02*
G75*
G03X1475000Y-489400I-25000J0D01*
G01*
X1538500Y-1873700D02*
G75*
G03X1538500Y-1873700I-25000J0D01*
G01*
X1563900Y-3321500D02*
G75*
G03X1563900Y-3321500I-25000J0D01*
G01*
X1602000Y-1353000D02*
G75*
G03X1602000Y-1353000I-25000J0D01*
G01*
X1678200Y-972000D02*
G75*
G03X1678200Y-972000I-25000J0D01*
G01*
X1703600Y-286200D02*
G75*
G03X1703600Y-286200I-25000J0D01*
G01*
X1792500Y-3118300D02*
G75*
G03X1792500Y-3118300I-25000J0D01*
G01*
X1856000Y-2496000D02*
G75*
G03X1856000Y-2496000I-25000J0D01*
G01*
X1957600Y-3397700D02*
G75*
G03X1957600Y-3397700I-25000J0D01*
G01*
X2008400Y-743400D02*
G75*
G03X2008400Y-743400I-25000J0D01*
G01*
X2071900Y-1213300D02*
G75*
G03X2071900Y-1213300I-25000J0D01*
G01*
X2097300Y-1797500D02*
G75*
G03X2097300Y-1797500I-25000J0D01*
G01*
X2148100Y-3296100D02*
G75*
G03X2148100Y-3296100I-25000J0D01*
G01*
X2173500Y-959300D02*
G75*
G03X2173500Y-959300I-25000J0D01*
G01*
X2186200Y-286200D02*
G75*
G03X2186200Y-286200I-25000J0D01*
G01*
X2262400Y-1416500D02*
G75*
G03X2262400Y-1416500I-25000J0D01*
G01*
X2275100Y-1645100D02*
G75*
G03X2275100Y-1645100I-25000J0D01*
G01*
X2402100Y-3410400D02*
G75*
G03X2402100Y-3410400I-25000J0D01*
G01*
X2478300Y-718000D02*
G75*
G03X2478300Y-718000I-25000J0D01*
G01*
X2503700Y-2305500D02*
G75*
G03X2503700Y-2305500I-25000J0D01*
G01*
X2567200Y-3245300D02*
G75*
G03X2567200Y-3245300I-25000J0D01*
G01*
X2656100Y-2953200D02*
G75*
G03X2656100Y-2953200I-25000J0D01*
G01*
X2706900Y-375100D02*
G75*
G03X2706900Y-375100I-25000J0D01*
G01*
X2833900Y-1632400D02*
G75*
G03X2833900Y-1632400I-25000J0D01*
G01*
X2948200Y-3042100D02*
G75*
G03X2948200Y-3042100I-25000J0D01*
G01*
X2999000Y-997400D02*
G75*
G03X2999000Y-997400I-25000J0D01*
G01*
X3024400Y-2826200D02*
G75*
G03X3024400Y-2826200I-25000J0D01*
G01*
X3075200Y-3346900D02*
G75*
G03X3075200Y-3346900I-25000J0D01*
G01*
X3126000Y-2559500D02*
G75*
G03X3126000Y-2559500I-25000J0D01*
G01*
X3227600Y-1226000D02*
G75*
G03X3227600Y-1226000I-25000J0D01*
G01*
X3380000Y-1835600D02*
G75*
G03X3380000Y-1835600I-25000J0D01*
G01*
X3405400Y-2419800D02*
G75*
G03X3405400Y-2419800I-25000J0D01*
G01*
X3405400Y-2864300D02*
G75*
G03X3405400Y-2864300I-25000J0D01*
G01*
X3519700Y-997400D02*
G75*
G03X3519700Y-997400I-25000J0D01*
G01*
X3532400Y-1441900D02*
G75*
G03X3532400Y-1441900I-25000J0D01*
G01*
X3557800Y-3207200D02*
G75*
G03X3557800Y-3207200I-25000J0D01*
G01*
X3583200Y-2610300D02*
G75*
G03X3583200Y-2610300I-25000J0D01*
G01*
X3786400Y-1226000D02*
G75*
G03X3786400Y-1226000I-25000J0D01*
G01*
X3786400Y-2419800D02*
G75*
G03X3786400Y-2419800I-25000J0D01*
G01*
X3875300Y-2877000D02*
G75*
G03X3875300Y-2877000I-25000J0D01*
G01*
X3888000Y-1835600D02*
G75*
G03X3888000Y-1835600I-25000J0D01*
G01*
X4015000Y-2635700D02*
G75*
G03X4015000Y-2635700I-25000J0D01*
G01*
X4167400Y-1441900D02*
G75*
G03X4167400Y-1441900I-25000J0D01*
G01*
X4192800Y-997400D02*
G75*
G03X4192800Y-997400I-25000J0D01*
G01*
X4192800Y-2419800D02*
G75*
G03X4192800Y-2419800I-25000J0D01*
G01*
X4294400Y-3245300D02*
G75*
G03X4294400Y-3245300I-25000J0D01*
G01*
X4307100Y-2673800D02*
G75*
G03X4307100Y-2673800I-25000J0D01*
G01*
X4434100Y-3042100D02*
G75*
G03X4434100Y-3042100I-25000J0D01*
G01*
X4637300Y-2280100D02*
G75*
G03X4637300Y-2280100I-25000J0D01*
G01*
X4815100Y-1505400D02*
G75*
G03X4815100Y-1505400I-25000J0D01*
G01*
X4992900Y-2648400D02*
G75*
G03X4992900Y-2648400I-25000J0D01*
G01*
X5094500Y-1238700D02*
G75*
G03X5094500Y-1238700I-25000J0D01*
G01*
X5145300Y-2051500D02*
G75*
G03X5145300Y-2051500I-25000J0D01*
G01*
X5170700Y-2826200D02*
G75*
G03X5170700Y-2826200I-25000J0D01*
G01*
X5488200Y-400500D02*
G75*
G03X5488200Y-400500I-25000J0D01*
G01*
X5513600Y-2496000D02*
G75*
G03X5513600Y-2496000I-25000J0D01*
G01*
X5513600Y-2762700D02*
G75*
G03X5513600Y-2762700I-25000J0D01*
G01*
X5513600Y-3054800D02*
G75*
G03X5513600Y-3054800I-25000J0D01*
G01*
X5805700Y-1695900D02*
G75*
G03X5805700Y-1695900I-25000J0D01*
G01*
X5805700Y-2623000D02*
G75*
G03X5805700Y-2623000I-25000J0D01*
G01*
X5818400Y-2927800D02*
G75*
G03X5818400Y-2927800I-25000J0D01*
G01*
X6047000Y-413200D02*
G75*
G03X6047000Y-413200I-25000J0D01*
G01*
X6250200Y-2838900D02*
G75*
G03X6250200Y-2838900I-25000J0D01*
G01*
X6339100Y-3080200D02*
G75*
G03X6339100Y-3080200I-25000J0D01*
G01*
X6351800Y-705300D02*
G75*
G03X6351800Y-705300I-25000J0D01*
G01*
X6351800Y-1784800D02*
G75*
G03X6351800Y-1784800I-25000J0D01*
G01*
X6415300Y-3359600D02*
G75*
G03X6415300Y-3359600I-25000J0D01*
G01*
X6453400Y-2597600D02*
G75*
G03X6453400Y-2597600I-25000J0D01*
G01*
X6605800Y-908500D02*
G75*
G03X6605800Y-908500I-25000J0D01*
G01*
X6656600Y-502100D02*
G75*
G03X6656600Y-502100I-25000J0D01*
G01*
X6707400Y-1746700D02*
G75*
G03X6707400Y-1746700I-25000J0D01*
G01*
X6745500Y-2305500D02*
G75*
G03X6745500Y-2305500I-25000J0D01*
G01*
X6809000Y-2838900D02*
G75*
G03X6809000Y-2838900I-25000J0D01*
G01*
X6923300Y-1022800D02*
G75*
G03X6923300Y-1022800I-25000J0D01*
G01*
X6923300Y-1403800D02*
G75*
G03X6923300Y-1403800I-25000J0D01*
G01*
X7037600Y-3067500D02*
G75*
G03X7037600Y-3067500I-25000J0D01*
G01*
X7050300Y-1988000D02*
G75*
G03X7050300Y-1988000I-25000J0D01*
G01*
X7202700Y-375100D02*
G75*
G03X7202700Y-375100I-25000J0D01*
G01*
X7278900Y-2521400D02*
G75*
G03X7278900Y-2521400I-25000J0D01*
G01*
X7520200Y-1759400D02*
G75*
G03X7520200Y-1759400I-25000J0D01*
G01*
X7647200Y-2229300D02*
G75*
G03X7647200Y-2229300I-25000J0D01*
G01*
X7672600Y-2889700D02*
G75*
G03X7672600Y-2889700I-25000J0D01*
G01*
X7977400Y-451300D02*
G75*
G03X7977400Y-451300I-25000J0D01*
G01*
X8040900Y-1988000D02*
G75*
G03X8040900Y-1988000I-25000J0D01*
G01*
X8129800Y-1543500D02*
G75*
G03X8129800Y-1543500I-25000J0D01*
G01*
X8180600Y-2699200D02*
G75*
G03X8180600Y-2699200I-25000J0D01*
G01*
X640000Y-805000D02*
X640000Y-1415000D01*
X335000Y-1110000D02*
X945000Y-1110000D01*
X7580000Y-805000D02*
X7580000Y-1415000D01*
X7275000Y-1110000D02*
X7885000Y-1110000D01*
D13*
X263929Y-4973214D02*
X263929Y-4673214D01*
X335357Y-4673214D01*
X378214Y-4687500D01*
X406786Y-4716072D01*
X421071Y-4744643D01*
X435357Y-4801786D01*
X435357Y-4844643D01*
X421071Y-4901786D01*
X406786Y-4930357D01*
X378214Y-4958929D01*
X335357Y-4973214D01*
X263929Y-4973214D01*
X563929Y-4973214D02*
X563929Y-4773214D01*
X563929Y-4830357D02*
X578214Y-4801786D01*
X592500Y-4787500D01*
X621071Y-4773214D01*
X649643Y-4773214D01*
X749643Y-4973214D02*
X749643Y-4773214D01*
X749643Y-4673214D02*
X735357Y-4687500D01*
X749643Y-4701786D01*
X763928Y-4687500D01*
X749643Y-4673214D01*
X749643Y-4701786D01*
X935357Y-4973214D02*
X906786Y-4958929D01*
X892500Y-4930357D01*
X892500Y-4673214D01*
X1092500Y-4973214D02*
X1063929Y-4958929D01*
X1049643Y-4930357D01*
X1049643Y-4673214D01*
X1435357Y-4973214D02*
X1435357Y-4673214D01*
X1535357Y-4887500D01*
X1635357Y-4673214D01*
X1635357Y-4973214D01*
X1906786Y-4973214D02*
X1906786Y-4816072D01*
X1892500Y-4787500D01*
X1863928Y-4773214D01*
X1806786Y-4773214D01*
X1778214Y-4787500D01*
X1906786Y-4958929D02*
X1878214Y-4973214D01*
X1806786Y-4973214D01*
X1778214Y-4958929D01*
X1763928Y-4930357D01*
X1763928Y-4901786D01*
X1778214Y-4873214D01*
X1806786Y-4858929D01*
X1878214Y-4858929D01*
X1906786Y-4844643D01*
X2049643Y-4773214D02*
X2049643Y-5073214D01*
X2049643Y-4787500D02*
X2078214Y-4773214D01*
X2135357Y-4773214D01*
X2163929Y-4787500D01*
X2178214Y-4801786D01*
X2192500Y-4830357D01*
X2192500Y-4916072D01*
X2178214Y-4944643D01*
X2163929Y-4958929D01*
X2135357Y-4973214D01*
X2078214Y-4973214D01*
X2049643Y-4958929D01*
X2321071Y-4944643D02*
X2335357Y-4958929D01*
X2321071Y-4973214D01*
X2306786Y-4958929D01*
X2321071Y-4944643D01*
X2321071Y-4973214D01*
X2321071Y-4787500D02*
X2335357Y-4801786D01*
X2321071Y-4816072D01*
X2306786Y-4801786D01*
X2321071Y-4787500D01*
X2321071Y-4816072D01*
X-47500Y-5447500D02*
X-7500Y-5487500D01*
X-7500Y-5447500D02*
X-47500Y-5487500D01*
X321071Y-5303214D02*
X349643Y-5303214D01*
X378214Y-5317500D01*
X392500Y-5331786D01*
X406786Y-5360357D01*
X421071Y-5417500D01*
X421071Y-5488929D01*
X406786Y-5546072D01*
X392500Y-5574643D01*
X378214Y-5588929D01*
X349643Y-5603214D01*
X321071Y-5603214D01*
X292500Y-5588929D01*
X278214Y-5574643D01*
X263929Y-5546072D01*
X249643Y-5488929D01*
X249643Y-5417500D01*
X263929Y-5360357D01*
X278214Y-5331786D01*
X292500Y-5317500D01*
X321071Y-5303214D01*
X549643Y-5574643D02*
X563929Y-5588929D01*
X549643Y-5603214D01*
X535357Y-5588929D01*
X549643Y-5574643D01*
X549643Y-5603214D01*
X821071Y-5403214D02*
X821071Y-5603214D01*
X749643Y-5288929D02*
X678214Y-5503214D01*
X863928Y-5503214D01*
X1035357Y-5303214D02*
X1063929Y-5303214D01*
X1092500Y-5317500D01*
X1106786Y-5331786D01*
X1121071Y-5360357D01*
X1135357Y-5417500D01*
X1135357Y-5488929D01*
X1121071Y-5546072D01*
X1106786Y-5574643D01*
X1092500Y-5588929D01*
X1063929Y-5603214D01*
X1035357Y-5603214D01*
X1006786Y-5588929D01*
X992500Y-5574643D01*
X978214Y-5546072D01*
X963928Y-5488929D01*
X963928Y-5417500D01*
X978214Y-5360357D01*
X992500Y-5331786D01*
X1006786Y-5317500D01*
X1035357Y-5303214D01*
X1263929Y-5603214D02*
X1263929Y-5403214D01*
X1263929Y-5431786D02*
X1278214Y-5417500D01*
X1306786Y-5403214D01*
X1349643Y-5403214D01*
X1378214Y-5417500D01*
X1392500Y-5446072D01*
X1392500Y-5603214D01*
X1392500Y-5446072D02*
X1406786Y-5417500D01*
X1435357Y-5403214D01*
X1478214Y-5403214D01*
X1506786Y-5417500D01*
X1521071Y-5446072D01*
X1521071Y-5603214D01*
X1663928Y-5603214D02*
X1663928Y-5403214D01*
X1663928Y-5431786D02*
X1678214Y-5417500D01*
X1706786Y-5403214D01*
X1749643Y-5403214D01*
X1778214Y-5417500D01*
X1792500Y-5446072D01*
X1792500Y-5603214D01*
X1792500Y-5446072D02*
X1806786Y-5417500D01*
X1835357Y-5403214D01*
X1878214Y-5403214D01*
X1906786Y-5417500D01*
X1921071Y-5446072D01*
X1921071Y-5603214D01*
X2506786Y-5288929D02*
X2249643Y-5674643D01*
X2892500Y-5303214D02*
X2921071Y-5303214D01*
X2949643Y-5317500D01*
X2963928Y-5331786D01*
X2978214Y-5360357D01*
X2992500Y-5417500D01*
X2992500Y-5488929D01*
X2978214Y-5546072D01*
X2963928Y-5574643D01*
X2949643Y-5588929D01*
X2921071Y-5603214D01*
X2892500Y-5603214D01*
X2863928Y-5588929D01*
X2849643Y-5574643D01*
X2835357Y-5546072D01*
X2821071Y-5488929D01*
X2821071Y-5417500D01*
X2835357Y-5360357D01*
X2849643Y-5331786D01*
X2863928Y-5317500D01*
X2892500Y-5303214D01*
X3121071Y-5574643D02*
X3135357Y-5588929D01*
X3121071Y-5603214D01*
X3106786Y-5588929D01*
X3121071Y-5574643D01*
X3121071Y-5603214D01*
X3321071Y-5303214D02*
X3349643Y-5303214D01*
X3378214Y-5317500D01*
X3392500Y-5331786D01*
X3406785Y-5360357D01*
X3421071Y-5417500D01*
X3421071Y-5488929D01*
X3406785Y-5546072D01*
X3392500Y-5574643D01*
X3378214Y-5588929D01*
X3349643Y-5603214D01*
X3321071Y-5603214D01*
X3292500Y-5588929D01*
X3278214Y-5574643D01*
X3263928Y-5546072D01*
X3249643Y-5488929D01*
X3249643Y-5417500D01*
X3263928Y-5360357D01*
X3278214Y-5331786D01*
X3292500Y-5317500D01*
X3321071Y-5303214D01*
X3706785Y-5603214D02*
X3535357Y-5603214D01*
X3621071Y-5603214D02*
X3621071Y-5303214D01*
X3592500Y-5346072D01*
X3563928Y-5374643D01*
X3535357Y-5388929D01*
X3963928Y-5303214D02*
X3906785Y-5303214D01*
X3878214Y-5317500D01*
X3863928Y-5331786D01*
X3835357Y-5374643D01*
X3821071Y-5431786D01*
X3821071Y-5546072D01*
X3835357Y-5574643D01*
X3849643Y-5588929D01*
X3878214Y-5603214D01*
X3935357Y-5603214D01*
X3963928Y-5588929D01*
X3978214Y-5574643D01*
X3992500Y-5546072D01*
X3992500Y-5474643D01*
X3978214Y-5446072D01*
X3963928Y-5431786D01*
X3935357Y-5417500D01*
X3878214Y-5417500D01*
X3849643Y-5431786D01*
X3835357Y-5446072D01*
X3821071Y-5474643D01*
X4106786Y-5303214D02*
X4106786Y-5360357D01*
X4221071Y-5303214D02*
X4221071Y-5360357D01*
X4663928Y-5717500D02*
X4649643Y-5703214D01*
X4621071Y-5660357D01*
X4606786Y-5631786D01*
X4592500Y-5588929D01*
X4578214Y-5517500D01*
X4578214Y-5460357D01*
X4592500Y-5388929D01*
X4606786Y-5346072D01*
X4621071Y-5317500D01*
X4649643Y-5274643D01*
X4663928Y-5260357D01*
X4749643Y-5303214D02*
X4935357Y-5303214D01*
X4835357Y-5417500D01*
X4878214Y-5417500D01*
X4906786Y-5431786D01*
X4921071Y-5446072D01*
X4935357Y-5474643D01*
X4935357Y-5546072D01*
X4921071Y-5574643D01*
X4906786Y-5588929D01*
X4878214Y-5603214D01*
X4792500Y-5603214D01*
X4763928Y-5588929D01*
X4749643Y-5574643D01*
X5078214Y-5603214D02*
X5135357Y-5603214D01*
X5163928Y-5588929D01*
X5178214Y-5574643D01*
X5206786Y-5531786D01*
X5221071Y-5474643D01*
X5221071Y-5360357D01*
X5206786Y-5331786D01*
X5192500Y-5317500D01*
X5163928Y-5303214D01*
X5106786Y-5303214D01*
X5078214Y-5317500D01*
X5063928Y-5331786D01*
X5049643Y-5360357D01*
X5049643Y-5431786D01*
X5063928Y-5460357D01*
X5078214Y-5474643D01*
X5106786Y-5488929D01*
X5163928Y-5488929D01*
X5192500Y-5474643D01*
X5206786Y-5460357D01*
X5221071Y-5431786D01*
X5578214Y-5603214D02*
X5578214Y-5303214D01*
X5706785Y-5603214D02*
X5706785Y-5446072D01*
X5692500Y-5417500D01*
X5663928Y-5403214D01*
X5621071Y-5403214D01*
X5592500Y-5417500D01*
X5578214Y-5431786D01*
X5892500Y-5603214D02*
X5863928Y-5588929D01*
X5849643Y-5574643D01*
X5835357Y-5546072D01*
X5835357Y-5460357D01*
X5849643Y-5431786D01*
X5863928Y-5417500D01*
X5892500Y-5403214D01*
X5935357Y-5403214D01*
X5963928Y-5417500D01*
X5978214Y-5431786D01*
X5992500Y-5460357D01*
X5992500Y-5546072D01*
X5978214Y-5574643D01*
X5963928Y-5588929D01*
X5935357Y-5603214D01*
X5892500Y-5603214D01*
X6163928Y-5603214D02*
X6135357Y-5588929D01*
X6121071Y-5560357D01*
X6121071Y-5303214D01*
X6392500Y-5588929D02*
X6363928Y-5603214D01*
X6306786Y-5603214D01*
X6278214Y-5588929D01*
X6263928Y-5560357D01*
X6263928Y-5446072D01*
X6278214Y-5417500D01*
X6306786Y-5403214D01*
X6363928Y-5403214D01*
X6392500Y-5417500D01*
X6406786Y-5446072D01*
X6406786Y-5474643D01*
X6263928Y-5503214D01*
X6521071Y-5588929D02*
X6549643Y-5603214D01*
X6606786Y-5603214D01*
X6635357Y-5588929D01*
X6649643Y-5560357D01*
X6649643Y-5546072D01*
X6635357Y-5517500D01*
X6606786Y-5503214D01*
X6563928Y-5503214D01*
X6535357Y-5488929D01*
X6521071Y-5460357D01*
X6521071Y-5446072D01*
X6535357Y-5417500D01*
X6563928Y-5403214D01*
X6606786Y-5403214D01*
X6635357Y-5417500D01*
X6749643Y-5717500D02*
X6763928Y-5703214D01*
X6792500Y-5660357D01*
X6806786Y-5631786D01*
X6821071Y-5588929D01*
X6835357Y-5517500D01*
X6835357Y-5460357D01*
X6821071Y-5388929D01*
X6806786Y-5346072D01*
X6792500Y-5317500D01*
X6763928Y-5274643D01*
X6749643Y-5260357D01*
X-7500Y-5863500D02*
G75*
G03X-7500Y-5863500I-25000J0D01*
G01*
X321071Y-5699214D02*
X349643Y-5699214D01*
X378214Y-5713500D01*
X392500Y-5727786D01*
X406786Y-5756357D01*
X421071Y-5813500D01*
X421071Y-5884929D01*
X406786Y-5942071D01*
X392500Y-5970643D01*
X378214Y-5984929D01*
X349643Y-5999214D01*
X321071Y-5999214D01*
X292500Y-5984929D01*
X278214Y-5970643D01*
X263929Y-5942071D01*
X249643Y-5884929D01*
X249643Y-5813500D01*
X263929Y-5756357D01*
X278214Y-5727786D01*
X292500Y-5713500D01*
X321071Y-5699214D01*
X549643Y-5970643D02*
X563929Y-5984929D01*
X549643Y-5999214D01*
X535357Y-5984929D01*
X549643Y-5970643D01*
X549643Y-5999214D01*
X835357Y-5699214D02*
X692500Y-5699214D01*
X678214Y-5842071D01*
X692500Y-5827786D01*
X721071Y-5813500D01*
X792500Y-5813500D01*
X821071Y-5827786D01*
X835357Y-5842071D01*
X849643Y-5870643D01*
X849643Y-5942071D01*
X835357Y-5970643D01*
X821071Y-5984929D01*
X792500Y-5999214D01*
X721071Y-5999214D01*
X692500Y-5984929D01*
X678214Y-5970643D01*
X1035357Y-5699214D02*
X1063929Y-5699214D01*
X1092500Y-5713500D01*
X1106786Y-5727786D01*
X1121071Y-5756357D01*
X1135357Y-5813500D01*
X1135357Y-5884929D01*
X1121071Y-5942071D01*
X1106786Y-5970643D01*
X1092500Y-5984929D01*
X1063929Y-5999214D01*
X1035357Y-5999214D01*
X1006786Y-5984929D01*
X992500Y-5970643D01*
X978214Y-5942071D01*
X963928Y-5884929D01*
X963928Y-5813500D01*
X978214Y-5756357D01*
X992500Y-5727786D01*
X1006786Y-5713500D01*
X1035357Y-5699214D01*
X1263929Y-5999214D02*
X1263929Y-5799214D01*
X1263929Y-5827786D02*
X1278214Y-5813500D01*
X1306786Y-5799214D01*
X1349643Y-5799214D01*
X1378214Y-5813500D01*
X1392500Y-5842071D01*
X1392500Y-5999214D01*
X1392500Y-5842071D02*
X1406786Y-5813500D01*
X1435357Y-5799214D01*
X1478214Y-5799214D01*
X1506786Y-5813500D01*
X1521071Y-5842071D01*
X1521071Y-5999214D01*
X1663928Y-5999214D02*
X1663928Y-5799214D01*
X1663928Y-5827786D02*
X1678214Y-5813500D01*
X1706786Y-5799214D01*
X1749643Y-5799214D01*
X1778214Y-5813500D01*
X1792500Y-5842071D01*
X1792500Y-5999214D01*
X1792500Y-5842071D02*
X1806786Y-5813500D01*
X1835357Y-5799214D01*
X1878214Y-5799214D01*
X1906786Y-5813500D01*
X1921071Y-5842071D01*
X1921071Y-5999214D01*
X2506786Y-5684929D02*
X2249643Y-6070643D01*
X2892500Y-5699214D02*
X2921071Y-5699214D01*
X2949643Y-5713500D01*
X2963928Y-5727786D01*
X2978214Y-5756357D01*
X2992500Y-5813500D01*
X2992500Y-5884929D01*
X2978214Y-5942071D01*
X2963928Y-5970643D01*
X2949643Y-5984929D01*
X2921071Y-5999214D01*
X2892500Y-5999214D01*
X2863928Y-5984929D01*
X2849643Y-5970643D01*
X2835357Y-5942071D01*
X2821071Y-5884929D01*
X2821071Y-5813500D01*
X2835357Y-5756357D01*
X2849643Y-5727786D01*
X2863928Y-5713500D01*
X2892500Y-5699214D01*
X3121071Y-5970643D02*
X3135357Y-5984929D01*
X3121071Y-5999214D01*
X3106786Y-5984929D01*
X3121071Y-5970643D01*
X3121071Y-5999214D01*
X3321071Y-5699214D02*
X3349643Y-5699214D01*
X3378214Y-5713500D01*
X3392500Y-5727786D01*
X3406785Y-5756357D01*
X3421071Y-5813500D01*
X3421071Y-5884929D01*
X3406785Y-5942071D01*
X3392500Y-5970643D01*
X3378214Y-5984929D01*
X3349643Y-5999214D01*
X3321071Y-5999214D01*
X3292500Y-5984929D01*
X3278214Y-5970643D01*
X3263928Y-5942071D01*
X3249643Y-5884929D01*
X3249643Y-5813500D01*
X3263928Y-5756357D01*
X3278214Y-5727786D01*
X3292500Y-5713500D01*
X3321071Y-5699214D01*
X3535357Y-5727786D02*
X3549643Y-5713500D01*
X3578214Y-5699214D01*
X3649643Y-5699214D01*
X3678214Y-5713500D01*
X3692500Y-5727786D01*
X3706785Y-5756357D01*
X3706785Y-5784929D01*
X3692500Y-5827786D01*
X3521071Y-5999214D01*
X3706785Y-5999214D01*
X3892500Y-5699214D02*
X3921071Y-5699214D01*
X3949643Y-5713500D01*
X3963928Y-5727786D01*
X3978214Y-5756357D01*
X3992500Y-5813500D01*
X3992500Y-5884929D01*
X3978214Y-5942071D01*
X3963928Y-5970643D01*
X3949643Y-5984929D01*
X3921071Y-5999214D01*
X3892500Y-5999214D01*
X3863928Y-5984929D01*
X3849643Y-5970643D01*
X3835357Y-5942071D01*
X3821071Y-5884929D01*
X3821071Y-5813500D01*
X3835357Y-5756357D01*
X3849643Y-5727786D01*
X3863928Y-5713500D01*
X3892500Y-5699214D01*
X4106786Y-5699214D02*
X4106786Y-5756357D01*
X4221071Y-5699214D02*
X4221071Y-5756357D01*
X4663928Y-6113500D02*
X4649643Y-6099214D01*
X4621071Y-6056357D01*
X4606786Y-6027786D01*
X4592500Y-5984929D01*
X4578214Y-5913500D01*
X4578214Y-5856357D01*
X4592500Y-5784929D01*
X4606786Y-5742071D01*
X4621071Y-5713500D01*
X4649643Y-5670643D01*
X4663928Y-5656357D01*
X4935357Y-5999214D02*
X4763928Y-5999214D01*
X4849643Y-5999214D02*
X4849643Y-5699214D01*
X4821071Y-5742071D01*
X4792500Y-5770643D01*
X4763928Y-5784929D01*
X5121071Y-5699214D02*
X5149643Y-5699214D01*
X5178214Y-5713500D01*
X5192500Y-5727786D01*
X5206786Y-5756357D01*
X5221071Y-5813500D01*
X5221071Y-5884929D01*
X5206786Y-5942071D01*
X5192500Y-5970643D01*
X5178214Y-5984929D01*
X5149643Y-5999214D01*
X5121071Y-5999214D01*
X5092500Y-5984929D01*
X5078214Y-5970643D01*
X5063928Y-5942071D01*
X5049643Y-5884929D01*
X5049643Y-5813500D01*
X5063928Y-5756357D01*
X5078214Y-5727786D01*
X5092500Y-5713500D01*
X5121071Y-5699214D01*
X5335357Y-5727786D02*
X5349643Y-5713500D01*
X5378214Y-5699214D01*
X5449643Y-5699214D01*
X5478214Y-5713500D01*
X5492500Y-5727786D01*
X5506786Y-5756357D01*
X5506786Y-5784929D01*
X5492500Y-5827786D01*
X5321071Y-5999214D01*
X5506786Y-5999214D01*
X5863928Y-5999214D02*
X5863928Y-5699214D01*
X5992500Y-5999214D02*
X5992500Y-5842071D01*
X5978214Y-5813500D01*
X5949643Y-5799214D01*
X5906785Y-5799214D01*
X5878214Y-5813500D01*
X5863928Y-5827786D01*
X6178214Y-5999214D02*
X6149643Y-5984929D01*
X6135357Y-5970643D01*
X6121071Y-5942071D01*
X6121071Y-5856357D01*
X6135357Y-5827786D01*
X6149643Y-5813500D01*
X6178214Y-5799214D01*
X6221071Y-5799214D01*
X6249643Y-5813500D01*
X6263928Y-5827786D01*
X6278214Y-5856357D01*
X6278214Y-5942071D01*
X6263928Y-5970643D01*
X6249643Y-5984929D01*
X6221071Y-5999214D01*
X6178214Y-5999214D01*
X6449643Y-5999214D02*
X6421071Y-5984929D01*
X6406786Y-5956357D01*
X6406786Y-5699214D01*
X6678214Y-5984929D02*
X6649643Y-5999214D01*
X6592500Y-5999214D01*
X6563928Y-5984929D01*
X6549643Y-5956357D01*
X6549643Y-5842071D01*
X6563928Y-5813500D01*
X6592500Y-5799214D01*
X6649643Y-5799214D01*
X6678214Y-5813500D01*
X6692500Y-5842071D01*
X6692500Y-5870643D01*
X6549643Y-5899214D01*
X6806786Y-5984929D02*
X6835357Y-5999214D01*
X6892500Y-5999214D01*
X6921071Y-5984929D01*
X6935357Y-5956357D01*
X6935357Y-5942071D01*
X6921071Y-5913500D01*
X6892500Y-5899214D01*
X6849643Y-5899214D01*
X6821071Y-5884929D01*
X6806786Y-5856357D01*
X6806786Y-5842071D01*
X6821071Y-5813500D01*
X6849643Y-5799214D01*
X6892500Y-5799214D01*
X6921071Y-5813500D01*
X7035357Y-6113500D02*
X7049643Y-6099214D01*
X7078214Y-6056357D01*
X7092500Y-6027786D01*
X7106786Y-5984929D01*
X7121071Y-5913500D01*
X7121071Y-5856357D01*
X7106786Y-5784929D01*
X7092500Y-5742071D01*
X7078214Y-5713500D01*
X7049643Y-5670643D01*
X7035357Y-5656357D01*
X-312500Y-5954500D02*
X-312500Y-6564500D01*
X-617500Y-6259500D02*
X-7500Y-6259500D01*
X392500Y-6095214D02*
X335357Y-6095214D01*
X306786Y-6109500D01*
X292500Y-6123786D01*
X263929Y-6166643D01*
X249643Y-6223786D01*
X249643Y-6338071D01*
X263929Y-6366643D01*
X278214Y-6380929D01*
X306786Y-6395214D01*
X363928Y-6395214D01*
X392500Y-6380929D01*
X406786Y-6366643D01*
X421071Y-6338071D01*
X421071Y-6266643D01*
X406786Y-6238071D01*
X392500Y-6223786D01*
X363928Y-6209500D01*
X306786Y-6209500D01*
X278214Y-6223786D01*
X263929Y-6238071D01*
X249643Y-6266643D01*
X549643Y-6366643D02*
X563929Y-6380929D01*
X549643Y-6395214D01*
X535357Y-6380929D01*
X549643Y-6366643D01*
X549643Y-6395214D01*
X849643Y-6395214D02*
X678214Y-6395214D01*
X763928Y-6395214D02*
X763928Y-6095214D01*
X735357Y-6138071D01*
X706786Y-6166643D01*
X678214Y-6180929D01*
X1035357Y-6095214D02*
X1063929Y-6095214D01*
X1092500Y-6109500D01*
X1106786Y-6123786D01*
X1121071Y-6152357D01*
X1135357Y-6209500D01*
X1135357Y-6280929D01*
X1121071Y-6338071D01*
X1106786Y-6366643D01*
X1092500Y-6380929D01*
X1063929Y-6395214D01*
X1035357Y-6395214D01*
X1006786Y-6380929D01*
X992500Y-6366643D01*
X978214Y-6338071D01*
X963928Y-6280929D01*
X963928Y-6209500D01*
X978214Y-6152357D01*
X992500Y-6123786D01*
X1006786Y-6109500D01*
X1035357Y-6095214D01*
X1263929Y-6395214D02*
X1263929Y-6195214D01*
X1263929Y-6223786D02*
X1278214Y-6209500D01*
X1306786Y-6195214D01*
X1349643Y-6195214D01*
X1378214Y-6209500D01*
X1392500Y-6238071D01*
X1392500Y-6395214D01*
X1392500Y-6238071D02*
X1406786Y-6209500D01*
X1435357Y-6195214D01*
X1478214Y-6195214D01*
X1506786Y-6209500D01*
X1521071Y-6238071D01*
X1521071Y-6395214D01*
X1663928Y-6395214D02*
X1663928Y-6195214D01*
X1663928Y-6223786D02*
X1678214Y-6209500D01*
X1706786Y-6195214D01*
X1749643Y-6195214D01*
X1778214Y-6209500D01*
X1792500Y-6238071D01*
X1792500Y-6395214D01*
X1792500Y-6238071D02*
X1806786Y-6209500D01*
X1835357Y-6195214D01*
X1878214Y-6195214D01*
X1906786Y-6209500D01*
X1921071Y-6238071D01*
X1921071Y-6395214D01*
X2506786Y-6080929D02*
X2249643Y-6466643D01*
X2892500Y-6095214D02*
X2921071Y-6095214D01*
X2949643Y-6109500D01*
X2963928Y-6123786D01*
X2978214Y-6152357D01*
X2992500Y-6209500D01*
X2992500Y-6280929D01*
X2978214Y-6338071D01*
X2963928Y-6366643D01*
X2949643Y-6380929D01*
X2921071Y-6395214D01*
X2892500Y-6395214D01*
X2863928Y-6380929D01*
X2849643Y-6366643D01*
X2835357Y-6338071D01*
X2821071Y-6280929D01*
X2821071Y-6209500D01*
X2835357Y-6152357D01*
X2849643Y-6123786D01*
X2863928Y-6109500D01*
X2892500Y-6095214D01*
X3121071Y-6366643D02*
X3135357Y-6380929D01*
X3121071Y-6395214D01*
X3106786Y-6380929D01*
X3121071Y-6366643D01*
X3121071Y-6395214D01*
X3249643Y-6123786D02*
X3263928Y-6109500D01*
X3292500Y-6095214D01*
X3363928Y-6095214D01*
X3392500Y-6109500D01*
X3406785Y-6123786D01*
X3421071Y-6152357D01*
X3421071Y-6180929D01*
X3406785Y-6223786D01*
X3235357Y-6395214D01*
X3421071Y-6395214D01*
X3678214Y-6195214D02*
X3678214Y-6395214D01*
X3606785Y-6080929D02*
X3535357Y-6295214D01*
X3721071Y-6295214D01*
X3892500Y-6095214D02*
X3921071Y-6095214D01*
X3949643Y-6109500D01*
X3963928Y-6123786D01*
X3978214Y-6152357D01*
X3992500Y-6209500D01*
X3992500Y-6280929D01*
X3978214Y-6338071D01*
X3963928Y-6366643D01*
X3949643Y-6380929D01*
X3921071Y-6395214D01*
X3892500Y-6395214D01*
X3863928Y-6380929D01*
X3849643Y-6366643D01*
X3835357Y-6338071D01*
X3821071Y-6280929D01*
X3821071Y-6209500D01*
X3835357Y-6152357D01*
X3849643Y-6123786D01*
X3863928Y-6109500D01*
X3892500Y-6095214D01*
X4106786Y-6095214D02*
X4106786Y-6152357D01*
X4221071Y-6095214D02*
X4221071Y-6152357D01*
X4663928Y-6509500D02*
X4649643Y-6495214D01*
X4621071Y-6452357D01*
X4606786Y-6423786D01*
X4592500Y-6380929D01*
X4578214Y-6309500D01*
X4578214Y-6252357D01*
X4592500Y-6180929D01*
X4606786Y-6138071D01*
X4621071Y-6109500D01*
X4649643Y-6066643D01*
X4663928Y-6052357D01*
X4763928Y-6123786D02*
X4778214Y-6109500D01*
X4806786Y-6095214D01*
X4878214Y-6095214D01*
X4906786Y-6109500D01*
X4921071Y-6123786D01*
X4935357Y-6152357D01*
X4935357Y-6180929D01*
X4921071Y-6223786D01*
X4749643Y-6395214D01*
X4935357Y-6395214D01*
X5292500Y-6395214D02*
X5292500Y-6095214D01*
X5421071Y-6395214D02*
X5421071Y-6238071D01*
X5406786Y-6209500D01*
X5378214Y-6195214D01*
X5335357Y-6195214D01*
X5306786Y-6209500D01*
X5292500Y-6223786D01*
X5606785Y-6395214D02*
X5578214Y-6380929D01*
X5563928Y-6366643D01*
X5549643Y-6338071D01*
X5549643Y-6252357D01*
X5563928Y-6223786D01*
X5578214Y-6209500D01*
X5606785Y-6195214D01*
X5649643Y-6195214D01*
X5678214Y-6209500D01*
X5692500Y-6223786D01*
X5706785Y-6252357D01*
X5706785Y-6338071D01*
X5692500Y-6366643D01*
X5678214Y-6380929D01*
X5649643Y-6395214D01*
X5606785Y-6395214D01*
X5878214Y-6395214D02*
X5849643Y-6380929D01*
X5835357Y-6352357D01*
X5835357Y-6095214D01*
X6106786Y-6380929D02*
X6078214Y-6395214D01*
X6021071Y-6395214D01*
X5992500Y-6380929D01*
X5978214Y-6352357D01*
X5978214Y-6238071D01*
X5992500Y-6209500D01*
X6021071Y-6195214D01*
X6078214Y-6195214D01*
X6106786Y-6209500D01*
X6121071Y-6238071D01*
X6121071Y-6266643D01*
X5978214Y-6295214D01*
X6235357Y-6380929D02*
X6263928Y-6395214D01*
X6321071Y-6395214D01*
X6349643Y-6380929D01*
X6363928Y-6352357D01*
X6363928Y-6338071D01*
X6349643Y-6309500D01*
X6321071Y-6295214D01*
X6278214Y-6295214D01*
X6249643Y-6280929D01*
X6235357Y-6252357D01*
X6235357Y-6238071D01*
X6249643Y-6209500D01*
X6278214Y-6195214D01*
X6321071Y-6195214D01*
X6349643Y-6209500D01*
X6463928Y-6509500D02*
X6478214Y-6495214D01*
X6506786Y-6452357D01*
X6521071Y-6423786D01*
X6535357Y-6380929D01*
X6549643Y-6309500D01*
X6549643Y-6252357D01*
X6535357Y-6180929D01*
X6521071Y-6138071D01*
X6506786Y-6109500D01*
X6478214Y-6066643D01*
X6463928Y-6052357D01*
M02*
