G04 #@! TF.FileFunction,Copper,L1,Top,Signal*
%FSLAX46Y46*%
G04 Gerber Fmt 4.6, Leading zero omitted, Abs format (unit mm)*
G04 Created by KiCad (PCBNEW 4.0.7) date 07/02/21 15:20:09*
%MOMM*%
%LPD*%
G01*
G04 APERTURE LIST*
%ADD10C,0.200000*%
%ADD11R,3.000000X2.400000*%
%ADD12R,1.500000X1.400000*%
%ADD13R,1.400000X1.500000*%
%ADD14R,1.600000X6.000000*%
%ADD15R,0.250000X1.800000*%
%ADD16R,1.800000X0.250000*%
%ADD17O,2.200000X0.203200*%
%ADD18R,1.300000X2.500000*%
%ADD19R,3.850000X2.600000*%
%ADD20C,6.100000*%
%ADD21C,0.700000*%
%ADD22C,0.600000*%
%ADD23C,0.400000*%
%ADD24C,0.500000*%
%ADD25C,0.250000*%
%ADD26C,0.203200*%
%ADD27C,0.300000*%
G04 APERTURE END LIST*
D10*
D11*
X6499000Y-25468000D03*
X6499000Y-20068000D03*
D12*
X17802000Y-20261000D03*
X17802000Y-18216300D03*
D13*
X60474000Y-23944000D03*
X58429300Y-23944000D03*
D12*
X63903000Y-14165000D03*
X63903000Y-16209700D03*
X17802000Y-15562000D03*
X17802000Y-13517300D03*
X44980000Y-24706000D03*
X44980000Y-26750700D03*
D14*
X81140000Y-41000000D03*
X78600000Y-41000000D03*
X76060000Y-41000000D03*
X73520000Y-41000000D03*
X70980000Y-41000000D03*
X68440000Y-41000000D03*
X65900000Y-41000000D03*
X63360000Y-41000000D03*
X60820000Y-41000000D03*
X58280000Y-41000000D03*
X55740000Y-41000000D03*
X53200000Y-41000000D03*
X50660000Y-41000000D03*
X48120000Y-41000000D03*
X45580000Y-41000000D03*
X43040000Y-41000000D03*
X40500000Y-41000000D03*
X37960000Y-41000000D03*
X35420000Y-41000000D03*
X32880000Y-41000000D03*
X30340000Y-41000000D03*
X27800000Y-41000000D03*
X25260000Y-41000000D03*
X22720000Y-41000000D03*
X20180000Y-41000000D03*
X17640000Y-41000000D03*
X15100000Y-41000000D03*
X12560000Y-41000000D03*
X10020000Y-41000000D03*
X7480000Y-41000000D03*
X4940000Y-41000000D03*
X2400000Y-41000000D03*
D15*
X47139000Y-30040000D03*
X47789000Y-30040000D03*
X48439000Y-30040000D03*
X49089000Y-30040000D03*
X49739000Y-30040000D03*
X50389000Y-30040000D03*
X51039000Y-30040000D03*
X51689000Y-30040000D03*
X52339000Y-30040000D03*
X52989000Y-30040000D03*
X52989000Y-24440000D03*
X52339000Y-24440000D03*
X51689000Y-24440000D03*
X51039000Y-24440000D03*
X50389000Y-24440000D03*
X49739000Y-24440000D03*
X49089000Y-24440000D03*
X48439000Y-24440000D03*
X47789000Y-24440000D03*
X47139000Y-24440000D03*
D16*
X60474000Y-21912000D03*
X60474000Y-21262000D03*
X60474000Y-20612000D03*
X60474000Y-19962000D03*
X60474000Y-19312000D03*
X60474000Y-18662000D03*
X60474000Y-18012000D03*
X60474000Y-17362000D03*
X60474000Y-16712000D03*
X60474000Y-16062000D03*
X54874000Y-16062000D03*
X54874000Y-16712000D03*
X54874000Y-17362000D03*
X54874000Y-18012000D03*
X54874000Y-18662000D03*
X54874000Y-19312000D03*
X54874000Y-19962000D03*
X54874000Y-20612000D03*
X54874000Y-21262000D03*
X54874000Y-21912000D03*
X60347000Y-13403000D03*
X60347000Y-12753000D03*
X60347000Y-12103000D03*
X60347000Y-11453000D03*
X60347000Y-10803000D03*
X60347000Y-10153000D03*
X60347000Y-9503000D03*
X60347000Y-8853000D03*
X60347000Y-8203000D03*
X60347000Y-7553000D03*
X54747000Y-7553000D03*
X54747000Y-8203000D03*
X54747000Y-8853000D03*
X54747000Y-9503000D03*
X54747000Y-10153000D03*
X54747000Y-10803000D03*
X54747000Y-11453000D03*
X54747000Y-12103000D03*
X54747000Y-12753000D03*
X54747000Y-13403000D03*
D17*
X45074000Y-21054000D03*
X45074000Y-20554000D03*
X45074000Y-20054000D03*
X45074000Y-19554000D03*
X45074000Y-19054000D03*
X45074000Y-18554000D03*
X45074000Y-18054000D03*
X45074000Y-17554000D03*
X45074000Y-17054000D03*
X45074000Y-16554000D03*
X45074000Y-16054000D03*
X45074000Y-15554000D03*
X45074000Y-15054000D03*
X45074000Y-14554000D03*
X45074000Y-14054000D03*
X45074000Y-13554000D03*
X45074000Y-13054000D03*
X45074000Y-12554000D03*
X45074000Y-12054000D03*
X45074000Y-11554000D03*
X45074000Y-11054000D03*
X45074000Y-10554000D03*
X45074000Y-10054000D03*
X45074000Y-9554000D03*
X25074000Y-9554000D03*
X25074000Y-10054000D03*
X25074000Y-10554000D03*
X25074000Y-11054000D03*
X25074000Y-11554000D03*
X25074000Y-12054000D03*
X25074000Y-12554000D03*
X25074000Y-13054000D03*
X25074000Y-13554000D03*
X25074000Y-14054000D03*
X25074000Y-14554000D03*
X25074000Y-15054000D03*
X25074000Y-15554000D03*
X25074000Y-16054000D03*
X25074000Y-16554000D03*
X25074000Y-17054000D03*
X25074000Y-17554000D03*
X25074000Y-18054000D03*
X25074000Y-18554000D03*
X25074000Y-19054000D03*
X25074000Y-19554000D03*
X25074000Y-20054000D03*
X25074000Y-20554000D03*
X25074000Y-21054000D03*
D18*
X10182000Y-21785000D03*
X12480700Y-21785000D03*
X14779400Y-21785000D03*
D19*
X12480700Y-15689000D03*
D20*
X6400000Y-11100000D03*
X75800000Y-11100000D03*
D10*
G36*
X51259829Y-16591565D02*
X50835565Y-17015829D01*
X50340591Y-16520855D01*
X50764855Y-16096591D01*
X51259829Y-16591565D01*
X51259829Y-16591565D01*
G37*
G36*
X50586310Y-15918046D02*
X50162046Y-16342310D01*
X49667072Y-15847336D01*
X50091336Y-15423072D01*
X50586310Y-15918046D01*
X50586310Y-15918046D01*
G37*
D21*
X63268000Y-17848000D03*
X20723000Y-17975000D03*
X79524000Y-4513000D03*
X71777000Y-3751000D03*
X66316000Y-5021000D03*
X24533000Y-7180000D03*
X26819000Y-3751000D03*
X68983000Y-14038000D03*
X68983000Y-10228000D03*
X65808000Y-9085000D03*
X63268000Y-7053000D03*
X66824000Y-17467000D03*
X70253000Y-19880000D03*
X54632000Y-4005000D03*
X60220000Y-4132000D03*
X21612000Y-2862000D03*
X16786000Y-2862000D03*
X3070000Y-4513000D03*
X9420000Y-2735000D03*
X14500000Y-4894000D03*
X24787000Y-23055000D03*
X35074000Y-14419000D03*
X33550000Y-18356000D03*
X38630000Y-18356000D03*
X41424000Y-14419000D03*
X47901000Y-15054000D03*
X50695000Y-12387000D03*
X57807000Y-16959000D03*
X74952000Y-17594000D03*
X81048000Y-15435000D03*
X76476000Y-28897000D03*
X81556000Y-26992000D03*
X72539000Y-25214000D03*
X76222000Y-22293000D03*
X80159000Y-19880000D03*
X70126000Y-30675000D03*
X67840000Y-28389000D03*
X63903000Y-33596000D03*
X62252000Y-28389000D03*
X63141000Y-30802000D03*
X54886000Y-30548000D03*
X57934000Y-29278000D03*
X54886000Y-27627000D03*
X57807000Y-26230000D03*
X54886000Y-24960000D03*
X51457000Y-28262000D03*
X49679000Y-26484000D03*
X42694000Y-32453000D03*
X44091000Y-30421000D03*
X28089000Y-16324000D03*
X22501000Y-16451000D03*
X22374000Y-14165000D03*
X20469000Y-12133000D03*
X41678000Y-9974000D03*
X37614000Y-12260000D03*
X34947000Y-9974000D03*
X32026000Y-12260000D03*
X29740000Y-9974000D03*
X21485000Y-9593000D03*
X19834000Y-7434000D03*
X16532000Y-9720000D03*
X12341000Y-9720000D03*
X12341000Y-12514000D03*
X2435000Y-20134000D03*
X5102000Y-17340000D03*
X1800000Y-15689000D03*
X1419000Y-29913000D03*
X3578000Y-27500000D03*
X38503000Y-28770000D03*
X35328000Y-32072000D03*
X33804000Y-28643000D03*
X41678000Y-24198000D03*
X39900000Y-26357000D03*
X37614000Y-24198000D03*
X35582000Y-26103000D03*
X33804000Y-24198000D03*
X26311000Y-29532000D03*
X25422000Y-32453000D03*
X23771000Y-34104000D03*
X31010000Y-25595000D03*
X29994000Y-28262000D03*
X30502000Y-33469000D03*
X29232000Y-30421000D03*
X21231000Y-32961000D03*
X19326000Y-33977000D03*
X17675000Y-31183000D03*
X15389000Y-33215000D03*
X18310000Y-24960000D03*
X13992000Y-27246000D03*
X11960000Y-30294000D03*
X8404000Y-33215000D03*
X6372000Y-30675000D03*
X7769000Y-28516000D03*
X9674000Y-26865000D03*
X51203000Y-20515000D03*
X64284000Y-25976000D03*
X67205000Y-23055000D03*
X15770000Y-13530000D03*
X42821000Y-26738000D03*
X46123000Y-22801000D03*
X10182000Y-18610000D03*
X15135000Y-18737000D03*
D22*
X52219000Y-12768000D03*
X20723000Y-16959000D03*
X41551000Y-20007000D03*
X62125000Y-16705000D03*
X67713000Y-32326000D03*
X65935000Y-32834000D03*
X61998000Y-13403000D03*
X56918000Y-12768000D03*
X60093000Y-33342000D03*
X55775000Y-33977000D03*
X57680000Y-11498000D03*
X57045000Y-10863000D03*
X50695000Y-33342000D03*
X45615000Y-33723000D03*
X58061000Y-10101000D03*
X40535000Y-32834000D03*
X58442000Y-8196000D03*
X21231000Y-22420000D03*
X33296000Y-32834000D03*
X27835000Y-28389000D03*
X23771000Y-24325000D03*
X21866000Y-26865000D03*
X21866000Y-31310000D03*
X19961000Y-27627000D03*
X19453000Y-29913000D03*
X67332000Y-30040000D03*
X66443000Y-30167000D03*
X62252000Y-20134000D03*
X58569000Y-18610000D03*
X58569000Y-20134000D03*
X57426000Y-20261000D03*
X57172000Y-9466000D03*
X57807000Y-8831000D03*
X22628000Y-23182000D03*
X21485000Y-23563000D03*
X22374000Y-25976000D03*
X21104000Y-27500000D03*
X25676000Y-22039000D03*
X47520000Y-22039000D03*
D23*
X63776000Y-22166000D02*
X63776000Y-21658000D01*
X78600000Y-41000000D02*
X78600000Y-36990000D01*
X78600000Y-36990000D02*
X65173000Y-23563000D01*
X63268000Y-17848000D02*
X63776000Y-18356000D01*
X63776000Y-18356000D02*
X63776000Y-21658000D01*
X65173000Y-23563000D02*
X63776000Y-22166000D01*
X18818000Y-20134000D02*
X17929000Y-20134000D01*
X20723000Y-18229000D02*
X18818000Y-20134000D01*
X20723000Y-17975000D02*
X20723000Y-18229000D01*
X17929000Y-20134000D02*
X17802000Y-20261000D01*
D24*
X4940000Y-41000000D02*
X4940000Y-28551000D01*
X6499000Y-26992000D02*
X6499000Y-25468000D01*
X4940000Y-28551000D02*
X6499000Y-26992000D01*
X14779400Y-21785000D02*
X16303400Y-20261000D01*
X16303400Y-20261000D02*
X17802000Y-20261000D01*
X6499000Y-25468000D02*
X12849000Y-25468000D01*
X14779400Y-23537600D02*
X14779400Y-21785000D01*
X12849000Y-25468000D02*
X14779400Y-23537600D01*
D25*
X63268000Y-7053000D02*
X65300000Y-5021000D01*
X78762000Y-3751000D02*
X79524000Y-4513000D01*
X71777000Y-3751000D02*
X78762000Y-3751000D01*
X65300000Y-5021000D02*
X66316000Y-5021000D01*
X19834000Y-7434000D02*
X20088000Y-7180000D01*
X20088000Y-7180000D02*
X24533000Y-7180000D01*
X68983000Y-14038000D02*
X68983000Y-10228000D01*
X65808000Y-9085000D02*
X65300000Y-9085000D01*
X65300000Y-9085000D02*
X63268000Y-7053000D01*
D24*
X69237000Y-19880000D02*
X66824000Y-17467000D01*
X70253000Y-19880000D02*
X69237000Y-19880000D01*
D25*
X60093000Y-4005000D02*
X54632000Y-4005000D01*
X60220000Y-4132000D02*
X60093000Y-4005000D01*
X21612000Y-2862000D02*
X16786000Y-2862000D01*
X12341000Y-2735000D02*
X9420000Y-2735000D01*
X14500000Y-4894000D02*
X12341000Y-2735000D01*
D26*
X25074000Y-20054000D02*
X23216000Y-20054000D01*
X22882000Y-21150000D02*
X22882000Y-20642000D01*
X22882000Y-21150000D02*
X24787000Y-23055000D01*
X22882000Y-20388000D02*
X22882000Y-20642000D01*
X23216000Y-20054000D02*
X22882000Y-20388000D01*
X25074000Y-10554000D02*
X19127000Y-10554000D01*
X17802000Y-11879000D02*
X17802000Y-13517300D01*
X19127000Y-10554000D02*
X17802000Y-11879000D01*
D25*
X35455000Y-14419000D02*
X35074000Y-14419000D01*
X33550000Y-18356000D02*
X38630000Y-18356000D01*
X35455000Y-14419000D02*
X37614000Y-12260000D01*
X60474000Y-16062000D02*
X58704000Y-16062000D01*
X58704000Y-16062000D02*
X57807000Y-16959000D01*
D24*
X75714000Y-28897000D02*
X76476000Y-28897000D01*
X81556000Y-26992000D02*
X79778000Y-25214000D01*
X79778000Y-25214000D02*
X72539000Y-25214000D01*
X76222000Y-22293000D02*
X77746000Y-22293000D01*
X77746000Y-22293000D02*
X80159000Y-19880000D01*
X74380500Y-30230500D02*
X75714000Y-28897000D01*
D25*
X70126000Y-30675000D02*
X67840000Y-28389000D01*
X61871000Y-28008000D02*
X62252000Y-28389000D01*
X61871000Y-25976000D02*
X61871000Y-28008000D01*
X53997000Y-24960000D02*
X54886000Y-24960000D01*
X56664000Y-30548000D02*
X54886000Y-30548000D01*
X57934000Y-29278000D02*
X56664000Y-30548000D01*
X56283000Y-26230000D02*
X54886000Y-27627000D01*
X57807000Y-26230000D02*
X56283000Y-26230000D01*
X51457000Y-27500000D02*
X51457000Y-28262000D01*
X49298000Y-27500000D02*
X49679000Y-27119000D01*
X49679000Y-27119000D02*
X49679000Y-26484000D01*
D24*
X40344500Y-29214500D02*
X42884500Y-29214500D01*
X42884500Y-29214500D02*
X44091000Y-30421000D01*
D25*
X22374000Y-14038000D02*
X22374000Y-14165000D01*
X20469000Y-12133000D02*
X22374000Y-14038000D01*
X35328000Y-9974000D02*
X37614000Y-12260000D01*
X34947000Y-9974000D02*
X35328000Y-9974000D01*
X29740000Y-9974000D02*
X32026000Y-12260000D01*
X19834000Y-7434000D02*
X19834000Y-7942000D01*
X19834000Y-7942000D02*
X21485000Y-9593000D01*
X15770000Y-13530000D02*
X14754000Y-12514000D01*
X12341000Y-9720000D02*
X16532000Y-9720000D01*
X14754000Y-12514000D02*
X12341000Y-12514000D01*
X6433000Y-20134000D02*
X2435000Y-20134000D01*
X3451000Y-17340000D02*
X5102000Y-17340000D01*
X1800000Y-15689000D02*
X3451000Y-17340000D01*
X6433000Y-20134000D02*
X6499000Y-20068000D01*
D24*
X2400000Y-24198000D02*
X2400000Y-20169000D01*
D25*
X2400000Y-29913000D02*
X1419000Y-29913000D01*
X35582000Y-26103000D02*
X35582000Y-26865000D01*
X35328000Y-31945000D02*
X38503000Y-28770000D01*
X35328000Y-32072000D02*
X35328000Y-31945000D01*
X35582000Y-26865000D02*
X33804000Y-28643000D01*
X39773000Y-26357000D02*
X39900000Y-26357000D01*
X37614000Y-24198000D02*
X39773000Y-26357000D01*
X35582000Y-25976000D02*
X35582000Y-26103000D01*
X33804000Y-24198000D02*
X35582000Y-25976000D01*
X23771000Y-34104000D02*
X25422000Y-32453000D01*
X26311000Y-29532000D02*
X26311000Y-31564000D01*
X26311000Y-31564000D02*
X25422000Y-32453000D01*
X29994000Y-28262000D02*
X29232000Y-29024000D01*
X31010000Y-25595000D02*
X31010000Y-27246000D01*
X31010000Y-27246000D02*
X29994000Y-28262000D01*
X29232000Y-29024000D02*
X29232000Y-30421000D01*
X20342000Y-32961000D02*
X21231000Y-32961000D01*
X19326000Y-33977000D02*
X20342000Y-32961000D01*
X15643000Y-33215000D02*
X17675000Y-31183000D01*
X15389000Y-33215000D02*
X15643000Y-33215000D01*
X11960000Y-29278000D02*
X13992000Y-27246000D01*
X11960000Y-30294000D02*
X11960000Y-29278000D01*
X6372000Y-31183000D02*
X8404000Y-33215000D01*
X6372000Y-30675000D02*
X6372000Y-31183000D01*
X8023000Y-28516000D02*
X7769000Y-28516000D01*
X9674000Y-26865000D02*
X8023000Y-28516000D01*
X52600000Y-21912000D02*
X52854000Y-21912000D01*
X51203000Y-20515000D02*
X52600000Y-21912000D01*
X60347000Y-7553000D02*
X61736000Y-7553000D01*
X66062000Y-16209700D02*
X63903000Y-16209700D01*
X66062000Y-16209700D02*
X66062000Y-12133000D01*
X66062000Y-11879000D02*
X66062000Y-12133000D01*
X61736000Y-7553000D02*
X66062000Y-11879000D01*
X60347000Y-7553000D02*
X56418000Y-7553000D01*
X56044000Y-12753000D02*
X54747000Y-12753000D01*
X56283000Y-12514000D02*
X56044000Y-12753000D01*
X56283000Y-7688000D02*
X56283000Y-12514000D01*
X56418000Y-7553000D02*
X56283000Y-7688000D01*
X54732000Y-12768000D02*
X54747000Y-12753000D01*
X58429300Y-25455300D02*
X58950000Y-25976000D01*
X58950000Y-25976000D02*
X61871000Y-25976000D01*
X61871000Y-25976000D02*
X64284000Y-25976000D01*
X58429300Y-25455300D02*
X58429300Y-23944000D01*
D24*
X81140000Y-41000000D02*
X81140000Y-36990000D01*
X64919000Y-17225700D02*
X63903000Y-16209700D01*
X67205000Y-23055000D02*
X64919000Y-20769000D01*
X64919000Y-20769000D02*
X64919000Y-17225700D01*
X81140000Y-36990000D02*
X74380500Y-30230500D01*
X74380500Y-30230500D02*
X67205000Y-23055000D01*
X37960000Y-41000000D02*
X37960000Y-31599000D01*
X37960000Y-31599000D02*
X40344500Y-29214500D01*
X40344500Y-29214500D02*
X42821000Y-26738000D01*
D25*
X42833700Y-26750700D02*
X44980000Y-26750700D01*
D24*
X6499000Y-20068000D02*
X8216000Y-21785000D01*
X8216000Y-21785000D02*
X10182000Y-21785000D01*
X2400000Y-41000000D02*
X2400000Y-29913000D01*
X2400000Y-29913000D02*
X2400000Y-24198000D01*
X2400000Y-24198000D02*
X2400000Y-24167000D01*
D25*
X15770000Y-13530000D02*
X15782700Y-13517300D01*
X15782700Y-13517300D02*
X17802000Y-13517300D01*
X60474000Y-16062000D02*
X63755300Y-16062000D01*
X63755300Y-16062000D02*
X63903000Y-16209700D01*
X58429300Y-23944000D02*
X53997000Y-23944000D01*
X52989000Y-27500000D02*
X52989000Y-26984000D01*
X53250000Y-21262000D02*
X52981000Y-21531000D01*
X52981000Y-21912000D02*
X52981000Y-22293000D01*
X52981000Y-21531000D02*
X52981000Y-21912000D01*
X52981000Y-22293000D02*
X53997000Y-23309000D01*
X53250000Y-21262000D02*
X54874000Y-21262000D01*
X53997000Y-25976000D02*
X53997000Y-24960000D01*
X53997000Y-24960000D02*
X53997000Y-23944000D01*
X53997000Y-23944000D02*
X53997000Y-23309000D01*
X52989000Y-26984000D02*
X53997000Y-25976000D01*
X42821000Y-26738000D02*
X42833700Y-26750700D01*
X47789000Y-23070000D02*
X47789000Y-24440000D01*
X47647000Y-22928000D02*
X47789000Y-23070000D01*
X46250000Y-22928000D02*
X47647000Y-22928000D01*
X46123000Y-22801000D02*
X46250000Y-22928000D01*
X10182000Y-21785000D02*
X10182000Y-18610000D01*
X15655700Y-18216300D02*
X17802000Y-18216300D01*
X15135000Y-18737000D02*
X15655700Y-18216300D01*
X54732000Y-12768000D02*
X54747000Y-12753000D01*
X52989000Y-28143000D02*
X52989000Y-27500000D01*
X52989000Y-30040000D02*
X52989000Y-28143000D01*
X52989000Y-27500000D02*
X52981000Y-27500000D01*
X52346000Y-27500000D02*
X52981000Y-27500000D01*
X48409000Y-27500000D02*
X49298000Y-27500000D01*
X49298000Y-27500000D02*
X51076000Y-27500000D01*
X51076000Y-27500000D02*
X51457000Y-27500000D01*
X51457000Y-27500000D02*
X52346000Y-27500000D01*
X60355000Y-7561000D02*
X60347000Y-7553000D01*
X48439000Y-30040000D02*
X48439000Y-27530000D01*
X48439000Y-27530000D02*
X48409000Y-27500000D01*
X47789000Y-24440000D02*
X47789000Y-26880000D01*
X47789000Y-26880000D02*
X48409000Y-27500000D01*
D26*
X45074000Y-15554000D02*
X45074000Y-16054000D01*
X45074000Y-16054000D02*
X43345000Y-16054000D01*
X43345000Y-16054000D02*
X43329000Y-16070000D01*
X54747000Y-13403000D02*
X52854000Y-13403000D01*
X52854000Y-13403000D02*
X52219000Y-12768000D01*
X20596000Y-15554000D02*
X20596000Y-16832000D01*
X20596000Y-16832000D02*
X20723000Y-16959000D01*
X17802000Y-15562000D02*
X17810000Y-15554000D01*
X17810000Y-15554000D02*
X20596000Y-15554000D01*
X20596000Y-15554000D02*
X25074000Y-15554000D01*
X41551000Y-20007000D02*
X43329000Y-20007000D01*
X43329000Y-16451000D02*
X43329000Y-20007000D01*
X43329000Y-16070000D02*
X43329000Y-16451000D01*
X43329000Y-20007000D02*
X43329000Y-21277000D01*
X44980000Y-22928000D02*
X44980000Y-24706000D01*
X44726000Y-22674000D02*
X44980000Y-22928000D01*
X43329000Y-21277000D02*
X44726000Y-22674000D01*
X60347000Y-13403000D02*
X61109000Y-14165000D01*
X61109000Y-14165000D02*
X63903000Y-14165000D01*
X43329000Y-16070000D02*
X43329000Y-14927000D01*
X43329000Y-14927000D02*
X43702000Y-14554000D01*
X43702000Y-14554000D02*
X45074000Y-14554000D01*
D27*
X12480700Y-21785000D02*
X12480700Y-19994300D01*
X16913000Y-15562000D02*
X17802000Y-15562000D01*
X12480700Y-19994300D02*
X16913000Y-15562000D01*
D26*
X60474000Y-23944000D02*
X60474000Y-21912000D01*
X44980000Y-24706000D02*
X45246000Y-24440000D01*
X45246000Y-24440000D02*
X47139000Y-24440000D01*
X56664000Y-21912000D02*
X56664000Y-13403000D01*
X54759000Y-13415000D02*
X54747000Y-13403000D01*
X57172000Y-21912000D02*
X56664000Y-21912000D01*
X56664000Y-21912000D02*
X56156000Y-21912000D01*
X56156000Y-21912000D02*
X54874000Y-21912000D01*
X57172000Y-21912000D02*
X60474000Y-21912000D01*
X54747000Y-13403000D02*
X56664000Y-13403000D01*
X56664000Y-13403000D02*
X57172000Y-13403000D01*
X57172000Y-13403000D02*
X60347000Y-13403000D01*
X47139000Y-24440000D02*
X47139000Y-30040000D01*
X63141000Y-21785000D02*
X63141000Y-22311084D01*
X76060000Y-35230084D02*
X74117458Y-33287542D01*
X76060000Y-35230084D02*
X76060000Y-41000000D01*
X63141000Y-22311084D02*
X74117458Y-33287542D01*
X63141000Y-21785000D02*
X63141000Y-18737000D01*
X60474000Y-17362000D02*
X61766000Y-17362000D01*
X61766000Y-17362000D02*
X63014000Y-18610000D01*
X63141000Y-21531000D02*
X63141000Y-21785000D01*
X63141000Y-18737000D02*
X63014000Y-18610000D01*
X68094000Y-31691000D02*
X70126000Y-31691000D01*
X52339000Y-30040000D02*
X52339000Y-31303000D01*
X73520000Y-37117000D02*
X73520000Y-41000000D01*
X52727000Y-31691000D02*
X66824000Y-31691000D01*
X52339000Y-31303000D02*
X52727000Y-31691000D01*
X66824000Y-31691000D02*
X68094000Y-31691000D01*
X73520000Y-35085000D02*
X73520000Y-37117000D01*
X70126000Y-31691000D02*
X73520000Y-35085000D01*
X70980000Y-35212000D02*
X70634000Y-34866000D01*
X62118000Y-16712000D02*
X62125000Y-16705000D01*
X60474000Y-16712000D02*
X62118000Y-16712000D01*
X68094000Y-32326000D02*
X70634000Y-34866000D01*
X67713000Y-32326000D02*
X68094000Y-32326000D01*
X70980000Y-36736000D02*
X70980000Y-41000000D01*
X70980000Y-36736000D02*
X70980000Y-35212000D01*
X51965000Y-31564000D02*
X51689000Y-31288000D01*
X52600000Y-32199000D02*
X51965000Y-31564000D01*
X68440000Y-34993000D02*
X68440000Y-33942000D01*
X66697000Y-32199000D02*
X54124000Y-32199000D01*
X68440000Y-33942000D02*
X66697000Y-32199000D01*
X54124000Y-32199000D02*
X52600000Y-32199000D01*
X51689000Y-31288000D02*
X51689000Y-30040000D01*
X68440000Y-37279000D02*
X68440000Y-34993000D01*
X68440000Y-34993000D02*
X68440000Y-34958000D01*
X68440000Y-37244000D02*
X68440000Y-37279000D01*
X68440000Y-37279000D02*
X68440000Y-41000000D01*
X65900000Y-32869000D02*
X65935000Y-32834000D01*
X65900000Y-41000000D02*
X65900000Y-32869000D01*
X61602000Y-12753000D02*
X60347000Y-12753000D01*
X61998000Y-13149000D02*
X61602000Y-12753000D01*
X61998000Y-13403000D02*
X61998000Y-13149000D01*
X60982000Y-32707000D02*
X63360000Y-35085000D01*
X63360000Y-35466000D02*
X63360000Y-35085000D01*
X51039000Y-31273000D02*
X51039000Y-30040000D01*
X52473000Y-32707000D02*
X60601000Y-32707000D01*
X51039000Y-31273000D02*
X52473000Y-32707000D01*
X60601000Y-32707000D02*
X60982000Y-32707000D01*
X63360000Y-37117000D02*
X63360000Y-41000000D01*
X63360000Y-37117000D02*
X63360000Y-35466000D01*
X63360000Y-35882000D02*
X63360000Y-35466000D01*
X60820000Y-36517000D02*
X60820000Y-34069000D01*
X57583000Y-12103000D02*
X56918000Y-12768000D01*
X57583000Y-12103000D02*
X60347000Y-12103000D01*
X60820000Y-34069000D02*
X60093000Y-33342000D01*
X60820000Y-36898000D02*
X60820000Y-36517000D01*
X60820000Y-36517000D02*
X60820000Y-36482000D01*
X60820000Y-36863000D02*
X60820000Y-36898000D01*
X60820000Y-36898000D02*
X60820000Y-41000000D01*
X58280000Y-35085000D02*
X58280000Y-34831000D01*
X58280000Y-35120000D02*
X58280000Y-35974000D01*
X58280000Y-35085000D02*
X58280000Y-35120000D01*
X51076000Y-31945000D02*
X50389000Y-31258000D01*
X55521000Y-33215000D02*
X52346000Y-33215000D01*
X52346000Y-33215000D02*
X51076000Y-31945000D01*
X58280000Y-36898000D02*
X58280000Y-35974000D01*
X50389000Y-31258000D02*
X50389000Y-30040000D01*
X55521000Y-33215000D02*
X56156000Y-33215000D01*
X56664000Y-33215000D02*
X56156000Y-33215000D01*
X58280000Y-34831000D02*
X56664000Y-33215000D01*
X58280000Y-36863000D02*
X58280000Y-36898000D01*
X58280000Y-36898000D02*
X58280000Y-41000000D01*
X55775000Y-34485000D02*
X55775000Y-33977000D01*
X55775000Y-40965000D02*
X55775000Y-36517000D01*
X55775000Y-36517000D02*
X55775000Y-34485000D01*
X57725000Y-11453000D02*
X60347000Y-11453000D01*
X57725000Y-11453000D02*
X57680000Y-11498000D01*
X55775000Y-40965000D02*
X55740000Y-41000000D01*
X53200000Y-36898000D02*
X53200000Y-34831000D01*
X49739000Y-31370000D02*
X49739000Y-30040000D01*
X53200000Y-34831000D02*
X49739000Y-31370000D01*
X53200000Y-36863000D02*
X53200000Y-36898000D01*
X53200000Y-36898000D02*
X53200000Y-41000000D01*
X60347000Y-10803000D02*
X57105000Y-10803000D01*
X57105000Y-10803000D02*
X57045000Y-10863000D01*
X50695000Y-33977000D02*
X50695000Y-40965000D01*
X50695000Y-33342000D02*
X50695000Y-33977000D01*
X50695000Y-40965000D02*
X50660000Y-41000000D01*
X49089000Y-30040000D02*
X49089000Y-31646000D01*
X48120000Y-35663000D02*
X48120000Y-41000000D01*
X48120000Y-32615000D02*
X48120000Y-35663000D01*
X49089000Y-31646000D02*
X48120000Y-32615000D01*
X45580000Y-33758000D02*
X45615000Y-33723000D01*
X45580000Y-41000000D02*
X45580000Y-33758000D01*
X58113000Y-10153000D02*
X60347000Y-10153000D01*
X58061000Y-10101000D02*
X58113000Y-10153000D01*
X45615000Y-40965000D02*
X45580000Y-41000000D01*
X46885000Y-32326000D02*
X47774000Y-31437000D01*
X43040000Y-35155000D02*
X45869000Y-32326000D01*
X45869000Y-32326000D02*
X46885000Y-32326000D01*
X43040000Y-41000000D02*
X43040000Y-35155000D01*
X47774000Y-31437000D02*
X47774000Y-30055000D01*
X47774000Y-30055000D02*
X47789000Y-30040000D01*
X40535000Y-40965000D02*
X40535000Y-32834000D01*
X60347000Y-8203000D02*
X58449000Y-8203000D01*
X58449000Y-8203000D02*
X58442000Y-8196000D01*
X40535000Y-40965000D02*
X40500000Y-41000000D01*
X21485000Y-20261000D02*
X21231000Y-20515000D01*
X22692000Y-19054000D02*
X21485000Y-20261000D01*
X35420000Y-41000000D02*
X35420000Y-34958000D01*
X35420000Y-34958000D02*
X33296000Y-32834000D01*
X22692000Y-19054000D02*
X25074000Y-19054000D01*
X21231000Y-20515000D02*
X21231000Y-22420000D01*
X35455000Y-40965000D02*
X35420000Y-41000000D01*
X35455000Y-40965000D02*
X35420000Y-41000000D01*
X32880000Y-41000000D02*
X32880000Y-34831000D01*
X28780000Y-11554000D02*
X25074000Y-11554000D01*
X32407000Y-15181000D02*
X32407000Y-23944000D01*
X28780000Y-11554000D02*
X32407000Y-15181000D01*
X32407000Y-23944000D02*
X32407000Y-33723000D01*
X32407000Y-34358000D02*
X32407000Y-33723000D01*
X32880000Y-34831000D02*
X32407000Y-34358000D01*
X32915000Y-40965000D02*
X32880000Y-41000000D01*
X30340000Y-36390000D02*
X31899000Y-34831000D01*
X31899000Y-34704000D02*
X31899000Y-33723000D01*
X31899000Y-23944000D02*
X31899000Y-33723000D01*
X25074000Y-12054000D02*
X28645000Y-12054000D01*
X31899000Y-15308000D02*
X31899000Y-23944000D01*
X28645000Y-12054000D02*
X31899000Y-15308000D01*
X30340000Y-36390000D02*
X30340000Y-41000000D01*
X31899000Y-34831000D02*
X31899000Y-34704000D01*
X21358000Y-24325000D02*
X23771000Y-24325000D01*
X25074000Y-18054000D02*
X22422000Y-18054000D01*
X20088000Y-23055000D02*
X20850000Y-23817000D01*
X20088000Y-20388000D02*
X20088000Y-23055000D01*
X22422000Y-18054000D02*
X20088000Y-20388000D01*
X27835000Y-28389000D02*
X27800000Y-28424000D01*
X27800000Y-28424000D02*
X27800000Y-41000000D01*
X20850000Y-23817000D02*
X21358000Y-24325000D01*
X27835000Y-40965000D02*
X27800000Y-41000000D01*
X25260000Y-41000000D02*
X25260000Y-36298000D01*
X27200000Y-34358000D02*
X27200000Y-28008000D01*
X25260000Y-36298000D02*
X27200000Y-34358000D01*
X27200000Y-28008000D02*
X27200000Y-28008000D01*
X25074000Y-12554000D02*
X28510000Y-12554000D01*
X31391000Y-23817000D02*
X27200000Y-28008000D01*
X31391000Y-15435000D02*
X31391000Y-23817000D01*
X28510000Y-12554000D02*
X31391000Y-15435000D01*
X25074000Y-13054000D02*
X28375000Y-13054000D01*
X22720000Y-31853000D02*
X22720000Y-41000000D01*
X30883000Y-23690000D02*
X22720000Y-31853000D01*
X30883000Y-15562000D02*
X30883000Y-23690000D01*
X28375000Y-13054000D02*
X30883000Y-15562000D01*
X27327000Y-17848000D02*
X26533000Y-17054000D01*
X25074000Y-17054000D02*
X26533000Y-17054000D01*
X27327000Y-22801000D02*
X27327000Y-18356000D01*
X23263000Y-26865000D02*
X27327000Y-22801000D01*
X21866000Y-26865000D02*
X23263000Y-26865000D01*
X27327000Y-18356000D02*
X27327000Y-17848000D01*
X20180000Y-36298000D02*
X20180000Y-41000000D01*
X22247000Y-34231000D02*
X20180000Y-36298000D01*
X22247000Y-31691000D02*
X22247000Y-34231000D01*
X21866000Y-31310000D02*
X22247000Y-31691000D01*
X25074000Y-13554000D02*
X28240000Y-13554000D01*
X17640000Y-34418402D02*
X21891402Y-30167000D01*
X21891402Y-30167000D02*
X23771000Y-30167000D01*
X23771000Y-30167000D02*
X30375000Y-23563000D01*
X30375000Y-23563000D02*
X30375000Y-15689000D01*
X30375000Y-15689000D02*
X28978000Y-14292000D01*
X17640000Y-36298000D02*
X17640000Y-41000000D01*
X17640000Y-36298000D02*
X17640000Y-34418402D01*
X28240000Y-13554000D02*
X28978000Y-14292000D01*
X25074000Y-14054000D02*
X28105000Y-14054000D01*
X21739000Y-29659000D02*
X23644000Y-29659000D01*
X23644000Y-29659000D02*
X29867000Y-23436000D01*
X29867000Y-23436000D02*
X29867000Y-15816000D01*
X29867000Y-15816000D02*
X28343000Y-14292000D01*
X15100000Y-36298000D02*
X15100000Y-41000000D01*
X18945000Y-32453000D02*
X15100000Y-36298000D01*
X18945000Y-32453000D02*
X21739000Y-29659000D01*
X28105000Y-14054000D02*
X28343000Y-14292000D01*
X12560000Y-34139000D02*
X12560000Y-33758000D01*
X25074000Y-16054000D02*
X26803000Y-16054000D01*
X20596000Y-28135000D02*
X23263000Y-28135000D01*
X23263000Y-28135000D02*
X28343000Y-23055000D01*
X28343000Y-23055000D02*
X28343000Y-18991000D01*
X28343000Y-17594000D02*
X28343000Y-18991000D01*
X26803000Y-16054000D02*
X28343000Y-17594000D01*
X12560000Y-34139000D02*
X12560000Y-41000000D01*
X20469000Y-28135000D02*
X20596000Y-28135000D01*
X19961000Y-27627000D02*
X20469000Y-28135000D01*
X19199000Y-29659000D02*
X19453000Y-29913000D01*
X16659000Y-29659000D02*
X19199000Y-29659000D01*
X12560000Y-33758000D02*
X16659000Y-29659000D01*
X21358000Y-29151000D02*
X16532000Y-29151000D01*
X27970000Y-14554000D02*
X29359000Y-15943000D01*
X29359000Y-15943000D02*
X29359000Y-16070000D01*
X29359000Y-16070000D02*
X29359000Y-22674000D01*
X29359000Y-23309000D02*
X29359000Y-22674000D01*
X23517000Y-29151000D02*
X29232000Y-23436000D01*
X21358000Y-29151000D02*
X23517000Y-29151000D01*
X29232000Y-23436000D02*
X29359000Y-23309000D01*
X25074000Y-14554000D02*
X27970000Y-14554000D01*
X10020000Y-35663000D02*
X10020000Y-41000000D01*
X16532000Y-29151000D02*
X10020000Y-35663000D01*
X7480000Y-41000000D02*
X7480000Y-37568000D01*
X16405000Y-28643000D02*
X7480000Y-37568000D01*
X21104000Y-28643000D02*
X17548000Y-28643000D01*
X27835000Y-15054000D02*
X28851000Y-16070000D01*
X28851000Y-16070000D02*
X28851000Y-16578000D01*
X27327000Y-15054000D02*
X25074000Y-15054000D01*
X21104000Y-28643000D02*
X23390000Y-28643000D01*
X23390000Y-28643000D02*
X28724000Y-23309000D01*
X28724000Y-23309000D02*
X28851000Y-23182000D01*
X28851000Y-23182000D02*
X28851000Y-22166000D01*
X28851000Y-22166000D02*
X28851000Y-17340000D01*
X28851000Y-16578000D02*
X28851000Y-17340000D01*
X27327000Y-15054000D02*
X27835000Y-15054000D01*
X17548000Y-28643000D02*
X16659000Y-28643000D01*
X16659000Y-28643000D02*
X16405000Y-28643000D01*
X66697000Y-26484000D02*
X66951000Y-26738000D01*
X62633000Y-22420000D02*
X66697000Y-26484000D01*
X60474000Y-20612000D02*
X61714000Y-20612000D01*
X61714000Y-20612000D02*
X62379000Y-21277000D01*
X62379000Y-21277000D02*
X62633000Y-21531000D01*
X62633000Y-21531000D02*
X62633000Y-22420000D01*
X66951000Y-29659000D02*
X67332000Y-30040000D01*
X66951000Y-26738000D02*
X66951000Y-29659000D01*
X60504000Y-20642000D02*
X60474000Y-20612000D01*
X62125000Y-21658000D02*
X62125000Y-22547000D01*
X61729000Y-21262000D02*
X62125000Y-21658000D01*
X61729000Y-21262000D02*
X60474000Y-21262000D01*
X66443000Y-26865000D02*
X66443000Y-30167000D01*
X62125000Y-22547000D02*
X66443000Y-26865000D01*
X60489000Y-21277000D02*
X60474000Y-21262000D01*
X61781000Y-18012000D02*
X62252000Y-18483000D01*
X61781000Y-18012000D02*
X60474000Y-18012000D01*
X62252000Y-18483000D02*
X62252000Y-20134000D01*
X60474000Y-18662000D02*
X58621000Y-18662000D01*
X58569000Y-18610000D02*
X58621000Y-18662000D01*
X58741000Y-19962000D02*
X60474000Y-19962000D01*
X58741000Y-19962000D02*
X58569000Y-20134000D01*
X58375000Y-19312000D02*
X57426000Y-20261000D01*
X60474000Y-19312000D02*
X58375000Y-19312000D01*
X60310000Y-9466000D02*
X57172000Y-9466000D01*
X60310000Y-9466000D02*
X60347000Y-9503000D01*
X57829000Y-8853000D02*
X57807000Y-8831000D01*
X57829000Y-8853000D02*
X60347000Y-8853000D01*
X21993000Y-20388000D02*
X21993000Y-22547000D01*
X22827000Y-19554000D02*
X21993000Y-20388000D01*
X25074000Y-19554000D02*
X22827000Y-19554000D01*
X21993000Y-22547000D02*
X22628000Y-23182000D01*
X20977000Y-20134000D02*
X20596000Y-20515000D01*
X22557000Y-18554000D02*
X20977000Y-20134000D01*
X20596000Y-22039000D02*
X20596000Y-22674000D01*
X20596000Y-22674000D02*
X21485000Y-23563000D01*
X25074000Y-18554000D02*
X22557000Y-18554000D01*
X20596000Y-20515000D02*
X20596000Y-22039000D01*
X25074000Y-17554000D02*
X22287000Y-17554000D01*
X19580000Y-23182000D02*
X22374000Y-25976000D01*
X19580000Y-20261000D02*
X19580000Y-23182000D01*
X22287000Y-17554000D02*
X19580000Y-20261000D01*
X25074000Y-16554000D02*
X26668000Y-16554000D01*
X21104000Y-27500000D02*
X23263000Y-27500000D01*
X23263000Y-27500000D02*
X27835000Y-22928000D01*
X27835000Y-22928000D02*
X27835000Y-18102000D01*
X27835000Y-17721000D02*
X27835000Y-18102000D01*
X26668000Y-16554000D02*
X27835000Y-17721000D01*
X50800210Y-16556210D02*
X52906000Y-18662000D01*
X52906000Y-18662000D02*
X54366000Y-18662000D01*
X45074000Y-16554000D02*
X49455382Y-16554000D01*
X49455382Y-16554000D02*
X50126691Y-15882691D01*
X52727000Y-23055000D02*
X52989000Y-23317000D01*
X52989000Y-23317000D02*
X52989000Y-24440000D01*
X45074000Y-18554000D02*
X48226000Y-18554000D01*
X48226000Y-18554000D02*
X52727000Y-23055000D01*
X52727000Y-23055000D02*
X52735000Y-23063000D01*
X52085000Y-23048000D02*
X52339000Y-23302000D01*
X48091000Y-19054000D02*
X52085000Y-23048000D01*
X45074000Y-19054000D02*
X48091000Y-19054000D01*
X52339000Y-23302000D02*
X52339000Y-24440000D01*
X51435000Y-23033000D02*
X51689000Y-23287000D01*
X47956000Y-19554000D02*
X51435000Y-23033000D01*
X45074000Y-19554000D02*
X47956000Y-19554000D01*
X51689000Y-23287000D02*
X51689000Y-24440000D01*
X50785000Y-23018000D02*
X51039000Y-23272000D01*
X47821000Y-20054000D02*
X50785000Y-23018000D01*
X45074000Y-20054000D02*
X47821000Y-20054000D01*
X51039000Y-23272000D02*
X51039000Y-24440000D01*
X50135000Y-23003000D02*
X50389000Y-23257000D01*
X47686000Y-20554000D02*
X50135000Y-23003000D01*
X45074000Y-20554000D02*
X47686000Y-20554000D01*
X50389000Y-23257000D02*
X50389000Y-24440000D01*
X49425000Y-22928000D02*
X49739000Y-23242000D01*
X49739000Y-23242000D02*
X49739000Y-24440000D01*
X45074000Y-21054000D02*
X47551000Y-21054000D01*
X47551000Y-21054000D02*
X49425000Y-22928000D01*
X49425000Y-22928000D02*
X49485000Y-22988000D01*
X48439000Y-22958000D02*
X47520000Y-22039000D01*
X25676000Y-22039000D02*
X25074000Y-21437000D01*
X25074000Y-21054000D02*
X25074000Y-21437000D01*
X48439000Y-23085000D02*
X48439000Y-24440000D01*
X48439000Y-22958000D02*
X48439000Y-23085000D01*
X45074000Y-12054000D02*
X49346000Y-12054000D01*
X53354000Y-16062000D02*
X54366000Y-16062000D01*
X49346000Y-12054000D02*
X53354000Y-16062000D01*
X45074000Y-12554000D02*
X49084000Y-12554000D01*
X53242000Y-16712000D02*
X54366000Y-16712000D01*
X49084000Y-12554000D02*
X53242000Y-16712000D01*
X45074000Y-13054000D02*
X48949000Y-13054000D01*
X53257000Y-17362000D02*
X54366000Y-17362000D01*
X48949000Y-13054000D02*
X53257000Y-17362000D01*
X45074000Y-13554000D02*
X48814000Y-13554000D01*
X53272000Y-18012000D02*
X54366000Y-18012000D01*
X48814000Y-13554000D02*
X53272000Y-18012000D01*
X45074000Y-17054000D02*
X50028000Y-17054000D01*
X52286000Y-19312000D02*
X54366000Y-19312000D01*
X50028000Y-17054000D02*
X52286000Y-19312000D01*
X45074000Y-17554000D02*
X49893000Y-17554000D01*
X52301000Y-19962000D02*
X54366000Y-19962000D01*
X49893000Y-17554000D02*
X52301000Y-19962000D01*
X45074000Y-18054000D02*
X49758000Y-18054000D01*
X52316000Y-20612000D02*
X54366000Y-20612000D01*
X49758000Y-18054000D02*
X52316000Y-20612000D01*
X54747000Y-7553000D02*
X52842000Y-7553000D01*
X52842000Y-7553000D02*
X28732000Y-7553000D01*
X26731000Y-9554000D02*
X25074000Y-9554000D01*
X28732000Y-7553000D02*
X26731000Y-9554000D01*
X54747000Y-8203000D02*
X52842000Y-8203000D01*
X26993000Y-10054000D02*
X25074000Y-10054000D01*
X28844000Y-8203000D02*
X52842000Y-8203000D01*
X26993000Y-10054000D02*
X28844000Y-8203000D01*
X54747000Y-8853000D02*
X52842000Y-8853000D01*
X52842000Y-8853000D02*
X29210000Y-8853000D01*
X27009000Y-11054000D02*
X25074000Y-11054000D01*
X29210000Y-8853000D02*
X27009000Y-11054000D01*
X54747000Y-9503000D02*
X45125000Y-9503000D01*
X54747000Y-10153000D02*
X51509000Y-10153000D01*
X51410000Y-10054000D02*
X45074000Y-10054000D01*
X51410000Y-10054000D02*
X51509000Y-10153000D01*
X54747000Y-10803000D02*
X51524000Y-10803000D01*
X51275000Y-10554000D02*
X45074000Y-10554000D01*
X51275000Y-10554000D02*
X51524000Y-10803000D01*
X54747000Y-11453000D02*
X51539000Y-11453000D01*
X51140000Y-11054000D02*
X45074000Y-11054000D01*
X51140000Y-11054000D02*
X51539000Y-11453000D01*
X54747000Y-12103000D02*
X51554000Y-12103000D01*
X51005000Y-11554000D02*
X45074000Y-11554000D01*
X51005000Y-11554000D02*
X51554000Y-12103000D01*
D25*
G36*
X83100000Y-34875000D02*
X77368883Y-34875000D01*
X65614942Y-23121058D01*
X65614939Y-23121056D01*
X64401000Y-21907116D01*
X64401000Y-18356000D01*
X64353425Y-18116823D01*
X64217942Y-17914058D01*
X64217939Y-17914056D01*
X64043095Y-17739212D01*
X64043134Y-17694519D01*
X63980404Y-17542700D01*
X64032002Y-17542700D01*
X64032002Y-17384452D01*
X64190250Y-17542700D01*
X64778912Y-17542700D01*
X65011566Y-17446331D01*
X65189632Y-17268265D01*
X65286000Y-17035611D01*
X65286000Y-16496950D01*
X65127750Y-16338700D01*
X64032000Y-16338700D01*
X64032000Y-16358700D01*
X63774000Y-16358700D01*
X63774000Y-16338700D01*
X63754000Y-16338700D01*
X63754000Y-16080700D01*
X63774000Y-16080700D01*
X63774000Y-16060700D01*
X64032000Y-16060700D01*
X64032000Y-16080700D01*
X65127750Y-16080700D01*
X65286000Y-15922450D01*
X65286000Y-15383789D01*
X65189632Y-15151135D01*
X65055537Y-15017040D01*
X65086326Y-14865000D01*
X65086326Y-13465000D01*
X65056691Y-13307504D01*
X64963611Y-13162854D01*
X64821588Y-13065814D01*
X64653000Y-13031674D01*
X63153000Y-13031674D01*
X62995504Y-13061309D01*
X62850854Y-13154389D01*
X62753814Y-13296412D01*
X62722961Y-13448771D01*
X62723126Y-13259421D01*
X62612984Y-12992857D01*
X62409216Y-12788733D01*
X62363457Y-12769732D01*
X61974362Y-12380638D01*
X61803521Y-12266485D01*
X61677605Y-12241439D01*
X61680326Y-12228000D01*
X61680326Y-11978000D01*
X61678148Y-11966423D01*
X71424243Y-11966423D01*
X72088893Y-13575001D01*
X73318526Y-14806782D01*
X74925941Y-15474239D01*
X76666423Y-15475757D01*
X78275001Y-14811107D01*
X79506782Y-13581474D01*
X80174239Y-11974059D01*
X80175757Y-10233577D01*
X79511107Y-8624999D01*
X78281474Y-7393218D01*
X76674059Y-6725761D01*
X74933577Y-6724243D01*
X73324999Y-7388893D01*
X72093218Y-8618526D01*
X71425761Y-10225941D01*
X71424243Y-11966423D01*
X61678148Y-11966423D01*
X61650691Y-11820504D01*
X61624011Y-11779042D01*
X61646186Y-11746588D01*
X61680326Y-11578000D01*
X61680326Y-11328000D01*
X61650691Y-11170504D01*
X61624011Y-11129042D01*
X61646186Y-11096588D01*
X61680326Y-10928000D01*
X61680326Y-10678000D01*
X61650691Y-10520504D01*
X61624011Y-10479042D01*
X61646186Y-10446588D01*
X61680326Y-10278000D01*
X61680326Y-10028000D01*
X61650691Y-9870504D01*
X61624011Y-9829042D01*
X61646186Y-9796588D01*
X61680326Y-9628000D01*
X61680326Y-9378000D01*
X61650691Y-9220504D01*
X61624011Y-9179042D01*
X61646186Y-9146588D01*
X61680326Y-8978000D01*
X61680326Y-8728000D01*
X61650691Y-8570504D01*
X61624011Y-8529042D01*
X61646186Y-8496588D01*
X61680326Y-8328000D01*
X61680326Y-8139871D01*
X61783631Y-8036566D01*
X61880000Y-7803912D01*
X61880000Y-7773750D01*
X61721750Y-7615500D01*
X60476000Y-7615500D01*
X60476000Y-7644674D01*
X60218000Y-7644674D01*
X60218000Y-7615500D01*
X58972250Y-7615500D01*
X58929550Y-7658200D01*
X58853216Y-7581733D01*
X58586844Y-7471126D01*
X58298421Y-7470874D01*
X58031857Y-7581016D01*
X57827733Y-7784784D01*
X57717126Y-8051156D01*
X57717078Y-8105921D01*
X57663421Y-8105874D01*
X57396857Y-8216016D01*
X57192733Y-8419784D01*
X57082126Y-8686156D01*
X57082078Y-8740921D01*
X57028421Y-8740874D01*
X56761857Y-8851016D01*
X56557733Y-9054784D01*
X56447126Y-9321156D01*
X56446874Y-9609579D01*
X56557016Y-9876143D01*
X56760784Y-10080267D01*
X56900467Y-10138268D01*
X56634857Y-10248016D01*
X56430733Y-10451784D01*
X56320126Y-10718156D01*
X56319874Y-11006579D01*
X56430016Y-11273143D01*
X56633784Y-11477267D01*
X56900156Y-11587874D01*
X56954921Y-11587922D01*
X56954874Y-11641579D01*
X57055694Y-11885582D01*
X56898294Y-12042982D01*
X56774421Y-12042874D01*
X56507857Y-12153016D01*
X56303733Y-12356784D01*
X56261721Y-12457960D01*
X56183631Y-12269434D01*
X56080326Y-12166129D01*
X56080326Y-11978000D01*
X56050691Y-11820504D01*
X56024011Y-11779042D01*
X56046186Y-11746588D01*
X56080326Y-11578000D01*
X56080326Y-11328000D01*
X56050691Y-11170504D01*
X56024011Y-11129042D01*
X56046186Y-11096588D01*
X56080326Y-10928000D01*
X56080326Y-10678000D01*
X56050691Y-10520504D01*
X56024011Y-10479042D01*
X56046186Y-10446588D01*
X56080326Y-10278000D01*
X56080326Y-10028000D01*
X56050691Y-9870504D01*
X56024011Y-9829042D01*
X56046186Y-9796588D01*
X56080326Y-9628000D01*
X56080326Y-9378000D01*
X56050691Y-9220504D01*
X56024011Y-9179042D01*
X56046186Y-9146588D01*
X56080326Y-8978000D01*
X56080326Y-8728000D01*
X56050691Y-8570504D01*
X56024011Y-8529042D01*
X56046186Y-8496588D01*
X56080326Y-8328000D01*
X56080326Y-8078000D01*
X56050691Y-7920504D01*
X56024011Y-7879042D01*
X56046186Y-7846588D01*
X56080326Y-7678000D01*
X56080326Y-7428000D01*
X56056634Y-7302088D01*
X58814000Y-7302088D01*
X58814000Y-7332250D01*
X58972250Y-7490500D01*
X60218000Y-7490500D01*
X60218000Y-6953250D01*
X60476000Y-6953250D01*
X60476000Y-7490500D01*
X61721750Y-7490500D01*
X61880000Y-7332250D01*
X61880000Y-7302088D01*
X61783631Y-7069434D01*
X61605565Y-6891368D01*
X61372911Y-6795000D01*
X60634250Y-6795000D01*
X60476000Y-6953250D01*
X60218000Y-6953250D01*
X60059750Y-6795000D01*
X59321089Y-6795000D01*
X59088435Y-6891368D01*
X58910369Y-7069434D01*
X58814000Y-7302088D01*
X56056634Y-7302088D01*
X56050691Y-7270504D01*
X55957611Y-7125854D01*
X55815588Y-7028814D01*
X55647000Y-6994674D01*
X53847000Y-6994674D01*
X53689504Y-7024309D01*
X53686255Y-7026400D01*
X28732000Y-7026400D01*
X28530479Y-7066485D01*
X28359637Y-7180638D01*
X26512876Y-9027400D01*
X24045723Y-9027400D01*
X23844202Y-9067485D01*
X23673361Y-9181638D01*
X23559208Y-9352479D01*
X23519123Y-9554000D01*
X23559208Y-9755521D01*
X23591601Y-9804000D01*
X23559208Y-9852479D01*
X23519123Y-10054000D01*
X23522463Y-10070789D01*
X23464942Y-10125776D01*
X23359728Y-10389184D01*
X23501493Y-10503200D01*
X23788356Y-10503200D01*
X23844202Y-10540515D01*
X23911996Y-10554000D01*
X23844202Y-10567485D01*
X23788356Y-10604800D01*
X23501493Y-10604800D01*
X23359728Y-10718816D01*
X23464942Y-10982224D01*
X23522463Y-11037211D01*
X23519123Y-11054000D01*
X23559208Y-11255521D01*
X23591601Y-11304000D01*
X23559208Y-11352479D01*
X23519123Y-11554000D01*
X23559208Y-11755521D01*
X23591601Y-11804000D01*
X23559208Y-11852479D01*
X23519123Y-12054000D01*
X23559208Y-12255521D01*
X23591601Y-12304000D01*
X23559208Y-12352479D01*
X23519123Y-12554000D01*
X23559208Y-12755521D01*
X23591601Y-12804000D01*
X23559208Y-12852479D01*
X23519123Y-13054000D01*
X23559208Y-13255521D01*
X23591601Y-13304000D01*
X23559208Y-13352479D01*
X23519123Y-13554000D01*
X23559208Y-13755521D01*
X23591601Y-13804000D01*
X23559208Y-13852479D01*
X23519123Y-14054000D01*
X23559208Y-14255521D01*
X23591601Y-14304000D01*
X23559208Y-14352479D01*
X23519123Y-14554000D01*
X23559208Y-14755521D01*
X23591601Y-14804000D01*
X23559208Y-14852479D01*
X23524414Y-15027400D01*
X18985326Y-15027400D01*
X18985326Y-14862000D01*
X18956372Y-14708125D01*
X19088632Y-14575865D01*
X19185000Y-14343211D01*
X19185000Y-13804550D01*
X19026750Y-13646300D01*
X17931000Y-13646300D01*
X17931000Y-13666300D01*
X17673000Y-13666300D01*
X17673000Y-13646300D01*
X16577250Y-13646300D01*
X16419000Y-13804550D01*
X16419000Y-14343211D01*
X16515368Y-14575865D01*
X16649463Y-14709960D01*
X16618674Y-14862000D01*
X16618674Y-15080403D01*
X16506414Y-15155413D01*
X14839026Y-16822801D01*
X14839026Y-14389000D01*
X14809391Y-14231504D01*
X14716311Y-14086854D01*
X14574288Y-13989814D01*
X14405700Y-13955674D01*
X10555700Y-13955674D01*
X10398204Y-13985309D01*
X10253554Y-14078389D01*
X10156514Y-14220412D01*
X10122374Y-14389000D01*
X10122374Y-16989000D01*
X10152009Y-17146496D01*
X10245089Y-17291146D01*
X10387112Y-17388186D01*
X10555700Y-17422326D01*
X14239502Y-17422326D01*
X12074114Y-19587714D01*
X11949469Y-19774257D01*
X11905700Y-19994300D01*
X11905700Y-20101674D01*
X11830700Y-20101674D01*
X11673204Y-20131309D01*
X11528554Y-20224389D01*
X11441356Y-20352007D01*
X11368631Y-20176434D01*
X11190565Y-19998368D01*
X10957911Y-19902000D01*
X10469250Y-19902000D01*
X10311000Y-20060250D01*
X10311000Y-21656000D01*
X10331000Y-21656000D01*
X10331000Y-21914000D01*
X10311000Y-21914000D01*
X10311000Y-23509750D01*
X10469250Y-23668000D01*
X10957911Y-23668000D01*
X11190565Y-23571632D01*
X11368631Y-23393566D01*
X11442163Y-23216046D01*
X11520089Y-23337146D01*
X11662112Y-23434186D01*
X11830700Y-23468326D01*
X13130700Y-23468326D01*
X13288196Y-23438691D01*
X13432846Y-23345611D01*
X13529886Y-23203588D01*
X13564026Y-23035000D01*
X13564026Y-20535000D01*
X13534391Y-20377504D01*
X13441311Y-20232854D01*
X13299288Y-20135814D01*
X13177102Y-20111071D01*
X15897784Y-17390389D01*
X16419000Y-17390389D01*
X16419000Y-17929050D01*
X16577250Y-18087300D01*
X17673000Y-18087300D01*
X17673000Y-17041550D01*
X17931000Y-17041550D01*
X17931000Y-18087300D01*
X19026750Y-18087300D01*
X19185000Y-17929050D01*
X19185000Y-17390389D01*
X19088632Y-17157735D01*
X18910566Y-16979669D01*
X18677912Y-16883300D01*
X18089250Y-16883300D01*
X17931000Y-17041550D01*
X17673000Y-17041550D01*
X17514750Y-16883300D01*
X16926088Y-16883300D01*
X16693434Y-16979669D01*
X16515368Y-17157735D01*
X16419000Y-17390389D01*
X15897784Y-17390389D01*
X16734591Y-16553582D01*
X16741389Y-16564146D01*
X16883412Y-16661186D01*
X17052000Y-16695326D01*
X18552000Y-16695326D01*
X18709496Y-16665691D01*
X18854146Y-16572611D01*
X18951186Y-16430588D01*
X18985326Y-16262000D01*
X18985326Y-16080600D01*
X20069400Y-16080600D01*
X20069400Y-16642509D01*
X19998126Y-16814156D01*
X19997874Y-17102579D01*
X20108016Y-17369143D01*
X20170370Y-17431606D01*
X20066370Y-17535425D01*
X19948135Y-17820167D01*
X19947873Y-18120243D01*
X19185000Y-18883116D01*
X19185000Y-18503550D01*
X19026750Y-18345300D01*
X17931000Y-18345300D01*
X17931000Y-18365300D01*
X17673000Y-18365300D01*
X17673000Y-18345300D01*
X16577250Y-18345300D01*
X16419000Y-18503550D01*
X16419000Y-19042211D01*
X16515368Y-19274865D01*
X16649463Y-19408960D01*
X16618674Y-19561000D01*
X16618674Y-19586000D01*
X16303400Y-19586000D01*
X16045089Y-19637381D01*
X15868280Y-19755521D01*
X15826103Y-19783703D01*
X15494873Y-20114933D01*
X15429400Y-20101674D01*
X14129400Y-20101674D01*
X13971904Y-20131309D01*
X13827254Y-20224389D01*
X13730214Y-20366412D01*
X13696074Y-20535000D01*
X13696074Y-23035000D01*
X13725709Y-23192496D01*
X13818789Y-23337146D01*
X13941450Y-23420956D01*
X12569406Y-24793000D01*
X8432326Y-24793000D01*
X8432326Y-24268000D01*
X8402691Y-24110504D01*
X8309611Y-23965854D01*
X8167588Y-23868814D01*
X7999000Y-23834674D01*
X4999000Y-23834674D01*
X4841504Y-23864309D01*
X4696854Y-23957389D01*
X4599814Y-24099412D01*
X4565674Y-24268000D01*
X4565674Y-26668000D01*
X4595309Y-26825496D01*
X4688389Y-26970146D01*
X4830412Y-27067186D01*
X4999000Y-27101326D01*
X5435080Y-27101326D01*
X4462703Y-28073703D01*
X4316381Y-28292688D01*
X4273752Y-28507000D01*
X4265000Y-28551000D01*
X4265000Y-34875000D01*
X500000Y-34875000D01*
X500000Y-22072250D01*
X8899000Y-22072250D01*
X8899000Y-23160912D01*
X8995369Y-23393566D01*
X9173435Y-23571632D01*
X9406089Y-23668000D01*
X9894750Y-23668000D01*
X10053000Y-23509750D01*
X10053000Y-21914000D01*
X9057250Y-21914000D01*
X8899000Y-22072250D01*
X500000Y-22072250D01*
X500000Y-20355250D01*
X4366000Y-20355250D01*
X4366000Y-21393911D01*
X4462368Y-21626565D01*
X4640434Y-21804631D01*
X4873088Y-21901000D01*
X6211750Y-21901000D01*
X6370000Y-21742750D01*
X6370000Y-20197000D01*
X6628000Y-20197000D01*
X6628000Y-21742750D01*
X6786250Y-21901000D01*
X8124912Y-21901000D01*
X8357566Y-21804631D01*
X8535632Y-21626565D01*
X8632000Y-21393911D01*
X8632000Y-20409088D01*
X8899000Y-20409088D01*
X8899000Y-21497750D01*
X9057250Y-21656000D01*
X10053000Y-21656000D01*
X10053000Y-20060250D01*
X9894750Y-19902000D01*
X9406089Y-19902000D01*
X9173435Y-19998368D01*
X8995369Y-20176434D01*
X8899000Y-20409088D01*
X8632000Y-20409088D01*
X8632000Y-20355250D01*
X8473750Y-20197000D01*
X6628000Y-20197000D01*
X6370000Y-20197000D01*
X4524250Y-20197000D01*
X4366000Y-20355250D01*
X500000Y-20355250D01*
X500000Y-18742089D01*
X4366000Y-18742089D01*
X4366000Y-19780750D01*
X4524250Y-19939000D01*
X6370000Y-19939000D01*
X6370000Y-18393250D01*
X6628000Y-18393250D01*
X6628000Y-19939000D01*
X8473750Y-19939000D01*
X8632000Y-19780750D01*
X8632000Y-18742089D01*
X8535632Y-18509435D01*
X8357566Y-18331369D01*
X8124912Y-18235000D01*
X6786250Y-18235000D01*
X6628000Y-18393250D01*
X6370000Y-18393250D01*
X6211750Y-18235000D01*
X4873088Y-18235000D01*
X4640434Y-18331369D01*
X4462368Y-18509435D01*
X4366000Y-18742089D01*
X500000Y-18742089D01*
X500000Y-11966423D01*
X2024243Y-11966423D01*
X2688893Y-13575001D01*
X3918526Y-14806782D01*
X5525941Y-15474239D01*
X7266423Y-15475757D01*
X8875001Y-14811107D01*
X10106782Y-13581474D01*
X10476377Y-12691389D01*
X16419000Y-12691389D01*
X16419000Y-13230050D01*
X16577250Y-13388300D01*
X17673000Y-13388300D01*
X17673000Y-12342550D01*
X17931000Y-12342550D01*
X17931000Y-13388300D01*
X19026750Y-13388300D01*
X19185000Y-13230050D01*
X19185000Y-12691389D01*
X19088632Y-12458735D01*
X18910566Y-12280669D01*
X18677912Y-12184300D01*
X18089250Y-12184300D01*
X17931000Y-12342550D01*
X17673000Y-12342550D01*
X17514750Y-12184300D01*
X16926088Y-12184300D01*
X16693434Y-12280669D01*
X16515368Y-12458735D01*
X16419000Y-12691389D01*
X10476377Y-12691389D01*
X10774239Y-11974059D01*
X10775757Y-10233577D01*
X10111107Y-8624999D01*
X8881474Y-7393218D01*
X7274059Y-6725761D01*
X5533577Y-6724243D01*
X3924999Y-7388893D01*
X2693218Y-8618526D01*
X2025761Y-10225941D01*
X2024243Y-11966423D01*
X500000Y-11966423D01*
X500000Y-500000D01*
X83100000Y-500000D01*
X83100000Y-34875000D01*
X83100000Y-34875000D01*
G37*
X83100000Y-34875000D02*
X77368883Y-34875000D01*
X65614942Y-23121058D01*
X65614939Y-23121056D01*
X64401000Y-21907116D01*
X64401000Y-18356000D01*
X64353425Y-18116823D01*
X64217942Y-17914058D01*
X64217939Y-17914056D01*
X64043095Y-17739212D01*
X64043134Y-17694519D01*
X63980404Y-17542700D01*
X64032002Y-17542700D01*
X64032002Y-17384452D01*
X64190250Y-17542700D01*
X64778912Y-17542700D01*
X65011566Y-17446331D01*
X65189632Y-17268265D01*
X65286000Y-17035611D01*
X65286000Y-16496950D01*
X65127750Y-16338700D01*
X64032000Y-16338700D01*
X64032000Y-16358700D01*
X63774000Y-16358700D01*
X63774000Y-16338700D01*
X63754000Y-16338700D01*
X63754000Y-16080700D01*
X63774000Y-16080700D01*
X63774000Y-16060700D01*
X64032000Y-16060700D01*
X64032000Y-16080700D01*
X65127750Y-16080700D01*
X65286000Y-15922450D01*
X65286000Y-15383789D01*
X65189632Y-15151135D01*
X65055537Y-15017040D01*
X65086326Y-14865000D01*
X65086326Y-13465000D01*
X65056691Y-13307504D01*
X64963611Y-13162854D01*
X64821588Y-13065814D01*
X64653000Y-13031674D01*
X63153000Y-13031674D01*
X62995504Y-13061309D01*
X62850854Y-13154389D01*
X62753814Y-13296412D01*
X62722961Y-13448771D01*
X62723126Y-13259421D01*
X62612984Y-12992857D01*
X62409216Y-12788733D01*
X62363457Y-12769732D01*
X61974362Y-12380638D01*
X61803521Y-12266485D01*
X61677605Y-12241439D01*
X61680326Y-12228000D01*
X61680326Y-11978000D01*
X61678148Y-11966423D01*
X71424243Y-11966423D01*
X72088893Y-13575001D01*
X73318526Y-14806782D01*
X74925941Y-15474239D01*
X76666423Y-15475757D01*
X78275001Y-14811107D01*
X79506782Y-13581474D01*
X80174239Y-11974059D01*
X80175757Y-10233577D01*
X79511107Y-8624999D01*
X78281474Y-7393218D01*
X76674059Y-6725761D01*
X74933577Y-6724243D01*
X73324999Y-7388893D01*
X72093218Y-8618526D01*
X71425761Y-10225941D01*
X71424243Y-11966423D01*
X61678148Y-11966423D01*
X61650691Y-11820504D01*
X61624011Y-11779042D01*
X61646186Y-11746588D01*
X61680326Y-11578000D01*
X61680326Y-11328000D01*
X61650691Y-11170504D01*
X61624011Y-11129042D01*
X61646186Y-11096588D01*
X61680326Y-10928000D01*
X61680326Y-10678000D01*
X61650691Y-10520504D01*
X61624011Y-10479042D01*
X61646186Y-10446588D01*
X61680326Y-10278000D01*
X61680326Y-10028000D01*
X61650691Y-9870504D01*
X61624011Y-9829042D01*
X61646186Y-9796588D01*
X61680326Y-9628000D01*
X61680326Y-9378000D01*
X61650691Y-9220504D01*
X61624011Y-9179042D01*
X61646186Y-9146588D01*
X61680326Y-8978000D01*
X61680326Y-8728000D01*
X61650691Y-8570504D01*
X61624011Y-8529042D01*
X61646186Y-8496588D01*
X61680326Y-8328000D01*
X61680326Y-8139871D01*
X61783631Y-8036566D01*
X61880000Y-7803912D01*
X61880000Y-7773750D01*
X61721750Y-7615500D01*
X60476000Y-7615500D01*
X60476000Y-7644674D01*
X60218000Y-7644674D01*
X60218000Y-7615500D01*
X58972250Y-7615500D01*
X58929550Y-7658200D01*
X58853216Y-7581733D01*
X58586844Y-7471126D01*
X58298421Y-7470874D01*
X58031857Y-7581016D01*
X57827733Y-7784784D01*
X57717126Y-8051156D01*
X57717078Y-8105921D01*
X57663421Y-8105874D01*
X57396857Y-8216016D01*
X57192733Y-8419784D01*
X57082126Y-8686156D01*
X57082078Y-8740921D01*
X57028421Y-8740874D01*
X56761857Y-8851016D01*
X56557733Y-9054784D01*
X56447126Y-9321156D01*
X56446874Y-9609579D01*
X56557016Y-9876143D01*
X56760784Y-10080267D01*
X56900467Y-10138268D01*
X56634857Y-10248016D01*
X56430733Y-10451784D01*
X56320126Y-10718156D01*
X56319874Y-11006579D01*
X56430016Y-11273143D01*
X56633784Y-11477267D01*
X56900156Y-11587874D01*
X56954921Y-11587922D01*
X56954874Y-11641579D01*
X57055694Y-11885582D01*
X56898294Y-12042982D01*
X56774421Y-12042874D01*
X56507857Y-12153016D01*
X56303733Y-12356784D01*
X56261721Y-12457960D01*
X56183631Y-12269434D01*
X56080326Y-12166129D01*
X56080326Y-11978000D01*
X56050691Y-11820504D01*
X56024011Y-11779042D01*
X56046186Y-11746588D01*
X56080326Y-11578000D01*
X56080326Y-11328000D01*
X56050691Y-11170504D01*
X56024011Y-11129042D01*
X56046186Y-11096588D01*
X56080326Y-10928000D01*
X56080326Y-10678000D01*
X56050691Y-10520504D01*
X56024011Y-10479042D01*
X56046186Y-10446588D01*
X56080326Y-10278000D01*
X56080326Y-10028000D01*
X56050691Y-9870504D01*
X56024011Y-9829042D01*
X56046186Y-9796588D01*
X56080326Y-9628000D01*
X56080326Y-9378000D01*
X56050691Y-9220504D01*
X56024011Y-9179042D01*
X56046186Y-9146588D01*
X56080326Y-8978000D01*
X56080326Y-8728000D01*
X56050691Y-8570504D01*
X56024011Y-8529042D01*
X56046186Y-8496588D01*
X56080326Y-8328000D01*
X56080326Y-8078000D01*
X56050691Y-7920504D01*
X56024011Y-7879042D01*
X56046186Y-7846588D01*
X56080326Y-7678000D01*
X56080326Y-7428000D01*
X56056634Y-7302088D01*
X58814000Y-7302088D01*
X58814000Y-7332250D01*
X58972250Y-7490500D01*
X60218000Y-7490500D01*
X60218000Y-6953250D01*
X60476000Y-6953250D01*
X60476000Y-7490500D01*
X61721750Y-7490500D01*
X61880000Y-7332250D01*
X61880000Y-7302088D01*
X61783631Y-7069434D01*
X61605565Y-6891368D01*
X61372911Y-6795000D01*
X60634250Y-6795000D01*
X60476000Y-6953250D01*
X60218000Y-6953250D01*
X60059750Y-6795000D01*
X59321089Y-6795000D01*
X59088435Y-6891368D01*
X58910369Y-7069434D01*
X58814000Y-7302088D01*
X56056634Y-7302088D01*
X56050691Y-7270504D01*
X55957611Y-7125854D01*
X55815588Y-7028814D01*
X55647000Y-6994674D01*
X53847000Y-6994674D01*
X53689504Y-7024309D01*
X53686255Y-7026400D01*
X28732000Y-7026400D01*
X28530479Y-7066485D01*
X28359637Y-7180638D01*
X26512876Y-9027400D01*
X24045723Y-9027400D01*
X23844202Y-9067485D01*
X23673361Y-9181638D01*
X23559208Y-9352479D01*
X23519123Y-9554000D01*
X23559208Y-9755521D01*
X23591601Y-9804000D01*
X23559208Y-9852479D01*
X23519123Y-10054000D01*
X23522463Y-10070789D01*
X23464942Y-10125776D01*
X23359728Y-10389184D01*
X23501493Y-10503200D01*
X23788356Y-10503200D01*
X23844202Y-10540515D01*
X23911996Y-10554000D01*
X23844202Y-10567485D01*
X23788356Y-10604800D01*
X23501493Y-10604800D01*
X23359728Y-10718816D01*
X23464942Y-10982224D01*
X23522463Y-11037211D01*
X23519123Y-11054000D01*
X23559208Y-11255521D01*
X23591601Y-11304000D01*
X23559208Y-11352479D01*
X23519123Y-11554000D01*
X23559208Y-11755521D01*
X23591601Y-11804000D01*
X23559208Y-11852479D01*
X23519123Y-12054000D01*
X23559208Y-12255521D01*
X23591601Y-12304000D01*
X23559208Y-12352479D01*
X23519123Y-12554000D01*
X23559208Y-12755521D01*
X23591601Y-12804000D01*
X23559208Y-12852479D01*
X23519123Y-13054000D01*
X23559208Y-13255521D01*
X23591601Y-13304000D01*
X23559208Y-13352479D01*
X23519123Y-13554000D01*
X23559208Y-13755521D01*
X23591601Y-13804000D01*
X23559208Y-13852479D01*
X23519123Y-14054000D01*
X23559208Y-14255521D01*
X23591601Y-14304000D01*
X23559208Y-14352479D01*
X23519123Y-14554000D01*
X23559208Y-14755521D01*
X23591601Y-14804000D01*
X23559208Y-14852479D01*
X23524414Y-15027400D01*
X18985326Y-15027400D01*
X18985326Y-14862000D01*
X18956372Y-14708125D01*
X19088632Y-14575865D01*
X19185000Y-14343211D01*
X19185000Y-13804550D01*
X19026750Y-13646300D01*
X17931000Y-13646300D01*
X17931000Y-13666300D01*
X17673000Y-13666300D01*
X17673000Y-13646300D01*
X16577250Y-13646300D01*
X16419000Y-13804550D01*
X16419000Y-14343211D01*
X16515368Y-14575865D01*
X16649463Y-14709960D01*
X16618674Y-14862000D01*
X16618674Y-15080403D01*
X16506414Y-15155413D01*
X14839026Y-16822801D01*
X14839026Y-14389000D01*
X14809391Y-14231504D01*
X14716311Y-14086854D01*
X14574288Y-13989814D01*
X14405700Y-13955674D01*
X10555700Y-13955674D01*
X10398204Y-13985309D01*
X10253554Y-14078389D01*
X10156514Y-14220412D01*
X10122374Y-14389000D01*
X10122374Y-16989000D01*
X10152009Y-17146496D01*
X10245089Y-17291146D01*
X10387112Y-17388186D01*
X10555700Y-17422326D01*
X14239502Y-17422326D01*
X12074114Y-19587714D01*
X11949469Y-19774257D01*
X11905700Y-19994300D01*
X11905700Y-20101674D01*
X11830700Y-20101674D01*
X11673204Y-20131309D01*
X11528554Y-20224389D01*
X11441356Y-20352007D01*
X11368631Y-20176434D01*
X11190565Y-19998368D01*
X10957911Y-19902000D01*
X10469250Y-19902000D01*
X10311000Y-20060250D01*
X10311000Y-21656000D01*
X10331000Y-21656000D01*
X10331000Y-21914000D01*
X10311000Y-21914000D01*
X10311000Y-23509750D01*
X10469250Y-23668000D01*
X10957911Y-23668000D01*
X11190565Y-23571632D01*
X11368631Y-23393566D01*
X11442163Y-23216046D01*
X11520089Y-23337146D01*
X11662112Y-23434186D01*
X11830700Y-23468326D01*
X13130700Y-23468326D01*
X13288196Y-23438691D01*
X13432846Y-23345611D01*
X13529886Y-23203588D01*
X13564026Y-23035000D01*
X13564026Y-20535000D01*
X13534391Y-20377504D01*
X13441311Y-20232854D01*
X13299288Y-20135814D01*
X13177102Y-20111071D01*
X15897784Y-17390389D01*
X16419000Y-17390389D01*
X16419000Y-17929050D01*
X16577250Y-18087300D01*
X17673000Y-18087300D01*
X17673000Y-17041550D01*
X17931000Y-17041550D01*
X17931000Y-18087300D01*
X19026750Y-18087300D01*
X19185000Y-17929050D01*
X19185000Y-17390389D01*
X19088632Y-17157735D01*
X18910566Y-16979669D01*
X18677912Y-16883300D01*
X18089250Y-16883300D01*
X17931000Y-17041550D01*
X17673000Y-17041550D01*
X17514750Y-16883300D01*
X16926088Y-16883300D01*
X16693434Y-16979669D01*
X16515368Y-17157735D01*
X16419000Y-17390389D01*
X15897784Y-17390389D01*
X16734591Y-16553582D01*
X16741389Y-16564146D01*
X16883412Y-16661186D01*
X17052000Y-16695326D01*
X18552000Y-16695326D01*
X18709496Y-16665691D01*
X18854146Y-16572611D01*
X18951186Y-16430588D01*
X18985326Y-16262000D01*
X18985326Y-16080600D01*
X20069400Y-16080600D01*
X20069400Y-16642509D01*
X19998126Y-16814156D01*
X19997874Y-17102579D01*
X20108016Y-17369143D01*
X20170370Y-17431606D01*
X20066370Y-17535425D01*
X19948135Y-17820167D01*
X19947873Y-18120243D01*
X19185000Y-18883116D01*
X19185000Y-18503550D01*
X19026750Y-18345300D01*
X17931000Y-18345300D01*
X17931000Y-18365300D01*
X17673000Y-18365300D01*
X17673000Y-18345300D01*
X16577250Y-18345300D01*
X16419000Y-18503550D01*
X16419000Y-19042211D01*
X16515368Y-19274865D01*
X16649463Y-19408960D01*
X16618674Y-19561000D01*
X16618674Y-19586000D01*
X16303400Y-19586000D01*
X16045089Y-19637381D01*
X15868280Y-19755521D01*
X15826103Y-19783703D01*
X15494873Y-20114933D01*
X15429400Y-20101674D01*
X14129400Y-20101674D01*
X13971904Y-20131309D01*
X13827254Y-20224389D01*
X13730214Y-20366412D01*
X13696074Y-20535000D01*
X13696074Y-23035000D01*
X13725709Y-23192496D01*
X13818789Y-23337146D01*
X13941450Y-23420956D01*
X12569406Y-24793000D01*
X8432326Y-24793000D01*
X8432326Y-24268000D01*
X8402691Y-24110504D01*
X8309611Y-23965854D01*
X8167588Y-23868814D01*
X7999000Y-23834674D01*
X4999000Y-23834674D01*
X4841504Y-23864309D01*
X4696854Y-23957389D01*
X4599814Y-24099412D01*
X4565674Y-24268000D01*
X4565674Y-26668000D01*
X4595309Y-26825496D01*
X4688389Y-26970146D01*
X4830412Y-27067186D01*
X4999000Y-27101326D01*
X5435080Y-27101326D01*
X4462703Y-28073703D01*
X4316381Y-28292688D01*
X4273752Y-28507000D01*
X4265000Y-28551000D01*
X4265000Y-34875000D01*
X500000Y-34875000D01*
X500000Y-22072250D01*
X8899000Y-22072250D01*
X8899000Y-23160912D01*
X8995369Y-23393566D01*
X9173435Y-23571632D01*
X9406089Y-23668000D01*
X9894750Y-23668000D01*
X10053000Y-23509750D01*
X10053000Y-21914000D01*
X9057250Y-21914000D01*
X8899000Y-22072250D01*
X500000Y-22072250D01*
X500000Y-20355250D01*
X4366000Y-20355250D01*
X4366000Y-21393911D01*
X4462368Y-21626565D01*
X4640434Y-21804631D01*
X4873088Y-21901000D01*
X6211750Y-21901000D01*
X6370000Y-21742750D01*
X6370000Y-20197000D01*
X6628000Y-20197000D01*
X6628000Y-21742750D01*
X6786250Y-21901000D01*
X8124912Y-21901000D01*
X8357566Y-21804631D01*
X8535632Y-21626565D01*
X8632000Y-21393911D01*
X8632000Y-20409088D01*
X8899000Y-20409088D01*
X8899000Y-21497750D01*
X9057250Y-21656000D01*
X10053000Y-21656000D01*
X10053000Y-20060250D01*
X9894750Y-19902000D01*
X9406089Y-19902000D01*
X9173435Y-19998368D01*
X8995369Y-20176434D01*
X8899000Y-20409088D01*
X8632000Y-20409088D01*
X8632000Y-20355250D01*
X8473750Y-20197000D01*
X6628000Y-20197000D01*
X6370000Y-20197000D01*
X4524250Y-20197000D01*
X4366000Y-20355250D01*
X500000Y-20355250D01*
X500000Y-18742089D01*
X4366000Y-18742089D01*
X4366000Y-19780750D01*
X4524250Y-19939000D01*
X6370000Y-19939000D01*
X6370000Y-18393250D01*
X6628000Y-18393250D01*
X6628000Y-19939000D01*
X8473750Y-19939000D01*
X8632000Y-19780750D01*
X8632000Y-18742089D01*
X8535632Y-18509435D01*
X8357566Y-18331369D01*
X8124912Y-18235000D01*
X6786250Y-18235000D01*
X6628000Y-18393250D01*
X6370000Y-18393250D01*
X6211750Y-18235000D01*
X4873088Y-18235000D01*
X4640434Y-18331369D01*
X4462368Y-18509435D01*
X4366000Y-18742089D01*
X500000Y-18742089D01*
X500000Y-11966423D01*
X2024243Y-11966423D01*
X2688893Y-13575001D01*
X3918526Y-14806782D01*
X5525941Y-15474239D01*
X7266423Y-15475757D01*
X8875001Y-14811107D01*
X10106782Y-13581474D01*
X10476377Y-12691389D01*
X16419000Y-12691389D01*
X16419000Y-13230050D01*
X16577250Y-13388300D01*
X17673000Y-13388300D01*
X17673000Y-12342550D01*
X17931000Y-12342550D01*
X17931000Y-13388300D01*
X19026750Y-13388300D01*
X19185000Y-13230050D01*
X19185000Y-12691389D01*
X19088632Y-12458735D01*
X18910566Y-12280669D01*
X18677912Y-12184300D01*
X18089250Y-12184300D01*
X17931000Y-12342550D01*
X17673000Y-12342550D01*
X17514750Y-12184300D01*
X16926088Y-12184300D01*
X16693434Y-12280669D01*
X16515368Y-12458735D01*
X16419000Y-12691389D01*
X10476377Y-12691389D01*
X10774239Y-11974059D01*
X10775757Y-10233577D01*
X10111107Y-8624999D01*
X8881474Y-7393218D01*
X7274059Y-6725761D01*
X5533577Y-6724243D01*
X3924999Y-7388893D01*
X2693218Y-8618526D01*
X2025761Y-10225941D01*
X2024243Y-11966423D01*
X500000Y-11966423D01*
X500000Y-500000D01*
X83100000Y-500000D01*
X83100000Y-34875000D01*
G36*
X19053400Y-23182000D02*
X19085944Y-23345611D01*
X19093485Y-23383521D01*
X19207638Y-23554362D01*
X21648982Y-25995707D01*
X21648874Y-26119579D01*
X21666762Y-26162872D01*
X21455857Y-26250016D01*
X21251733Y-26453784D01*
X21141126Y-26720156D01*
X21141078Y-26775032D01*
X20960421Y-26774874D01*
X20693857Y-26885016D01*
X20489733Y-27088784D01*
X20477513Y-27118214D01*
X20372216Y-27012733D01*
X20105844Y-26902126D01*
X19817421Y-26901874D01*
X19550857Y-27012016D01*
X19346733Y-27215784D01*
X19236126Y-27482156D01*
X19235874Y-27770579D01*
X19346016Y-28037143D01*
X19425135Y-28116400D01*
X16405000Y-28116400D01*
X16203479Y-28156485D01*
X16032638Y-28270638D01*
X9428276Y-34875000D01*
X5615000Y-34875000D01*
X5615000Y-28830594D01*
X6976297Y-27469297D01*
X7122619Y-27250312D01*
X7152254Y-27101326D01*
X7999000Y-27101326D01*
X8156496Y-27071691D01*
X8301146Y-26978611D01*
X8398186Y-26836588D01*
X8432326Y-26668000D01*
X8432326Y-26143000D01*
X12849000Y-26143000D01*
X13107312Y-26091619D01*
X13326297Y-25945297D01*
X15256697Y-24014897D01*
X15403019Y-23795912D01*
X15454400Y-23537600D01*
X15454400Y-23463622D01*
X15586896Y-23438691D01*
X15731546Y-23345611D01*
X15828586Y-23203588D01*
X15862726Y-23035000D01*
X15862726Y-21656268D01*
X16582994Y-20936000D01*
X16618674Y-20936000D01*
X16618674Y-20961000D01*
X16648309Y-21118496D01*
X16741389Y-21263146D01*
X16883412Y-21360186D01*
X17052000Y-21394326D01*
X18552000Y-21394326D01*
X18709496Y-21364691D01*
X18854146Y-21271611D01*
X18951186Y-21129588D01*
X18985326Y-20961000D01*
X18985326Y-20725717D01*
X19053400Y-20712176D01*
X19053400Y-23182000D01*
X19053400Y-23182000D01*
G37*
X19053400Y-23182000D02*
X19085944Y-23345611D01*
X19093485Y-23383521D01*
X19207638Y-23554362D01*
X21648982Y-25995707D01*
X21648874Y-26119579D01*
X21666762Y-26162872D01*
X21455857Y-26250016D01*
X21251733Y-26453784D01*
X21141126Y-26720156D01*
X21141078Y-26775032D01*
X20960421Y-26774874D01*
X20693857Y-26885016D01*
X20489733Y-27088784D01*
X20477513Y-27118214D01*
X20372216Y-27012733D01*
X20105844Y-26902126D01*
X19817421Y-26901874D01*
X19550857Y-27012016D01*
X19346733Y-27215784D01*
X19236126Y-27482156D01*
X19235874Y-27770579D01*
X19346016Y-28037143D01*
X19425135Y-28116400D01*
X16405000Y-28116400D01*
X16203479Y-28156485D01*
X16032638Y-28270638D01*
X9428276Y-34875000D01*
X5615000Y-34875000D01*
X5615000Y-28830594D01*
X6976297Y-27469297D01*
X7122619Y-27250312D01*
X7152254Y-27101326D01*
X7999000Y-27101326D01*
X8156496Y-27071691D01*
X8301146Y-26978611D01*
X8398186Y-26836588D01*
X8432326Y-26668000D01*
X8432326Y-26143000D01*
X12849000Y-26143000D01*
X13107312Y-26091619D01*
X13326297Y-25945297D01*
X15256697Y-24014897D01*
X15403019Y-23795912D01*
X15454400Y-23537600D01*
X15454400Y-23463622D01*
X15586896Y-23438691D01*
X15731546Y-23345611D01*
X15828586Y-23203588D01*
X15862726Y-23035000D01*
X15862726Y-21656268D01*
X16582994Y-20936000D01*
X16618674Y-20936000D01*
X16618674Y-20961000D01*
X16648309Y-21118496D01*
X16741389Y-21263146D01*
X16883412Y-21360186D01*
X17052000Y-21394326D01*
X18552000Y-21394326D01*
X18709496Y-21364691D01*
X18854146Y-21271611D01*
X18951186Y-21129588D01*
X18985326Y-20961000D01*
X18985326Y-20725717D01*
X19053400Y-20712176D01*
X19053400Y-23182000D01*
G36*
X43519123Y-9554000D02*
X43559208Y-9755521D01*
X43591601Y-9804000D01*
X43559208Y-9852479D01*
X43519123Y-10054000D01*
X43559208Y-10255521D01*
X43591601Y-10304000D01*
X43559208Y-10352479D01*
X43519123Y-10554000D01*
X43559208Y-10755521D01*
X43591601Y-10804000D01*
X43559208Y-10852479D01*
X43519123Y-11054000D01*
X43559208Y-11255521D01*
X43591601Y-11304000D01*
X43559208Y-11352479D01*
X43519123Y-11554000D01*
X43559208Y-11755521D01*
X43591601Y-11804000D01*
X43559208Y-11852479D01*
X43519123Y-12054000D01*
X43559208Y-12255521D01*
X43591601Y-12304000D01*
X43559208Y-12352479D01*
X43519123Y-12554000D01*
X43559208Y-12755521D01*
X43591601Y-12804000D01*
X43559208Y-12852479D01*
X43519123Y-13054000D01*
X43559208Y-13255521D01*
X43591601Y-13304000D01*
X43559208Y-13352479D01*
X43519123Y-13554000D01*
X43559208Y-13755521D01*
X43591601Y-13804000D01*
X43559208Y-13852479D01*
X43519123Y-14054000D01*
X43520994Y-14063404D01*
X43500479Y-14067485D01*
X43329638Y-14181637D01*
X42956638Y-14554638D01*
X42842485Y-14725479D01*
X42802400Y-14927000D01*
X42802400Y-19480400D01*
X42049730Y-19480400D01*
X41962216Y-19392733D01*
X41695844Y-19282126D01*
X41407421Y-19281874D01*
X41140857Y-19392016D01*
X40936733Y-19595784D01*
X40826126Y-19862156D01*
X40825874Y-20150579D01*
X40936016Y-20417143D01*
X41139784Y-20621267D01*
X41406156Y-20731874D01*
X41694579Y-20732126D01*
X41961143Y-20621984D01*
X42049681Y-20533600D01*
X42802400Y-20533600D01*
X42802400Y-21277000D01*
X42832110Y-21426362D01*
X42842485Y-21478521D01*
X42956638Y-21649362D01*
X44353637Y-23046362D01*
X44353640Y-23046364D01*
X44453400Y-23146124D01*
X44453400Y-23572674D01*
X44230000Y-23572674D01*
X44072504Y-23602309D01*
X43927854Y-23695389D01*
X43830814Y-23837412D01*
X43796674Y-24006000D01*
X43796674Y-25406000D01*
X43825628Y-25559875D01*
X43693368Y-25692135D01*
X43597000Y-25924789D01*
X43597000Y-26463450D01*
X43755250Y-26621700D01*
X44851000Y-26621700D01*
X44851000Y-26601700D01*
X45109000Y-26601700D01*
X45109000Y-26621700D01*
X46204750Y-26621700D01*
X46363000Y-26463450D01*
X46363000Y-25924789D01*
X46266632Y-25692135D01*
X46132537Y-25558040D01*
X46163326Y-25406000D01*
X46163326Y-24966600D01*
X46580674Y-24966600D01*
X46580674Y-25340000D01*
X46610309Y-25497496D01*
X46612400Y-25500745D01*
X46612400Y-28983333D01*
X46580674Y-29140000D01*
X46580674Y-30940000D01*
X46610309Y-31097496D01*
X46703389Y-31242146D01*
X46845412Y-31339186D01*
X47014000Y-31373326D01*
X47092949Y-31373326D01*
X46666876Y-31799400D01*
X45869000Y-31799400D01*
X45667479Y-31839485D01*
X45496637Y-31953638D01*
X42667638Y-34782638D01*
X42605923Y-34875000D01*
X41061600Y-34875000D01*
X41061600Y-33332730D01*
X41149267Y-33245216D01*
X41259874Y-32978844D01*
X41260126Y-32690421D01*
X41149984Y-32423857D01*
X40946216Y-32219733D01*
X40679844Y-32109126D01*
X40391421Y-32108874D01*
X40124857Y-32219016D01*
X39920733Y-32422784D01*
X39810126Y-32689156D01*
X39809874Y-32977579D01*
X39920016Y-33244143D01*
X40008400Y-33332681D01*
X40008400Y-34875000D01*
X35930090Y-34875000D01*
X35906515Y-34756479D01*
X35889064Y-34730362D01*
X35792363Y-34585638D01*
X34021018Y-32814294D01*
X34021126Y-32690421D01*
X33910984Y-32423857D01*
X33707216Y-32219733D01*
X33440844Y-32109126D01*
X33152421Y-32108874D01*
X32933600Y-32199289D01*
X32933600Y-27037950D01*
X43597000Y-27037950D01*
X43597000Y-27576611D01*
X43693368Y-27809265D01*
X43871434Y-27987331D01*
X44104088Y-28083700D01*
X44692750Y-28083700D01*
X44851000Y-27925450D01*
X44851000Y-26879700D01*
X45109000Y-26879700D01*
X45109000Y-27925450D01*
X45267250Y-28083700D01*
X45855912Y-28083700D01*
X46088566Y-27987331D01*
X46266632Y-27809265D01*
X46363000Y-27576611D01*
X46363000Y-27037950D01*
X46204750Y-26879700D01*
X45109000Y-26879700D01*
X44851000Y-26879700D01*
X43755250Y-26879700D01*
X43597000Y-27037950D01*
X32933600Y-27037950D01*
X32933600Y-15181000D01*
X32893515Y-14979479D01*
X32889232Y-14973069D01*
X32779363Y-14808638D01*
X29152362Y-11181638D01*
X28981521Y-11067485D01*
X28966620Y-11064521D01*
X28780000Y-11027400D01*
X27780324Y-11027400D01*
X29428124Y-9379600D01*
X43553813Y-9379600D01*
X43519123Y-9554000D01*
X43519123Y-9554000D01*
G37*
X43519123Y-9554000D02*
X43559208Y-9755521D01*
X43591601Y-9804000D01*
X43559208Y-9852479D01*
X43519123Y-10054000D01*
X43559208Y-10255521D01*
X43591601Y-10304000D01*
X43559208Y-10352479D01*
X43519123Y-10554000D01*
X43559208Y-10755521D01*
X43591601Y-10804000D01*
X43559208Y-10852479D01*
X43519123Y-11054000D01*
X43559208Y-11255521D01*
X43591601Y-11304000D01*
X43559208Y-11352479D01*
X43519123Y-11554000D01*
X43559208Y-11755521D01*
X43591601Y-11804000D01*
X43559208Y-11852479D01*
X43519123Y-12054000D01*
X43559208Y-12255521D01*
X43591601Y-12304000D01*
X43559208Y-12352479D01*
X43519123Y-12554000D01*
X43559208Y-12755521D01*
X43591601Y-12804000D01*
X43559208Y-12852479D01*
X43519123Y-13054000D01*
X43559208Y-13255521D01*
X43591601Y-13304000D01*
X43559208Y-13352479D01*
X43519123Y-13554000D01*
X43559208Y-13755521D01*
X43591601Y-13804000D01*
X43559208Y-13852479D01*
X43519123Y-14054000D01*
X43520994Y-14063404D01*
X43500479Y-14067485D01*
X43329638Y-14181637D01*
X42956638Y-14554638D01*
X42842485Y-14725479D01*
X42802400Y-14927000D01*
X42802400Y-19480400D01*
X42049730Y-19480400D01*
X41962216Y-19392733D01*
X41695844Y-19282126D01*
X41407421Y-19281874D01*
X41140857Y-19392016D01*
X40936733Y-19595784D01*
X40826126Y-19862156D01*
X40825874Y-20150579D01*
X40936016Y-20417143D01*
X41139784Y-20621267D01*
X41406156Y-20731874D01*
X41694579Y-20732126D01*
X41961143Y-20621984D01*
X42049681Y-20533600D01*
X42802400Y-20533600D01*
X42802400Y-21277000D01*
X42832110Y-21426362D01*
X42842485Y-21478521D01*
X42956638Y-21649362D01*
X44353637Y-23046362D01*
X44353640Y-23046364D01*
X44453400Y-23146124D01*
X44453400Y-23572674D01*
X44230000Y-23572674D01*
X44072504Y-23602309D01*
X43927854Y-23695389D01*
X43830814Y-23837412D01*
X43796674Y-24006000D01*
X43796674Y-25406000D01*
X43825628Y-25559875D01*
X43693368Y-25692135D01*
X43597000Y-25924789D01*
X43597000Y-26463450D01*
X43755250Y-26621700D01*
X44851000Y-26621700D01*
X44851000Y-26601700D01*
X45109000Y-26601700D01*
X45109000Y-26621700D01*
X46204750Y-26621700D01*
X46363000Y-26463450D01*
X46363000Y-25924789D01*
X46266632Y-25692135D01*
X46132537Y-25558040D01*
X46163326Y-25406000D01*
X46163326Y-24966600D01*
X46580674Y-24966600D01*
X46580674Y-25340000D01*
X46610309Y-25497496D01*
X46612400Y-25500745D01*
X46612400Y-28983333D01*
X46580674Y-29140000D01*
X46580674Y-30940000D01*
X46610309Y-31097496D01*
X46703389Y-31242146D01*
X46845412Y-31339186D01*
X47014000Y-31373326D01*
X47092949Y-31373326D01*
X46666876Y-31799400D01*
X45869000Y-31799400D01*
X45667479Y-31839485D01*
X45496637Y-31953638D01*
X42667638Y-34782638D01*
X42605923Y-34875000D01*
X41061600Y-34875000D01*
X41061600Y-33332730D01*
X41149267Y-33245216D01*
X41259874Y-32978844D01*
X41260126Y-32690421D01*
X41149984Y-32423857D01*
X40946216Y-32219733D01*
X40679844Y-32109126D01*
X40391421Y-32108874D01*
X40124857Y-32219016D01*
X39920733Y-32422784D01*
X39810126Y-32689156D01*
X39809874Y-32977579D01*
X39920016Y-33244143D01*
X40008400Y-33332681D01*
X40008400Y-34875000D01*
X35930090Y-34875000D01*
X35906515Y-34756479D01*
X35889064Y-34730362D01*
X35792363Y-34585638D01*
X34021018Y-32814294D01*
X34021126Y-32690421D01*
X33910984Y-32423857D01*
X33707216Y-32219733D01*
X33440844Y-32109126D01*
X33152421Y-32108874D01*
X32933600Y-32199289D01*
X32933600Y-27037950D01*
X43597000Y-27037950D01*
X43597000Y-27576611D01*
X43693368Y-27809265D01*
X43871434Y-27987331D01*
X44104088Y-28083700D01*
X44692750Y-28083700D01*
X44851000Y-27925450D01*
X44851000Y-26879700D01*
X45109000Y-26879700D01*
X45109000Y-27925450D01*
X45267250Y-28083700D01*
X45855912Y-28083700D01*
X46088566Y-27987331D01*
X46266632Y-27809265D01*
X46363000Y-27576611D01*
X46363000Y-27037950D01*
X46204750Y-26879700D01*
X45109000Y-26879700D01*
X44851000Y-26879700D01*
X43755250Y-26879700D01*
X43597000Y-27037950D01*
X32933600Y-27037950D01*
X32933600Y-15181000D01*
X32893515Y-14979479D01*
X32889232Y-14973069D01*
X32779363Y-14808638D01*
X29152362Y-11181638D01*
X28981521Y-11067485D01*
X28966620Y-11064521D01*
X28780000Y-11027400D01*
X27780324Y-11027400D01*
X29428124Y-9379600D01*
X43553813Y-9379600D01*
X43519123Y-9554000D01*
G36*
X65209874Y-32977579D02*
X65320016Y-33244143D01*
X65373400Y-33297620D01*
X65373400Y-34875000D01*
X63840849Y-34875000D01*
X63817221Y-34839638D01*
X63732363Y-34712638D01*
X61745324Y-32725600D01*
X65210094Y-32725600D01*
X65209874Y-32977579D01*
X65209874Y-32977579D01*
G37*
X65209874Y-32977579D02*
X65320016Y-33244143D01*
X65373400Y-33297620D01*
X65373400Y-34875000D01*
X63840849Y-34875000D01*
X63817221Y-34839638D01*
X63732363Y-34712638D01*
X61745324Y-32725600D01*
X65210094Y-32725600D01*
X65209874Y-32977579D01*
G36*
X18572640Y-32080636D02*
X18572637Y-32080638D01*
X15778276Y-34875000D01*
X13086600Y-34875000D01*
X13086600Y-33976124D01*
X16877125Y-30185600D01*
X18781184Y-30185600D01*
X18838016Y-30323143D01*
X19041784Y-30527267D01*
X19308156Y-30637874D01*
X19596579Y-30638126D01*
X19863143Y-30527984D01*
X20067267Y-30324216D01*
X20177874Y-30057844D01*
X20178126Y-29769421D01*
X20140186Y-29677600D01*
X20975675Y-29677600D01*
X18572640Y-32080636D01*
X18572640Y-32080636D01*
G37*
X18572640Y-32080636D02*
X18572637Y-32080638D01*
X15778276Y-34875000D01*
X13086600Y-34875000D01*
X13086600Y-33976124D01*
X16877125Y-30185600D01*
X18781184Y-30185600D01*
X18838016Y-30323143D01*
X19041784Y-30527267D01*
X19308156Y-30637874D01*
X19596579Y-30638126D01*
X19863143Y-30527984D01*
X20067267Y-30324216D01*
X20177874Y-30057844D01*
X20178126Y-29769421D01*
X20140186Y-29677600D01*
X20975675Y-29677600D01*
X18572640Y-32080636D01*
G36*
X31372400Y-34612876D02*
X31110276Y-34875000D01*
X28326600Y-34875000D01*
X28326600Y-28922669D01*
X28449267Y-28800216D01*
X28559874Y-28533844D01*
X28560126Y-28245421D01*
X28449984Y-27978857D01*
X28246216Y-27774733D01*
X28198008Y-27754716D01*
X31372400Y-24580324D01*
X31372400Y-34612876D01*
X31372400Y-34612876D01*
G37*
X31372400Y-34612876D02*
X31110276Y-34875000D01*
X28326600Y-34875000D01*
X28326600Y-28922669D01*
X28449267Y-28800216D01*
X28559874Y-28533844D01*
X28560126Y-28245421D01*
X28449984Y-27978857D01*
X28246216Y-27774733D01*
X28198008Y-27754716D01*
X31372400Y-24580324D01*
X31372400Y-34612876D01*
G36*
X26673400Y-34139875D02*
X25938275Y-34875000D01*
X23246600Y-34875000D01*
X23246600Y-32071124D01*
X26673400Y-28644324D01*
X26673400Y-34139875D01*
X26673400Y-34139875D01*
G37*
X26673400Y-34139875D02*
X25938275Y-34875000D01*
X23246600Y-34875000D01*
X23246600Y-32071124D01*
X26673400Y-28644324D01*
X26673400Y-34139875D01*
G36*
X21251016Y-31720143D02*
X21454784Y-31924267D01*
X21720400Y-32034560D01*
X21720400Y-34012875D01*
X20858275Y-34875000D01*
X18166600Y-34875000D01*
X18166600Y-34636526D01*
X21201886Y-31601240D01*
X21251016Y-31720143D01*
X21251016Y-31720143D01*
G37*
X21251016Y-31720143D02*
X21454784Y-31924267D01*
X21720400Y-32034560D01*
X21720400Y-34012875D01*
X20858275Y-34875000D01*
X18166600Y-34875000D01*
X18166600Y-34636526D01*
X21201886Y-31601240D01*
X21251016Y-31720143D01*
G36*
X51943637Y-20984362D02*
X52080003Y-21075479D01*
X52114479Y-21098515D01*
X52316000Y-21138600D01*
X53438350Y-21138600D01*
X53499250Y-21199500D01*
X54745000Y-21199500D01*
X54745000Y-21170326D01*
X55003000Y-21170326D01*
X55003000Y-21199500D01*
X55023000Y-21199500D01*
X55023000Y-21324500D01*
X55003000Y-21324500D01*
X55003000Y-21353674D01*
X54745000Y-21353674D01*
X54745000Y-21324500D01*
X53499250Y-21324500D01*
X53341000Y-21482750D01*
X53341000Y-21512912D01*
X53437369Y-21745566D01*
X53540674Y-21848871D01*
X53540674Y-22037000D01*
X53570309Y-22194496D01*
X53663389Y-22339146D01*
X53805412Y-22436186D01*
X53974000Y-22470326D01*
X55774000Y-22470326D01*
X55931496Y-22440691D01*
X55934745Y-22438600D01*
X59417333Y-22438600D01*
X59574000Y-22470326D01*
X59947400Y-22470326D01*
X59947400Y-22760674D01*
X59774000Y-22760674D01*
X59620125Y-22789628D01*
X59487865Y-22657368D01*
X59255211Y-22561000D01*
X58716550Y-22561000D01*
X58558300Y-22719250D01*
X58558300Y-23815000D01*
X58578300Y-23815000D01*
X58578300Y-24073000D01*
X58558300Y-24073000D01*
X58558300Y-25168750D01*
X58716550Y-25327000D01*
X59255211Y-25327000D01*
X59487865Y-25230632D01*
X59621960Y-25096537D01*
X59774000Y-25127326D01*
X61174000Y-25127326D01*
X61331496Y-25097691D01*
X61476146Y-25004611D01*
X61573186Y-24862588D01*
X61607326Y-24694000D01*
X61607326Y-23194000D01*
X61577691Y-23036504D01*
X61484611Y-22891854D01*
X61342588Y-22794814D01*
X61174000Y-22760674D01*
X61000600Y-22760674D01*
X61000600Y-22470326D01*
X61374000Y-22470326D01*
X61531496Y-22440691D01*
X61598400Y-22397639D01*
X61598400Y-22547000D01*
X61631897Y-22715400D01*
X61638485Y-22748521D01*
X61752638Y-22919362D01*
X65916400Y-27083125D01*
X65916400Y-29668270D01*
X65828733Y-29755784D01*
X65718126Y-30022156D01*
X65717874Y-30310579D01*
X65828016Y-30577143D01*
X66031784Y-30781267D01*
X66298156Y-30891874D01*
X66586579Y-30892126D01*
X66853143Y-30781984D01*
X66963369Y-30671950D01*
X67187156Y-30764874D01*
X67475579Y-30765126D01*
X67742143Y-30654984D01*
X67946267Y-30451216D01*
X68056874Y-30184844D01*
X68057126Y-29896421D01*
X67946984Y-29629857D01*
X67743216Y-29425733D01*
X67477600Y-29315440D01*
X67477600Y-27392408D01*
X73745096Y-33659905D01*
X73745099Y-33659907D01*
X74960191Y-34875000D01*
X74000849Y-34875000D01*
X73977221Y-34839638D01*
X73892363Y-34712638D01*
X70498362Y-31318638D01*
X70327521Y-31204485D01*
X70126000Y-31164400D01*
X53706205Y-31164400D01*
X53747000Y-31065911D01*
X53747000Y-30327250D01*
X53588750Y-30169000D01*
X53051500Y-30169000D01*
X53051500Y-30189000D01*
X52926500Y-30189000D01*
X52926500Y-30169000D01*
X52897326Y-30169000D01*
X52897326Y-29911000D01*
X52926500Y-29911000D01*
X52926500Y-28665250D01*
X53051500Y-28665250D01*
X53051500Y-29911000D01*
X53588750Y-29911000D01*
X53747000Y-29752750D01*
X53747000Y-29014089D01*
X53650632Y-28781435D01*
X53472566Y-28603369D01*
X53239912Y-28507000D01*
X53209750Y-28507000D01*
X53051500Y-28665250D01*
X52926500Y-28665250D01*
X52768250Y-28507000D01*
X52738088Y-28507000D01*
X52505434Y-28603369D01*
X52402129Y-28706674D01*
X52214000Y-28706674D01*
X52056504Y-28736309D01*
X52015042Y-28762989D01*
X51982588Y-28740814D01*
X51814000Y-28706674D01*
X51564000Y-28706674D01*
X51406504Y-28736309D01*
X51365042Y-28762989D01*
X51332588Y-28740814D01*
X51164000Y-28706674D01*
X50914000Y-28706674D01*
X50756504Y-28736309D01*
X50715042Y-28762989D01*
X50682588Y-28740814D01*
X50514000Y-28706674D01*
X50264000Y-28706674D01*
X50106504Y-28736309D01*
X50065042Y-28762989D01*
X50032588Y-28740814D01*
X49864000Y-28706674D01*
X49614000Y-28706674D01*
X49456504Y-28736309D01*
X49415042Y-28762989D01*
X49382588Y-28740814D01*
X49214000Y-28706674D01*
X49025871Y-28706674D01*
X48922566Y-28603369D01*
X48689912Y-28507000D01*
X48659750Y-28507000D01*
X48501500Y-28665250D01*
X48501500Y-29911000D01*
X48530674Y-29911000D01*
X48530674Y-30169000D01*
X48501500Y-30169000D01*
X48501500Y-30189000D01*
X48376500Y-30189000D01*
X48376500Y-30169000D01*
X48347326Y-30169000D01*
X48347326Y-29911000D01*
X48376500Y-29911000D01*
X48376500Y-28665250D01*
X48218250Y-28507000D01*
X48188088Y-28507000D01*
X47955434Y-28603369D01*
X47852129Y-28706674D01*
X47665600Y-28706674D01*
X47665600Y-25875650D01*
X47726500Y-25814750D01*
X47726500Y-24569000D01*
X47697326Y-24569000D01*
X47697326Y-24311000D01*
X47726500Y-24311000D01*
X47726500Y-24291000D01*
X47851500Y-24291000D01*
X47851500Y-24311000D01*
X47880674Y-24311000D01*
X47880674Y-24569000D01*
X47851500Y-24569000D01*
X47851500Y-25814750D01*
X48009750Y-25973000D01*
X48039912Y-25973000D01*
X48272566Y-25876631D01*
X48375871Y-25773326D01*
X48564000Y-25773326D01*
X48721496Y-25743691D01*
X48762958Y-25717011D01*
X48795412Y-25739186D01*
X48964000Y-25773326D01*
X49214000Y-25773326D01*
X49371496Y-25743691D01*
X49412958Y-25717011D01*
X49445412Y-25739186D01*
X49614000Y-25773326D01*
X49864000Y-25773326D01*
X50021496Y-25743691D01*
X50062958Y-25717011D01*
X50095412Y-25739186D01*
X50264000Y-25773326D01*
X50514000Y-25773326D01*
X50671496Y-25743691D01*
X50712958Y-25717011D01*
X50745412Y-25739186D01*
X50914000Y-25773326D01*
X51164000Y-25773326D01*
X51321496Y-25743691D01*
X51362958Y-25717011D01*
X51395412Y-25739186D01*
X51564000Y-25773326D01*
X51814000Y-25773326D01*
X51971496Y-25743691D01*
X52012958Y-25717011D01*
X52045412Y-25739186D01*
X52214000Y-25773326D01*
X52464000Y-25773326D01*
X52621496Y-25743691D01*
X52662958Y-25717011D01*
X52695412Y-25739186D01*
X52864000Y-25773326D01*
X53114000Y-25773326D01*
X53271496Y-25743691D01*
X53416146Y-25650611D01*
X53513186Y-25508588D01*
X53547326Y-25340000D01*
X53547326Y-24231250D01*
X57096300Y-24231250D01*
X57096300Y-24819912D01*
X57192669Y-25052566D01*
X57370735Y-25230632D01*
X57603389Y-25327000D01*
X58142050Y-25327000D01*
X58300300Y-25168750D01*
X58300300Y-24073000D01*
X57254550Y-24073000D01*
X57096300Y-24231250D01*
X53547326Y-24231250D01*
X53547326Y-23540000D01*
X53517691Y-23382504D01*
X53515600Y-23379255D01*
X53515600Y-23317000D01*
X53475515Y-23115479D01*
X53443850Y-23068088D01*
X57096300Y-23068088D01*
X57096300Y-23656750D01*
X57254550Y-23815000D01*
X58300300Y-23815000D01*
X58300300Y-22719250D01*
X58142050Y-22561000D01*
X57603389Y-22561000D01*
X57370735Y-22657368D01*
X57192669Y-22835434D01*
X57096300Y-23068088D01*
X53443850Y-23068088D01*
X53361362Y-22944638D01*
X53107365Y-22690641D01*
X53107363Y-22690638D01*
X53099364Y-22682640D01*
X53099362Y-22682637D01*
X48997324Y-18580600D01*
X49539876Y-18580600D01*
X51943637Y-20984362D01*
X51943637Y-20984362D01*
G37*
X51943637Y-20984362D02*
X52080003Y-21075479D01*
X52114479Y-21098515D01*
X52316000Y-21138600D01*
X53438350Y-21138600D01*
X53499250Y-21199500D01*
X54745000Y-21199500D01*
X54745000Y-21170326D01*
X55003000Y-21170326D01*
X55003000Y-21199500D01*
X55023000Y-21199500D01*
X55023000Y-21324500D01*
X55003000Y-21324500D01*
X55003000Y-21353674D01*
X54745000Y-21353674D01*
X54745000Y-21324500D01*
X53499250Y-21324500D01*
X53341000Y-21482750D01*
X53341000Y-21512912D01*
X53437369Y-21745566D01*
X53540674Y-21848871D01*
X53540674Y-22037000D01*
X53570309Y-22194496D01*
X53663389Y-22339146D01*
X53805412Y-22436186D01*
X53974000Y-22470326D01*
X55774000Y-22470326D01*
X55931496Y-22440691D01*
X55934745Y-22438600D01*
X59417333Y-22438600D01*
X59574000Y-22470326D01*
X59947400Y-22470326D01*
X59947400Y-22760674D01*
X59774000Y-22760674D01*
X59620125Y-22789628D01*
X59487865Y-22657368D01*
X59255211Y-22561000D01*
X58716550Y-22561000D01*
X58558300Y-22719250D01*
X58558300Y-23815000D01*
X58578300Y-23815000D01*
X58578300Y-24073000D01*
X58558300Y-24073000D01*
X58558300Y-25168750D01*
X58716550Y-25327000D01*
X59255211Y-25327000D01*
X59487865Y-25230632D01*
X59621960Y-25096537D01*
X59774000Y-25127326D01*
X61174000Y-25127326D01*
X61331496Y-25097691D01*
X61476146Y-25004611D01*
X61573186Y-24862588D01*
X61607326Y-24694000D01*
X61607326Y-23194000D01*
X61577691Y-23036504D01*
X61484611Y-22891854D01*
X61342588Y-22794814D01*
X61174000Y-22760674D01*
X61000600Y-22760674D01*
X61000600Y-22470326D01*
X61374000Y-22470326D01*
X61531496Y-22440691D01*
X61598400Y-22397639D01*
X61598400Y-22547000D01*
X61631897Y-22715400D01*
X61638485Y-22748521D01*
X61752638Y-22919362D01*
X65916400Y-27083125D01*
X65916400Y-29668270D01*
X65828733Y-29755784D01*
X65718126Y-30022156D01*
X65717874Y-30310579D01*
X65828016Y-30577143D01*
X66031784Y-30781267D01*
X66298156Y-30891874D01*
X66586579Y-30892126D01*
X66853143Y-30781984D01*
X66963369Y-30671950D01*
X67187156Y-30764874D01*
X67475579Y-30765126D01*
X67742143Y-30654984D01*
X67946267Y-30451216D01*
X68056874Y-30184844D01*
X68057126Y-29896421D01*
X67946984Y-29629857D01*
X67743216Y-29425733D01*
X67477600Y-29315440D01*
X67477600Y-27392408D01*
X73745096Y-33659905D01*
X73745099Y-33659907D01*
X74960191Y-34875000D01*
X74000849Y-34875000D01*
X73977221Y-34839638D01*
X73892363Y-34712638D01*
X70498362Y-31318638D01*
X70327521Y-31204485D01*
X70126000Y-31164400D01*
X53706205Y-31164400D01*
X53747000Y-31065911D01*
X53747000Y-30327250D01*
X53588750Y-30169000D01*
X53051500Y-30169000D01*
X53051500Y-30189000D01*
X52926500Y-30189000D01*
X52926500Y-30169000D01*
X52897326Y-30169000D01*
X52897326Y-29911000D01*
X52926500Y-29911000D01*
X52926500Y-28665250D01*
X53051500Y-28665250D01*
X53051500Y-29911000D01*
X53588750Y-29911000D01*
X53747000Y-29752750D01*
X53747000Y-29014089D01*
X53650632Y-28781435D01*
X53472566Y-28603369D01*
X53239912Y-28507000D01*
X53209750Y-28507000D01*
X53051500Y-28665250D01*
X52926500Y-28665250D01*
X52768250Y-28507000D01*
X52738088Y-28507000D01*
X52505434Y-28603369D01*
X52402129Y-28706674D01*
X52214000Y-28706674D01*
X52056504Y-28736309D01*
X52015042Y-28762989D01*
X51982588Y-28740814D01*
X51814000Y-28706674D01*
X51564000Y-28706674D01*
X51406504Y-28736309D01*
X51365042Y-28762989D01*
X51332588Y-28740814D01*
X51164000Y-28706674D01*
X50914000Y-28706674D01*
X50756504Y-28736309D01*
X50715042Y-28762989D01*
X50682588Y-28740814D01*
X50514000Y-28706674D01*
X50264000Y-28706674D01*
X50106504Y-28736309D01*
X50065042Y-28762989D01*
X50032588Y-28740814D01*
X49864000Y-28706674D01*
X49614000Y-28706674D01*
X49456504Y-28736309D01*
X49415042Y-28762989D01*
X49382588Y-28740814D01*
X49214000Y-28706674D01*
X49025871Y-28706674D01*
X48922566Y-28603369D01*
X48689912Y-28507000D01*
X48659750Y-28507000D01*
X48501500Y-28665250D01*
X48501500Y-29911000D01*
X48530674Y-29911000D01*
X48530674Y-30169000D01*
X48501500Y-30169000D01*
X48501500Y-30189000D01*
X48376500Y-30189000D01*
X48376500Y-30169000D01*
X48347326Y-30169000D01*
X48347326Y-29911000D01*
X48376500Y-29911000D01*
X48376500Y-28665250D01*
X48218250Y-28507000D01*
X48188088Y-28507000D01*
X47955434Y-28603369D01*
X47852129Y-28706674D01*
X47665600Y-28706674D01*
X47665600Y-25875650D01*
X47726500Y-25814750D01*
X47726500Y-24569000D01*
X47697326Y-24569000D01*
X47697326Y-24311000D01*
X47726500Y-24311000D01*
X47726500Y-24291000D01*
X47851500Y-24291000D01*
X47851500Y-24311000D01*
X47880674Y-24311000D01*
X47880674Y-24569000D01*
X47851500Y-24569000D01*
X47851500Y-25814750D01*
X48009750Y-25973000D01*
X48039912Y-25973000D01*
X48272566Y-25876631D01*
X48375871Y-25773326D01*
X48564000Y-25773326D01*
X48721496Y-25743691D01*
X48762958Y-25717011D01*
X48795412Y-25739186D01*
X48964000Y-25773326D01*
X49214000Y-25773326D01*
X49371496Y-25743691D01*
X49412958Y-25717011D01*
X49445412Y-25739186D01*
X49614000Y-25773326D01*
X49864000Y-25773326D01*
X50021496Y-25743691D01*
X50062958Y-25717011D01*
X50095412Y-25739186D01*
X50264000Y-25773326D01*
X50514000Y-25773326D01*
X50671496Y-25743691D01*
X50712958Y-25717011D01*
X50745412Y-25739186D01*
X50914000Y-25773326D01*
X51164000Y-25773326D01*
X51321496Y-25743691D01*
X51362958Y-25717011D01*
X51395412Y-25739186D01*
X51564000Y-25773326D01*
X51814000Y-25773326D01*
X51971496Y-25743691D01*
X52012958Y-25717011D01*
X52045412Y-25739186D01*
X52214000Y-25773326D01*
X52464000Y-25773326D01*
X52621496Y-25743691D01*
X52662958Y-25717011D01*
X52695412Y-25739186D01*
X52864000Y-25773326D01*
X53114000Y-25773326D01*
X53271496Y-25743691D01*
X53416146Y-25650611D01*
X53513186Y-25508588D01*
X53547326Y-25340000D01*
X53547326Y-24231250D01*
X57096300Y-24231250D01*
X57096300Y-24819912D01*
X57192669Y-25052566D01*
X57370735Y-25230632D01*
X57603389Y-25327000D01*
X58142050Y-25327000D01*
X58300300Y-25168750D01*
X58300300Y-24073000D01*
X57254550Y-24073000D01*
X57096300Y-24231250D01*
X53547326Y-24231250D01*
X53547326Y-23540000D01*
X53517691Y-23382504D01*
X53515600Y-23379255D01*
X53515600Y-23317000D01*
X53475515Y-23115479D01*
X53443850Y-23068088D01*
X57096300Y-23068088D01*
X57096300Y-23656750D01*
X57254550Y-23815000D01*
X58300300Y-23815000D01*
X58300300Y-22719250D01*
X58142050Y-22561000D01*
X57603389Y-22561000D01*
X57370735Y-22657368D01*
X57192669Y-22835434D01*
X57096300Y-23068088D01*
X53443850Y-23068088D01*
X53361362Y-22944638D01*
X53107365Y-22690641D01*
X53107363Y-22690638D01*
X53099364Y-22682640D01*
X53099362Y-22682637D01*
X48997324Y-18580600D01*
X49539876Y-18580600D01*
X51943637Y-20984362D01*
G36*
X23341000Y-20183002D02*
X23404258Y-20183002D01*
X23359728Y-20218816D01*
X23464942Y-20482224D01*
X23522463Y-20537211D01*
X23519123Y-20554000D01*
X23559208Y-20755521D01*
X23591601Y-20804000D01*
X23559208Y-20852479D01*
X23519123Y-21054000D01*
X23559208Y-21255521D01*
X23673361Y-21426362D01*
X23844202Y-21540515D01*
X24045723Y-21580600D01*
X24575964Y-21580600D01*
X24577550Y-21588575D01*
X24587485Y-21638521D01*
X24701638Y-21809362D01*
X24950982Y-22058707D01*
X24950874Y-22182579D01*
X25061016Y-22449143D01*
X25264784Y-22653267D01*
X25531156Y-22763874D01*
X25819579Y-22764126D01*
X26086143Y-22653984D01*
X26290267Y-22450216D01*
X26400874Y-22183844D01*
X26401126Y-21895421D01*
X26290984Y-21628857D01*
X26219529Y-21557277D01*
X26303798Y-21540515D01*
X26474639Y-21426362D01*
X26588792Y-21255521D01*
X26628877Y-21054000D01*
X26588792Y-20852479D01*
X26556399Y-20804000D01*
X26588792Y-20755521D01*
X26628877Y-20554000D01*
X26625537Y-20537211D01*
X26683058Y-20482224D01*
X26788272Y-20218816D01*
X26743742Y-20183002D01*
X26800400Y-20183002D01*
X26800400Y-22582876D01*
X23044876Y-26338400D01*
X23008537Y-26338400D01*
X23098874Y-26120844D01*
X23099126Y-25832421D01*
X22988984Y-25565857D01*
X22785216Y-25361733D01*
X22518844Y-25251126D01*
X22393742Y-25251017D01*
X21994325Y-24851600D01*
X23272270Y-24851600D01*
X23359784Y-24939267D01*
X23626156Y-25049874D01*
X23914579Y-25050126D01*
X24181143Y-24939984D01*
X24385267Y-24736216D01*
X24495874Y-24469844D01*
X24496126Y-24181421D01*
X24385984Y-23914857D01*
X24182216Y-23710733D01*
X23915844Y-23600126D01*
X23627421Y-23599874D01*
X23360857Y-23710016D01*
X23272319Y-23798400D01*
X23034716Y-23798400D01*
X23038143Y-23796984D01*
X23242267Y-23593216D01*
X23352874Y-23326844D01*
X23353126Y-23038421D01*
X23242984Y-22771857D01*
X23039216Y-22567733D01*
X22772844Y-22457126D01*
X22647741Y-22457017D01*
X22519600Y-22328876D01*
X22519600Y-20606124D01*
X23045125Y-20080600D01*
X23341000Y-20080600D01*
X23341000Y-20183002D01*
X23341000Y-20183002D01*
G37*
X23341000Y-20183002D02*
X23404258Y-20183002D01*
X23359728Y-20218816D01*
X23464942Y-20482224D01*
X23522463Y-20537211D01*
X23519123Y-20554000D01*
X23559208Y-20755521D01*
X23591601Y-20804000D01*
X23559208Y-20852479D01*
X23519123Y-21054000D01*
X23559208Y-21255521D01*
X23673361Y-21426362D01*
X23844202Y-21540515D01*
X24045723Y-21580600D01*
X24575964Y-21580600D01*
X24577550Y-21588575D01*
X24587485Y-21638521D01*
X24701638Y-21809362D01*
X24950982Y-22058707D01*
X24950874Y-22182579D01*
X25061016Y-22449143D01*
X25264784Y-22653267D01*
X25531156Y-22763874D01*
X25819579Y-22764126D01*
X26086143Y-22653984D01*
X26290267Y-22450216D01*
X26400874Y-22183844D01*
X26401126Y-21895421D01*
X26290984Y-21628857D01*
X26219529Y-21557277D01*
X26303798Y-21540515D01*
X26474639Y-21426362D01*
X26588792Y-21255521D01*
X26628877Y-21054000D01*
X26588792Y-20852479D01*
X26556399Y-20804000D01*
X26588792Y-20755521D01*
X26628877Y-20554000D01*
X26625537Y-20537211D01*
X26683058Y-20482224D01*
X26788272Y-20218816D01*
X26743742Y-20183002D01*
X26800400Y-20183002D01*
X26800400Y-22582876D01*
X23044876Y-26338400D01*
X23008537Y-26338400D01*
X23098874Y-26120844D01*
X23099126Y-25832421D01*
X22988984Y-25565857D01*
X22785216Y-25361733D01*
X22518844Y-25251126D01*
X22393742Y-25251017D01*
X21994325Y-24851600D01*
X23272270Y-24851600D01*
X23359784Y-24939267D01*
X23626156Y-25049874D01*
X23914579Y-25050126D01*
X24181143Y-24939984D01*
X24385267Y-24736216D01*
X24495874Y-24469844D01*
X24496126Y-24181421D01*
X24385984Y-23914857D01*
X24182216Y-23710733D01*
X23915844Y-23600126D01*
X23627421Y-23599874D01*
X23360857Y-23710016D01*
X23272319Y-23798400D01*
X23034716Y-23798400D01*
X23038143Y-23796984D01*
X23242267Y-23593216D01*
X23352874Y-23326844D01*
X23353126Y-23038421D01*
X23242984Y-22771857D01*
X23039216Y-22567733D01*
X22772844Y-22457126D01*
X22647741Y-22457017D01*
X22519600Y-22328876D01*
X22519600Y-20606124D01*
X23045125Y-20080600D01*
X23341000Y-20080600D01*
X23341000Y-20183002D01*
G36*
X46905733Y-21627784D02*
X46795126Y-21894156D01*
X46794874Y-22182579D01*
X46905016Y-22449143D01*
X47108784Y-22653267D01*
X47375156Y-22763874D01*
X47500259Y-22763983D01*
X47659998Y-22923722D01*
X47659998Y-22998748D01*
X47568250Y-22907000D01*
X47538088Y-22907000D01*
X47305434Y-23003369D01*
X47202129Y-23106674D01*
X47014000Y-23106674D01*
X46856504Y-23136309D01*
X46711854Y-23229389D01*
X46614814Y-23371412D01*
X46580674Y-23540000D01*
X46580674Y-23913400D01*
X46145902Y-23913400D01*
X46133691Y-23848504D01*
X46040611Y-23703854D01*
X45898588Y-23606814D01*
X45730000Y-23572674D01*
X45506600Y-23572674D01*
X45506600Y-22928000D01*
X45466515Y-22726479D01*
X45432544Y-22675638D01*
X45352362Y-22555637D01*
X45098364Y-22301640D01*
X45098362Y-22301637D01*
X44377324Y-21580600D01*
X46952999Y-21580600D01*
X46905733Y-21627784D01*
X46905733Y-21627784D01*
G37*
X46905733Y-21627784D02*
X46795126Y-21894156D01*
X46794874Y-22182579D01*
X46905016Y-22449143D01*
X47108784Y-22653267D01*
X47375156Y-22763874D01*
X47500259Y-22763983D01*
X47659998Y-22923722D01*
X47659998Y-22998748D01*
X47568250Y-22907000D01*
X47538088Y-22907000D01*
X47305434Y-23003369D01*
X47202129Y-23106674D01*
X47014000Y-23106674D01*
X46856504Y-23136309D01*
X46711854Y-23229389D01*
X46614814Y-23371412D01*
X46580674Y-23540000D01*
X46580674Y-23913400D01*
X46145902Y-23913400D01*
X46133691Y-23848504D01*
X46040611Y-23703854D01*
X45898588Y-23606814D01*
X45730000Y-23572674D01*
X45506600Y-23572674D01*
X45506600Y-22928000D01*
X45466515Y-22726479D01*
X45432544Y-22675638D01*
X45352362Y-22555637D01*
X45098364Y-22301640D01*
X45098362Y-22301637D01*
X44377324Y-21580600D01*
X46952999Y-21580600D01*
X46905733Y-21627784D01*
G36*
X59447000Y-13961326D02*
X60160602Y-13961326D01*
X60736638Y-14537363D01*
X60907479Y-14651515D01*
X61109000Y-14691600D01*
X62719674Y-14691600D01*
X62719674Y-14865000D01*
X62748628Y-15018875D01*
X62616368Y-15151135D01*
X62520000Y-15383789D01*
X62520000Y-15922450D01*
X62678248Y-16080698D01*
X62520000Y-16080698D01*
X62520000Y-16084000D01*
X62269844Y-15980126D01*
X62007000Y-15979896D01*
X62007000Y-15932998D01*
X61915252Y-15932998D01*
X62007000Y-15841250D01*
X62007000Y-15811088D01*
X61910631Y-15578434D01*
X61732565Y-15400368D01*
X61499911Y-15304000D01*
X60761250Y-15304000D01*
X60603000Y-15462250D01*
X60603000Y-15999500D01*
X60623000Y-15999500D01*
X60623000Y-16124500D01*
X60603000Y-16124500D01*
X60603000Y-16153674D01*
X60345000Y-16153674D01*
X60345000Y-16124500D01*
X59099250Y-16124500D01*
X58941000Y-16282750D01*
X58941000Y-16312912D01*
X59037369Y-16545566D01*
X59140674Y-16648871D01*
X59140674Y-16837000D01*
X59170309Y-16994496D01*
X59196989Y-17035958D01*
X59174814Y-17068412D01*
X59140674Y-17237000D01*
X59140674Y-17487000D01*
X59170309Y-17644496D01*
X59196989Y-17685958D01*
X59174814Y-17718412D01*
X59140674Y-17887000D01*
X59140674Y-18135400D01*
X59119639Y-18135400D01*
X58980216Y-17995733D01*
X58713844Y-17885126D01*
X58425421Y-17884874D01*
X58158857Y-17995016D01*
X57954733Y-18198784D01*
X57844126Y-18465156D01*
X57843874Y-18753579D01*
X57944694Y-18997581D01*
X57406293Y-19535982D01*
X57282421Y-19535874D01*
X57190600Y-19573814D01*
X57190600Y-15811088D01*
X58941000Y-15811088D01*
X58941000Y-15841250D01*
X59099250Y-15999500D01*
X60345000Y-15999500D01*
X60345000Y-15462250D01*
X60186750Y-15304000D01*
X59448089Y-15304000D01*
X59215435Y-15400368D01*
X59037369Y-15578434D01*
X58941000Y-15811088D01*
X57190600Y-15811088D01*
X57190600Y-13929600D01*
X59290333Y-13929600D01*
X59447000Y-13961326D01*
X59447000Y-13961326D01*
G37*
X59447000Y-13961326D02*
X60160602Y-13961326D01*
X60736638Y-14537363D01*
X60907479Y-14651515D01*
X61109000Y-14691600D01*
X62719674Y-14691600D01*
X62719674Y-14865000D01*
X62748628Y-15018875D01*
X62616368Y-15151135D01*
X62520000Y-15383789D01*
X62520000Y-15922450D01*
X62678248Y-16080698D01*
X62520000Y-16080698D01*
X62520000Y-16084000D01*
X62269844Y-15980126D01*
X62007000Y-15979896D01*
X62007000Y-15932998D01*
X61915252Y-15932998D01*
X62007000Y-15841250D01*
X62007000Y-15811088D01*
X61910631Y-15578434D01*
X61732565Y-15400368D01*
X61499911Y-15304000D01*
X60761250Y-15304000D01*
X60603000Y-15462250D01*
X60603000Y-15999500D01*
X60623000Y-15999500D01*
X60623000Y-16124500D01*
X60603000Y-16124500D01*
X60603000Y-16153674D01*
X60345000Y-16153674D01*
X60345000Y-16124500D01*
X59099250Y-16124500D01*
X58941000Y-16282750D01*
X58941000Y-16312912D01*
X59037369Y-16545566D01*
X59140674Y-16648871D01*
X59140674Y-16837000D01*
X59170309Y-16994496D01*
X59196989Y-17035958D01*
X59174814Y-17068412D01*
X59140674Y-17237000D01*
X59140674Y-17487000D01*
X59170309Y-17644496D01*
X59196989Y-17685958D01*
X59174814Y-17718412D01*
X59140674Y-17887000D01*
X59140674Y-18135400D01*
X59119639Y-18135400D01*
X58980216Y-17995733D01*
X58713844Y-17885126D01*
X58425421Y-17884874D01*
X58158857Y-17995016D01*
X57954733Y-18198784D01*
X57844126Y-18465156D01*
X57843874Y-18753579D01*
X57944694Y-18997581D01*
X57406293Y-19535982D01*
X57282421Y-19535874D01*
X57190600Y-19573814D01*
X57190600Y-15811088D01*
X58941000Y-15811088D01*
X58941000Y-15841250D01*
X59099250Y-15999500D01*
X60345000Y-15999500D01*
X60345000Y-15462250D01*
X60186750Y-15304000D01*
X59448089Y-15304000D01*
X59215435Y-15400368D01*
X59037369Y-15578434D01*
X58941000Y-15811088D01*
X57190600Y-15811088D01*
X57190600Y-13929600D01*
X59290333Y-13929600D01*
X59447000Y-13961326D01*
G36*
X23559208Y-16255521D02*
X23591601Y-16304000D01*
X23559208Y-16352479D01*
X23519123Y-16554000D01*
X23559208Y-16755521D01*
X23591601Y-16804000D01*
X23559208Y-16852479D01*
X23524414Y-17027400D01*
X22287000Y-17027400D01*
X22085906Y-17067400D01*
X22085479Y-17067485D01*
X21914637Y-17181638D01*
X21432822Y-17663453D01*
X21380396Y-17536571D01*
X21275692Y-17431684D01*
X21337267Y-17370216D01*
X21447874Y-17103844D01*
X21448126Y-16815421D01*
X21337984Y-16548857D01*
X21134216Y-16344733D01*
X21122600Y-16339910D01*
X21122600Y-16080600D01*
X23524414Y-16080600D01*
X23559208Y-16255521D01*
X23559208Y-16255521D01*
G37*
X23559208Y-16255521D02*
X23591601Y-16304000D01*
X23559208Y-16352479D01*
X23519123Y-16554000D01*
X23559208Y-16755521D01*
X23591601Y-16804000D01*
X23559208Y-16852479D01*
X23524414Y-17027400D01*
X22287000Y-17027400D01*
X22085906Y-17067400D01*
X22085479Y-17067485D01*
X21914637Y-17181638D01*
X21432822Y-17663453D01*
X21380396Y-17536571D01*
X21275692Y-17431684D01*
X21337267Y-17370216D01*
X21447874Y-17103844D01*
X21448126Y-16815421D01*
X21337984Y-16548857D01*
X21134216Y-16344733D01*
X21122600Y-16339910D01*
X21122600Y-16080600D01*
X23524414Y-16080600D01*
X23559208Y-16255521D01*
G36*
X28324400Y-16288124D02*
X28324400Y-16830675D01*
X27175362Y-15681638D01*
X27024149Y-15580600D01*
X27616876Y-15580600D01*
X28324400Y-16288124D01*
X28324400Y-16288124D01*
G37*
X28324400Y-16288124D02*
X28324400Y-16830675D01*
X27175362Y-15681638D01*
X27024149Y-15580600D01*
X27616876Y-15580600D01*
X28324400Y-16288124D01*
G36*
X49708434Y-15193158D02*
X49360664Y-15540928D01*
X49270253Y-15673249D01*
X49233787Y-15841350D01*
X49263801Y-16000857D01*
X49237258Y-16027400D01*
X46623586Y-16027400D01*
X46588792Y-15852479D01*
X46556399Y-15804000D01*
X46588792Y-15755521D01*
X46628877Y-15554000D01*
X46588792Y-15352479D01*
X46556399Y-15304000D01*
X46588792Y-15255521D01*
X46628877Y-15054000D01*
X46588792Y-14852479D01*
X46556399Y-14804000D01*
X46588792Y-14755521D01*
X46628877Y-14554000D01*
X46588792Y-14352479D01*
X46556399Y-14304000D01*
X46588792Y-14255521D01*
X46623586Y-14080600D01*
X48595876Y-14080600D01*
X49708434Y-15193158D01*
X49708434Y-15193158D01*
G37*
X49708434Y-15193158D02*
X49360664Y-15540928D01*
X49270253Y-15673249D01*
X49233787Y-15841350D01*
X49263801Y-16000857D01*
X49237258Y-16027400D01*
X46623586Y-16027400D01*
X46588792Y-15852479D01*
X46556399Y-15804000D01*
X46588792Y-15755521D01*
X46628877Y-15554000D01*
X46588792Y-15352479D01*
X46556399Y-15304000D01*
X46588792Y-15255521D01*
X46628877Y-15054000D01*
X46588792Y-14852479D01*
X46556399Y-14804000D01*
X46588792Y-14755521D01*
X46628877Y-14554000D01*
X46588792Y-14352479D01*
X46556399Y-14304000D01*
X46588792Y-14255521D01*
X46623586Y-14080600D01*
X48595876Y-14080600D01*
X49708434Y-15193158D01*
G36*
X51181637Y-12475362D02*
X51295554Y-12551479D01*
X51352479Y-12589515D01*
X51496222Y-12618107D01*
X51494126Y-12623156D01*
X51493874Y-12911579D01*
X51604016Y-13178143D01*
X51807784Y-13382267D01*
X52074156Y-13492874D01*
X52199259Y-13492983D01*
X52481638Y-13775363D01*
X52576296Y-13838611D01*
X52652479Y-13889515D01*
X52854000Y-13929600D01*
X53690333Y-13929600D01*
X53847000Y-13961326D01*
X55647000Y-13961326D01*
X55804496Y-13931691D01*
X55807745Y-13929600D01*
X56137400Y-13929600D01*
X56137400Y-15716890D01*
X56084611Y-15634854D01*
X55942588Y-15537814D01*
X55774000Y-15503674D01*
X53974000Y-15503674D01*
X53816504Y-15533309D01*
X53813255Y-15535400D01*
X53572124Y-15535400D01*
X50117324Y-12080600D01*
X50786876Y-12080600D01*
X51181637Y-12475362D01*
X51181637Y-12475362D01*
G37*
X51181637Y-12475362D02*
X51295554Y-12551479D01*
X51352479Y-12589515D01*
X51496222Y-12618107D01*
X51494126Y-12623156D01*
X51493874Y-12911579D01*
X51604016Y-13178143D01*
X51807784Y-13382267D01*
X52074156Y-13492874D01*
X52199259Y-13492983D01*
X52481638Y-13775363D01*
X52576296Y-13838611D01*
X52652479Y-13889515D01*
X52854000Y-13929600D01*
X53690333Y-13929600D01*
X53847000Y-13961326D01*
X55647000Y-13961326D01*
X55804496Y-13931691D01*
X55807745Y-13929600D01*
X56137400Y-13929600D01*
X56137400Y-15716890D01*
X56084611Y-15634854D01*
X55942588Y-15537814D01*
X55774000Y-15503674D01*
X53974000Y-15503674D01*
X53816504Y-15533309D01*
X53813255Y-15535400D01*
X53572124Y-15535400D01*
X50117324Y-12080600D01*
X50786876Y-12080600D01*
X51181637Y-12475362D01*
G36*
X53372250Y-12690500D02*
X54618000Y-12690500D01*
X54618000Y-12661326D01*
X54876000Y-12661326D01*
X54876000Y-12690500D01*
X54896000Y-12690500D01*
X54896000Y-12815500D01*
X54876000Y-12815500D01*
X54876000Y-12844674D01*
X54618000Y-12844674D01*
X54618000Y-12815500D01*
X53372250Y-12815500D01*
X53311350Y-12876400D01*
X53072125Y-12876400D01*
X52944018Y-12748293D01*
X52944121Y-12629600D01*
X53311350Y-12629600D01*
X53372250Y-12690500D01*
X53372250Y-12690500D01*
G37*
X53372250Y-12690500D02*
X54618000Y-12690500D01*
X54618000Y-12661326D01*
X54876000Y-12661326D01*
X54876000Y-12690500D01*
X54896000Y-12690500D01*
X54896000Y-12815500D01*
X54876000Y-12815500D01*
X54876000Y-12844674D01*
X54618000Y-12844674D01*
X54618000Y-12815500D01*
X53372250Y-12815500D01*
X53311350Y-12876400D01*
X53072125Y-12876400D01*
X52944018Y-12748293D01*
X52944121Y-12629600D01*
X53311350Y-12629600D01*
X53372250Y-12690500D01*
M02*
