G04 #@! TF.FileFunction,Copper,L1,Top,Signal*
%FSLAX46Y46*%
G04 Gerber Fmt 4.6, Leading zero omitted, Abs format (unit mm)*
G04 Created by KiCad (PCBNEW 4.0.7) date 07/02/21 11:45:22*
%MOMM*%
%LPD*%
G01*
G04 APERTURE LIST*
%ADD10C,0.200000*%
%ADD11R,3.000000X2.400000*%
%ADD12R,1.500000X1.400000*%
%ADD13R,1.400000X1.500000*%
%ADD14R,1.600000X6.000000*%
%ADD15R,0.250000X1.800000*%
%ADD16R,1.800000X0.250000*%
%ADD17O,2.200000X0.203200*%
%ADD18R,1.300000X2.500000*%
%ADD19R,3.850000X2.600000*%
%ADD20C,6.100000*%
%ADD21C,0.700000*%
%ADD22C,0.600000*%
%ADD23C,0.400000*%
%ADD24C,0.500000*%
%ADD25C,0.203200*%
%ADD26C,0.250000*%
%ADD27C,0.300000*%
G04 APERTURE END LIST*
D10*
D11*
X6499000Y-20468000D03*
X6499000Y-15068000D03*
D12*
X17802000Y-15261000D03*
X17802000Y-13216300D03*
D13*
X60474000Y-18944000D03*
X58429300Y-18944000D03*
D12*
X63903000Y-9165000D03*
X63903000Y-11209700D03*
X17802000Y-10562000D03*
X17802000Y-8517300D03*
X44980000Y-19706000D03*
X44980000Y-21750700D03*
D14*
X81140000Y-36000000D03*
X78600000Y-36000000D03*
X76060000Y-36000000D03*
X73520000Y-36000000D03*
X70980000Y-36000000D03*
X68440000Y-36000000D03*
X65900000Y-36000000D03*
X63360000Y-36000000D03*
X60820000Y-36000000D03*
X58280000Y-36000000D03*
X55740000Y-36000000D03*
X53200000Y-36000000D03*
X50660000Y-36000000D03*
X48120000Y-36000000D03*
X45580000Y-36000000D03*
X43040000Y-36000000D03*
X40500000Y-36000000D03*
X37960000Y-36000000D03*
X35420000Y-36000000D03*
X32880000Y-36000000D03*
X30340000Y-36000000D03*
X27800000Y-36000000D03*
X25260000Y-36000000D03*
X22720000Y-36000000D03*
X20180000Y-36000000D03*
X17640000Y-36000000D03*
X15100000Y-36000000D03*
X12560000Y-36000000D03*
X10020000Y-36000000D03*
X7480000Y-36000000D03*
X4940000Y-36000000D03*
X2400000Y-36000000D03*
D15*
X47139000Y-25040000D03*
X47789000Y-25040000D03*
X48439000Y-25040000D03*
X49089000Y-25040000D03*
X49739000Y-25040000D03*
X50389000Y-25040000D03*
X51039000Y-25040000D03*
X51689000Y-25040000D03*
X52339000Y-25040000D03*
X52989000Y-25040000D03*
X52989000Y-19440000D03*
X52339000Y-19440000D03*
X51689000Y-19440000D03*
X51039000Y-19440000D03*
X50389000Y-19440000D03*
X49739000Y-19440000D03*
X49089000Y-19440000D03*
X48439000Y-19440000D03*
X47789000Y-19440000D03*
X47139000Y-19440000D03*
D16*
X60474000Y-16912000D03*
X60474000Y-16262000D03*
X60474000Y-15612000D03*
X60474000Y-14962000D03*
X60474000Y-14312000D03*
X60474000Y-13662000D03*
X60474000Y-13012000D03*
X60474000Y-12362000D03*
X60474000Y-11712000D03*
X60474000Y-11062000D03*
X54874000Y-11062000D03*
X54874000Y-11712000D03*
X54874000Y-12362000D03*
X54874000Y-13012000D03*
X54874000Y-13662000D03*
X54874000Y-14312000D03*
X54874000Y-14962000D03*
X54874000Y-15612000D03*
X54874000Y-16262000D03*
X54874000Y-16912000D03*
X60347000Y-8403000D03*
X60347000Y-7753000D03*
X60347000Y-7103000D03*
X60347000Y-6453000D03*
X60347000Y-5803000D03*
X60347000Y-5153000D03*
X60347000Y-4503000D03*
X60347000Y-3853000D03*
X60347000Y-3203000D03*
X60347000Y-2553000D03*
X54747000Y-2553000D03*
X54747000Y-3203000D03*
X54747000Y-3853000D03*
X54747000Y-4503000D03*
X54747000Y-5153000D03*
X54747000Y-5803000D03*
X54747000Y-6453000D03*
X54747000Y-7103000D03*
X54747000Y-7753000D03*
X54747000Y-8403000D03*
D17*
X45074000Y-16054000D03*
X45074000Y-15554000D03*
X45074000Y-15054000D03*
X45074000Y-14554000D03*
X45074000Y-14054000D03*
X45074000Y-13554000D03*
X45074000Y-13054000D03*
X45074000Y-12554000D03*
X45074000Y-12054000D03*
X45074000Y-11554000D03*
X45074000Y-11054000D03*
X45074000Y-10554000D03*
X45074000Y-10054000D03*
X45074000Y-9554000D03*
X45074000Y-9054000D03*
X45074000Y-8554000D03*
X45074000Y-8054000D03*
X45074000Y-7554000D03*
X45074000Y-7054000D03*
X45074000Y-6554000D03*
X45074000Y-6054000D03*
X45074000Y-5554000D03*
X45074000Y-5054000D03*
X45074000Y-4554000D03*
X25074000Y-4554000D03*
X25074000Y-5054000D03*
X25074000Y-5554000D03*
X25074000Y-6054000D03*
X25074000Y-6554000D03*
X25074000Y-7054000D03*
X25074000Y-7554000D03*
X25074000Y-8054000D03*
X25074000Y-8554000D03*
X25074000Y-9054000D03*
X25074000Y-9554000D03*
X25074000Y-10054000D03*
X25074000Y-10554000D03*
X25074000Y-11054000D03*
X25074000Y-11554000D03*
X25074000Y-12054000D03*
X25074000Y-12554000D03*
X25074000Y-13054000D03*
X25074000Y-13554000D03*
X25074000Y-14054000D03*
X25074000Y-14554000D03*
X25074000Y-15054000D03*
X25074000Y-15554000D03*
X25074000Y-16054000D03*
D18*
X10182000Y-16785000D03*
X12480700Y-16785000D03*
X14779400Y-16785000D03*
D19*
X12480700Y-10689000D03*
D20*
X6400000Y-6100000D03*
X75800000Y-6100000D03*
D10*
G36*
X51259829Y-11591565D02*
X50835565Y-12015829D01*
X50340591Y-11520855D01*
X50764855Y-11096591D01*
X51259829Y-11591565D01*
X51259829Y-11591565D01*
G37*
G36*
X50586310Y-10918046D02*
X50162046Y-11342310D01*
X49667072Y-10847336D01*
X50091336Y-10423072D01*
X50586310Y-10918046D01*
X50586310Y-10918046D01*
G37*
D21*
X63268000Y-12848000D03*
X20723000Y-12975000D03*
X24787000Y-18055000D03*
X35074000Y-9419000D03*
X33550000Y-13356000D03*
X38630000Y-13356000D03*
X41424000Y-9419000D03*
X47901000Y-10054000D03*
X50695000Y-7387000D03*
X57807000Y-11959000D03*
X74952000Y-12594000D03*
X81048000Y-10435000D03*
X76476000Y-23897000D03*
X81556000Y-21992000D03*
X72539000Y-20214000D03*
X76222000Y-17293000D03*
X80159000Y-14880000D03*
X70253000Y-14880000D03*
X66824000Y-12467000D03*
X63268000Y-2053000D03*
X65808000Y-4085000D03*
X68983000Y-5228000D03*
X68983000Y-9038000D03*
X70126000Y-25675000D03*
X67840000Y-23389000D03*
X63903000Y-28596000D03*
X62252000Y-23389000D03*
X63141000Y-25802000D03*
X54886000Y-25548000D03*
X57934000Y-24278000D03*
X54886000Y-22627000D03*
X57807000Y-21230000D03*
X54886000Y-19960000D03*
X51457000Y-23262000D03*
X49679000Y-21484000D03*
X42694000Y-27453000D03*
X44091000Y-25421000D03*
X28089000Y-11324000D03*
X22501000Y-11451000D03*
X22374000Y-9165000D03*
X20469000Y-7133000D03*
X41678000Y-4974000D03*
X37614000Y-7260000D03*
X34947000Y-4974000D03*
X32026000Y-7260000D03*
X29740000Y-4974000D03*
X21485000Y-4593000D03*
X24533000Y-2180000D03*
X19834000Y-2434000D03*
X16532000Y-4720000D03*
X12341000Y-4720000D03*
X12341000Y-7514000D03*
X2435000Y-15134000D03*
X5102000Y-12340000D03*
X1800000Y-10689000D03*
X1419000Y-24913000D03*
X3578000Y-22500000D03*
X38503000Y-23770000D03*
X35328000Y-27072000D03*
X33804000Y-23643000D03*
X41678000Y-19198000D03*
X39900000Y-21357000D03*
X37614000Y-19198000D03*
X35582000Y-21103000D03*
X33804000Y-19198000D03*
X26311000Y-24532000D03*
X25422000Y-27453000D03*
X23771000Y-29104000D03*
X31010000Y-20595000D03*
X29994000Y-23262000D03*
X30502000Y-28469000D03*
X29232000Y-25421000D03*
X21231000Y-27961000D03*
X19326000Y-28977000D03*
X17675000Y-26183000D03*
X15389000Y-28215000D03*
X18310000Y-19960000D03*
X13992000Y-22246000D03*
X11960000Y-25294000D03*
X8404000Y-28215000D03*
X6372000Y-25675000D03*
X7769000Y-23516000D03*
X9674000Y-21865000D03*
X51203000Y-15515000D03*
X64284000Y-20976000D03*
X67205000Y-18055000D03*
X15770000Y-8530000D03*
X42821000Y-21738000D03*
X46123000Y-17801000D03*
X10182000Y-13610000D03*
X15135000Y-13737000D03*
D22*
X52219000Y-7768000D03*
X20723000Y-11959000D03*
X41551000Y-15007000D03*
X62125000Y-11705000D03*
X67713000Y-27326000D03*
X65935000Y-27834000D03*
X61998000Y-8403000D03*
X56918000Y-7768000D03*
X60093000Y-28342000D03*
X55775000Y-28977000D03*
X57680000Y-6498000D03*
X57045000Y-5863000D03*
X50695000Y-28342000D03*
X45615000Y-28723000D03*
X58061000Y-5101000D03*
X40535000Y-27834000D03*
X58442000Y-3196000D03*
X21231000Y-17420000D03*
X33296000Y-27834000D03*
X27835000Y-23389000D03*
X23771000Y-19325000D03*
X21866000Y-21865000D03*
X21866000Y-26310000D03*
X19961000Y-22627000D03*
X19453000Y-24913000D03*
X67332000Y-25040000D03*
X66443000Y-25167000D03*
X62252000Y-15134000D03*
X58569000Y-13610000D03*
X58569000Y-15134000D03*
X57426000Y-15261000D03*
X57172000Y-4466000D03*
X57807000Y-3831000D03*
X22628000Y-18182000D03*
X21485000Y-18563000D03*
X22374000Y-20976000D03*
X21104000Y-22500000D03*
X25676000Y-17039000D03*
X47520000Y-17039000D03*
D23*
X63776000Y-17166000D02*
X63776000Y-16658000D01*
X78600000Y-36000000D02*
X78600000Y-31990000D01*
X78600000Y-31990000D02*
X65173000Y-18563000D01*
X63268000Y-12848000D02*
X63776000Y-13356000D01*
X63776000Y-13356000D02*
X63776000Y-16658000D01*
X65173000Y-18563000D02*
X63776000Y-17166000D01*
X18818000Y-15134000D02*
X17929000Y-15134000D01*
X20723000Y-13229000D02*
X18818000Y-15134000D01*
X20723000Y-12975000D02*
X20723000Y-13229000D01*
X17929000Y-15134000D02*
X17802000Y-15261000D01*
D24*
X4940000Y-36000000D02*
X4940000Y-23551000D01*
X6499000Y-21992000D02*
X6499000Y-20468000D01*
X4940000Y-23551000D02*
X6499000Y-21992000D01*
X14779400Y-16785000D02*
X16303400Y-15261000D01*
X16303400Y-15261000D02*
X17802000Y-15261000D01*
X6499000Y-20468000D02*
X12849000Y-20468000D01*
X14779400Y-18537600D02*
X14779400Y-16785000D01*
X12849000Y-20468000D02*
X14779400Y-18537600D01*
D25*
X25074000Y-15054000D02*
X23216000Y-15054000D01*
X22882000Y-16150000D02*
X22882000Y-15642000D01*
X22882000Y-16150000D02*
X24787000Y-18055000D01*
X22882000Y-15388000D02*
X22882000Y-15642000D01*
X23216000Y-15054000D02*
X22882000Y-15388000D01*
X25074000Y-5554000D02*
X19127000Y-5554000D01*
X17802000Y-6879000D02*
X17802000Y-8517300D01*
X19127000Y-5554000D02*
X17802000Y-6879000D01*
D26*
X35455000Y-9419000D02*
X35074000Y-9419000D01*
X33550000Y-13356000D02*
X38630000Y-13356000D01*
X35455000Y-9419000D02*
X37614000Y-7260000D01*
X60474000Y-11062000D02*
X58704000Y-11062000D01*
X58704000Y-11062000D02*
X57807000Y-11959000D01*
D24*
X75714000Y-23897000D02*
X76476000Y-23897000D01*
X81556000Y-21992000D02*
X79778000Y-20214000D01*
X79778000Y-20214000D02*
X72539000Y-20214000D01*
X76222000Y-17293000D02*
X77746000Y-17293000D01*
X77746000Y-17293000D02*
X80159000Y-14880000D01*
X70253000Y-14880000D02*
X69237000Y-14880000D01*
X69237000Y-14880000D02*
X66824000Y-12467000D01*
X74380500Y-25230500D02*
X75714000Y-23897000D01*
D26*
X65300000Y-4085000D02*
X63268000Y-2053000D01*
X65808000Y-4085000D02*
X65300000Y-4085000D01*
X68983000Y-9038000D02*
X68983000Y-5228000D01*
X70126000Y-25675000D02*
X67840000Y-23389000D01*
X61871000Y-23008000D02*
X62252000Y-23389000D01*
X61871000Y-20976000D02*
X61871000Y-23008000D01*
X53997000Y-19960000D02*
X54886000Y-19960000D01*
X56664000Y-25548000D02*
X54886000Y-25548000D01*
X57934000Y-24278000D02*
X56664000Y-25548000D01*
X56283000Y-21230000D02*
X54886000Y-22627000D01*
X57807000Y-21230000D02*
X56283000Y-21230000D01*
X51457000Y-22500000D02*
X51457000Y-23262000D01*
X49298000Y-22500000D02*
X49679000Y-22119000D01*
X49679000Y-22119000D02*
X49679000Y-21484000D01*
D24*
X40344500Y-24214500D02*
X42884500Y-24214500D01*
X42884500Y-24214500D02*
X44091000Y-25421000D01*
D26*
X22374000Y-9038000D02*
X22374000Y-9165000D01*
X20469000Y-7133000D02*
X22374000Y-9038000D01*
X35328000Y-4974000D02*
X37614000Y-7260000D01*
X34947000Y-4974000D02*
X35328000Y-4974000D01*
X29740000Y-4974000D02*
X32026000Y-7260000D01*
X19834000Y-2434000D02*
X19834000Y-2942000D01*
X19834000Y-2942000D02*
X21485000Y-4593000D01*
X15770000Y-8530000D02*
X14754000Y-7514000D01*
X20088000Y-2180000D02*
X24533000Y-2180000D01*
X19834000Y-2434000D02*
X20088000Y-2180000D01*
X12341000Y-4720000D02*
X16532000Y-4720000D01*
X14754000Y-7514000D02*
X12341000Y-7514000D01*
X6433000Y-15134000D02*
X2435000Y-15134000D01*
X3451000Y-12340000D02*
X5102000Y-12340000D01*
X1800000Y-10689000D02*
X3451000Y-12340000D01*
X6433000Y-15134000D02*
X6499000Y-15068000D01*
D24*
X2400000Y-19198000D02*
X2400000Y-15169000D01*
D26*
X2400000Y-24913000D02*
X1419000Y-24913000D01*
X35582000Y-21103000D02*
X35582000Y-21865000D01*
X35328000Y-26945000D02*
X38503000Y-23770000D01*
X35328000Y-27072000D02*
X35328000Y-26945000D01*
X35582000Y-21865000D02*
X33804000Y-23643000D01*
X39773000Y-21357000D02*
X39900000Y-21357000D01*
X37614000Y-19198000D02*
X39773000Y-21357000D01*
X35582000Y-20976000D02*
X35582000Y-21103000D01*
X33804000Y-19198000D02*
X35582000Y-20976000D01*
X23771000Y-29104000D02*
X25422000Y-27453000D01*
X26311000Y-24532000D02*
X26311000Y-26564000D01*
X26311000Y-26564000D02*
X25422000Y-27453000D01*
X29994000Y-23262000D02*
X29232000Y-24024000D01*
X31010000Y-20595000D02*
X31010000Y-22246000D01*
X31010000Y-22246000D02*
X29994000Y-23262000D01*
X29232000Y-24024000D02*
X29232000Y-25421000D01*
X20342000Y-27961000D02*
X21231000Y-27961000D01*
X19326000Y-28977000D02*
X20342000Y-27961000D01*
X15643000Y-28215000D02*
X17675000Y-26183000D01*
X15389000Y-28215000D02*
X15643000Y-28215000D01*
X11960000Y-24278000D02*
X13992000Y-22246000D01*
X11960000Y-25294000D02*
X11960000Y-24278000D01*
X6372000Y-26183000D02*
X8404000Y-28215000D01*
X6372000Y-25675000D02*
X6372000Y-26183000D01*
X8023000Y-23516000D02*
X7769000Y-23516000D01*
X9674000Y-21865000D02*
X8023000Y-23516000D01*
X52600000Y-16912000D02*
X52854000Y-16912000D01*
X51203000Y-15515000D02*
X52600000Y-16912000D01*
X60347000Y-2553000D02*
X61736000Y-2553000D01*
X66062000Y-11209700D02*
X63903000Y-11209700D01*
X66062000Y-11209700D02*
X66062000Y-7133000D01*
X66062000Y-6879000D02*
X66062000Y-7133000D01*
X61736000Y-2553000D02*
X66062000Y-6879000D01*
X60347000Y-2553000D02*
X56418000Y-2553000D01*
X56044000Y-7753000D02*
X54747000Y-7753000D01*
X56283000Y-7514000D02*
X56044000Y-7753000D01*
X56283000Y-2688000D02*
X56283000Y-7514000D01*
X56418000Y-2553000D02*
X56283000Y-2688000D01*
X54732000Y-7768000D02*
X54747000Y-7753000D01*
X58429300Y-20455300D02*
X58950000Y-20976000D01*
X58950000Y-20976000D02*
X61871000Y-20976000D01*
X61871000Y-20976000D02*
X64284000Y-20976000D01*
X58429300Y-20455300D02*
X58429300Y-18944000D01*
D24*
X81140000Y-36000000D02*
X81140000Y-31990000D01*
X64919000Y-12225700D02*
X63903000Y-11209700D01*
X67205000Y-18055000D02*
X64919000Y-15769000D01*
X64919000Y-15769000D02*
X64919000Y-12225700D01*
X81140000Y-31990000D02*
X74380500Y-25230500D01*
X74380500Y-25230500D02*
X67205000Y-18055000D01*
X37960000Y-36000000D02*
X37960000Y-26599000D01*
X37960000Y-26599000D02*
X40344500Y-24214500D01*
X40344500Y-24214500D02*
X42821000Y-21738000D01*
D26*
X42833700Y-21750700D02*
X44980000Y-21750700D01*
D24*
X6499000Y-15068000D02*
X8216000Y-16785000D01*
X8216000Y-16785000D02*
X10182000Y-16785000D01*
X2400000Y-36000000D02*
X2400000Y-24913000D01*
X2400000Y-24913000D02*
X2400000Y-19198000D01*
X2400000Y-19198000D02*
X2400000Y-19167000D01*
D26*
X15770000Y-8530000D02*
X15782700Y-8517300D01*
X15782700Y-8517300D02*
X17802000Y-8517300D01*
X60474000Y-11062000D02*
X63755300Y-11062000D01*
X63755300Y-11062000D02*
X63903000Y-11209700D01*
X58429300Y-18944000D02*
X53997000Y-18944000D01*
X52989000Y-22500000D02*
X52989000Y-21984000D01*
X53250000Y-16262000D02*
X52981000Y-16531000D01*
X52981000Y-16912000D02*
X52981000Y-17293000D01*
X52981000Y-16531000D02*
X52981000Y-16912000D01*
X52981000Y-17293000D02*
X53997000Y-18309000D01*
X53250000Y-16262000D02*
X54874000Y-16262000D01*
X53997000Y-20976000D02*
X53997000Y-19960000D01*
X53997000Y-19960000D02*
X53997000Y-18944000D01*
X53997000Y-18944000D02*
X53997000Y-18309000D01*
X52989000Y-21984000D02*
X53997000Y-20976000D01*
X42821000Y-21738000D02*
X42833700Y-21750700D01*
X47789000Y-18070000D02*
X47789000Y-19440000D01*
X47647000Y-17928000D02*
X47789000Y-18070000D01*
X46250000Y-17928000D02*
X47647000Y-17928000D01*
X46123000Y-17801000D02*
X46250000Y-17928000D01*
X10182000Y-16785000D02*
X10182000Y-13610000D01*
X15655700Y-13216300D02*
X17802000Y-13216300D01*
X15135000Y-13737000D02*
X15655700Y-13216300D01*
X54732000Y-7768000D02*
X54747000Y-7753000D01*
X52989000Y-23143000D02*
X52989000Y-22500000D01*
X52989000Y-25040000D02*
X52989000Y-23143000D01*
X52989000Y-22500000D02*
X52981000Y-22500000D01*
X52346000Y-22500000D02*
X52981000Y-22500000D01*
X48409000Y-22500000D02*
X49298000Y-22500000D01*
X49298000Y-22500000D02*
X51076000Y-22500000D01*
X51076000Y-22500000D02*
X51457000Y-22500000D01*
X51457000Y-22500000D02*
X52346000Y-22500000D01*
X60355000Y-2561000D02*
X60347000Y-2553000D01*
X48439000Y-25040000D02*
X48439000Y-22530000D01*
X48439000Y-22530000D02*
X48409000Y-22500000D01*
X47789000Y-19440000D02*
X47789000Y-21880000D01*
X47789000Y-21880000D02*
X48409000Y-22500000D01*
D25*
X45074000Y-10554000D02*
X45074000Y-11054000D01*
X45074000Y-11054000D02*
X43345000Y-11054000D01*
X43345000Y-11054000D02*
X43329000Y-11070000D01*
X54747000Y-8403000D02*
X52854000Y-8403000D01*
X52854000Y-8403000D02*
X52219000Y-7768000D01*
X20596000Y-10554000D02*
X20596000Y-11832000D01*
X20596000Y-11832000D02*
X20723000Y-11959000D01*
X17802000Y-10562000D02*
X17810000Y-10554000D01*
X17810000Y-10554000D02*
X20596000Y-10554000D01*
X20596000Y-10554000D02*
X25074000Y-10554000D01*
X41551000Y-15007000D02*
X43329000Y-15007000D01*
X43329000Y-11451000D02*
X43329000Y-15007000D01*
X43329000Y-11070000D02*
X43329000Y-11451000D01*
X43329000Y-15007000D02*
X43329000Y-16277000D01*
X44980000Y-17928000D02*
X44980000Y-19706000D01*
X44726000Y-17674000D02*
X44980000Y-17928000D01*
X43329000Y-16277000D02*
X44726000Y-17674000D01*
X60347000Y-8403000D02*
X61109000Y-9165000D01*
X61109000Y-9165000D02*
X63903000Y-9165000D01*
X43329000Y-11070000D02*
X43329000Y-9927000D01*
X43329000Y-9927000D02*
X43702000Y-9554000D01*
X43702000Y-9554000D02*
X45074000Y-9554000D01*
D27*
X12480700Y-16785000D02*
X12480700Y-14994300D01*
X16913000Y-10562000D02*
X17802000Y-10562000D01*
X12480700Y-14994300D02*
X16913000Y-10562000D01*
D25*
X60474000Y-18944000D02*
X60474000Y-16912000D01*
X44980000Y-19706000D02*
X45246000Y-19440000D01*
X45246000Y-19440000D02*
X47139000Y-19440000D01*
X56664000Y-16912000D02*
X56664000Y-8403000D01*
X54759000Y-8415000D02*
X54747000Y-8403000D01*
X57172000Y-16912000D02*
X56664000Y-16912000D01*
X56664000Y-16912000D02*
X56156000Y-16912000D01*
X56156000Y-16912000D02*
X54874000Y-16912000D01*
X57172000Y-16912000D02*
X60474000Y-16912000D01*
X54747000Y-8403000D02*
X56664000Y-8403000D01*
X56664000Y-8403000D02*
X57172000Y-8403000D01*
X57172000Y-8403000D02*
X60347000Y-8403000D01*
X47139000Y-19440000D02*
X47139000Y-25040000D01*
X63141000Y-16785000D02*
X63141000Y-17311084D01*
X76060000Y-30230084D02*
X74117458Y-28287542D01*
X76060000Y-30230084D02*
X76060000Y-36000000D01*
X63141000Y-17311084D02*
X74117458Y-28287542D01*
X63141000Y-16785000D02*
X63141000Y-13737000D01*
X60474000Y-12362000D02*
X61766000Y-12362000D01*
X61766000Y-12362000D02*
X63014000Y-13610000D01*
X63141000Y-16531000D02*
X63141000Y-16785000D01*
X63141000Y-13737000D02*
X63014000Y-13610000D01*
X68094000Y-26691000D02*
X70126000Y-26691000D01*
X52339000Y-25040000D02*
X52339000Y-26303000D01*
X73520000Y-32117000D02*
X73520000Y-36000000D01*
X52727000Y-26691000D02*
X66824000Y-26691000D01*
X52339000Y-26303000D02*
X52727000Y-26691000D01*
X66824000Y-26691000D02*
X68094000Y-26691000D01*
X73520000Y-30085000D02*
X73520000Y-32117000D01*
X70126000Y-26691000D02*
X73520000Y-30085000D01*
X70980000Y-30212000D02*
X70634000Y-29866000D01*
X62118000Y-11712000D02*
X62125000Y-11705000D01*
X60474000Y-11712000D02*
X62118000Y-11712000D01*
X68094000Y-27326000D02*
X70634000Y-29866000D01*
X67713000Y-27326000D02*
X68094000Y-27326000D01*
X70980000Y-31736000D02*
X70980000Y-36000000D01*
X70980000Y-31736000D02*
X70980000Y-30212000D01*
X51965000Y-26564000D02*
X51689000Y-26288000D01*
X52600000Y-27199000D02*
X51965000Y-26564000D01*
X68440000Y-29993000D02*
X68440000Y-28942000D01*
X66697000Y-27199000D02*
X54124000Y-27199000D01*
X68440000Y-28942000D02*
X66697000Y-27199000D01*
X54124000Y-27199000D02*
X52600000Y-27199000D01*
X51689000Y-26288000D02*
X51689000Y-25040000D01*
X68440000Y-32279000D02*
X68440000Y-29993000D01*
X68440000Y-29993000D02*
X68440000Y-29958000D01*
X68440000Y-32244000D02*
X68440000Y-32279000D01*
X68440000Y-32279000D02*
X68440000Y-36000000D01*
X65900000Y-27869000D02*
X65935000Y-27834000D01*
X65900000Y-36000000D02*
X65900000Y-27869000D01*
X61602000Y-7753000D02*
X60347000Y-7753000D01*
X61998000Y-8149000D02*
X61602000Y-7753000D01*
X61998000Y-8403000D02*
X61998000Y-8149000D01*
X60982000Y-27707000D02*
X63360000Y-30085000D01*
X63360000Y-30466000D02*
X63360000Y-30085000D01*
X51039000Y-26273000D02*
X51039000Y-25040000D01*
X52473000Y-27707000D02*
X60601000Y-27707000D01*
X51039000Y-26273000D02*
X52473000Y-27707000D01*
X60601000Y-27707000D02*
X60982000Y-27707000D01*
X63360000Y-32117000D02*
X63360000Y-36000000D01*
X63360000Y-32117000D02*
X63360000Y-30466000D01*
X63360000Y-30882000D02*
X63360000Y-30466000D01*
X60820000Y-31517000D02*
X60820000Y-29069000D01*
X57583000Y-7103000D02*
X56918000Y-7768000D01*
X57583000Y-7103000D02*
X60347000Y-7103000D01*
X60820000Y-29069000D02*
X60093000Y-28342000D01*
X60820000Y-31898000D02*
X60820000Y-31517000D01*
X60820000Y-31517000D02*
X60820000Y-31482000D01*
X60820000Y-31863000D02*
X60820000Y-31898000D01*
X60820000Y-31898000D02*
X60820000Y-36000000D01*
X58280000Y-30085000D02*
X58280000Y-29831000D01*
X58280000Y-30120000D02*
X58280000Y-30974000D01*
X58280000Y-30085000D02*
X58280000Y-30120000D01*
X51076000Y-26945000D02*
X50389000Y-26258000D01*
X55521000Y-28215000D02*
X52346000Y-28215000D01*
X52346000Y-28215000D02*
X51076000Y-26945000D01*
X58280000Y-31898000D02*
X58280000Y-30974000D01*
X50389000Y-26258000D02*
X50389000Y-25040000D01*
X55521000Y-28215000D02*
X56156000Y-28215000D01*
X56664000Y-28215000D02*
X56156000Y-28215000D01*
X58280000Y-29831000D02*
X56664000Y-28215000D01*
X58280000Y-31863000D02*
X58280000Y-31898000D01*
X58280000Y-31898000D02*
X58280000Y-36000000D01*
X55775000Y-29485000D02*
X55775000Y-28977000D01*
X55775000Y-35965000D02*
X55775000Y-31517000D01*
X55775000Y-31517000D02*
X55775000Y-29485000D01*
X57725000Y-6453000D02*
X60347000Y-6453000D01*
X57725000Y-6453000D02*
X57680000Y-6498000D01*
X55775000Y-35965000D02*
X55740000Y-36000000D01*
X53200000Y-31898000D02*
X53200000Y-29831000D01*
X49739000Y-26370000D02*
X49739000Y-25040000D01*
X53200000Y-29831000D02*
X49739000Y-26370000D01*
X53200000Y-31863000D02*
X53200000Y-31898000D01*
X53200000Y-31898000D02*
X53200000Y-36000000D01*
X60347000Y-5803000D02*
X57105000Y-5803000D01*
X57105000Y-5803000D02*
X57045000Y-5863000D01*
X50695000Y-28977000D02*
X50695000Y-35965000D01*
X50695000Y-28342000D02*
X50695000Y-28977000D01*
X50695000Y-35965000D02*
X50660000Y-36000000D01*
X49089000Y-25040000D02*
X49089000Y-26646000D01*
X48120000Y-30663000D02*
X48120000Y-36000000D01*
X48120000Y-27615000D02*
X48120000Y-30663000D01*
X49089000Y-26646000D02*
X48120000Y-27615000D01*
X45580000Y-28758000D02*
X45615000Y-28723000D01*
X45580000Y-36000000D02*
X45580000Y-28758000D01*
X58113000Y-5153000D02*
X60347000Y-5153000D01*
X58061000Y-5101000D02*
X58113000Y-5153000D01*
X45615000Y-35965000D02*
X45580000Y-36000000D01*
X46885000Y-27326000D02*
X47774000Y-26437000D01*
X43040000Y-30155000D02*
X45869000Y-27326000D01*
X45869000Y-27326000D02*
X46885000Y-27326000D01*
X43040000Y-36000000D02*
X43040000Y-30155000D01*
X47774000Y-26437000D02*
X47774000Y-25055000D01*
X47774000Y-25055000D02*
X47789000Y-25040000D01*
X40535000Y-35965000D02*
X40535000Y-27834000D01*
X60347000Y-3203000D02*
X58449000Y-3203000D01*
X58449000Y-3203000D02*
X58442000Y-3196000D01*
X40535000Y-35965000D02*
X40500000Y-36000000D01*
X21485000Y-15261000D02*
X21231000Y-15515000D01*
X22692000Y-14054000D02*
X21485000Y-15261000D01*
X35420000Y-36000000D02*
X35420000Y-29958000D01*
X35420000Y-29958000D02*
X33296000Y-27834000D01*
X22692000Y-14054000D02*
X25074000Y-14054000D01*
X21231000Y-15515000D02*
X21231000Y-17420000D01*
X35455000Y-35965000D02*
X35420000Y-36000000D01*
X35455000Y-35965000D02*
X35420000Y-36000000D01*
X32880000Y-36000000D02*
X32880000Y-29831000D01*
X28780000Y-6554000D02*
X25074000Y-6554000D01*
X32407000Y-10181000D02*
X32407000Y-18944000D01*
X28780000Y-6554000D02*
X32407000Y-10181000D01*
X32407000Y-18944000D02*
X32407000Y-28723000D01*
X32407000Y-29358000D02*
X32407000Y-28723000D01*
X32880000Y-29831000D02*
X32407000Y-29358000D01*
X32915000Y-35965000D02*
X32880000Y-36000000D01*
X30340000Y-31390000D02*
X31899000Y-29831000D01*
X31899000Y-29704000D02*
X31899000Y-28723000D01*
X31899000Y-18944000D02*
X31899000Y-28723000D01*
X25074000Y-7054000D02*
X28645000Y-7054000D01*
X31899000Y-10308000D02*
X31899000Y-18944000D01*
X28645000Y-7054000D02*
X31899000Y-10308000D01*
X30340000Y-31390000D02*
X30340000Y-36000000D01*
X31899000Y-29831000D02*
X31899000Y-29704000D01*
X21358000Y-19325000D02*
X23771000Y-19325000D01*
X25074000Y-13054000D02*
X22422000Y-13054000D01*
X20088000Y-18055000D02*
X20850000Y-18817000D01*
X20088000Y-15388000D02*
X20088000Y-18055000D01*
X22422000Y-13054000D02*
X20088000Y-15388000D01*
X27835000Y-23389000D02*
X27800000Y-23424000D01*
X27800000Y-23424000D02*
X27800000Y-36000000D01*
X20850000Y-18817000D02*
X21358000Y-19325000D01*
X27835000Y-35965000D02*
X27800000Y-36000000D01*
X25260000Y-36000000D02*
X25260000Y-31298000D01*
X27200000Y-29358000D02*
X27200000Y-23008000D01*
X25260000Y-31298000D02*
X27200000Y-29358000D01*
X27200000Y-23008000D02*
X27200000Y-23008000D01*
X25074000Y-7554000D02*
X28510000Y-7554000D01*
X31391000Y-18817000D02*
X27200000Y-23008000D01*
X31391000Y-10435000D02*
X31391000Y-18817000D01*
X28510000Y-7554000D02*
X31391000Y-10435000D01*
X25074000Y-8054000D02*
X28375000Y-8054000D01*
X22720000Y-26853000D02*
X22720000Y-36000000D01*
X30883000Y-18690000D02*
X22720000Y-26853000D01*
X30883000Y-10562000D02*
X30883000Y-18690000D01*
X28375000Y-8054000D02*
X30883000Y-10562000D01*
X27327000Y-12848000D02*
X26533000Y-12054000D01*
X25074000Y-12054000D02*
X26533000Y-12054000D01*
X27327000Y-17801000D02*
X27327000Y-13356000D01*
X23263000Y-21865000D02*
X27327000Y-17801000D01*
X21866000Y-21865000D02*
X23263000Y-21865000D01*
X27327000Y-13356000D02*
X27327000Y-12848000D01*
X20180000Y-31298000D02*
X20180000Y-36000000D01*
X22247000Y-29231000D02*
X20180000Y-31298000D01*
X22247000Y-26691000D02*
X22247000Y-29231000D01*
X21866000Y-26310000D02*
X22247000Y-26691000D01*
X25074000Y-8554000D02*
X28240000Y-8554000D01*
X17640000Y-29418402D02*
X21891402Y-25167000D01*
X21891402Y-25167000D02*
X23771000Y-25167000D01*
X23771000Y-25167000D02*
X30375000Y-18563000D01*
X30375000Y-18563000D02*
X30375000Y-10689000D01*
X30375000Y-10689000D02*
X28978000Y-9292000D01*
X17640000Y-31298000D02*
X17640000Y-36000000D01*
X17640000Y-31298000D02*
X17640000Y-29418402D01*
X28240000Y-8554000D02*
X28978000Y-9292000D01*
X25074000Y-9054000D02*
X28105000Y-9054000D01*
X21739000Y-24659000D02*
X23644000Y-24659000D01*
X23644000Y-24659000D02*
X29867000Y-18436000D01*
X29867000Y-18436000D02*
X29867000Y-10816000D01*
X29867000Y-10816000D02*
X28343000Y-9292000D01*
X15100000Y-31298000D02*
X15100000Y-36000000D01*
X18945000Y-27453000D02*
X15100000Y-31298000D01*
X18945000Y-27453000D02*
X21739000Y-24659000D01*
X28105000Y-9054000D02*
X28343000Y-9292000D01*
X12560000Y-29139000D02*
X12560000Y-28758000D01*
X25074000Y-11054000D02*
X26803000Y-11054000D01*
X20596000Y-23135000D02*
X23263000Y-23135000D01*
X23263000Y-23135000D02*
X28343000Y-18055000D01*
X28343000Y-18055000D02*
X28343000Y-13991000D01*
X28343000Y-12594000D02*
X28343000Y-13991000D01*
X26803000Y-11054000D02*
X28343000Y-12594000D01*
X12560000Y-29139000D02*
X12560000Y-36000000D01*
X20469000Y-23135000D02*
X20596000Y-23135000D01*
X19961000Y-22627000D02*
X20469000Y-23135000D01*
X19199000Y-24659000D02*
X19453000Y-24913000D01*
X16659000Y-24659000D02*
X19199000Y-24659000D01*
X12560000Y-28758000D02*
X16659000Y-24659000D01*
X21358000Y-24151000D02*
X16532000Y-24151000D01*
X27970000Y-9554000D02*
X29359000Y-10943000D01*
X29359000Y-10943000D02*
X29359000Y-11070000D01*
X29359000Y-11070000D02*
X29359000Y-17674000D01*
X29359000Y-18309000D02*
X29359000Y-17674000D01*
X23517000Y-24151000D02*
X29232000Y-18436000D01*
X21358000Y-24151000D02*
X23517000Y-24151000D01*
X29232000Y-18436000D02*
X29359000Y-18309000D01*
X25074000Y-9554000D02*
X27970000Y-9554000D01*
X10020000Y-30663000D02*
X10020000Y-36000000D01*
X16532000Y-24151000D02*
X10020000Y-30663000D01*
X7480000Y-36000000D02*
X7480000Y-32568000D01*
X16405000Y-23643000D02*
X7480000Y-32568000D01*
X21104000Y-23643000D02*
X17548000Y-23643000D01*
X27835000Y-10054000D02*
X28851000Y-11070000D01*
X28851000Y-11070000D02*
X28851000Y-11578000D01*
X27327000Y-10054000D02*
X25074000Y-10054000D01*
X21104000Y-23643000D02*
X23390000Y-23643000D01*
X23390000Y-23643000D02*
X28724000Y-18309000D01*
X28724000Y-18309000D02*
X28851000Y-18182000D01*
X28851000Y-18182000D02*
X28851000Y-17166000D01*
X28851000Y-17166000D02*
X28851000Y-12340000D01*
X28851000Y-11578000D02*
X28851000Y-12340000D01*
X27327000Y-10054000D02*
X27835000Y-10054000D01*
X17548000Y-23643000D02*
X16659000Y-23643000D01*
X16659000Y-23643000D02*
X16405000Y-23643000D01*
X66697000Y-21484000D02*
X66951000Y-21738000D01*
X62633000Y-17420000D02*
X66697000Y-21484000D01*
X60474000Y-15612000D02*
X61714000Y-15612000D01*
X61714000Y-15612000D02*
X62379000Y-16277000D01*
X62379000Y-16277000D02*
X62633000Y-16531000D01*
X62633000Y-16531000D02*
X62633000Y-17420000D01*
X66951000Y-24659000D02*
X67332000Y-25040000D01*
X66951000Y-21738000D02*
X66951000Y-24659000D01*
X60504000Y-15642000D02*
X60474000Y-15612000D01*
X62125000Y-16658000D02*
X62125000Y-17547000D01*
X61729000Y-16262000D02*
X62125000Y-16658000D01*
X61729000Y-16262000D02*
X60474000Y-16262000D01*
X66443000Y-21865000D02*
X66443000Y-25167000D01*
X62125000Y-17547000D02*
X66443000Y-21865000D01*
X60489000Y-16277000D02*
X60474000Y-16262000D01*
X61781000Y-13012000D02*
X62252000Y-13483000D01*
X61781000Y-13012000D02*
X60474000Y-13012000D01*
X62252000Y-13483000D02*
X62252000Y-15134000D01*
X60474000Y-13662000D02*
X58621000Y-13662000D01*
X58569000Y-13610000D02*
X58621000Y-13662000D01*
X58741000Y-14962000D02*
X60474000Y-14962000D01*
X58741000Y-14962000D02*
X58569000Y-15134000D01*
X58375000Y-14312000D02*
X57426000Y-15261000D01*
X60474000Y-14312000D02*
X58375000Y-14312000D01*
X60310000Y-4466000D02*
X57172000Y-4466000D01*
X60310000Y-4466000D02*
X60347000Y-4503000D01*
X57829000Y-3853000D02*
X57807000Y-3831000D01*
X57829000Y-3853000D02*
X60347000Y-3853000D01*
X21993000Y-15388000D02*
X21993000Y-17547000D01*
X22827000Y-14554000D02*
X21993000Y-15388000D01*
X25074000Y-14554000D02*
X22827000Y-14554000D01*
X21993000Y-17547000D02*
X22628000Y-18182000D01*
X20977000Y-15134000D02*
X20596000Y-15515000D01*
X22557000Y-13554000D02*
X20977000Y-15134000D01*
X20596000Y-17039000D02*
X20596000Y-17674000D01*
X20596000Y-17674000D02*
X21485000Y-18563000D01*
X25074000Y-13554000D02*
X22557000Y-13554000D01*
X20596000Y-15515000D02*
X20596000Y-17039000D01*
X25074000Y-12554000D02*
X22287000Y-12554000D01*
X19580000Y-18182000D02*
X22374000Y-20976000D01*
X19580000Y-15261000D02*
X19580000Y-18182000D01*
X22287000Y-12554000D02*
X19580000Y-15261000D01*
X25074000Y-11554000D02*
X26668000Y-11554000D01*
X21104000Y-22500000D02*
X23263000Y-22500000D01*
X23263000Y-22500000D02*
X27835000Y-17928000D01*
X27835000Y-17928000D02*
X27835000Y-13102000D01*
X27835000Y-12721000D02*
X27835000Y-13102000D01*
X26668000Y-11554000D02*
X27835000Y-12721000D01*
X50800210Y-11556210D02*
X52906000Y-13662000D01*
X52906000Y-13662000D02*
X54366000Y-13662000D01*
X45074000Y-11554000D02*
X49455382Y-11554000D01*
X49455382Y-11554000D02*
X50126691Y-10882691D01*
X52727000Y-18055000D02*
X52989000Y-18317000D01*
X52989000Y-18317000D02*
X52989000Y-19440000D01*
X45074000Y-13554000D02*
X48226000Y-13554000D01*
X48226000Y-13554000D02*
X52727000Y-18055000D01*
X52727000Y-18055000D02*
X52735000Y-18063000D01*
X52085000Y-18048000D02*
X52339000Y-18302000D01*
X48091000Y-14054000D02*
X52085000Y-18048000D01*
X45074000Y-14054000D02*
X48091000Y-14054000D01*
X52339000Y-18302000D02*
X52339000Y-19440000D01*
X51435000Y-18033000D02*
X51689000Y-18287000D01*
X47956000Y-14554000D02*
X51435000Y-18033000D01*
X45074000Y-14554000D02*
X47956000Y-14554000D01*
X51689000Y-18287000D02*
X51689000Y-19440000D01*
X50785000Y-18018000D02*
X51039000Y-18272000D01*
X47821000Y-15054000D02*
X50785000Y-18018000D01*
X45074000Y-15054000D02*
X47821000Y-15054000D01*
X51039000Y-18272000D02*
X51039000Y-19440000D01*
X50135000Y-18003000D02*
X50389000Y-18257000D01*
X47686000Y-15554000D02*
X50135000Y-18003000D01*
X45074000Y-15554000D02*
X47686000Y-15554000D01*
X50389000Y-18257000D02*
X50389000Y-19440000D01*
X49425000Y-17928000D02*
X49739000Y-18242000D01*
X49739000Y-18242000D02*
X49739000Y-19440000D01*
X45074000Y-16054000D02*
X47551000Y-16054000D01*
X47551000Y-16054000D02*
X49425000Y-17928000D01*
X49425000Y-17928000D02*
X49485000Y-17988000D01*
X48439000Y-17958000D02*
X47520000Y-17039000D01*
X25676000Y-17039000D02*
X25074000Y-16437000D01*
X25074000Y-16054000D02*
X25074000Y-16437000D01*
X48439000Y-18085000D02*
X48439000Y-19440000D01*
X48439000Y-17958000D02*
X48439000Y-18085000D01*
X45074000Y-7054000D02*
X49346000Y-7054000D01*
X53354000Y-11062000D02*
X54366000Y-11062000D01*
X49346000Y-7054000D02*
X53354000Y-11062000D01*
X45074000Y-7554000D02*
X49084000Y-7554000D01*
X53242000Y-11712000D02*
X54366000Y-11712000D01*
X49084000Y-7554000D02*
X53242000Y-11712000D01*
X45074000Y-8054000D02*
X48949000Y-8054000D01*
X53257000Y-12362000D02*
X54366000Y-12362000D01*
X48949000Y-8054000D02*
X53257000Y-12362000D01*
X45074000Y-8554000D02*
X48814000Y-8554000D01*
X53272000Y-13012000D02*
X54366000Y-13012000D01*
X48814000Y-8554000D02*
X53272000Y-13012000D01*
X45074000Y-12054000D02*
X50028000Y-12054000D01*
X52286000Y-14312000D02*
X54366000Y-14312000D01*
X50028000Y-12054000D02*
X52286000Y-14312000D01*
X45074000Y-12554000D02*
X49893000Y-12554000D01*
X52301000Y-14962000D02*
X54366000Y-14962000D01*
X49893000Y-12554000D02*
X52301000Y-14962000D01*
X45074000Y-13054000D02*
X49758000Y-13054000D01*
X52316000Y-15612000D02*
X54366000Y-15612000D01*
X49758000Y-13054000D02*
X52316000Y-15612000D01*
X54747000Y-2553000D02*
X52842000Y-2553000D01*
X52842000Y-2553000D02*
X28732000Y-2553000D01*
X26731000Y-4554000D02*
X25074000Y-4554000D01*
X28732000Y-2553000D02*
X26731000Y-4554000D01*
X54747000Y-3203000D02*
X52842000Y-3203000D01*
X26993000Y-5054000D02*
X25074000Y-5054000D01*
X28844000Y-3203000D02*
X52842000Y-3203000D01*
X26993000Y-5054000D02*
X28844000Y-3203000D01*
X54747000Y-3853000D02*
X52842000Y-3853000D01*
X52842000Y-3853000D02*
X29210000Y-3853000D01*
X27009000Y-6054000D02*
X25074000Y-6054000D01*
X29210000Y-3853000D02*
X27009000Y-6054000D01*
X54747000Y-4503000D02*
X45125000Y-4503000D01*
X54747000Y-5153000D02*
X51509000Y-5153000D01*
X51410000Y-5054000D02*
X45074000Y-5054000D01*
X51410000Y-5054000D02*
X51509000Y-5153000D01*
X54747000Y-5803000D02*
X51524000Y-5803000D01*
X51275000Y-5554000D02*
X45074000Y-5554000D01*
X51275000Y-5554000D02*
X51524000Y-5803000D01*
X54747000Y-6453000D02*
X51539000Y-6453000D01*
X51140000Y-6054000D02*
X45074000Y-6054000D01*
X51140000Y-6054000D02*
X51539000Y-6453000D01*
X54747000Y-7103000D02*
X51554000Y-7103000D01*
X51005000Y-6554000D02*
X45074000Y-6554000D01*
X51005000Y-6554000D02*
X51554000Y-7103000D01*
D26*
G36*
X83100000Y-29875000D02*
X77368883Y-29875000D01*
X65614942Y-18121058D01*
X65614939Y-18121056D01*
X64401000Y-16907116D01*
X64401000Y-13356000D01*
X64353425Y-13116823D01*
X64217942Y-12914058D01*
X64217939Y-12914056D01*
X64043095Y-12739212D01*
X64043134Y-12694519D01*
X63980404Y-12542700D01*
X64032002Y-12542700D01*
X64032002Y-12384452D01*
X64190250Y-12542700D01*
X64778912Y-12542700D01*
X65011566Y-12446331D01*
X65189632Y-12268265D01*
X65286000Y-12035611D01*
X65286000Y-11496950D01*
X65127750Y-11338700D01*
X64032000Y-11338700D01*
X64032000Y-11358700D01*
X63774000Y-11358700D01*
X63774000Y-11338700D01*
X63754000Y-11338700D01*
X63754000Y-11080700D01*
X63774000Y-11080700D01*
X63774000Y-11060700D01*
X64032000Y-11060700D01*
X64032000Y-11080700D01*
X65127750Y-11080700D01*
X65286000Y-10922450D01*
X65286000Y-10383789D01*
X65189632Y-10151135D01*
X65055537Y-10017040D01*
X65086326Y-9865000D01*
X65086326Y-8465000D01*
X65056691Y-8307504D01*
X64963611Y-8162854D01*
X64821588Y-8065814D01*
X64653000Y-8031674D01*
X63153000Y-8031674D01*
X62995504Y-8061309D01*
X62850854Y-8154389D01*
X62753814Y-8296412D01*
X62722961Y-8448771D01*
X62723126Y-8259421D01*
X62612984Y-7992857D01*
X62409216Y-7788733D01*
X62363457Y-7769732D01*
X61974362Y-7380638D01*
X61803521Y-7266485D01*
X61677605Y-7241439D01*
X61680326Y-7228000D01*
X61680326Y-6978000D01*
X61678148Y-6966423D01*
X71424243Y-6966423D01*
X72088893Y-8575001D01*
X73318526Y-9806782D01*
X74925941Y-10474239D01*
X76666423Y-10475757D01*
X78275001Y-9811107D01*
X79506782Y-8581474D01*
X80174239Y-6974059D01*
X80175757Y-5233577D01*
X79511107Y-3624999D01*
X78281474Y-2393218D01*
X76674059Y-1725761D01*
X74933577Y-1724243D01*
X73324999Y-2388893D01*
X72093218Y-3618526D01*
X71425761Y-5225941D01*
X71424243Y-6966423D01*
X61678148Y-6966423D01*
X61650691Y-6820504D01*
X61624011Y-6779042D01*
X61646186Y-6746588D01*
X61680326Y-6578000D01*
X61680326Y-6328000D01*
X61650691Y-6170504D01*
X61624011Y-6129042D01*
X61646186Y-6096588D01*
X61680326Y-5928000D01*
X61680326Y-5678000D01*
X61650691Y-5520504D01*
X61624011Y-5479042D01*
X61646186Y-5446588D01*
X61680326Y-5278000D01*
X61680326Y-5028000D01*
X61650691Y-4870504D01*
X61624011Y-4829042D01*
X61646186Y-4796588D01*
X61680326Y-4628000D01*
X61680326Y-4378000D01*
X61650691Y-4220504D01*
X61624011Y-4179042D01*
X61646186Y-4146588D01*
X61680326Y-3978000D01*
X61680326Y-3728000D01*
X61650691Y-3570504D01*
X61624011Y-3529042D01*
X61646186Y-3496588D01*
X61680326Y-3328000D01*
X61680326Y-3139871D01*
X61783631Y-3036566D01*
X61880000Y-2803912D01*
X61880000Y-2773750D01*
X61721750Y-2615500D01*
X60476000Y-2615500D01*
X60476000Y-2644674D01*
X60218000Y-2644674D01*
X60218000Y-2615500D01*
X58972250Y-2615500D01*
X58929550Y-2658200D01*
X58853216Y-2581733D01*
X58586844Y-2471126D01*
X58298421Y-2470874D01*
X58031857Y-2581016D01*
X57827733Y-2784784D01*
X57717126Y-3051156D01*
X57717078Y-3105921D01*
X57663421Y-3105874D01*
X57396857Y-3216016D01*
X57192733Y-3419784D01*
X57082126Y-3686156D01*
X57082078Y-3740921D01*
X57028421Y-3740874D01*
X56761857Y-3851016D01*
X56557733Y-4054784D01*
X56447126Y-4321156D01*
X56446874Y-4609579D01*
X56557016Y-4876143D01*
X56760784Y-5080267D01*
X56900467Y-5138268D01*
X56634857Y-5248016D01*
X56430733Y-5451784D01*
X56320126Y-5718156D01*
X56319874Y-6006579D01*
X56430016Y-6273143D01*
X56633784Y-6477267D01*
X56900156Y-6587874D01*
X56954921Y-6587922D01*
X56954874Y-6641579D01*
X57055694Y-6885582D01*
X56898294Y-7042982D01*
X56774421Y-7042874D01*
X56507857Y-7153016D01*
X56303733Y-7356784D01*
X56261721Y-7457960D01*
X56183631Y-7269434D01*
X56080326Y-7166129D01*
X56080326Y-6978000D01*
X56050691Y-6820504D01*
X56024011Y-6779042D01*
X56046186Y-6746588D01*
X56080326Y-6578000D01*
X56080326Y-6328000D01*
X56050691Y-6170504D01*
X56024011Y-6129042D01*
X56046186Y-6096588D01*
X56080326Y-5928000D01*
X56080326Y-5678000D01*
X56050691Y-5520504D01*
X56024011Y-5479042D01*
X56046186Y-5446588D01*
X56080326Y-5278000D01*
X56080326Y-5028000D01*
X56050691Y-4870504D01*
X56024011Y-4829042D01*
X56046186Y-4796588D01*
X56080326Y-4628000D01*
X56080326Y-4378000D01*
X56050691Y-4220504D01*
X56024011Y-4179042D01*
X56046186Y-4146588D01*
X56080326Y-3978000D01*
X56080326Y-3728000D01*
X56050691Y-3570504D01*
X56024011Y-3529042D01*
X56046186Y-3496588D01*
X56080326Y-3328000D01*
X56080326Y-3078000D01*
X56050691Y-2920504D01*
X56024011Y-2879042D01*
X56046186Y-2846588D01*
X56080326Y-2678000D01*
X56080326Y-2428000D01*
X56056634Y-2302088D01*
X58814000Y-2302088D01*
X58814000Y-2332250D01*
X58972250Y-2490500D01*
X60218000Y-2490500D01*
X60218000Y-1953250D01*
X60476000Y-1953250D01*
X60476000Y-2490500D01*
X61721750Y-2490500D01*
X61880000Y-2332250D01*
X61880000Y-2302088D01*
X61783631Y-2069434D01*
X61605565Y-1891368D01*
X61372911Y-1795000D01*
X60634250Y-1795000D01*
X60476000Y-1953250D01*
X60218000Y-1953250D01*
X60059750Y-1795000D01*
X59321089Y-1795000D01*
X59088435Y-1891368D01*
X58910369Y-2069434D01*
X58814000Y-2302088D01*
X56056634Y-2302088D01*
X56050691Y-2270504D01*
X55957611Y-2125854D01*
X55815588Y-2028814D01*
X55647000Y-1994674D01*
X53847000Y-1994674D01*
X53689504Y-2024309D01*
X53686255Y-2026400D01*
X28732000Y-2026400D01*
X28530479Y-2066485D01*
X28359637Y-2180638D01*
X26512876Y-4027400D01*
X24045723Y-4027400D01*
X23844202Y-4067485D01*
X23673361Y-4181638D01*
X23559208Y-4352479D01*
X23519123Y-4554000D01*
X23559208Y-4755521D01*
X23591601Y-4804000D01*
X23559208Y-4852479D01*
X23519123Y-5054000D01*
X23522463Y-5070789D01*
X23464942Y-5125776D01*
X23359728Y-5389184D01*
X23501493Y-5503200D01*
X23788356Y-5503200D01*
X23844202Y-5540515D01*
X23911996Y-5554000D01*
X23844202Y-5567485D01*
X23788356Y-5604800D01*
X23501493Y-5604800D01*
X23359728Y-5718816D01*
X23464942Y-5982224D01*
X23522463Y-6037211D01*
X23519123Y-6054000D01*
X23559208Y-6255521D01*
X23591601Y-6304000D01*
X23559208Y-6352479D01*
X23519123Y-6554000D01*
X23559208Y-6755521D01*
X23591601Y-6804000D01*
X23559208Y-6852479D01*
X23519123Y-7054000D01*
X23559208Y-7255521D01*
X23591601Y-7304000D01*
X23559208Y-7352479D01*
X23519123Y-7554000D01*
X23559208Y-7755521D01*
X23591601Y-7804000D01*
X23559208Y-7852479D01*
X23519123Y-8054000D01*
X23559208Y-8255521D01*
X23591601Y-8304000D01*
X23559208Y-8352479D01*
X23519123Y-8554000D01*
X23559208Y-8755521D01*
X23591601Y-8804000D01*
X23559208Y-8852479D01*
X23519123Y-9054000D01*
X23559208Y-9255521D01*
X23591601Y-9304000D01*
X23559208Y-9352479D01*
X23519123Y-9554000D01*
X23559208Y-9755521D01*
X23591601Y-9804000D01*
X23559208Y-9852479D01*
X23524414Y-10027400D01*
X18985326Y-10027400D01*
X18985326Y-9862000D01*
X18956372Y-9708125D01*
X19088632Y-9575865D01*
X19185000Y-9343211D01*
X19185000Y-8804550D01*
X19026750Y-8646300D01*
X17931000Y-8646300D01*
X17931000Y-8666300D01*
X17673000Y-8666300D01*
X17673000Y-8646300D01*
X16577250Y-8646300D01*
X16419000Y-8804550D01*
X16419000Y-9343211D01*
X16515368Y-9575865D01*
X16649463Y-9709960D01*
X16618674Y-9862000D01*
X16618674Y-10080403D01*
X16506414Y-10155413D01*
X14839026Y-11822801D01*
X14839026Y-9389000D01*
X14809391Y-9231504D01*
X14716311Y-9086854D01*
X14574288Y-8989814D01*
X14405700Y-8955674D01*
X10555700Y-8955674D01*
X10398204Y-8985309D01*
X10253554Y-9078389D01*
X10156514Y-9220412D01*
X10122374Y-9389000D01*
X10122374Y-11989000D01*
X10152009Y-12146496D01*
X10245089Y-12291146D01*
X10387112Y-12388186D01*
X10555700Y-12422326D01*
X14239502Y-12422326D01*
X12074114Y-14587714D01*
X11949469Y-14774257D01*
X11905700Y-14994300D01*
X11905700Y-15101674D01*
X11830700Y-15101674D01*
X11673204Y-15131309D01*
X11528554Y-15224389D01*
X11441356Y-15352007D01*
X11368631Y-15176434D01*
X11190565Y-14998368D01*
X10957911Y-14902000D01*
X10469250Y-14902000D01*
X10311000Y-15060250D01*
X10311000Y-16656000D01*
X10331000Y-16656000D01*
X10331000Y-16914000D01*
X10311000Y-16914000D01*
X10311000Y-18509750D01*
X10469250Y-18668000D01*
X10957911Y-18668000D01*
X11190565Y-18571632D01*
X11368631Y-18393566D01*
X11442163Y-18216046D01*
X11520089Y-18337146D01*
X11662112Y-18434186D01*
X11830700Y-18468326D01*
X13130700Y-18468326D01*
X13288196Y-18438691D01*
X13432846Y-18345611D01*
X13529886Y-18203588D01*
X13564026Y-18035000D01*
X13564026Y-15535000D01*
X13534391Y-15377504D01*
X13441311Y-15232854D01*
X13299288Y-15135814D01*
X13177102Y-15111071D01*
X15897784Y-12390389D01*
X16419000Y-12390389D01*
X16419000Y-12929050D01*
X16577250Y-13087300D01*
X17673000Y-13087300D01*
X17673000Y-12041550D01*
X17931000Y-12041550D01*
X17931000Y-13087300D01*
X19026750Y-13087300D01*
X19185000Y-12929050D01*
X19185000Y-12390389D01*
X19088632Y-12157735D01*
X18910566Y-11979669D01*
X18677912Y-11883300D01*
X18089250Y-11883300D01*
X17931000Y-12041550D01*
X17673000Y-12041550D01*
X17514750Y-11883300D01*
X16926088Y-11883300D01*
X16693434Y-11979669D01*
X16515368Y-12157735D01*
X16419000Y-12390389D01*
X15897784Y-12390389D01*
X16734591Y-11553582D01*
X16741389Y-11564146D01*
X16883412Y-11661186D01*
X17052000Y-11695326D01*
X18552000Y-11695326D01*
X18709496Y-11665691D01*
X18854146Y-11572611D01*
X18951186Y-11430588D01*
X18985326Y-11262000D01*
X18985326Y-11080600D01*
X20069400Y-11080600D01*
X20069400Y-11642509D01*
X19998126Y-11814156D01*
X19997874Y-12102579D01*
X20108016Y-12369143D01*
X20170370Y-12431606D01*
X20066370Y-12535425D01*
X19948135Y-12820167D01*
X19947873Y-13120243D01*
X19185000Y-13883116D01*
X19185000Y-13503550D01*
X19026750Y-13345300D01*
X17931000Y-13345300D01*
X17931000Y-13365300D01*
X17673000Y-13365300D01*
X17673000Y-13345300D01*
X16577250Y-13345300D01*
X16419000Y-13503550D01*
X16419000Y-14042211D01*
X16515368Y-14274865D01*
X16649463Y-14408960D01*
X16618674Y-14561000D01*
X16618674Y-14586000D01*
X16303400Y-14586000D01*
X16045089Y-14637381D01*
X15868280Y-14755521D01*
X15826103Y-14783703D01*
X15494873Y-15114933D01*
X15429400Y-15101674D01*
X14129400Y-15101674D01*
X13971904Y-15131309D01*
X13827254Y-15224389D01*
X13730214Y-15366412D01*
X13696074Y-15535000D01*
X13696074Y-18035000D01*
X13725709Y-18192496D01*
X13818789Y-18337146D01*
X13941450Y-18420956D01*
X12569406Y-19793000D01*
X8432326Y-19793000D01*
X8432326Y-19268000D01*
X8402691Y-19110504D01*
X8309611Y-18965854D01*
X8167588Y-18868814D01*
X7999000Y-18834674D01*
X4999000Y-18834674D01*
X4841504Y-18864309D01*
X4696854Y-18957389D01*
X4599814Y-19099412D01*
X4565674Y-19268000D01*
X4565674Y-21668000D01*
X4595309Y-21825496D01*
X4688389Y-21970146D01*
X4830412Y-22067186D01*
X4999000Y-22101326D01*
X5435080Y-22101326D01*
X4462703Y-23073703D01*
X4316381Y-23292688D01*
X4273752Y-23507000D01*
X4265000Y-23551000D01*
X4265000Y-29875000D01*
X500000Y-29875000D01*
X500000Y-17072250D01*
X8899000Y-17072250D01*
X8899000Y-18160912D01*
X8995369Y-18393566D01*
X9173435Y-18571632D01*
X9406089Y-18668000D01*
X9894750Y-18668000D01*
X10053000Y-18509750D01*
X10053000Y-16914000D01*
X9057250Y-16914000D01*
X8899000Y-17072250D01*
X500000Y-17072250D01*
X500000Y-15355250D01*
X4366000Y-15355250D01*
X4366000Y-16393911D01*
X4462368Y-16626565D01*
X4640434Y-16804631D01*
X4873088Y-16901000D01*
X6211750Y-16901000D01*
X6370000Y-16742750D01*
X6370000Y-15197000D01*
X6628000Y-15197000D01*
X6628000Y-16742750D01*
X6786250Y-16901000D01*
X8124912Y-16901000D01*
X8357566Y-16804631D01*
X8535632Y-16626565D01*
X8632000Y-16393911D01*
X8632000Y-15409088D01*
X8899000Y-15409088D01*
X8899000Y-16497750D01*
X9057250Y-16656000D01*
X10053000Y-16656000D01*
X10053000Y-15060250D01*
X9894750Y-14902000D01*
X9406089Y-14902000D01*
X9173435Y-14998368D01*
X8995369Y-15176434D01*
X8899000Y-15409088D01*
X8632000Y-15409088D01*
X8632000Y-15355250D01*
X8473750Y-15197000D01*
X6628000Y-15197000D01*
X6370000Y-15197000D01*
X4524250Y-15197000D01*
X4366000Y-15355250D01*
X500000Y-15355250D01*
X500000Y-13742089D01*
X4366000Y-13742089D01*
X4366000Y-14780750D01*
X4524250Y-14939000D01*
X6370000Y-14939000D01*
X6370000Y-13393250D01*
X6628000Y-13393250D01*
X6628000Y-14939000D01*
X8473750Y-14939000D01*
X8632000Y-14780750D01*
X8632000Y-13742089D01*
X8535632Y-13509435D01*
X8357566Y-13331369D01*
X8124912Y-13235000D01*
X6786250Y-13235000D01*
X6628000Y-13393250D01*
X6370000Y-13393250D01*
X6211750Y-13235000D01*
X4873088Y-13235000D01*
X4640434Y-13331369D01*
X4462368Y-13509435D01*
X4366000Y-13742089D01*
X500000Y-13742089D01*
X500000Y-6966423D01*
X2024243Y-6966423D01*
X2688893Y-8575001D01*
X3918526Y-9806782D01*
X5525941Y-10474239D01*
X7266423Y-10475757D01*
X8875001Y-9811107D01*
X10106782Y-8581474D01*
X10476377Y-7691389D01*
X16419000Y-7691389D01*
X16419000Y-8230050D01*
X16577250Y-8388300D01*
X17673000Y-8388300D01*
X17673000Y-7342550D01*
X17931000Y-7342550D01*
X17931000Y-8388300D01*
X19026750Y-8388300D01*
X19185000Y-8230050D01*
X19185000Y-7691389D01*
X19088632Y-7458735D01*
X18910566Y-7280669D01*
X18677912Y-7184300D01*
X18089250Y-7184300D01*
X17931000Y-7342550D01*
X17673000Y-7342550D01*
X17514750Y-7184300D01*
X16926088Y-7184300D01*
X16693434Y-7280669D01*
X16515368Y-7458735D01*
X16419000Y-7691389D01*
X10476377Y-7691389D01*
X10774239Y-6974059D01*
X10775757Y-5233577D01*
X10111107Y-3624999D01*
X8881474Y-2393218D01*
X7274059Y-1725761D01*
X5533577Y-1724243D01*
X3924999Y-2388893D01*
X2693218Y-3618526D01*
X2025761Y-5225941D01*
X2024243Y-6966423D01*
X500000Y-6966423D01*
X500000Y-500000D01*
X83100000Y-500000D01*
X83100000Y-29875000D01*
X83100000Y-29875000D01*
G37*
X83100000Y-29875000D02*
X77368883Y-29875000D01*
X65614942Y-18121058D01*
X65614939Y-18121056D01*
X64401000Y-16907116D01*
X64401000Y-13356000D01*
X64353425Y-13116823D01*
X64217942Y-12914058D01*
X64217939Y-12914056D01*
X64043095Y-12739212D01*
X64043134Y-12694519D01*
X63980404Y-12542700D01*
X64032002Y-12542700D01*
X64032002Y-12384452D01*
X64190250Y-12542700D01*
X64778912Y-12542700D01*
X65011566Y-12446331D01*
X65189632Y-12268265D01*
X65286000Y-12035611D01*
X65286000Y-11496950D01*
X65127750Y-11338700D01*
X64032000Y-11338700D01*
X64032000Y-11358700D01*
X63774000Y-11358700D01*
X63774000Y-11338700D01*
X63754000Y-11338700D01*
X63754000Y-11080700D01*
X63774000Y-11080700D01*
X63774000Y-11060700D01*
X64032000Y-11060700D01*
X64032000Y-11080700D01*
X65127750Y-11080700D01*
X65286000Y-10922450D01*
X65286000Y-10383789D01*
X65189632Y-10151135D01*
X65055537Y-10017040D01*
X65086326Y-9865000D01*
X65086326Y-8465000D01*
X65056691Y-8307504D01*
X64963611Y-8162854D01*
X64821588Y-8065814D01*
X64653000Y-8031674D01*
X63153000Y-8031674D01*
X62995504Y-8061309D01*
X62850854Y-8154389D01*
X62753814Y-8296412D01*
X62722961Y-8448771D01*
X62723126Y-8259421D01*
X62612984Y-7992857D01*
X62409216Y-7788733D01*
X62363457Y-7769732D01*
X61974362Y-7380638D01*
X61803521Y-7266485D01*
X61677605Y-7241439D01*
X61680326Y-7228000D01*
X61680326Y-6978000D01*
X61678148Y-6966423D01*
X71424243Y-6966423D01*
X72088893Y-8575001D01*
X73318526Y-9806782D01*
X74925941Y-10474239D01*
X76666423Y-10475757D01*
X78275001Y-9811107D01*
X79506782Y-8581474D01*
X80174239Y-6974059D01*
X80175757Y-5233577D01*
X79511107Y-3624999D01*
X78281474Y-2393218D01*
X76674059Y-1725761D01*
X74933577Y-1724243D01*
X73324999Y-2388893D01*
X72093218Y-3618526D01*
X71425761Y-5225941D01*
X71424243Y-6966423D01*
X61678148Y-6966423D01*
X61650691Y-6820504D01*
X61624011Y-6779042D01*
X61646186Y-6746588D01*
X61680326Y-6578000D01*
X61680326Y-6328000D01*
X61650691Y-6170504D01*
X61624011Y-6129042D01*
X61646186Y-6096588D01*
X61680326Y-5928000D01*
X61680326Y-5678000D01*
X61650691Y-5520504D01*
X61624011Y-5479042D01*
X61646186Y-5446588D01*
X61680326Y-5278000D01*
X61680326Y-5028000D01*
X61650691Y-4870504D01*
X61624011Y-4829042D01*
X61646186Y-4796588D01*
X61680326Y-4628000D01*
X61680326Y-4378000D01*
X61650691Y-4220504D01*
X61624011Y-4179042D01*
X61646186Y-4146588D01*
X61680326Y-3978000D01*
X61680326Y-3728000D01*
X61650691Y-3570504D01*
X61624011Y-3529042D01*
X61646186Y-3496588D01*
X61680326Y-3328000D01*
X61680326Y-3139871D01*
X61783631Y-3036566D01*
X61880000Y-2803912D01*
X61880000Y-2773750D01*
X61721750Y-2615500D01*
X60476000Y-2615500D01*
X60476000Y-2644674D01*
X60218000Y-2644674D01*
X60218000Y-2615500D01*
X58972250Y-2615500D01*
X58929550Y-2658200D01*
X58853216Y-2581733D01*
X58586844Y-2471126D01*
X58298421Y-2470874D01*
X58031857Y-2581016D01*
X57827733Y-2784784D01*
X57717126Y-3051156D01*
X57717078Y-3105921D01*
X57663421Y-3105874D01*
X57396857Y-3216016D01*
X57192733Y-3419784D01*
X57082126Y-3686156D01*
X57082078Y-3740921D01*
X57028421Y-3740874D01*
X56761857Y-3851016D01*
X56557733Y-4054784D01*
X56447126Y-4321156D01*
X56446874Y-4609579D01*
X56557016Y-4876143D01*
X56760784Y-5080267D01*
X56900467Y-5138268D01*
X56634857Y-5248016D01*
X56430733Y-5451784D01*
X56320126Y-5718156D01*
X56319874Y-6006579D01*
X56430016Y-6273143D01*
X56633784Y-6477267D01*
X56900156Y-6587874D01*
X56954921Y-6587922D01*
X56954874Y-6641579D01*
X57055694Y-6885582D01*
X56898294Y-7042982D01*
X56774421Y-7042874D01*
X56507857Y-7153016D01*
X56303733Y-7356784D01*
X56261721Y-7457960D01*
X56183631Y-7269434D01*
X56080326Y-7166129D01*
X56080326Y-6978000D01*
X56050691Y-6820504D01*
X56024011Y-6779042D01*
X56046186Y-6746588D01*
X56080326Y-6578000D01*
X56080326Y-6328000D01*
X56050691Y-6170504D01*
X56024011Y-6129042D01*
X56046186Y-6096588D01*
X56080326Y-5928000D01*
X56080326Y-5678000D01*
X56050691Y-5520504D01*
X56024011Y-5479042D01*
X56046186Y-5446588D01*
X56080326Y-5278000D01*
X56080326Y-5028000D01*
X56050691Y-4870504D01*
X56024011Y-4829042D01*
X56046186Y-4796588D01*
X56080326Y-4628000D01*
X56080326Y-4378000D01*
X56050691Y-4220504D01*
X56024011Y-4179042D01*
X56046186Y-4146588D01*
X56080326Y-3978000D01*
X56080326Y-3728000D01*
X56050691Y-3570504D01*
X56024011Y-3529042D01*
X56046186Y-3496588D01*
X56080326Y-3328000D01*
X56080326Y-3078000D01*
X56050691Y-2920504D01*
X56024011Y-2879042D01*
X56046186Y-2846588D01*
X56080326Y-2678000D01*
X56080326Y-2428000D01*
X56056634Y-2302088D01*
X58814000Y-2302088D01*
X58814000Y-2332250D01*
X58972250Y-2490500D01*
X60218000Y-2490500D01*
X60218000Y-1953250D01*
X60476000Y-1953250D01*
X60476000Y-2490500D01*
X61721750Y-2490500D01*
X61880000Y-2332250D01*
X61880000Y-2302088D01*
X61783631Y-2069434D01*
X61605565Y-1891368D01*
X61372911Y-1795000D01*
X60634250Y-1795000D01*
X60476000Y-1953250D01*
X60218000Y-1953250D01*
X60059750Y-1795000D01*
X59321089Y-1795000D01*
X59088435Y-1891368D01*
X58910369Y-2069434D01*
X58814000Y-2302088D01*
X56056634Y-2302088D01*
X56050691Y-2270504D01*
X55957611Y-2125854D01*
X55815588Y-2028814D01*
X55647000Y-1994674D01*
X53847000Y-1994674D01*
X53689504Y-2024309D01*
X53686255Y-2026400D01*
X28732000Y-2026400D01*
X28530479Y-2066485D01*
X28359637Y-2180638D01*
X26512876Y-4027400D01*
X24045723Y-4027400D01*
X23844202Y-4067485D01*
X23673361Y-4181638D01*
X23559208Y-4352479D01*
X23519123Y-4554000D01*
X23559208Y-4755521D01*
X23591601Y-4804000D01*
X23559208Y-4852479D01*
X23519123Y-5054000D01*
X23522463Y-5070789D01*
X23464942Y-5125776D01*
X23359728Y-5389184D01*
X23501493Y-5503200D01*
X23788356Y-5503200D01*
X23844202Y-5540515D01*
X23911996Y-5554000D01*
X23844202Y-5567485D01*
X23788356Y-5604800D01*
X23501493Y-5604800D01*
X23359728Y-5718816D01*
X23464942Y-5982224D01*
X23522463Y-6037211D01*
X23519123Y-6054000D01*
X23559208Y-6255521D01*
X23591601Y-6304000D01*
X23559208Y-6352479D01*
X23519123Y-6554000D01*
X23559208Y-6755521D01*
X23591601Y-6804000D01*
X23559208Y-6852479D01*
X23519123Y-7054000D01*
X23559208Y-7255521D01*
X23591601Y-7304000D01*
X23559208Y-7352479D01*
X23519123Y-7554000D01*
X23559208Y-7755521D01*
X23591601Y-7804000D01*
X23559208Y-7852479D01*
X23519123Y-8054000D01*
X23559208Y-8255521D01*
X23591601Y-8304000D01*
X23559208Y-8352479D01*
X23519123Y-8554000D01*
X23559208Y-8755521D01*
X23591601Y-8804000D01*
X23559208Y-8852479D01*
X23519123Y-9054000D01*
X23559208Y-9255521D01*
X23591601Y-9304000D01*
X23559208Y-9352479D01*
X23519123Y-9554000D01*
X23559208Y-9755521D01*
X23591601Y-9804000D01*
X23559208Y-9852479D01*
X23524414Y-10027400D01*
X18985326Y-10027400D01*
X18985326Y-9862000D01*
X18956372Y-9708125D01*
X19088632Y-9575865D01*
X19185000Y-9343211D01*
X19185000Y-8804550D01*
X19026750Y-8646300D01*
X17931000Y-8646300D01*
X17931000Y-8666300D01*
X17673000Y-8666300D01*
X17673000Y-8646300D01*
X16577250Y-8646300D01*
X16419000Y-8804550D01*
X16419000Y-9343211D01*
X16515368Y-9575865D01*
X16649463Y-9709960D01*
X16618674Y-9862000D01*
X16618674Y-10080403D01*
X16506414Y-10155413D01*
X14839026Y-11822801D01*
X14839026Y-9389000D01*
X14809391Y-9231504D01*
X14716311Y-9086854D01*
X14574288Y-8989814D01*
X14405700Y-8955674D01*
X10555700Y-8955674D01*
X10398204Y-8985309D01*
X10253554Y-9078389D01*
X10156514Y-9220412D01*
X10122374Y-9389000D01*
X10122374Y-11989000D01*
X10152009Y-12146496D01*
X10245089Y-12291146D01*
X10387112Y-12388186D01*
X10555700Y-12422326D01*
X14239502Y-12422326D01*
X12074114Y-14587714D01*
X11949469Y-14774257D01*
X11905700Y-14994300D01*
X11905700Y-15101674D01*
X11830700Y-15101674D01*
X11673204Y-15131309D01*
X11528554Y-15224389D01*
X11441356Y-15352007D01*
X11368631Y-15176434D01*
X11190565Y-14998368D01*
X10957911Y-14902000D01*
X10469250Y-14902000D01*
X10311000Y-15060250D01*
X10311000Y-16656000D01*
X10331000Y-16656000D01*
X10331000Y-16914000D01*
X10311000Y-16914000D01*
X10311000Y-18509750D01*
X10469250Y-18668000D01*
X10957911Y-18668000D01*
X11190565Y-18571632D01*
X11368631Y-18393566D01*
X11442163Y-18216046D01*
X11520089Y-18337146D01*
X11662112Y-18434186D01*
X11830700Y-18468326D01*
X13130700Y-18468326D01*
X13288196Y-18438691D01*
X13432846Y-18345611D01*
X13529886Y-18203588D01*
X13564026Y-18035000D01*
X13564026Y-15535000D01*
X13534391Y-15377504D01*
X13441311Y-15232854D01*
X13299288Y-15135814D01*
X13177102Y-15111071D01*
X15897784Y-12390389D01*
X16419000Y-12390389D01*
X16419000Y-12929050D01*
X16577250Y-13087300D01*
X17673000Y-13087300D01*
X17673000Y-12041550D01*
X17931000Y-12041550D01*
X17931000Y-13087300D01*
X19026750Y-13087300D01*
X19185000Y-12929050D01*
X19185000Y-12390389D01*
X19088632Y-12157735D01*
X18910566Y-11979669D01*
X18677912Y-11883300D01*
X18089250Y-11883300D01*
X17931000Y-12041550D01*
X17673000Y-12041550D01*
X17514750Y-11883300D01*
X16926088Y-11883300D01*
X16693434Y-11979669D01*
X16515368Y-12157735D01*
X16419000Y-12390389D01*
X15897784Y-12390389D01*
X16734591Y-11553582D01*
X16741389Y-11564146D01*
X16883412Y-11661186D01*
X17052000Y-11695326D01*
X18552000Y-11695326D01*
X18709496Y-11665691D01*
X18854146Y-11572611D01*
X18951186Y-11430588D01*
X18985326Y-11262000D01*
X18985326Y-11080600D01*
X20069400Y-11080600D01*
X20069400Y-11642509D01*
X19998126Y-11814156D01*
X19997874Y-12102579D01*
X20108016Y-12369143D01*
X20170370Y-12431606D01*
X20066370Y-12535425D01*
X19948135Y-12820167D01*
X19947873Y-13120243D01*
X19185000Y-13883116D01*
X19185000Y-13503550D01*
X19026750Y-13345300D01*
X17931000Y-13345300D01*
X17931000Y-13365300D01*
X17673000Y-13365300D01*
X17673000Y-13345300D01*
X16577250Y-13345300D01*
X16419000Y-13503550D01*
X16419000Y-14042211D01*
X16515368Y-14274865D01*
X16649463Y-14408960D01*
X16618674Y-14561000D01*
X16618674Y-14586000D01*
X16303400Y-14586000D01*
X16045089Y-14637381D01*
X15868280Y-14755521D01*
X15826103Y-14783703D01*
X15494873Y-15114933D01*
X15429400Y-15101674D01*
X14129400Y-15101674D01*
X13971904Y-15131309D01*
X13827254Y-15224389D01*
X13730214Y-15366412D01*
X13696074Y-15535000D01*
X13696074Y-18035000D01*
X13725709Y-18192496D01*
X13818789Y-18337146D01*
X13941450Y-18420956D01*
X12569406Y-19793000D01*
X8432326Y-19793000D01*
X8432326Y-19268000D01*
X8402691Y-19110504D01*
X8309611Y-18965854D01*
X8167588Y-18868814D01*
X7999000Y-18834674D01*
X4999000Y-18834674D01*
X4841504Y-18864309D01*
X4696854Y-18957389D01*
X4599814Y-19099412D01*
X4565674Y-19268000D01*
X4565674Y-21668000D01*
X4595309Y-21825496D01*
X4688389Y-21970146D01*
X4830412Y-22067186D01*
X4999000Y-22101326D01*
X5435080Y-22101326D01*
X4462703Y-23073703D01*
X4316381Y-23292688D01*
X4273752Y-23507000D01*
X4265000Y-23551000D01*
X4265000Y-29875000D01*
X500000Y-29875000D01*
X500000Y-17072250D01*
X8899000Y-17072250D01*
X8899000Y-18160912D01*
X8995369Y-18393566D01*
X9173435Y-18571632D01*
X9406089Y-18668000D01*
X9894750Y-18668000D01*
X10053000Y-18509750D01*
X10053000Y-16914000D01*
X9057250Y-16914000D01*
X8899000Y-17072250D01*
X500000Y-17072250D01*
X500000Y-15355250D01*
X4366000Y-15355250D01*
X4366000Y-16393911D01*
X4462368Y-16626565D01*
X4640434Y-16804631D01*
X4873088Y-16901000D01*
X6211750Y-16901000D01*
X6370000Y-16742750D01*
X6370000Y-15197000D01*
X6628000Y-15197000D01*
X6628000Y-16742750D01*
X6786250Y-16901000D01*
X8124912Y-16901000D01*
X8357566Y-16804631D01*
X8535632Y-16626565D01*
X8632000Y-16393911D01*
X8632000Y-15409088D01*
X8899000Y-15409088D01*
X8899000Y-16497750D01*
X9057250Y-16656000D01*
X10053000Y-16656000D01*
X10053000Y-15060250D01*
X9894750Y-14902000D01*
X9406089Y-14902000D01*
X9173435Y-14998368D01*
X8995369Y-15176434D01*
X8899000Y-15409088D01*
X8632000Y-15409088D01*
X8632000Y-15355250D01*
X8473750Y-15197000D01*
X6628000Y-15197000D01*
X6370000Y-15197000D01*
X4524250Y-15197000D01*
X4366000Y-15355250D01*
X500000Y-15355250D01*
X500000Y-13742089D01*
X4366000Y-13742089D01*
X4366000Y-14780750D01*
X4524250Y-14939000D01*
X6370000Y-14939000D01*
X6370000Y-13393250D01*
X6628000Y-13393250D01*
X6628000Y-14939000D01*
X8473750Y-14939000D01*
X8632000Y-14780750D01*
X8632000Y-13742089D01*
X8535632Y-13509435D01*
X8357566Y-13331369D01*
X8124912Y-13235000D01*
X6786250Y-13235000D01*
X6628000Y-13393250D01*
X6370000Y-13393250D01*
X6211750Y-13235000D01*
X4873088Y-13235000D01*
X4640434Y-13331369D01*
X4462368Y-13509435D01*
X4366000Y-13742089D01*
X500000Y-13742089D01*
X500000Y-6966423D01*
X2024243Y-6966423D01*
X2688893Y-8575001D01*
X3918526Y-9806782D01*
X5525941Y-10474239D01*
X7266423Y-10475757D01*
X8875001Y-9811107D01*
X10106782Y-8581474D01*
X10476377Y-7691389D01*
X16419000Y-7691389D01*
X16419000Y-8230050D01*
X16577250Y-8388300D01*
X17673000Y-8388300D01*
X17673000Y-7342550D01*
X17931000Y-7342550D01*
X17931000Y-8388300D01*
X19026750Y-8388300D01*
X19185000Y-8230050D01*
X19185000Y-7691389D01*
X19088632Y-7458735D01*
X18910566Y-7280669D01*
X18677912Y-7184300D01*
X18089250Y-7184300D01*
X17931000Y-7342550D01*
X17673000Y-7342550D01*
X17514750Y-7184300D01*
X16926088Y-7184300D01*
X16693434Y-7280669D01*
X16515368Y-7458735D01*
X16419000Y-7691389D01*
X10476377Y-7691389D01*
X10774239Y-6974059D01*
X10775757Y-5233577D01*
X10111107Y-3624999D01*
X8881474Y-2393218D01*
X7274059Y-1725761D01*
X5533577Y-1724243D01*
X3924999Y-2388893D01*
X2693218Y-3618526D01*
X2025761Y-5225941D01*
X2024243Y-6966423D01*
X500000Y-6966423D01*
X500000Y-500000D01*
X83100000Y-500000D01*
X83100000Y-29875000D01*
G36*
X19053400Y-18182000D02*
X19085944Y-18345611D01*
X19093485Y-18383521D01*
X19207638Y-18554362D01*
X21648982Y-20995707D01*
X21648874Y-21119579D01*
X21666762Y-21162872D01*
X21455857Y-21250016D01*
X21251733Y-21453784D01*
X21141126Y-21720156D01*
X21141078Y-21775032D01*
X20960421Y-21774874D01*
X20693857Y-21885016D01*
X20489733Y-22088784D01*
X20477513Y-22118214D01*
X20372216Y-22012733D01*
X20105844Y-21902126D01*
X19817421Y-21901874D01*
X19550857Y-22012016D01*
X19346733Y-22215784D01*
X19236126Y-22482156D01*
X19235874Y-22770579D01*
X19346016Y-23037143D01*
X19425135Y-23116400D01*
X16405000Y-23116400D01*
X16203479Y-23156485D01*
X16032638Y-23270638D01*
X9428276Y-29875000D01*
X5615000Y-29875000D01*
X5615000Y-23830594D01*
X6976297Y-22469297D01*
X7122619Y-22250312D01*
X7152254Y-22101326D01*
X7999000Y-22101326D01*
X8156496Y-22071691D01*
X8301146Y-21978611D01*
X8398186Y-21836588D01*
X8432326Y-21668000D01*
X8432326Y-21143000D01*
X12849000Y-21143000D01*
X13107312Y-21091619D01*
X13326297Y-20945297D01*
X15256697Y-19014897D01*
X15403019Y-18795912D01*
X15454400Y-18537600D01*
X15454400Y-18463622D01*
X15586896Y-18438691D01*
X15731546Y-18345611D01*
X15828586Y-18203588D01*
X15862726Y-18035000D01*
X15862726Y-16656268D01*
X16582994Y-15936000D01*
X16618674Y-15936000D01*
X16618674Y-15961000D01*
X16648309Y-16118496D01*
X16741389Y-16263146D01*
X16883412Y-16360186D01*
X17052000Y-16394326D01*
X18552000Y-16394326D01*
X18709496Y-16364691D01*
X18854146Y-16271611D01*
X18951186Y-16129588D01*
X18985326Y-15961000D01*
X18985326Y-15725717D01*
X19053400Y-15712176D01*
X19053400Y-18182000D01*
X19053400Y-18182000D01*
G37*
X19053400Y-18182000D02*
X19085944Y-18345611D01*
X19093485Y-18383521D01*
X19207638Y-18554362D01*
X21648982Y-20995707D01*
X21648874Y-21119579D01*
X21666762Y-21162872D01*
X21455857Y-21250016D01*
X21251733Y-21453784D01*
X21141126Y-21720156D01*
X21141078Y-21775032D01*
X20960421Y-21774874D01*
X20693857Y-21885016D01*
X20489733Y-22088784D01*
X20477513Y-22118214D01*
X20372216Y-22012733D01*
X20105844Y-21902126D01*
X19817421Y-21901874D01*
X19550857Y-22012016D01*
X19346733Y-22215784D01*
X19236126Y-22482156D01*
X19235874Y-22770579D01*
X19346016Y-23037143D01*
X19425135Y-23116400D01*
X16405000Y-23116400D01*
X16203479Y-23156485D01*
X16032638Y-23270638D01*
X9428276Y-29875000D01*
X5615000Y-29875000D01*
X5615000Y-23830594D01*
X6976297Y-22469297D01*
X7122619Y-22250312D01*
X7152254Y-22101326D01*
X7999000Y-22101326D01*
X8156496Y-22071691D01*
X8301146Y-21978611D01*
X8398186Y-21836588D01*
X8432326Y-21668000D01*
X8432326Y-21143000D01*
X12849000Y-21143000D01*
X13107312Y-21091619D01*
X13326297Y-20945297D01*
X15256697Y-19014897D01*
X15403019Y-18795912D01*
X15454400Y-18537600D01*
X15454400Y-18463622D01*
X15586896Y-18438691D01*
X15731546Y-18345611D01*
X15828586Y-18203588D01*
X15862726Y-18035000D01*
X15862726Y-16656268D01*
X16582994Y-15936000D01*
X16618674Y-15936000D01*
X16618674Y-15961000D01*
X16648309Y-16118496D01*
X16741389Y-16263146D01*
X16883412Y-16360186D01*
X17052000Y-16394326D01*
X18552000Y-16394326D01*
X18709496Y-16364691D01*
X18854146Y-16271611D01*
X18951186Y-16129588D01*
X18985326Y-15961000D01*
X18985326Y-15725717D01*
X19053400Y-15712176D01*
X19053400Y-18182000D01*
G36*
X43519123Y-4554000D02*
X43559208Y-4755521D01*
X43591601Y-4804000D01*
X43559208Y-4852479D01*
X43519123Y-5054000D01*
X43559208Y-5255521D01*
X43591601Y-5304000D01*
X43559208Y-5352479D01*
X43519123Y-5554000D01*
X43559208Y-5755521D01*
X43591601Y-5804000D01*
X43559208Y-5852479D01*
X43519123Y-6054000D01*
X43559208Y-6255521D01*
X43591601Y-6304000D01*
X43559208Y-6352479D01*
X43519123Y-6554000D01*
X43559208Y-6755521D01*
X43591601Y-6804000D01*
X43559208Y-6852479D01*
X43519123Y-7054000D01*
X43559208Y-7255521D01*
X43591601Y-7304000D01*
X43559208Y-7352479D01*
X43519123Y-7554000D01*
X43559208Y-7755521D01*
X43591601Y-7804000D01*
X43559208Y-7852479D01*
X43519123Y-8054000D01*
X43559208Y-8255521D01*
X43591601Y-8304000D01*
X43559208Y-8352479D01*
X43519123Y-8554000D01*
X43559208Y-8755521D01*
X43591601Y-8804000D01*
X43559208Y-8852479D01*
X43519123Y-9054000D01*
X43520994Y-9063404D01*
X43500479Y-9067485D01*
X43329638Y-9181637D01*
X42956638Y-9554638D01*
X42842485Y-9725479D01*
X42802400Y-9927000D01*
X42802400Y-14480400D01*
X42049730Y-14480400D01*
X41962216Y-14392733D01*
X41695844Y-14282126D01*
X41407421Y-14281874D01*
X41140857Y-14392016D01*
X40936733Y-14595784D01*
X40826126Y-14862156D01*
X40825874Y-15150579D01*
X40936016Y-15417143D01*
X41139784Y-15621267D01*
X41406156Y-15731874D01*
X41694579Y-15732126D01*
X41961143Y-15621984D01*
X42049681Y-15533600D01*
X42802400Y-15533600D01*
X42802400Y-16277000D01*
X42832110Y-16426362D01*
X42842485Y-16478521D01*
X42956638Y-16649362D01*
X44353637Y-18046362D01*
X44353640Y-18046364D01*
X44453400Y-18146124D01*
X44453400Y-18572674D01*
X44230000Y-18572674D01*
X44072504Y-18602309D01*
X43927854Y-18695389D01*
X43830814Y-18837412D01*
X43796674Y-19006000D01*
X43796674Y-20406000D01*
X43825628Y-20559875D01*
X43693368Y-20692135D01*
X43597000Y-20924789D01*
X43597000Y-21463450D01*
X43755250Y-21621700D01*
X44851000Y-21621700D01*
X44851000Y-21601700D01*
X45109000Y-21601700D01*
X45109000Y-21621700D01*
X46204750Y-21621700D01*
X46363000Y-21463450D01*
X46363000Y-20924789D01*
X46266632Y-20692135D01*
X46132537Y-20558040D01*
X46163326Y-20406000D01*
X46163326Y-19966600D01*
X46580674Y-19966600D01*
X46580674Y-20340000D01*
X46610309Y-20497496D01*
X46612400Y-20500745D01*
X46612400Y-23983333D01*
X46580674Y-24140000D01*
X46580674Y-25940000D01*
X46610309Y-26097496D01*
X46703389Y-26242146D01*
X46845412Y-26339186D01*
X47014000Y-26373326D01*
X47092949Y-26373326D01*
X46666876Y-26799400D01*
X45869000Y-26799400D01*
X45667479Y-26839485D01*
X45496637Y-26953638D01*
X42667638Y-29782638D01*
X42605923Y-29875000D01*
X41061600Y-29875000D01*
X41061600Y-28332730D01*
X41149267Y-28245216D01*
X41259874Y-27978844D01*
X41260126Y-27690421D01*
X41149984Y-27423857D01*
X40946216Y-27219733D01*
X40679844Y-27109126D01*
X40391421Y-27108874D01*
X40124857Y-27219016D01*
X39920733Y-27422784D01*
X39810126Y-27689156D01*
X39809874Y-27977579D01*
X39920016Y-28244143D01*
X40008400Y-28332681D01*
X40008400Y-29875000D01*
X35930090Y-29875000D01*
X35906515Y-29756479D01*
X35889064Y-29730362D01*
X35792363Y-29585638D01*
X34021018Y-27814294D01*
X34021126Y-27690421D01*
X33910984Y-27423857D01*
X33707216Y-27219733D01*
X33440844Y-27109126D01*
X33152421Y-27108874D01*
X32933600Y-27199289D01*
X32933600Y-22037950D01*
X43597000Y-22037950D01*
X43597000Y-22576611D01*
X43693368Y-22809265D01*
X43871434Y-22987331D01*
X44104088Y-23083700D01*
X44692750Y-23083700D01*
X44851000Y-22925450D01*
X44851000Y-21879700D01*
X45109000Y-21879700D01*
X45109000Y-22925450D01*
X45267250Y-23083700D01*
X45855912Y-23083700D01*
X46088566Y-22987331D01*
X46266632Y-22809265D01*
X46363000Y-22576611D01*
X46363000Y-22037950D01*
X46204750Y-21879700D01*
X45109000Y-21879700D01*
X44851000Y-21879700D01*
X43755250Y-21879700D01*
X43597000Y-22037950D01*
X32933600Y-22037950D01*
X32933600Y-10181000D01*
X32893515Y-9979479D01*
X32889232Y-9973069D01*
X32779363Y-9808638D01*
X29152362Y-6181638D01*
X28981521Y-6067485D01*
X28966620Y-6064521D01*
X28780000Y-6027400D01*
X27780324Y-6027400D01*
X29428124Y-4379600D01*
X43553813Y-4379600D01*
X43519123Y-4554000D01*
X43519123Y-4554000D01*
G37*
X43519123Y-4554000D02*
X43559208Y-4755521D01*
X43591601Y-4804000D01*
X43559208Y-4852479D01*
X43519123Y-5054000D01*
X43559208Y-5255521D01*
X43591601Y-5304000D01*
X43559208Y-5352479D01*
X43519123Y-5554000D01*
X43559208Y-5755521D01*
X43591601Y-5804000D01*
X43559208Y-5852479D01*
X43519123Y-6054000D01*
X43559208Y-6255521D01*
X43591601Y-6304000D01*
X43559208Y-6352479D01*
X43519123Y-6554000D01*
X43559208Y-6755521D01*
X43591601Y-6804000D01*
X43559208Y-6852479D01*
X43519123Y-7054000D01*
X43559208Y-7255521D01*
X43591601Y-7304000D01*
X43559208Y-7352479D01*
X43519123Y-7554000D01*
X43559208Y-7755521D01*
X43591601Y-7804000D01*
X43559208Y-7852479D01*
X43519123Y-8054000D01*
X43559208Y-8255521D01*
X43591601Y-8304000D01*
X43559208Y-8352479D01*
X43519123Y-8554000D01*
X43559208Y-8755521D01*
X43591601Y-8804000D01*
X43559208Y-8852479D01*
X43519123Y-9054000D01*
X43520994Y-9063404D01*
X43500479Y-9067485D01*
X43329638Y-9181637D01*
X42956638Y-9554638D01*
X42842485Y-9725479D01*
X42802400Y-9927000D01*
X42802400Y-14480400D01*
X42049730Y-14480400D01*
X41962216Y-14392733D01*
X41695844Y-14282126D01*
X41407421Y-14281874D01*
X41140857Y-14392016D01*
X40936733Y-14595784D01*
X40826126Y-14862156D01*
X40825874Y-15150579D01*
X40936016Y-15417143D01*
X41139784Y-15621267D01*
X41406156Y-15731874D01*
X41694579Y-15732126D01*
X41961143Y-15621984D01*
X42049681Y-15533600D01*
X42802400Y-15533600D01*
X42802400Y-16277000D01*
X42832110Y-16426362D01*
X42842485Y-16478521D01*
X42956638Y-16649362D01*
X44353637Y-18046362D01*
X44353640Y-18046364D01*
X44453400Y-18146124D01*
X44453400Y-18572674D01*
X44230000Y-18572674D01*
X44072504Y-18602309D01*
X43927854Y-18695389D01*
X43830814Y-18837412D01*
X43796674Y-19006000D01*
X43796674Y-20406000D01*
X43825628Y-20559875D01*
X43693368Y-20692135D01*
X43597000Y-20924789D01*
X43597000Y-21463450D01*
X43755250Y-21621700D01*
X44851000Y-21621700D01*
X44851000Y-21601700D01*
X45109000Y-21601700D01*
X45109000Y-21621700D01*
X46204750Y-21621700D01*
X46363000Y-21463450D01*
X46363000Y-20924789D01*
X46266632Y-20692135D01*
X46132537Y-20558040D01*
X46163326Y-20406000D01*
X46163326Y-19966600D01*
X46580674Y-19966600D01*
X46580674Y-20340000D01*
X46610309Y-20497496D01*
X46612400Y-20500745D01*
X46612400Y-23983333D01*
X46580674Y-24140000D01*
X46580674Y-25940000D01*
X46610309Y-26097496D01*
X46703389Y-26242146D01*
X46845412Y-26339186D01*
X47014000Y-26373326D01*
X47092949Y-26373326D01*
X46666876Y-26799400D01*
X45869000Y-26799400D01*
X45667479Y-26839485D01*
X45496637Y-26953638D01*
X42667638Y-29782638D01*
X42605923Y-29875000D01*
X41061600Y-29875000D01*
X41061600Y-28332730D01*
X41149267Y-28245216D01*
X41259874Y-27978844D01*
X41260126Y-27690421D01*
X41149984Y-27423857D01*
X40946216Y-27219733D01*
X40679844Y-27109126D01*
X40391421Y-27108874D01*
X40124857Y-27219016D01*
X39920733Y-27422784D01*
X39810126Y-27689156D01*
X39809874Y-27977579D01*
X39920016Y-28244143D01*
X40008400Y-28332681D01*
X40008400Y-29875000D01*
X35930090Y-29875000D01*
X35906515Y-29756479D01*
X35889064Y-29730362D01*
X35792363Y-29585638D01*
X34021018Y-27814294D01*
X34021126Y-27690421D01*
X33910984Y-27423857D01*
X33707216Y-27219733D01*
X33440844Y-27109126D01*
X33152421Y-27108874D01*
X32933600Y-27199289D01*
X32933600Y-22037950D01*
X43597000Y-22037950D01*
X43597000Y-22576611D01*
X43693368Y-22809265D01*
X43871434Y-22987331D01*
X44104088Y-23083700D01*
X44692750Y-23083700D01*
X44851000Y-22925450D01*
X44851000Y-21879700D01*
X45109000Y-21879700D01*
X45109000Y-22925450D01*
X45267250Y-23083700D01*
X45855912Y-23083700D01*
X46088566Y-22987331D01*
X46266632Y-22809265D01*
X46363000Y-22576611D01*
X46363000Y-22037950D01*
X46204750Y-21879700D01*
X45109000Y-21879700D01*
X44851000Y-21879700D01*
X43755250Y-21879700D01*
X43597000Y-22037950D01*
X32933600Y-22037950D01*
X32933600Y-10181000D01*
X32893515Y-9979479D01*
X32889232Y-9973069D01*
X32779363Y-9808638D01*
X29152362Y-6181638D01*
X28981521Y-6067485D01*
X28966620Y-6064521D01*
X28780000Y-6027400D01*
X27780324Y-6027400D01*
X29428124Y-4379600D01*
X43553813Y-4379600D01*
X43519123Y-4554000D01*
G36*
X65209874Y-27977579D02*
X65320016Y-28244143D01*
X65373400Y-28297620D01*
X65373400Y-29875000D01*
X63840849Y-29875000D01*
X63817221Y-29839638D01*
X63732363Y-29712638D01*
X61745324Y-27725600D01*
X65210094Y-27725600D01*
X65209874Y-27977579D01*
X65209874Y-27977579D01*
G37*
X65209874Y-27977579D02*
X65320016Y-28244143D01*
X65373400Y-28297620D01*
X65373400Y-29875000D01*
X63840849Y-29875000D01*
X63817221Y-29839638D01*
X63732363Y-29712638D01*
X61745324Y-27725600D01*
X65210094Y-27725600D01*
X65209874Y-27977579D01*
G36*
X18572640Y-27080636D02*
X18572637Y-27080638D01*
X15778276Y-29875000D01*
X13086600Y-29875000D01*
X13086600Y-28976124D01*
X16877125Y-25185600D01*
X18781184Y-25185600D01*
X18838016Y-25323143D01*
X19041784Y-25527267D01*
X19308156Y-25637874D01*
X19596579Y-25638126D01*
X19863143Y-25527984D01*
X20067267Y-25324216D01*
X20177874Y-25057844D01*
X20178126Y-24769421D01*
X20140186Y-24677600D01*
X20975675Y-24677600D01*
X18572640Y-27080636D01*
X18572640Y-27080636D01*
G37*
X18572640Y-27080636D02*
X18572637Y-27080638D01*
X15778276Y-29875000D01*
X13086600Y-29875000D01*
X13086600Y-28976124D01*
X16877125Y-25185600D01*
X18781184Y-25185600D01*
X18838016Y-25323143D01*
X19041784Y-25527267D01*
X19308156Y-25637874D01*
X19596579Y-25638126D01*
X19863143Y-25527984D01*
X20067267Y-25324216D01*
X20177874Y-25057844D01*
X20178126Y-24769421D01*
X20140186Y-24677600D01*
X20975675Y-24677600D01*
X18572640Y-27080636D01*
G36*
X31372400Y-29612876D02*
X31110276Y-29875000D01*
X28326600Y-29875000D01*
X28326600Y-23922669D01*
X28449267Y-23800216D01*
X28559874Y-23533844D01*
X28560126Y-23245421D01*
X28449984Y-22978857D01*
X28246216Y-22774733D01*
X28198008Y-22754716D01*
X31372400Y-19580324D01*
X31372400Y-29612876D01*
X31372400Y-29612876D01*
G37*
X31372400Y-29612876D02*
X31110276Y-29875000D01*
X28326600Y-29875000D01*
X28326600Y-23922669D01*
X28449267Y-23800216D01*
X28559874Y-23533844D01*
X28560126Y-23245421D01*
X28449984Y-22978857D01*
X28246216Y-22774733D01*
X28198008Y-22754716D01*
X31372400Y-19580324D01*
X31372400Y-29612876D01*
G36*
X26673400Y-29139875D02*
X25938275Y-29875000D01*
X23246600Y-29875000D01*
X23246600Y-27071124D01*
X26673400Y-23644324D01*
X26673400Y-29139875D01*
X26673400Y-29139875D01*
G37*
X26673400Y-29139875D02*
X25938275Y-29875000D01*
X23246600Y-29875000D01*
X23246600Y-27071124D01*
X26673400Y-23644324D01*
X26673400Y-29139875D01*
G36*
X21251016Y-26720143D02*
X21454784Y-26924267D01*
X21720400Y-27034560D01*
X21720400Y-29012875D01*
X20858275Y-29875000D01*
X18166600Y-29875000D01*
X18166600Y-29636526D01*
X21201886Y-26601240D01*
X21251016Y-26720143D01*
X21251016Y-26720143D01*
G37*
X21251016Y-26720143D02*
X21454784Y-26924267D01*
X21720400Y-27034560D01*
X21720400Y-29012875D01*
X20858275Y-29875000D01*
X18166600Y-29875000D01*
X18166600Y-29636526D01*
X21201886Y-26601240D01*
X21251016Y-26720143D01*
G36*
X51943637Y-15984362D02*
X52080003Y-16075479D01*
X52114479Y-16098515D01*
X52316000Y-16138600D01*
X53438350Y-16138600D01*
X53499250Y-16199500D01*
X54745000Y-16199500D01*
X54745000Y-16170326D01*
X55003000Y-16170326D01*
X55003000Y-16199500D01*
X55023000Y-16199500D01*
X55023000Y-16324500D01*
X55003000Y-16324500D01*
X55003000Y-16353674D01*
X54745000Y-16353674D01*
X54745000Y-16324500D01*
X53499250Y-16324500D01*
X53341000Y-16482750D01*
X53341000Y-16512912D01*
X53437369Y-16745566D01*
X53540674Y-16848871D01*
X53540674Y-17037000D01*
X53570309Y-17194496D01*
X53663389Y-17339146D01*
X53805412Y-17436186D01*
X53974000Y-17470326D01*
X55774000Y-17470326D01*
X55931496Y-17440691D01*
X55934745Y-17438600D01*
X59417333Y-17438600D01*
X59574000Y-17470326D01*
X59947400Y-17470326D01*
X59947400Y-17760674D01*
X59774000Y-17760674D01*
X59620125Y-17789628D01*
X59487865Y-17657368D01*
X59255211Y-17561000D01*
X58716550Y-17561000D01*
X58558300Y-17719250D01*
X58558300Y-18815000D01*
X58578300Y-18815000D01*
X58578300Y-19073000D01*
X58558300Y-19073000D01*
X58558300Y-20168750D01*
X58716550Y-20327000D01*
X59255211Y-20327000D01*
X59487865Y-20230632D01*
X59621960Y-20096537D01*
X59774000Y-20127326D01*
X61174000Y-20127326D01*
X61331496Y-20097691D01*
X61476146Y-20004611D01*
X61573186Y-19862588D01*
X61607326Y-19694000D01*
X61607326Y-18194000D01*
X61577691Y-18036504D01*
X61484611Y-17891854D01*
X61342588Y-17794814D01*
X61174000Y-17760674D01*
X61000600Y-17760674D01*
X61000600Y-17470326D01*
X61374000Y-17470326D01*
X61531496Y-17440691D01*
X61598400Y-17397639D01*
X61598400Y-17547000D01*
X61631897Y-17715400D01*
X61638485Y-17748521D01*
X61752638Y-17919362D01*
X65916400Y-22083125D01*
X65916400Y-24668270D01*
X65828733Y-24755784D01*
X65718126Y-25022156D01*
X65717874Y-25310579D01*
X65828016Y-25577143D01*
X66031784Y-25781267D01*
X66298156Y-25891874D01*
X66586579Y-25892126D01*
X66853143Y-25781984D01*
X66963369Y-25671950D01*
X67187156Y-25764874D01*
X67475579Y-25765126D01*
X67742143Y-25654984D01*
X67946267Y-25451216D01*
X68056874Y-25184844D01*
X68057126Y-24896421D01*
X67946984Y-24629857D01*
X67743216Y-24425733D01*
X67477600Y-24315440D01*
X67477600Y-22392408D01*
X73745096Y-28659905D01*
X73745099Y-28659907D01*
X74960191Y-29875000D01*
X74000849Y-29875000D01*
X73977221Y-29839638D01*
X73892363Y-29712638D01*
X70498362Y-26318638D01*
X70327521Y-26204485D01*
X70126000Y-26164400D01*
X53706205Y-26164400D01*
X53747000Y-26065911D01*
X53747000Y-25327250D01*
X53588750Y-25169000D01*
X53051500Y-25169000D01*
X53051500Y-25189000D01*
X52926500Y-25189000D01*
X52926500Y-25169000D01*
X52897326Y-25169000D01*
X52897326Y-24911000D01*
X52926500Y-24911000D01*
X52926500Y-23665250D01*
X53051500Y-23665250D01*
X53051500Y-24911000D01*
X53588750Y-24911000D01*
X53747000Y-24752750D01*
X53747000Y-24014089D01*
X53650632Y-23781435D01*
X53472566Y-23603369D01*
X53239912Y-23507000D01*
X53209750Y-23507000D01*
X53051500Y-23665250D01*
X52926500Y-23665250D01*
X52768250Y-23507000D01*
X52738088Y-23507000D01*
X52505434Y-23603369D01*
X52402129Y-23706674D01*
X52214000Y-23706674D01*
X52056504Y-23736309D01*
X52015042Y-23762989D01*
X51982588Y-23740814D01*
X51814000Y-23706674D01*
X51564000Y-23706674D01*
X51406504Y-23736309D01*
X51365042Y-23762989D01*
X51332588Y-23740814D01*
X51164000Y-23706674D01*
X50914000Y-23706674D01*
X50756504Y-23736309D01*
X50715042Y-23762989D01*
X50682588Y-23740814D01*
X50514000Y-23706674D01*
X50264000Y-23706674D01*
X50106504Y-23736309D01*
X50065042Y-23762989D01*
X50032588Y-23740814D01*
X49864000Y-23706674D01*
X49614000Y-23706674D01*
X49456504Y-23736309D01*
X49415042Y-23762989D01*
X49382588Y-23740814D01*
X49214000Y-23706674D01*
X49025871Y-23706674D01*
X48922566Y-23603369D01*
X48689912Y-23507000D01*
X48659750Y-23507000D01*
X48501500Y-23665250D01*
X48501500Y-24911000D01*
X48530674Y-24911000D01*
X48530674Y-25169000D01*
X48501500Y-25169000D01*
X48501500Y-25189000D01*
X48376500Y-25189000D01*
X48376500Y-25169000D01*
X48347326Y-25169000D01*
X48347326Y-24911000D01*
X48376500Y-24911000D01*
X48376500Y-23665250D01*
X48218250Y-23507000D01*
X48188088Y-23507000D01*
X47955434Y-23603369D01*
X47852129Y-23706674D01*
X47665600Y-23706674D01*
X47665600Y-20875650D01*
X47726500Y-20814750D01*
X47726500Y-19569000D01*
X47697326Y-19569000D01*
X47697326Y-19311000D01*
X47726500Y-19311000D01*
X47726500Y-19291000D01*
X47851500Y-19291000D01*
X47851500Y-19311000D01*
X47880674Y-19311000D01*
X47880674Y-19569000D01*
X47851500Y-19569000D01*
X47851500Y-20814750D01*
X48009750Y-20973000D01*
X48039912Y-20973000D01*
X48272566Y-20876631D01*
X48375871Y-20773326D01*
X48564000Y-20773326D01*
X48721496Y-20743691D01*
X48762958Y-20717011D01*
X48795412Y-20739186D01*
X48964000Y-20773326D01*
X49214000Y-20773326D01*
X49371496Y-20743691D01*
X49412958Y-20717011D01*
X49445412Y-20739186D01*
X49614000Y-20773326D01*
X49864000Y-20773326D01*
X50021496Y-20743691D01*
X50062958Y-20717011D01*
X50095412Y-20739186D01*
X50264000Y-20773326D01*
X50514000Y-20773326D01*
X50671496Y-20743691D01*
X50712958Y-20717011D01*
X50745412Y-20739186D01*
X50914000Y-20773326D01*
X51164000Y-20773326D01*
X51321496Y-20743691D01*
X51362958Y-20717011D01*
X51395412Y-20739186D01*
X51564000Y-20773326D01*
X51814000Y-20773326D01*
X51971496Y-20743691D01*
X52012958Y-20717011D01*
X52045412Y-20739186D01*
X52214000Y-20773326D01*
X52464000Y-20773326D01*
X52621496Y-20743691D01*
X52662958Y-20717011D01*
X52695412Y-20739186D01*
X52864000Y-20773326D01*
X53114000Y-20773326D01*
X53271496Y-20743691D01*
X53416146Y-20650611D01*
X53513186Y-20508588D01*
X53547326Y-20340000D01*
X53547326Y-19231250D01*
X57096300Y-19231250D01*
X57096300Y-19819912D01*
X57192669Y-20052566D01*
X57370735Y-20230632D01*
X57603389Y-20327000D01*
X58142050Y-20327000D01*
X58300300Y-20168750D01*
X58300300Y-19073000D01*
X57254550Y-19073000D01*
X57096300Y-19231250D01*
X53547326Y-19231250D01*
X53547326Y-18540000D01*
X53517691Y-18382504D01*
X53515600Y-18379255D01*
X53515600Y-18317000D01*
X53475515Y-18115479D01*
X53443850Y-18068088D01*
X57096300Y-18068088D01*
X57096300Y-18656750D01*
X57254550Y-18815000D01*
X58300300Y-18815000D01*
X58300300Y-17719250D01*
X58142050Y-17561000D01*
X57603389Y-17561000D01*
X57370735Y-17657368D01*
X57192669Y-17835434D01*
X57096300Y-18068088D01*
X53443850Y-18068088D01*
X53361362Y-17944638D01*
X53107365Y-17690641D01*
X53107363Y-17690638D01*
X53099364Y-17682640D01*
X53099362Y-17682637D01*
X48997324Y-13580600D01*
X49539876Y-13580600D01*
X51943637Y-15984362D01*
X51943637Y-15984362D01*
G37*
X51943637Y-15984362D02*
X52080003Y-16075479D01*
X52114479Y-16098515D01*
X52316000Y-16138600D01*
X53438350Y-16138600D01*
X53499250Y-16199500D01*
X54745000Y-16199500D01*
X54745000Y-16170326D01*
X55003000Y-16170326D01*
X55003000Y-16199500D01*
X55023000Y-16199500D01*
X55023000Y-16324500D01*
X55003000Y-16324500D01*
X55003000Y-16353674D01*
X54745000Y-16353674D01*
X54745000Y-16324500D01*
X53499250Y-16324500D01*
X53341000Y-16482750D01*
X53341000Y-16512912D01*
X53437369Y-16745566D01*
X53540674Y-16848871D01*
X53540674Y-17037000D01*
X53570309Y-17194496D01*
X53663389Y-17339146D01*
X53805412Y-17436186D01*
X53974000Y-17470326D01*
X55774000Y-17470326D01*
X55931496Y-17440691D01*
X55934745Y-17438600D01*
X59417333Y-17438600D01*
X59574000Y-17470326D01*
X59947400Y-17470326D01*
X59947400Y-17760674D01*
X59774000Y-17760674D01*
X59620125Y-17789628D01*
X59487865Y-17657368D01*
X59255211Y-17561000D01*
X58716550Y-17561000D01*
X58558300Y-17719250D01*
X58558300Y-18815000D01*
X58578300Y-18815000D01*
X58578300Y-19073000D01*
X58558300Y-19073000D01*
X58558300Y-20168750D01*
X58716550Y-20327000D01*
X59255211Y-20327000D01*
X59487865Y-20230632D01*
X59621960Y-20096537D01*
X59774000Y-20127326D01*
X61174000Y-20127326D01*
X61331496Y-20097691D01*
X61476146Y-20004611D01*
X61573186Y-19862588D01*
X61607326Y-19694000D01*
X61607326Y-18194000D01*
X61577691Y-18036504D01*
X61484611Y-17891854D01*
X61342588Y-17794814D01*
X61174000Y-17760674D01*
X61000600Y-17760674D01*
X61000600Y-17470326D01*
X61374000Y-17470326D01*
X61531496Y-17440691D01*
X61598400Y-17397639D01*
X61598400Y-17547000D01*
X61631897Y-17715400D01*
X61638485Y-17748521D01*
X61752638Y-17919362D01*
X65916400Y-22083125D01*
X65916400Y-24668270D01*
X65828733Y-24755784D01*
X65718126Y-25022156D01*
X65717874Y-25310579D01*
X65828016Y-25577143D01*
X66031784Y-25781267D01*
X66298156Y-25891874D01*
X66586579Y-25892126D01*
X66853143Y-25781984D01*
X66963369Y-25671950D01*
X67187156Y-25764874D01*
X67475579Y-25765126D01*
X67742143Y-25654984D01*
X67946267Y-25451216D01*
X68056874Y-25184844D01*
X68057126Y-24896421D01*
X67946984Y-24629857D01*
X67743216Y-24425733D01*
X67477600Y-24315440D01*
X67477600Y-22392408D01*
X73745096Y-28659905D01*
X73745099Y-28659907D01*
X74960191Y-29875000D01*
X74000849Y-29875000D01*
X73977221Y-29839638D01*
X73892363Y-29712638D01*
X70498362Y-26318638D01*
X70327521Y-26204485D01*
X70126000Y-26164400D01*
X53706205Y-26164400D01*
X53747000Y-26065911D01*
X53747000Y-25327250D01*
X53588750Y-25169000D01*
X53051500Y-25169000D01*
X53051500Y-25189000D01*
X52926500Y-25189000D01*
X52926500Y-25169000D01*
X52897326Y-25169000D01*
X52897326Y-24911000D01*
X52926500Y-24911000D01*
X52926500Y-23665250D01*
X53051500Y-23665250D01*
X53051500Y-24911000D01*
X53588750Y-24911000D01*
X53747000Y-24752750D01*
X53747000Y-24014089D01*
X53650632Y-23781435D01*
X53472566Y-23603369D01*
X53239912Y-23507000D01*
X53209750Y-23507000D01*
X53051500Y-23665250D01*
X52926500Y-23665250D01*
X52768250Y-23507000D01*
X52738088Y-23507000D01*
X52505434Y-23603369D01*
X52402129Y-23706674D01*
X52214000Y-23706674D01*
X52056504Y-23736309D01*
X52015042Y-23762989D01*
X51982588Y-23740814D01*
X51814000Y-23706674D01*
X51564000Y-23706674D01*
X51406504Y-23736309D01*
X51365042Y-23762989D01*
X51332588Y-23740814D01*
X51164000Y-23706674D01*
X50914000Y-23706674D01*
X50756504Y-23736309D01*
X50715042Y-23762989D01*
X50682588Y-23740814D01*
X50514000Y-23706674D01*
X50264000Y-23706674D01*
X50106504Y-23736309D01*
X50065042Y-23762989D01*
X50032588Y-23740814D01*
X49864000Y-23706674D01*
X49614000Y-23706674D01*
X49456504Y-23736309D01*
X49415042Y-23762989D01*
X49382588Y-23740814D01*
X49214000Y-23706674D01*
X49025871Y-23706674D01*
X48922566Y-23603369D01*
X48689912Y-23507000D01*
X48659750Y-23507000D01*
X48501500Y-23665250D01*
X48501500Y-24911000D01*
X48530674Y-24911000D01*
X48530674Y-25169000D01*
X48501500Y-25169000D01*
X48501500Y-25189000D01*
X48376500Y-25189000D01*
X48376500Y-25169000D01*
X48347326Y-25169000D01*
X48347326Y-24911000D01*
X48376500Y-24911000D01*
X48376500Y-23665250D01*
X48218250Y-23507000D01*
X48188088Y-23507000D01*
X47955434Y-23603369D01*
X47852129Y-23706674D01*
X47665600Y-23706674D01*
X47665600Y-20875650D01*
X47726500Y-20814750D01*
X47726500Y-19569000D01*
X47697326Y-19569000D01*
X47697326Y-19311000D01*
X47726500Y-19311000D01*
X47726500Y-19291000D01*
X47851500Y-19291000D01*
X47851500Y-19311000D01*
X47880674Y-19311000D01*
X47880674Y-19569000D01*
X47851500Y-19569000D01*
X47851500Y-20814750D01*
X48009750Y-20973000D01*
X48039912Y-20973000D01*
X48272566Y-20876631D01*
X48375871Y-20773326D01*
X48564000Y-20773326D01*
X48721496Y-20743691D01*
X48762958Y-20717011D01*
X48795412Y-20739186D01*
X48964000Y-20773326D01*
X49214000Y-20773326D01*
X49371496Y-20743691D01*
X49412958Y-20717011D01*
X49445412Y-20739186D01*
X49614000Y-20773326D01*
X49864000Y-20773326D01*
X50021496Y-20743691D01*
X50062958Y-20717011D01*
X50095412Y-20739186D01*
X50264000Y-20773326D01*
X50514000Y-20773326D01*
X50671496Y-20743691D01*
X50712958Y-20717011D01*
X50745412Y-20739186D01*
X50914000Y-20773326D01*
X51164000Y-20773326D01*
X51321496Y-20743691D01*
X51362958Y-20717011D01*
X51395412Y-20739186D01*
X51564000Y-20773326D01*
X51814000Y-20773326D01*
X51971496Y-20743691D01*
X52012958Y-20717011D01*
X52045412Y-20739186D01*
X52214000Y-20773326D01*
X52464000Y-20773326D01*
X52621496Y-20743691D01*
X52662958Y-20717011D01*
X52695412Y-20739186D01*
X52864000Y-20773326D01*
X53114000Y-20773326D01*
X53271496Y-20743691D01*
X53416146Y-20650611D01*
X53513186Y-20508588D01*
X53547326Y-20340000D01*
X53547326Y-19231250D01*
X57096300Y-19231250D01*
X57096300Y-19819912D01*
X57192669Y-20052566D01*
X57370735Y-20230632D01*
X57603389Y-20327000D01*
X58142050Y-20327000D01*
X58300300Y-20168750D01*
X58300300Y-19073000D01*
X57254550Y-19073000D01*
X57096300Y-19231250D01*
X53547326Y-19231250D01*
X53547326Y-18540000D01*
X53517691Y-18382504D01*
X53515600Y-18379255D01*
X53515600Y-18317000D01*
X53475515Y-18115479D01*
X53443850Y-18068088D01*
X57096300Y-18068088D01*
X57096300Y-18656750D01*
X57254550Y-18815000D01*
X58300300Y-18815000D01*
X58300300Y-17719250D01*
X58142050Y-17561000D01*
X57603389Y-17561000D01*
X57370735Y-17657368D01*
X57192669Y-17835434D01*
X57096300Y-18068088D01*
X53443850Y-18068088D01*
X53361362Y-17944638D01*
X53107365Y-17690641D01*
X53107363Y-17690638D01*
X53099364Y-17682640D01*
X53099362Y-17682637D01*
X48997324Y-13580600D01*
X49539876Y-13580600D01*
X51943637Y-15984362D01*
G36*
X23341000Y-15183002D02*
X23404258Y-15183002D01*
X23359728Y-15218816D01*
X23464942Y-15482224D01*
X23522463Y-15537211D01*
X23519123Y-15554000D01*
X23559208Y-15755521D01*
X23591601Y-15804000D01*
X23559208Y-15852479D01*
X23519123Y-16054000D01*
X23559208Y-16255521D01*
X23673361Y-16426362D01*
X23844202Y-16540515D01*
X24045723Y-16580600D01*
X24575964Y-16580600D01*
X24577550Y-16588575D01*
X24587485Y-16638521D01*
X24701638Y-16809362D01*
X24950982Y-17058707D01*
X24950874Y-17182579D01*
X25061016Y-17449143D01*
X25264784Y-17653267D01*
X25531156Y-17763874D01*
X25819579Y-17764126D01*
X26086143Y-17653984D01*
X26290267Y-17450216D01*
X26400874Y-17183844D01*
X26401126Y-16895421D01*
X26290984Y-16628857D01*
X26219529Y-16557277D01*
X26303798Y-16540515D01*
X26474639Y-16426362D01*
X26588792Y-16255521D01*
X26628877Y-16054000D01*
X26588792Y-15852479D01*
X26556399Y-15804000D01*
X26588792Y-15755521D01*
X26628877Y-15554000D01*
X26625537Y-15537211D01*
X26683058Y-15482224D01*
X26788272Y-15218816D01*
X26743742Y-15183002D01*
X26800400Y-15183002D01*
X26800400Y-17582876D01*
X23044876Y-21338400D01*
X23008537Y-21338400D01*
X23098874Y-21120844D01*
X23099126Y-20832421D01*
X22988984Y-20565857D01*
X22785216Y-20361733D01*
X22518844Y-20251126D01*
X22393742Y-20251017D01*
X21994325Y-19851600D01*
X23272270Y-19851600D01*
X23359784Y-19939267D01*
X23626156Y-20049874D01*
X23914579Y-20050126D01*
X24181143Y-19939984D01*
X24385267Y-19736216D01*
X24495874Y-19469844D01*
X24496126Y-19181421D01*
X24385984Y-18914857D01*
X24182216Y-18710733D01*
X23915844Y-18600126D01*
X23627421Y-18599874D01*
X23360857Y-18710016D01*
X23272319Y-18798400D01*
X23034716Y-18798400D01*
X23038143Y-18796984D01*
X23242267Y-18593216D01*
X23352874Y-18326844D01*
X23353126Y-18038421D01*
X23242984Y-17771857D01*
X23039216Y-17567733D01*
X22772844Y-17457126D01*
X22647741Y-17457017D01*
X22519600Y-17328876D01*
X22519600Y-15606124D01*
X23045125Y-15080600D01*
X23341000Y-15080600D01*
X23341000Y-15183002D01*
X23341000Y-15183002D01*
G37*
X23341000Y-15183002D02*
X23404258Y-15183002D01*
X23359728Y-15218816D01*
X23464942Y-15482224D01*
X23522463Y-15537211D01*
X23519123Y-15554000D01*
X23559208Y-15755521D01*
X23591601Y-15804000D01*
X23559208Y-15852479D01*
X23519123Y-16054000D01*
X23559208Y-16255521D01*
X23673361Y-16426362D01*
X23844202Y-16540515D01*
X24045723Y-16580600D01*
X24575964Y-16580600D01*
X24577550Y-16588575D01*
X24587485Y-16638521D01*
X24701638Y-16809362D01*
X24950982Y-17058707D01*
X24950874Y-17182579D01*
X25061016Y-17449143D01*
X25264784Y-17653267D01*
X25531156Y-17763874D01*
X25819579Y-17764126D01*
X26086143Y-17653984D01*
X26290267Y-17450216D01*
X26400874Y-17183844D01*
X26401126Y-16895421D01*
X26290984Y-16628857D01*
X26219529Y-16557277D01*
X26303798Y-16540515D01*
X26474639Y-16426362D01*
X26588792Y-16255521D01*
X26628877Y-16054000D01*
X26588792Y-15852479D01*
X26556399Y-15804000D01*
X26588792Y-15755521D01*
X26628877Y-15554000D01*
X26625537Y-15537211D01*
X26683058Y-15482224D01*
X26788272Y-15218816D01*
X26743742Y-15183002D01*
X26800400Y-15183002D01*
X26800400Y-17582876D01*
X23044876Y-21338400D01*
X23008537Y-21338400D01*
X23098874Y-21120844D01*
X23099126Y-20832421D01*
X22988984Y-20565857D01*
X22785216Y-20361733D01*
X22518844Y-20251126D01*
X22393742Y-20251017D01*
X21994325Y-19851600D01*
X23272270Y-19851600D01*
X23359784Y-19939267D01*
X23626156Y-20049874D01*
X23914579Y-20050126D01*
X24181143Y-19939984D01*
X24385267Y-19736216D01*
X24495874Y-19469844D01*
X24496126Y-19181421D01*
X24385984Y-18914857D01*
X24182216Y-18710733D01*
X23915844Y-18600126D01*
X23627421Y-18599874D01*
X23360857Y-18710016D01*
X23272319Y-18798400D01*
X23034716Y-18798400D01*
X23038143Y-18796984D01*
X23242267Y-18593216D01*
X23352874Y-18326844D01*
X23353126Y-18038421D01*
X23242984Y-17771857D01*
X23039216Y-17567733D01*
X22772844Y-17457126D01*
X22647741Y-17457017D01*
X22519600Y-17328876D01*
X22519600Y-15606124D01*
X23045125Y-15080600D01*
X23341000Y-15080600D01*
X23341000Y-15183002D01*
G36*
X46905733Y-16627784D02*
X46795126Y-16894156D01*
X46794874Y-17182579D01*
X46905016Y-17449143D01*
X47108784Y-17653267D01*
X47375156Y-17763874D01*
X47500259Y-17763983D01*
X47659998Y-17923722D01*
X47659998Y-17998748D01*
X47568250Y-17907000D01*
X47538088Y-17907000D01*
X47305434Y-18003369D01*
X47202129Y-18106674D01*
X47014000Y-18106674D01*
X46856504Y-18136309D01*
X46711854Y-18229389D01*
X46614814Y-18371412D01*
X46580674Y-18540000D01*
X46580674Y-18913400D01*
X46145902Y-18913400D01*
X46133691Y-18848504D01*
X46040611Y-18703854D01*
X45898588Y-18606814D01*
X45730000Y-18572674D01*
X45506600Y-18572674D01*
X45506600Y-17928000D01*
X45466515Y-17726479D01*
X45432544Y-17675638D01*
X45352362Y-17555637D01*
X45098364Y-17301640D01*
X45098362Y-17301637D01*
X44377324Y-16580600D01*
X46952999Y-16580600D01*
X46905733Y-16627784D01*
X46905733Y-16627784D01*
G37*
X46905733Y-16627784D02*
X46795126Y-16894156D01*
X46794874Y-17182579D01*
X46905016Y-17449143D01*
X47108784Y-17653267D01*
X47375156Y-17763874D01*
X47500259Y-17763983D01*
X47659998Y-17923722D01*
X47659998Y-17998748D01*
X47568250Y-17907000D01*
X47538088Y-17907000D01*
X47305434Y-18003369D01*
X47202129Y-18106674D01*
X47014000Y-18106674D01*
X46856504Y-18136309D01*
X46711854Y-18229389D01*
X46614814Y-18371412D01*
X46580674Y-18540000D01*
X46580674Y-18913400D01*
X46145902Y-18913400D01*
X46133691Y-18848504D01*
X46040611Y-18703854D01*
X45898588Y-18606814D01*
X45730000Y-18572674D01*
X45506600Y-18572674D01*
X45506600Y-17928000D01*
X45466515Y-17726479D01*
X45432544Y-17675638D01*
X45352362Y-17555637D01*
X45098364Y-17301640D01*
X45098362Y-17301637D01*
X44377324Y-16580600D01*
X46952999Y-16580600D01*
X46905733Y-16627784D01*
G36*
X59447000Y-8961326D02*
X60160602Y-8961326D01*
X60736638Y-9537363D01*
X60907479Y-9651515D01*
X61109000Y-9691600D01*
X62719674Y-9691600D01*
X62719674Y-9865000D01*
X62748628Y-10018875D01*
X62616368Y-10151135D01*
X62520000Y-10383789D01*
X62520000Y-10922450D01*
X62678248Y-11080698D01*
X62520000Y-11080698D01*
X62520000Y-11084000D01*
X62269844Y-10980126D01*
X62007000Y-10979896D01*
X62007000Y-10932998D01*
X61915252Y-10932998D01*
X62007000Y-10841250D01*
X62007000Y-10811088D01*
X61910631Y-10578434D01*
X61732565Y-10400368D01*
X61499911Y-10304000D01*
X60761250Y-10304000D01*
X60603000Y-10462250D01*
X60603000Y-10999500D01*
X60623000Y-10999500D01*
X60623000Y-11124500D01*
X60603000Y-11124500D01*
X60603000Y-11153674D01*
X60345000Y-11153674D01*
X60345000Y-11124500D01*
X59099250Y-11124500D01*
X58941000Y-11282750D01*
X58941000Y-11312912D01*
X59037369Y-11545566D01*
X59140674Y-11648871D01*
X59140674Y-11837000D01*
X59170309Y-11994496D01*
X59196989Y-12035958D01*
X59174814Y-12068412D01*
X59140674Y-12237000D01*
X59140674Y-12487000D01*
X59170309Y-12644496D01*
X59196989Y-12685958D01*
X59174814Y-12718412D01*
X59140674Y-12887000D01*
X59140674Y-13135400D01*
X59119639Y-13135400D01*
X58980216Y-12995733D01*
X58713844Y-12885126D01*
X58425421Y-12884874D01*
X58158857Y-12995016D01*
X57954733Y-13198784D01*
X57844126Y-13465156D01*
X57843874Y-13753579D01*
X57944694Y-13997581D01*
X57406293Y-14535982D01*
X57282421Y-14535874D01*
X57190600Y-14573814D01*
X57190600Y-10811088D01*
X58941000Y-10811088D01*
X58941000Y-10841250D01*
X59099250Y-10999500D01*
X60345000Y-10999500D01*
X60345000Y-10462250D01*
X60186750Y-10304000D01*
X59448089Y-10304000D01*
X59215435Y-10400368D01*
X59037369Y-10578434D01*
X58941000Y-10811088D01*
X57190600Y-10811088D01*
X57190600Y-8929600D01*
X59290333Y-8929600D01*
X59447000Y-8961326D01*
X59447000Y-8961326D01*
G37*
X59447000Y-8961326D02*
X60160602Y-8961326D01*
X60736638Y-9537363D01*
X60907479Y-9651515D01*
X61109000Y-9691600D01*
X62719674Y-9691600D01*
X62719674Y-9865000D01*
X62748628Y-10018875D01*
X62616368Y-10151135D01*
X62520000Y-10383789D01*
X62520000Y-10922450D01*
X62678248Y-11080698D01*
X62520000Y-11080698D01*
X62520000Y-11084000D01*
X62269844Y-10980126D01*
X62007000Y-10979896D01*
X62007000Y-10932998D01*
X61915252Y-10932998D01*
X62007000Y-10841250D01*
X62007000Y-10811088D01*
X61910631Y-10578434D01*
X61732565Y-10400368D01*
X61499911Y-10304000D01*
X60761250Y-10304000D01*
X60603000Y-10462250D01*
X60603000Y-10999500D01*
X60623000Y-10999500D01*
X60623000Y-11124500D01*
X60603000Y-11124500D01*
X60603000Y-11153674D01*
X60345000Y-11153674D01*
X60345000Y-11124500D01*
X59099250Y-11124500D01*
X58941000Y-11282750D01*
X58941000Y-11312912D01*
X59037369Y-11545566D01*
X59140674Y-11648871D01*
X59140674Y-11837000D01*
X59170309Y-11994496D01*
X59196989Y-12035958D01*
X59174814Y-12068412D01*
X59140674Y-12237000D01*
X59140674Y-12487000D01*
X59170309Y-12644496D01*
X59196989Y-12685958D01*
X59174814Y-12718412D01*
X59140674Y-12887000D01*
X59140674Y-13135400D01*
X59119639Y-13135400D01*
X58980216Y-12995733D01*
X58713844Y-12885126D01*
X58425421Y-12884874D01*
X58158857Y-12995016D01*
X57954733Y-13198784D01*
X57844126Y-13465156D01*
X57843874Y-13753579D01*
X57944694Y-13997581D01*
X57406293Y-14535982D01*
X57282421Y-14535874D01*
X57190600Y-14573814D01*
X57190600Y-10811088D01*
X58941000Y-10811088D01*
X58941000Y-10841250D01*
X59099250Y-10999500D01*
X60345000Y-10999500D01*
X60345000Y-10462250D01*
X60186750Y-10304000D01*
X59448089Y-10304000D01*
X59215435Y-10400368D01*
X59037369Y-10578434D01*
X58941000Y-10811088D01*
X57190600Y-10811088D01*
X57190600Y-8929600D01*
X59290333Y-8929600D01*
X59447000Y-8961326D01*
G36*
X23559208Y-11255521D02*
X23591601Y-11304000D01*
X23559208Y-11352479D01*
X23519123Y-11554000D01*
X23559208Y-11755521D01*
X23591601Y-11804000D01*
X23559208Y-11852479D01*
X23524414Y-12027400D01*
X22287000Y-12027400D01*
X22085906Y-12067400D01*
X22085479Y-12067485D01*
X21914637Y-12181638D01*
X21432822Y-12663453D01*
X21380396Y-12536571D01*
X21275692Y-12431684D01*
X21337267Y-12370216D01*
X21447874Y-12103844D01*
X21448126Y-11815421D01*
X21337984Y-11548857D01*
X21134216Y-11344733D01*
X21122600Y-11339910D01*
X21122600Y-11080600D01*
X23524414Y-11080600D01*
X23559208Y-11255521D01*
X23559208Y-11255521D01*
G37*
X23559208Y-11255521D02*
X23591601Y-11304000D01*
X23559208Y-11352479D01*
X23519123Y-11554000D01*
X23559208Y-11755521D01*
X23591601Y-11804000D01*
X23559208Y-11852479D01*
X23524414Y-12027400D01*
X22287000Y-12027400D01*
X22085906Y-12067400D01*
X22085479Y-12067485D01*
X21914637Y-12181638D01*
X21432822Y-12663453D01*
X21380396Y-12536571D01*
X21275692Y-12431684D01*
X21337267Y-12370216D01*
X21447874Y-12103844D01*
X21448126Y-11815421D01*
X21337984Y-11548857D01*
X21134216Y-11344733D01*
X21122600Y-11339910D01*
X21122600Y-11080600D01*
X23524414Y-11080600D01*
X23559208Y-11255521D01*
G36*
X28324400Y-11288124D02*
X28324400Y-11830675D01*
X27175362Y-10681638D01*
X27024149Y-10580600D01*
X27616876Y-10580600D01*
X28324400Y-11288124D01*
X28324400Y-11288124D01*
G37*
X28324400Y-11288124D02*
X28324400Y-11830675D01*
X27175362Y-10681638D01*
X27024149Y-10580600D01*
X27616876Y-10580600D01*
X28324400Y-11288124D01*
G36*
X49708434Y-10193158D02*
X49360664Y-10540928D01*
X49270253Y-10673249D01*
X49233787Y-10841350D01*
X49263801Y-11000857D01*
X49237258Y-11027400D01*
X46623586Y-11027400D01*
X46588792Y-10852479D01*
X46556399Y-10804000D01*
X46588792Y-10755521D01*
X46628877Y-10554000D01*
X46588792Y-10352479D01*
X46556399Y-10304000D01*
X46588792Y-10255521D01*
X46628877Y-10054000D01*
X46588792Y-9852479D01*
X46556399Y-9804000D01*
X46588792Y-9755521D01*
X46628877Y-9554000D01*
X46588792Y-9352479D01*
X46556399Y-9304000D01*
X46588792Y-9255521D01*
X46623586Y-9080600D01*
X48595876Y-9080600D01*
X49708434Y-10193158D01*
X49708434Y-10193158D01*
G37*
X49708434Y-10193158D02*
X49360664Y-10540928D01*
X49270253Y-10673249D01*
X49233787Y-10841350D01*
X49263801Y-11000857D01*
X49237258Y-11027400D01*
X46623586Y-11027400D01*
X46588792Y-10852479D01*
X46556399Y-10804000D01*
X46588792Y-10755521D01*
X46628877Y-10554000D01*
X46588792Y-10352479D01*
X46556399Y-10304000D01*
X46588792Y-10255521D01*
X46628877Y-10054000D01*
X46588792Y-9852479D01*
X46556399Y-9804000D01*
X46588792Y-9755521D01*
X46628877Y-9554000D01*
X46588792Y-9352479D01*
X46556399Y-9304000D01*
X46588792Y-9255521D01*
X46623586Y-9080600D01*
X48595876Y-9080600D01*
X49708434Y-10193158D01*
G36*
X51181637Y-7475362D02*
X51295554Y-7551479D01*
X51352479Y-7589515D01*
X51496222Y-7618107D01*
X51494126Y-7623156D01*
X51493874Y-7911579D01*
X51604016Y-8178143D01*
X51807784Y-8382267D01*
X52074156Y-8492874D01*
X52199259Y-8492983D01*
X52481638Y-8775363D01*
X52576296Y-8838611D01*
X52652479Y-8889515D01*
X52854000Y-8929600D01*
X53690333Y-8929600D01*
X53847000Y-8961326D01*
X55647000Y-8961326D01*
X55804496Y-8931691D01*
X55807745Y-8929600D01*
X56137400Y-8929600D01*
X56137400Y-10716890D01*
X56084611Y-10634854D01*
X55942588Y-10537814D01*
X55774000Y-10503674D01*
X53974000Y-10503674D01*
X53816504Y-10533309D01*
X53813255Y-10535400D01*
X53572124Y-10535400D01*
X50117324Y-7080600D01*
X50786876Y-7080600D01*
X51181637Y-7475362D01*
X51181637Y-7475362D01*
G37*
X51181637Y-7475362D02*
X51295554Y-7551479D01*
X51352479Y-7589515D01*
X51496222Y-7618107D01*
X51494126Y-7623156D01*
X51493874Y-7911579D01*
X51604016Y-8178143D01*
X51807784Y-8382267D01*
X52074156Y-8492874D01*
X52199259Y-8492983D01*
X52481638Y-8775363D01*
X52576296Y-8838611D01*
X52652479Y-8889515D01*
X52854000Y-8929600D01*
X53690333Y-8929600D01*
X53847000Y-8961326D01*
X55647000Y-8961326D01*
X55804496Y-8931691D01*
X55807745Y-8929600D01*
X56137400Y-8929600D01*
X56137400Y-10716890D01*
X56084611Y-10634854D01*
X55942588Y-10537814D01*
X55774000Y-10503674D01*
X53974000Y-10503674D01*
X53816504Y-10533309D01*
X53813255Y-10535400D01*
X53572124Y-10535400D01*
X50117324Y-7080600D01*
X50786876Y-7080600D01*
X51181637Y-7475362D01*
G36*
X53372250Y-7690500D02*
X54618000Y-7690500D01*
X54618000Y-7661326D01*
X54876000Y-7661326D01*
X54876000Y-7690500D01*
X54896000Y-7690500D01*
X54896000Y-7815500D01*
X54876000Y-7815500D01*
X54876000Y-7844674D01*
X54618000Y-7844674D01*
X54618000Y-7815500D01*
X53372250Y-7815500D01*
X53311350Y-7876400D01*
X53072125Y-7876400D01*
X52944018Y-7748293D01*
X52944121Y-7629600D01*
X53311350Y-7629600D01*
X53372250Y-7690500D01*
X53372250Y-7690500D01*
G37*
X53372250Y-7690500D02*
X54618000Y-7690500D01*
X54618000Y-7661326D01*
X54876000Y-7661326D01*
X54876000Y-7690500D01*
X54896000Y-7690500D01*
X54896000Y-7815500D01*
X54876000Y-7815500D01*
X54876000Y-7844674D01*
X54618000Y-7844674D01*
X54618000Y-7815500D01*
X53372250Y-7815500D01*
X53311350Y-7876400D01*
X53072125Y-7876400D01*
X52944018Y-7748293D01*
X52944121Y-7629600D01*
X53311350Y-7629600D01*
X53372250Y-7690500D01*
M02*
