%FSLAX45Y45*%
G04 Gerber Fmt 4.5, Leading zero omitted, Abs format (unit mm)*
G04 Created by KiCad (PCBNEW 4.0.7) date 07/02/21 11:45:39*
%MOMM*%
%LPD*%
G01*
G04 APERTURE LIST*
%ADD10C,0.127000*%
%ADD11C,0.150000*%
%ADD12C,0.200000*%
%ADD13C,0.300000*%
G04 APERTURE END LIST*
D10*
D11*
X8360000Y-4000000D02*
X0Y-4000000D01*
X8360000Y0D02*
X8360000Y-4000000D01*
X0Y0D02*
X8360000Y0D01*
X0Y-4000000D02*
X0Y0D01*
D12*
X1925300Y-2471300D02*
X1965300Y-2511300D01*
X1965300Y-2471300D02*
X1925300Y-2511300D01*
X1976100Y-2242700D02*
X2016100Y-2282700D01*
X2016100Y-2242700D02*
X1976100Y-2282700D01*
X2052300Y-1175900D02*
X2092300Y-1215900D01*
X2092300Y-1175900D02*
X2052300Y-1215900D01*
X2090400Y-2230000D02*
X2130400Y-2270000D01*
X2130400Y-2230000D02*
X2090400Y-2270000D01*
X2103100Y-1722000D02*
X2143100Y-1762000D01*
X2143100Y-1722000D02*
X2103100Y-1762000D01*
X2128500Y-1836300D02*
X2168500Y-1876300D01*
X2168500Y-1836300D02*
X2128500Y-1876300D01*
X2166600Y-2166500D02*
X2206600Y-2206500D01*
X2206600Y-2166500D02*
X2166600Y-2206500D01*
X2166600Y-2611000D02*
X2206600Y-2651000D01*
X2206600Y-2611000D02*
X2166600Y-2651000D01*
X2217400Y-2077600D02*
X2257400Y-2117600D01*
X2257400Y-2077600D02*
X2217400Y-2117600D01*
X2242800Y-1798200D02*
X2282800Y-1838200D01*
X2282800Y-1798200D02*
X2242800Y-1838200D01*
X2357100Y-1912500D02*
X2397100Y-1952500D01*
X2397100Y-1912500D02*
X2357100Y-1952500D01*
X2547600Y-1683900D02*
X2587600Y-1723900D01*
X2587600Y-1683900D02*
X2547600Y-1723900D01*
X2763500Y-2318900D02*
X2803500Y-2358900D01*
X2803500Y-2318900D02*
X2763500Y-2358900D01*
X3309600Y-2763400D02*
X3349600Y-2803400D01*
X3349600Y-2763400D02*
X3309600Y-2803400D01*
X4033500Y-2763400D02*
X4073500Y-2803400D01*
X4073500Y-2763400D02*
X4033500Y-2803400D01*
X4135100Y-1480700D02*
X4175100Y-1520700D01*
X4175100Y-1480700D02*
X4135100Y-1520700D01*
X4541500Y-2852300D02*
X4581500Y-2892300D01*
X4581500Y-2852300D02*
X4541500Y-2892300D01*
X4732000Y-1683900D02*
X4772000Y-1723900D01*
X4772000Y-1683900D02*
X4732000Y-1723900D01*
X5049500Y-2814200D02*
X5089500Y-2854200D01*
X5089500Y-2814200D02*
X5049500Y-2854200D01*
X5201900Y-756800D02*
X5241900Y-796800D01*
X5241900Y-756800D02*
X5201900Y-796800D01*
X5557500Y-2877700D02*
X5597500Y-2917700D01*
X5597500Y-2877700D02*
X5557500Y-2917700D01*
X5671800Y-756800D02*
X5711800Y-796800D01*
X5711800Y-756800D02*
X5671800Y-796800D01*
X5684500Y-566300D02*
X5724500Y-606300D01*
X5724500Y-566300D02*
X5684500Y-606300D01*
X5697200Y-426600D02*
X5737200Y-466600D01*
X5737200Y-426600D02*
X5697200Y-466600D01*
X5722600Y-1506100D02*
X5762600Y-1546100D01*
X5762600Y-1506100D02*
X5722600Y-1546100D01*
X5748000Y-629800D02*
X5788000Y-669800D01*
X5788000Y-629800D02*
X5748000Y-669800D01*
X5760700Y-363100D02*
X5800700Y-403100D01*
X5800700Y-363100D02*
X5760700Y-403100D01*
X5786100Y-490100D02*
X5826100Y-530100D01*
X5826100Y-490100D02*
X5786100Y-530100D01*
X5824200Y-299600D02*
X5864200Y-339600D01*
X5864200Y-299600D02*
X5824200Y-339600D01*
X5836900Y-1341000D02*
X5876900Y-1381000D01*
X5876900Y-1341000D02*
X5836900Y-1381000D01*
X5836900Y-1493400D02*
X5876900Y-1533400D01*
X5876900Y-1493400D02*
X5836900Y-1533400D01*
X5989300Y-2814200D02*
X6029300Y-2854200D01*
X6029300Y-2814200D02*
X5989300Y-2854200D01*
X6179800Y-820300D02*
X6219800Y-860300D01*
X6219800Y-820300D02*
X6179800Y-860300D01*
X6192500Y-1150500D02*
X6232500Y-1190500D01*
X6232500Y-1150500D02*
X6192500Y-1190500D01*
X6205200Y-1493400D02*
X6245200Y-1533400D01*
X6245200Y-1493400D02*
X6205200Y-1533400D01*
X6573500Y-2763400D02*
X6613500Y-2803400D01*
X6613500Y-2763400D02*
X6573500Y-2803400D01*
X6624300Y-2496700D02*
X6664300Y-2536700D01*
X6664300Y-2496700D02*
X6624300Y-2536700D01*
X6713200Y-2484000D02*
X6753200Y-2524000D01*
X6753200Y-2484000D02*
X6713200Y-2524000D01*
X6751300Y-2712600D02*
X6791300Y-2752600D01*
X6791300Y-2712600D02*
X6751300Y-2752600D01*
X166900Y-2491300D02*
G75*
G03X166900Y-2491300I-25000J0D01*
G01*
X205000Y-1068900D02*
G75*
G03X205000Y-1068900I-25000J0D01*
G01*
X268500Y-1513400D02*
G75*
G03X268500Y-1513400I-25000J0D01*
G01*
X382800Y-2250000D02*
G75*
G03X382800Y-2250000I-25000J0D01*
G01*
X535200Y-1234000D02*
G75*
G03X535200Y-1234000I-25000J0D01*
G01*
X662200Y-2567500D02*
G75*
G03X662200Y-2567500I-25000J0D01*
G01*
X801900Y-2351600D02*
G75*
G03X801900Y-2351600I-25000J0D01*
G01*
X865400Y-2821500D02*
G75*
G03X865400Y-2821500I-25000J0D01*
G01*
X992400Y-2186500D02*
G75*
G03X992400Y-2186500I-25000J0D01*
G01*
X1043200Y-1361000D02*
G75*
G03X1043200Y-1361000I-25000J0D01*
G01*
X1221000Y-2529400D02*
G75*
G03X1221000Y-2529400I-25000J0D01*
G01*
X1259100Y-472000D02*
G75*
G03X1259100Y-472000I-25000J0D01*
G01*
X1259100Y-751400D02*
G75*
G03X1259100Y-751400I-25000J0D01*
G01*
X1424200Y-2224600D02*
G75*
G03X1424200Y-2224600I-25000J0D01*
G01*
X1538500Y-1373700D02*
G75*
G03X1538500Y-1373700I-25000J0D01*
G01*
X1563900Y-2821500D02*
G75*
G03X1563900Y-2821500I-25000J0D01*
G01*
X1602000Y-853000D02*
G75*
G03X1602000Y-853000I-25000J0D01*
G01*
X1678200Y-472000D02*
G75*
G03X1678200Y-472000I-25000J0D01*
G01*
X1792500Y-2618300D02*
G75*
G03X1792500Y-2618300I-25000J0D01*
G01*
X1856000Y-1996000D02*
G75*
G03X1856000Y-1996000I-25000J0D01*
G01*
X1957600Y-2897700D02*
G75*
G03X1957600Y-2897700I-25000J0D01*
G01*
X2008400Y-243400D02*
G75*
G03X2008400Y-243400I-25000J0D01*
G01*
X2071900Y-713300D02*
G75*
G03X2071900Y-713300I-25000J0D01*
G01*
X2097300Y-1297500D02*
G75*
G03X2097300Y-1297500I-25000J0D01*
G01*
X2148100Y-2796100D02*
G75*
G03X2148100Y-2796100I-25000J0D01*
G01*
X2173500Y-459300D02*
G75*
G03X2173500Y-459300I-25000J0D01*
G01*
X2262400Y-916500D02*
G75*
G03X2262400Y-916500I-25000J0D01*
G01*
X2275100Y-1145100D02*
G75*
G03X2275100Y-1145100I-25000J0D01*
G01*
X2402100Y-2910400D02*
G75*
G03X2402100Y-2910400I-25000J0D01*
G01*
X2478300Y-218000D02*
G75*
G03X2478300Y-218000I-25000J0D01*
G01*
X2503700Y-1805500D02*
G75*
G03X2503700Y-1805500I-25000J0D01*
G01*
X2567200Y-2745300D02*
G75*
G03X2567200Y-2745300I-25000J0D01*
G01*
X2656100Y-2453200D02*
G75*
G03X2656100Y-2453200I-25000J0D01*
G01*
X2833900Y-1132400D02*
G75*
G03X2833900Y-1132400I-25000J0D01*
G01*
X2948200Y-2542100D02*
G75*
G03X2948200Y-2542100I-25000J0D01*
G01*
X2999000Y-497400D02*
G75*
G03X2999000Y-497400I-25000J0D01*
G01*
X3024400Y-2326200D02*
G75*
G03X3024400Y-2326200I-25000J0D01*
G01*
X3075200Y-2846900D02*
G75*
G03X3075200Y-2846900I-25000J0D01*
G01*
X3126000Y-2059500D02*
G75*
G03X3126000Y-2059500I-25000J0D01*
G01*
X3227600Y-726000D02*
G75*
G03X3227600Y-726000I-25000J0D01*
G01*
X3380000Y-1335600D02*
G75*
G03X3380000Y-1335600I-25000J0D01*
G01*
X3405400Y-1919800D02*
G75*
G03X3405400Y-1919800I-25000J0D01*
G01*
X3405400Y-2364300D02*
G75*
G03X3405400Y-2364300I-25000J0D01*
G01*
X3519700Y-497400D02*
G75*
G03X3519700Y-497400I-25000J0D01*
G01*
X3532400Y-941900D02*
G75*
G03X3532400Y-941900I-25000J0D01*
G01*
X3557800Y-2707200D02*
G75*
G03X3557800Y-2707200I-25000J0D01*
G01*
X3583200Y-2110300D02*
G75*
G03X3583200Y-2110300I-25000J0D01*
G01*
X3786400Y-726000D02*
G75*
G03X3786400Y-726000I-25000J0D01*
G01*
X3786400Y-1919800D02*
G75*
G03X3786400Y-1919800I-25000J0D01*
G01*
X3875300Y-2377000D02*
G75*
G03X3875300Y-2377000I-25000J0D01*
G01*
X3888000Y-1335600D02*
G75*
G03X3888000Y-1335600I-25000J0D01*
G01*
X4015000Y-2135700D02*
G75*
G03X4015000Y-2135700I-25000J0D01*
G01*
X4167400Y-941900D02*
G75*
G03X4167400Y-941900I-25000J0D01*
G01*
X4192800Y-497400D02*
G75*
G03X4192800Y-497400I-25000J0D01*
G01*
X4192800Y-1919800D02*
G75*
G03X4192800Y-1919800I-25000J0D01*
G01*
X4294400Y-2745300D02*
G75*
G03X4294400Y-2745300I-25000J0D01*
G01*
X4307100Y-2173800D02*
G75*
G03X4307100Y-2173800I-25000J0D01*
G01*
X4434100Y-2542100D02*
G75*
G03X4434100Y-2542100I-25000J0D01*
G01*
X4637300Y-1780100D02*
G75*
G03X4637300Y-1780100I-25000J0D01*
G01*
X4815100Y-1005400D02*
G75*
G03X4815100Y-1005400I-25000J0D01*
G01*
X4992900Y-2148400D02*
G75*
G03X4992900Y-2148400I-25000J0D01*
G01*
X5094500Y-738700D02*
G75*
G03X5094500Y-738700I-25000J0D01*
G01*
X5145300Y-1551500D02*
G75*
G03X5145300Y-1551500I-25000J0D01*
G01*
X5170700Y-2326200D02*
G75*
G03X5170700Y-2326200I-25000J0D01*
G01*
X5513600Y-1996000D02*
G75*
G03X5513600Y-1996000I-25000J0D01*
G01*
X5513600Y-2262700D02*
G75*
G03X5513600Y-2262700I-25000J0D01*
G01*
X5513600Y-2554800D02*
G75*
G03X5513600Y-2554800I-25000J0D01*
G01*
X5805700Y-1195900D02*
G75*
G03X5805700Y-1195900I-25000J0D01*
G01*
X5805700Y-2123000D02*
G75*
G03X5805700Y-2123000I-25000J0D01*
G01*
X5818400Y-2427800D02*
G75*
G03X5818400Y-2427800I-25000J0D01*
G01*
X6250200Y-2338900D02*
G75*
G03X6250200Y-2338900I-25000J0D01*
G01*
X6339100Y-2580200D02*
G75*
G03X6339100Y-2580200I-25000J0D01*
G01*
X6351800Y-205300D02*
G75*
G03X6351800Y-205300I-25000J0D01*
G01*
X6351800Y-1284800D02*
G75*
G03X6351800Y-1284800I-25000J0D01*
G01*
X6415300Y-2859600D02*
G75*
G03X6415300Y-2859600I-25000J0D01*
G01*
X6453400Y-2097600D02*
G75*
G03X6453400Y-2097600I-25000J0D01*
G01*
X6605800Y-408500D02*
G75*
G03X6605800Y-408500I-25000J0D01*
G01*
X6707400Y-1246700D02*
G75*
G03X6707400Y-1246700I-25000J0D01*
G01*
X6745500Y-1805500D02*
G75*
G03X6745500Y-1805500I-25000J0D01*
G01*
X6809000Y-2338900D02*
G75*
G03X6809000Y-2338900I-25000J0D01*
G01*
X6923300Y-522800D02*
G75*
G03X6923300Y-522800I-25000J0D01*
G01*
X6923300Y-903800D02*
G75*
G03X6923300Y-903800I-25000J0D01*
G01*
X7037600Y-2567500D02*
G75*
G03X7037600Y-2567500I-25000J0D01*
G01*
X7050300Y-1488000D02*
G75*
G03X7050300Y-1488000I-25000J0D01*
G01*
X7278900Y-2021400D02*
G75*
G03X7278900Y-2021400I-25000J0D01*
G01*
X7520200Y-1259400D02*
G75*
G03X7520200Y-1259400I-25000J0D01*
G01*
X7647200Y-1729300D02*
G75*
G03X7647200Y-1729300I-25000J0D01*
G01*
X7672600Y-2389700D02*
G75*
G03X7672600Y-2389700I-25000J0D01*
G01*
X8040900Y-1488000D02*
G75*
G03X8040900Y-1488000I-25000J0D01*
G01*
X8129800Y-1043500D02*
G75*
G03X8129800Y-1043500I-25000J0D01*
G01*
X8180600Y-2199200D02*
G75*
G03X8180600Y-2199200I-25000J0D01*
G01*
X640000Y-305000D02*
X640000Y-915000D01*
X335000Y-610000D02*
X945000Y-610000D01*
X7580000Y-305000D02*
X7580000Y-915000D01*
X7275000Y-610000D02*
X7885000Y-610000D01*
D13*
X263929Y-4473214D02*
X263929Y-4173214D01*
X335357Y-4173214D01*
X378214Y-4187500D01*
X406786Y-4216072D01*
X421071Y-4244643D01*
X435357Y-4301786D01*
X435357Y-4344643D01*
X421071Y-4401786D01*
X406786Y-4430357D01*
X378214Y-4458929D01*
X335357Y-4473214D01*
X263929Y-4473214D01*
X563929Y-4473214D02*
X563929Y-4273214D01*
X563929Y-4330357D02*
X578214Y-4301786D01*
X592500Y-4287500D01*
X621071Y-4273214D01*
X649643Y-4273214D01*
X749643Y-4473214D02*
X749643Y-4273214D01*
X749643Y-4173214D02*
X735357Y-4187500D01*
X749643Y-4201786D01*
X763928Y-4187500D01*
X749643Y-4173214D01*
X749643Y-4201786D01*
X935357Y-4473214D02*
X906786Y-4458929D01*
X892500Y-4430357D01*
X892500Y-4173214D01*
X1092500Y-4473214D02*
X1063929Y-4458929D01*
X1049643Y-4430357D01*
X1049643Y-4173214D01*
X1435357Y-4473214D02*
X1435357Y-4173214D01*
X1535357Y-4387500D01*
X1635357Y-4173214D01*
X1635357Y-4473214D01*
X1906786Y-4473214D02*
X1906786Y-4316072D01*
X1892500Y-4287500D01*
X1863928Y-4273214D01*
X1806786Y-4273214D01*
X1778214Y-4287500D01*
X1906786Y-4458929D02*
X1878214Y-4473214D01*
X1806786Y-4473214D01*
X1778214Y-4458929D01*
X1763928Y-4430357D01*
X1763928Y-4401786D01*
X1778214Y-4373214D01*
X1806786Y-4358929D01*
X1878214Y-4358929D01*
X1906786Y-4344643D01*
X2049643Y-4273214D02*
X2049643Y-4573214D01*
X2049643Y-4287500D02*
X2078214Y-4273214D01*
X2135357Y-4273214D01*
X2163929Y-4287500D01*
X2178214Y-4301786D01*
X2192500Y-4330357D01*
X2192500Y-4416072D01*
X2178214Y-4444643D01*
X2163929Y-4458929D01*
X2135357Y-4473214D01*
X2078214Y-4473214D01*
X2049643Y-4458929D01*
X2321071Y-4444643D02*
X2335357Y-4458929D01*
X2321071Y-4473214D01*
X2306786Y-4458929D01*
X2321071Y-4444643D01*
X2321071Y-4473214D01*
X2321071Y-4287500D02*
X2335357Y-4301786D01*
X2321071Y-4316072D01*
X2306786Y-4301786D01*
X2321071Y-4287500D01*
X2321071Y-4316072D01*
X-47500Y-4947500D02*
X-7500Y-4987500D01*
X-7500Y-4947500D02*
X-47500Y-4987500D01*
X321071Y-4803214D02*
X349643Y-4803214D01*
X378214Y-4817500D01*
X392500Y-4831786D01*
X406786Y-4860357D01*
X421071Y-4917500D01*
X421071Y-4988929D01*
X406786Y-5046072D01*
X392500Y-5074643D01*
X378214Y-5088929D01*
X349643Y-5103214D01*
X321071Y-5103214D01*
X292500Y-5088929D01*
X278214Y-5074643D01*
X263929Y-5046072D01*
X249643Y-4988929D01*
X249643Y-4917500D01*
X263929Y-4860357D01*
X278214Y-4831786D01*
X292500Y-4817500D01*
X321071Y-4803214D01*
X549643Y-5074643D02*
X563929Y-5088929D01*
X549643Y-5103214D01*
X535357Y-5088929D01*
X549643Y-5074643D01*
X549643Y-5103214D01*
X821071Y-4903214D02*
X821071Y-5103214D01*
X749643Y-4788929D02*
X678214Y-5003214D01*
X863928Y-5003214D01*
X1035357Y-4803214D02*
X1063929Y-4803214D01*
X1092500Y-4817500D01*
X1106786Y-4831786D01*
X1121071Y-4860357D01*
X1135357Y-4917500D01*
X1135357Y-4988929D01*
X1121071Y-5046072D01*
X1106786Y-5074643D01*
X1092500Y-5088929D01*
X1063929Y-5103214D01*
X1035357Y-5103214D01*
X1006786Y-5088929D01*
X992500Y-5074643D01*
X978214Y-5046072D01*
X963928Y-4988929D01*
X963928Y-4917500D01*
X978214Y-4860357D01*
X992500Y-4831786D01*
X1006786Y-4817500D01*
X1035357Y-4803214D01*
X1263929Y-5103214D02*
X1263929Y-4903214D01*
X1263929Y-4931786D02*
X1278214Y-4917500D01*
X1306786Y-4903214D01*
X1349643Y-4903214D01*
X1378214Y-4917500D01*
X1392500Y-4946072D01*
X1392500Y-5103214D01*
X1392500Y-4946072D02*
X1406786Y-4917500D01*
X1435357Y-4903214D01*
X1478214Y-4903214D01*
X1506786Y-4917500D01*
X1521071Y-4946072D01*
X1521071Y-5103214D01*
X1663928Y-5103214D02*
X1663928Y-4903214D01*
X1663928Y-4931786D02*
X1678214Y-4917500D01*
X1706786Y-4903214D01*
X1749643Y-4903214D01*
X1778214Y-4917500D01*
X1792500Y-4946072D01*
X1792500Y-5103214D01*
X1792500Y-4946072D02*
X1806786Y-4917500D01*
X1835357Y-4903214D01*
X1878214Y-4903214D01*
X1906786Y-4917500D01*
X1921071Y-4946072D01*
X1921071Y-5103214D01*
X2506786Y-4788929D02*
X2249643Y-5174643D01*
X2892500Y-4803214D02*
X2921071Y-4803214D01*
X2949643Y-4817500D01*
X2963928Y-4831786D01*
X2978214Y-4860357D01*
X2992500Y-4917500D01*
X2992500Y-4988929D01*
X2978214Y-5046072D01*
X2963928Y-5074643D01*
X2949643Y-5088929D01*
X2921071Y-5103214D01*
X2892500Y-5103214D01*
X2863928Y-5088929D01*
X2849643Y-5074643D01*
X2835357Y-5046072D01*
X2821071Y-4988929D01*
X2821071Y-4917500D01*
X2835357Y-4860357D01*
X2849643Y-4831786D01*
X2863928Y-4817500D01*
X2892500Y-4803214D01*
X3121071Y-5074643D02*
X3135357Y-5088929D01*
X3121071Y-5103214D01*
X3106786Y-5088929D01*
X3121071Y-5074643D01*
X3121071Y-5103214D01*
X3321071Y-4803214D02*
X3349643Y-4803214D01*
X3378214Y-4817500D01*
X3392500Y-4831786D01*
X3406785Y-4860357D01*
X3421071Y-4917500D01*
X3421071Y-4988929D01*
X3406785Y-5046072D01*
X3392500Y-5074643D01*
X3378214Y-5088929D01*
X3349643Y-5103214D01*
X3321071Y-5103214D01*
X3292500Y-5088929D01*
X3278214Y-5074643D01*
X3263928Y-5046072D01*
X3249643Y-4988929D01*
X3249643Y-4917500D01*
X3263928Y-4860357D01*
X3278214Y-4831786D01*
X3292500Y-4817500D01*
X3321071Y-4803214D01*
X3706785Y-5103214D02*
X3535357Y-5103214D01*
X3621071Y-5103214D02*
X3621071Y-4803214D01*
X3592500Y-4846072D01*
X3563928Y-4874643D01*
X3535357Y-4888929D01*
X3963928Y-4803214D02*
X3906785Y-4803214D01*
X3878214Y-4817500D01*
X3863928Y-4831786D01*
X3835357Y-4874643D01*
X3821071Y-4931786D01*
X3821071Y-5046072D01*
X3835357Y-5074643D01*
X3849643Y-5088929D01*
X3878214Y-5103214D01*
X3935357Y-5103214D01*
X3963928Y-5088929D01*
X3978214Y-5074643D01*
X3992500Y-5046072D01*
X3992500Y-4974643D01*
X3978214Y-4946072D01*
X3963928Y-4931786D01*
X3935357Y-4917500D01*
X3878214Y-4917500D01*
X3849643Y-4931786D01*
X3835357Y-4946072D01*
X3821071Y-4974643D01*
X4106786Y-4803214D02*
X4106786Y-4860357D01*
X4221071Y-4803214D02*
X4221071Y-4860357D01*
X4663928Y-5217500D02*
X4649643Y-5203214D01*
X4621071Y-5160357D01*
X4606786Y-5131786D01*
X4592500Y-5088929D01*
X4578214Y-5017500D01*
X4578214Y-4960357D01*
X4592500Y-4888929D01*
X4606786Y-4846072D01*
X4621071Y-4817500D01*
X4649643Y-4774643D01*
X4663928Y-4760357D01*
X4749643Y-4803214D02*
X4935357Y-4803214D01*
X4835357Y-4917500D01*
X4878214Y-4917500D01*
X4906786Y-4931786D01*
X4921071Y-4946072D01*
X4935357Y-4974643D01*
X4935357Y-5046072D01*
X4921071Y-5074643D01*
X4906786Y-5088929D01*
X4878214Y-5103214D01*
X4792500Y-5103214D01*
X4763928Y-5088929D01*
X4749643Y-5074643D01*
X5078214Y-5103214D02*
X5135357Y-5103214D01*
X5163928Y-5088929D01*
X5178214Y-5074643D01*
X5206786Y-5031786D01*
X5221071Y-4974643D01*
X5221071Y-4860357D01*
X5206786Y-4831786D01*
X5192500Y-4817500D01*
X5163928Y-4803214D01*
X5106786Y-4803214D01*
X5078214Y-4817500D01*
X5063928Y-4831786D01*
X5049643Y-4860357D01*
X5049643Y-4931786D01*
X5063928Y-4960357D01*
X5078214Y-4974643D01*
X5106786Y-4988929D01*
X5163928Y-4988929D01*
X5192500Y-4974643D01*
X5206786Y-4960357D01*
X5221071Y-4931786D01*
X5578214Y-5103214D02*
X5578214Y-4803214D01*
X5706785Y-5103214D02*
X5706785Y-4946072D01*
X5692500Y-4917500D01*
X5663928Y-4903214D01*
X5621071Y-4903214D01*
X5592500Y-4917500D01*
X5578214Y-4931786D01*
X5892500Y-5103214D02*
X5863928Y-5088929D01*
X5849643Y-5074643D01*
X5835357Y-5046072D01*
X5835357Y-4960357D01*
X5849643Y-4931786D01*
X5863928Y-4917500D01*
X5892500Y-4903214D01*
X5935357Y-4903214D01*
X5963928Y-4917500D01*
X5978214Y-4931786D01*
X5992500Y-4960357D01*
X5992500Y-5046072D01*
X5978214Y-5074643D01*
X5963928Y-5088929D01*
X5935357Y-5103214D01*
X5892500Y-5103214D01*
X6163928Y-5103214D02*
X6135357Y-5088929D01*
X6121071Y-5060357D01*
X6121071Y-4803214D01*
X6392500Y-5088929D02*
X6363928Y-5103214D01*
X6306786Y-5103214D01*
X6278214Y-5088929D01*
X6263928Y-5060357D01*
X6263928Y-4946072D01*
X6278214Y-4917500D01*
X6306786Y-4903214D01*
X6363928Y-4903214D01*
X6392500Y-4917500D01*
X6406786Y-4946072D01*
X6406786Y-4974643D01*
X6263928Y-5003214D01*
X6521071Y-5088929D02*
X6549643Y-5103214D01*
X6606786Y-5103214D01*
X6635357Y-5088929D01*
X6649643Y-5060357D01*
X6649643Y-5046072D01*
X6635357Y-5017500D01*
X6606786Y-5003214D01*
X6563928Y-5003214D01*
X6535357Y-4988929D01*
X6521071Y-4960357D01*
X6521071Y-4946072D01*
X6535357Y-4917500D01*
X6563928Y-4903214D01*
X6606786Y-4903214D01*
X6635357Y-4917500D01*
X6749643Y-5217500D02*
X6763928Y-5203214D01*
X6792500Y-5160357D01*
X6806786Y-5131786D01*
X6821071Y-5088929D01*
X6835357Y-5017500D01*
X6835357Y-4960357D01*
X6821071Y-4888929D01*
X6806786Y-4846072D01*
X6792500Y-4817500D01*
X6763928Y-4774643D01*
X6749643Y-4760357D01*
X-7500Y-5363500D02*
G75*
G03X-7500Y-5363500I-25000J0D01*
G01*
X321071Y-5199214D02*
X349643Y-5199214D01*
X378214Y-5213500D01*
X392500Y-5227786D01*
X406786Y-5256357D01*
X421071Y-5313500D01*
X421071Y-5384929D01*
X406786Y-5442072D01*
X392500Y-5470643D01*
X378214Y-5484929D01*
X349643Y-5499214D01*
X321071Y-5499214D01*
X292500Y-5484929D01*
X278214Y-5470643D01*
X263929Y-5442072D01*
X249643Y-5384929D01*
X249643Y-5313500D01*
X263929Y-5256357D01*
X278214Y-5227786D01*
X292500Y-5213500D01*
X321071Y-5199214D01*
X549643Y-5470643D02*
X563929Y-5484929D01*
X549643Y-5499214D01*
X535357Y-5484929D01*
X549643Y-5470643D01*
X549643Y-5499214D01*
X835357Y-5199214D02*
X692500Y-5199214D01*
X678214Y-5342072D01*
X692500Y-5327786D01*
X721071Y-5313500D01*
X792500Y-5313500D01*
X821071Y-5327786D01*
X835357Y-5342072D01*
X849643Y-5370643D01*
X849643Y-5442072D01*
X835357Y-5470643D01*
X821071Y-5484929D01*
X792500Y-5499214D01*
X721071Y-5499214D01*
X692500Y-5484929D01*
X678214Y-5470643D01*
X1035357Y-5199214D02*
X1063929Y-5199214D01*
X1092500Y-5213500D01*
X1106786Y-5227786D01*
X1121071Y-5256357D01*
X1135357Y-5313500D01*
X1135357Y-5384929D01*
X1121071Y-5442072D01*
X1106786Y-5470643D01*
X1092500Y-5484929D01*
X1063929Y-5499214D01*
X1035357Y-5499214D01*
X1006786Y-5484929D01*
X992500Y-5470643D01*
X978214Y-5442072D01*
X963928Y-5384929D01*
X963928Y-5313500D01*
X978214Y-5256357D01*
X992500Y-5227786D01*
X1006786Y-5213500D01*
X1035357Y-5199214D01*
X1263929Y-5499214D02*
X1263929Y-5299214D01*
X1263929Y-5327786D02*
X1278214Y-5313500D01*
X1306786Y-5299214D01*
X1349643Y-5299214D01*
X1378214Y-5313500D01*
X1392500Y-5342072D01*
X1392500Y-5499214D01*
X1392500Y-5342072D02*
X1406786Y-5313500D01*
X1435357Y-5299214D01*
X1478214Y-5299214D01*
X1506786Y-5313500D01*
X1521071Y-5342072D01*
X1521071Y-5499214D01*
X1663928Y-5499214D02*
X1663928Y-5299214D01*
X1663928Y-5327786D02*
X1678214Y-5313500D01*
X1706786Y-5299214D01*
X1749643Y-5299214D01*
X1778214Y-5313500D01*
X1792500Y-5342072D01*
X1792500Y-5499214D01*
X1792500Y-5342072D02*
X1806786Y-5313500D01*
X1835357Y-5299214D01*
X1878214Y-5299214D01*
X1906786Y-5313500D01*
X1921071Y-5342072D01*
X1921071Y-5499214D01*
X2506786Y-5184929D02*
X2249643Y-5570643D01*
X2892500Y-5199214D02*
X2921071Y-5199214D01*
X2949643Y-5213500D01*
X2963928Y-5227786D01*
X2978214Y-5256357D01*
X2992500Y-5313500D01*
X2992500Y-5384929D01*
X2978214Y-5442072D01*
X2963928Y-5470643D01*
X2949643Y-5484929D01*
X2921071Y-5499214D01*
X2892500Y-5499214D01*
X2863928Y-5484929D01*
X2849643Y-5470643D01*
X2835357Y-5442072D01*
X2821071Y-5384929D01*
X2821071Y-5313500D01*
X2835357Y-5256357D01*
X2849643Y-5227786D01*
X2863928Y-5213500D01*
X2892500Y-5199214D01*
X3121071Y-5470643D02*
X3135357Y-5484929D01*
X3121071Y-5499214D01*
X3106786Y-5484929D01*
X3121071Y-5470643D01*
X3121071Y-5499214D01*
X3321071Y-5199214D02*
X3349643Y-5199214D01*
X3378214Y-5213500D01*
X3392500Y-5227786D01*
X3406785Y-5256357D01*
X3421071Y-5313500D01*
X3421071Y-5384929D01*
X3406785Y-5442072D01*
X3392500Y-5470643D01*
X3378214Y-5484929D01*
X3349643Y-5499214D01*
X3321071Y-5499214D01*
X3292500Y-5484929D01*
X3278214Y-5470643D01*
X3263928Y-5442072D01*
X3249643Y-5384929D01*
X3249643Y-5313500D01*
X3263928Y-5256357D01*
X3278214Y-5227786D01*
X3292500Y-5213500D01*
X3321071Y-5199214D01*
X3535357Y-5227786D02*
X3549643Y-5213500D01*
X3578214Y-5199214D01*
X3649643Y-5199214D01*
X3678214Y-5213500D01*
X3692500Y-5227786D01*
X3706785Y-5256357D01*
X3706785Y-5284929D01*
X3692500Y-5327786D01*
X3521071Y-5499214D01*
X3706785Y-5499214D01*
X3892500Y-5199214D02*
X3921071Y-5199214D01*
X3949643Y-5213500D01*
X3963928Y-5227786D01*
X3978214Y-5256357D01*
X3992500Y-5313500D01*
X3992500Y-5384929D01*
X3978214Y-5442072D01*
X3963928Y-5470643D01*
X3949643Y-5484929D01*
X3921071Y-5499214D01*
X3892500Y-5499214D01*
X3863928Y-5484929D01*
X3849643Y-5470643D01*
X3835357Y-5442072D01*
X3821071Y-5384929D01*
X3821071Y-5313500D01*
X3835357Y-5256357D01*
X3849643Y-5227786D01*
X3863928Y-5213500D01*
X3892500Y-5199214D01*
X4106786Y-5199214D02*
X4106786Y-5256357D01*
X4221071Y-5199214D02*
X4221071Y-5256357D01*
X4663928Y-5613500D02*
X4649643Y-5599214D01*
X4621071Y-5556357D01*
X4606786Y-5527786D01*
X4592500Y-5484929D01*
X4578214Y-5413500D01*
X4578214Y-5356357D01*
X4592500Y-5284929D01*
X4606786Y-5242072D01*
X4621071Y-5213500D01*
X4649643Y-5170643D01*
X4663928Y-5156357D01*
X4792500Y-5499214D02*
X4849643Y-5499214D01*
X4878214Y-5484929D01*
X4892500Y-5470643D01*
X4921071Y-5427786D01*
X4935357Y-5370643D01*
X4935357Y-5256357D01*
X4921071Y-5227786D01*
X4906786Y-5213500D01*
X4878214Y-5199214D01*
X4821071Y-5199214D01*
X4792500Y-5213500D01*
X4778214Y-5227786D01*
X4763928Y-5256357D01*
X4763928Y-5327786D01*
X4778214Y-5356357D01*
X4792500Y-5370643D01*
X4821071Y-5384929D01*
X4878214Y-5384929D01*
X4906786Y-5370643D01*
X4921071Y-5356357D01*
X4935357Y-5327786D01*
X5221071Y-5499214D02*
X5049643Y-5499214D01*
X5135357Y-5499214D02*
X5135357Y-5199214D01*
X5106786Y-5242072D01*
X5078214Y-5270643D01*
X5049643Y-5284929D01*
X5578214Y-5499214D02*
X5578214Y-5199214D01*
X5706785Y-5499214D02*
X5706785Y-5342072D01*
X5692500Y-5313500D01*
X5663928Y-5299214D01*
X5621071Y-5299214D01*
X5592500Y-5313500D01*
X5578214Y-5327786D01*
X5892500Y-5499214D02*
X5863928Y-5484929D01*
X5849643Y-5470643D01*
X5835357Y-5442072D01*
X5835357Y-5356357D01*
X5849643Y-5327786D01*
X5863928Y-5313500D01*
X5892500Y-5299214D01*
X5935357Y-5299214D01*
X5963928Y-5313500D01*
X5978214Y-5327786D01*
X5992500Y-5356357D01*
X5992500Y-5442072D01*
X5978214Y-5470643D01*
X5963928Y-5484929D01*
X5935357Y-5499214D01*
X5892500Y-5499214D01*
X6163928Y-5499214D02*
X6135357Y-5484929D01*
X6121071Y-5456357D01*
X6121071Y-5199214D01*
X6392500Y-5484929D02*
X6363928Y-5499214D01*
X6306786Y-5499214D01*
X6278214Y-5484929D01*
X6263928Y-5456357D01*
X6263928Y-5342072D01*
X6278214Y-5313500D01*
X6306786Y-5299214D01*
X6363928Y-5299214D01*
X6392500Y-5313500D01*
X6406786Y-5342072D01*
X6406786Y-5370643D01*
X6263928Y-5399214D01*
X6521071Y-5484929D02*
X6549643Y-5499214D01*
X6606786Y-5499214D01*
X6635357Y-5484929D01*
X6649643Y-5456357D01*
X6649643Y-5442072D01*
X6635357Y-5413500D01*
X6606786Y-5399214D01*
X6563928Y-5399214D01*
X6535357Y-5384929D01*
X6521071Y-5356357D01*
X6521071Y-5342072D01*
X6535357Y-5313500D01*
X6563928Y-5299214D01*
X6606786Y-5299214D01*
X6635357Y-5313500D01*
X6749643Y-5613500D02*
X6763928Y-5599214D01*
X6792500Y-5556357D01*
X6806786Y-5527786D01*
X6821071Y-5484929D01*
X6835357Y-5413500D01*
X6835357Y-5356357D01*
X6821071Y-5284929D01*
X6806786Y-5242072D01*
X6792500Y-5213500D01*
X6763928Y-5170643D01*
X6749643Y-5156357D01*
X-312500Y-5454500D02*
X-312500Y-6064500D01*
X-617500Y-5759500D02*
X-7500Y-5759500D01*
X392500Y-5595214D02*
X335357Y-5595214D01*
X306786Y-5609500D01*
X292500Y-5623786D01*
X263929Y-5666643D01*
X249643Y-5723786D01*
X249643Y-5838071D01*
X263929Y-5866643D01*
X278214Y-5880929D01*
X306786Y-5895214D01*
X363928Y-5895214D01*
X392500Y-5880929D01*
X406786Y-5866643D01*
X421071Y-5838071D01*
X421071Y-5766643D01*
X406786Y-5738071D01*
X392500Y-5723786D01*
X363928Y-5709500D01*
X306786Y-5709500D01*
X278214Y-5723786D01*
X263929Y-5738071D01*
X249643Y-5766643D01*
X549643Y-5866643D02*
X563929Y-5880929D01*
X549643Y-5895214D01*
X535357Y-5880929D01*
X549643Y-5866643D01*
X549643Y-5895214D01*
X849643Y-5895214D02*
X678214Y-5895214D01*
X763928Y-5895214D02*
X763928Y-5595214D01*
X735357Y-5638071D01*
X706786Y-5666643D01*
X678214Y-5680929D01*
X1035357Y-5595214D02*
X1063929Y-5595214D01*
X1092500Y-5609500D01*
X1106786Y-5623786D01*
X1121071Y-5652357D01*
X1135357Y-5709500D01*
X1135357Y-5780929D01*
X1121071Y-5838071D01*
X1106786Y-5866643D01*
X1092500Y-5880929D01*
X1063929Y-5895214D01*
X1035357Y-5895214D01*
X1006786Y-5880929D01*
X992500Y-5866643D01*
X978214Y-5838071D01*
X963928Y-5780929D01*
X963928Y-5709500D01*
X978214Y-5652357D01*
X992500Y-5623786D01*
X1006786Y-5609500D01*
X1035357Y-5595214D01*
X1263929Y-5895214D02*
X1263929Y-5695214D01*
X1263929Y-5723786D02*
X1278214Y-5709500D01*
X1306786Y-5695214D01*
X1349643Y-5695214D01*
X1378214Y-5709500D01*
X1392500Y-5738071D01*
X1392500Y-5895214D01*
X1392500Y-5738071D02*
X1406786Y-5709500D01*
X1435357Y-5695214D01*
X1478214Y-5695214D01*
X1506786Y-5709500D01*
X1521071Y-5738071D01*
X1521071Y-5895214D01*
X1663928Y-5895214D02*
X1663928Y-5695214D01*
X1663928Y-5723786D02*
X1678214Y-5709500D01*
X1706786Y-5695214D01*
X1749643Y-5695214D01*
X1778214Y-5709500D01*
X1792500Y-5738071D01*
X1792500Y-5895214D01*
X1792500Y-5738071D02*
X1806786Y-5709500D01*
X1835357Y-5695214D01*
X1878214Y-5695214D01*
X1906786Y-5709500D01*
X1921071Y-5738071D01*
X1921071Y-5895214D01*
X2506786Y-5580929D02*
X2249643Y-5966643D01*
X2892500Y-5595214D02*
X2921071Y-5595214D01*
X2949643Y-5609500D01*
X2963928Y-5623786D01*
X2978214Y-5652357D01*
X2992500Y-5709500D01*
X2992500Y-5780929D01*
X2978214Y-5838071D01*
X2963928Y-5866643D01*
X2949643Y-5880929D01*
X2921071Y-5895214D01*
X2892500Y-5895214D01*
X2863928Y-5880929D01*
X2849643Y-5866643D01*
X2835357Y-5838071D01*
X2821071Y-5780929D01*
X2821071Y-5709500D01*
X2835357Y-5652357D01*
X2849643Y-5623786D01*
X2863928Y-5609500D01*
X2892500Y-5595214D01*
X3121071Y-5866643D02*
X3135357Y-5880929D01*
X3121071Y-5895214D01*
X3106786Y-5880929D01*
X3121071Y-5866643D01*
X3121071Y-5895214D01*
X3249643Y-5623786D02*
X3263928Y-5609500D01*
X3292500Y-5595214D01*
X3363928Y-5595214D01*
X3392500Y-5609500D01*
X3406785Y-5623786D01*
X3421071Y-5652357D01*
X3421071Y-5680929D01*
X3406785Y-5723786D01*
X3235357Y-5895214D01*
X3421071Y-5895214D01*
X3678214Y-5695214D02*
X3678214Y-5895214D01*
X3606785Y-5580929D02*
X3535357Y-5795214D01*
X3721071Y-5795214D01*
X3892500Y-5595214D02*
X3921071Y-5595214D01*
X3949643Y-5609500D01*
X3963928Y-5623786D01*
X3978214Y-5652357D01*
X3992500Y-5709500D01*
X3992500Y-5780929D01*
X3978214Y-5838071D01*
X3963928Y-5866643D01*
X3949643Y-5880929D01*
X3921071Y-5895214D01*
X3892500Y-5895214D01*
X3863928Y-5880929D01*
X3849643Y-5866643D01*
X3835357Y-5838071D01*
X3821071Y-5780929D01*
X3821071Y-5709500D01*
X3835357Y-5652357D01*
X3849643Y-5623786D01*
X3863928Y-5609500D01*
X3892500Y-5595214D01*
X4106786Y-5595214D02*
X4106786Y-5652357D01*
X4221071Y-5595214D02*
X4221071Y-5652357D01*
X4663928Y-6009500D02*
X4649643Y-5995214D01*
X4621071Y-5952357D01*
X4606786Y-5923786D01*
X4592500Y-5880929D01*
X4578214Y-5809500D01*
X4578214Y-5752357D01*
X4592500Y-5680929D01*
X4606786Y-5638071D01*
X4621071Y-5609500D01*
X4649643Y-5566643D01*
X4663928Y-5552357D01*
X4763928Y-5623786D02*
X4778214Y-5609500D01*
X4806786Y-5595214D01*
X4878214Y-5595214D01*
X4906786Y-5609500D01*
X4921071Y-5623786D01*
X4935357Y-5652357D01*
X4935357Y-5680929D01*
X4921071Y-5723786D01*
X4749643Y-5895214D01*
X4935357Y-5895214D01*
X5292500Y-5895214D02*
X5292500Y-5595214D01*
X5421071Y-5895214D02*
X5421071Y-5738071D01*
X5406786Y-5709500D01*
X5378214Y-5695214D01*
X5335357Y-5695214D01*
X5306786Y-5709500D01*
X5292500Y-5723786D01*
X5606785Y-5895214D02*
X5578214Y-5880929D01*
X5563928Y-5866643D01*
X5549643Y-5838071D01*
X5549643Y-5752357D01*
X5563928Y-5723786D01*
X5578214Y-5709500D01*
X5606785Y-5695214D01*
X5649643Y-5695214D01*
X5678214Y-5709500D01*
X5692500Y-5723786D01*
X5706785Y-5752357D01*
X5706785Y-5838071D01*
X5692500Y-5866643D01*
X5678214Y-5880929D01*
X5649643Y-5895214D01*
X5606785Y-5895214D01*
X5878214Y-5895214D02*
X5849643Y-5880929D01*
X5835357Y-5852357D01*
X5835357Y-5595214D01*
X6106786Y-5880929D02*
X6078214Y-5895214D01*
X6021071Y-5895214D01*
X5992500Y-5880929D01*
X5978214Y-5852357D01*
X5978214Y-5738071D01*
X5992500Y-5709500D01*
X6021071Y-5695214D01*
X6078214Y-5695214D01*
X6106786Y-5709500D01*
X6121071Y-5738071D01*
X6121071Y-5766643D01*
X5978214Y-5795214D01*
X6235357Y-5880929D02*
X6263928Y-5895214D01*
X6321071Y-5895214D01*
X6349643Y-5880929D01*
X6363928Y-5852357D01*
X6363928Y-5838071D01*
X6349643Y-5809500D01*
X6321071Y-5795214D01*
X6278214Y-5795214D01*
X6249643Y-5780929D01*
X6235357Y-5752357D01*
X6235357Y-5738071D01*
X6249643Y-5709500D01*
X6278214Y-5695214D01*
X6321071Y-5695214D01*
X6349643Y-5709500D01*
X6463928Y-6009500D02*
X6478214Y-5995214D01*
X6506786Y-5952357D01*
X6521071Y-5923786D01*
X6535357Y-5880929D01*
X6549643Y-5809500D01*
X6549643Y-5752357D01*
X6535357Y-5680929D01*
X6521071Y-5638071D01*
X6506786Y-5609500D01*
X6478214Y-5566643D01*
X6463928Y-5552357D01*
M02*
