G04 #@! TF.FileFunction,Legend,Top*
%FSLAX46Y46*%
G04 Gerber Fmt 4.6, Leading zero omitted, Abs format (unit mm)*
G04 Created by KiCad (PCBNEW 4.0.7) date 07/02/21 11:45:22*
%MOMM*%
%LPD*%
G01*
G04 APERTURE LIST*
%ADD10C,0.200000*%
%ADD11C,0.300000*%
%ADD12C,0.150000*%
%ADD13R,3.200000X2.600000*%
%ADD14R,1.700000X1.600000*%
%ADD15R,1.600000X1.700000*%
%ADD16R,1.800000X6.200000*%
%ADD17R,0.450000X2.000000*%
%ADD18R,2.000000X0.450000*%
%ADD19O,2.400000X0.403200*%
%ADD20R,1.500000X2.700000*%
%ADD21R,4.050000X2.800000*%
%ADD22C,6.300000*%
%ADD23C,0.254000*%
G04 APERTURE END LIST*
D10*
D11*
X76574679Y-26086286D02*
X76717536Y-26086286D01*
X76849679Y-26172000D01*
X76910394Y-26257714D01*
X76960394Y-26429143D01*
X76988965Y-26772000D01*
X76935394Y-27200571D01*
X76821108Y-27543429D01*
X76728251Y-27714857D01*
X76646108Y-27800571D01*
X76492536Y-27886286D01*
X76349679Y-27886286D01*
X76217537Y-27800571D01*
X76156822Y-27714857D01*
X76106822Y-27543429D01*
X76078251Y-27200571D01*
X76131822Y-26772000D01*
X76246108Y-26429143D01*
X76338965Y-26257714D01*
X76421108Y-26172000D01*
X76574679Y-26086286D01*
X78003250Y-26086286D02*
X78146107Y-26086286D01*
X78278250Y-26172000D01*
X78338965Y-26257714D01*
X78388965Y-26429143D01*
X78417536Y-26772000D01*
X78363965Y-27200571D01*
X78249679Y-27543429D01*
X78156822Y-27714857D01*
X78074679Y-27800571D01*
X77921107Y-27886286D01*
X77778250Y-27886286D01*
X77646108Y-27800571D01*
X77585393Y-27714857D01*
X77535393Y-27543429D01*
X77506822Y-27200571D01*
X77560393Y-26772000D01*
X77674679Y-26429143D01*
X77767536Y-26257714D01*
X77849679Y-26172000D01*
X78003250Y-26086286D01*
X79706821Y-27886286D02*
X78849678Y-27886286D01*
X79278250Y-27886286D02*
X79503250Y-26086286D01*
X79328250Y-26343429D01*
X79163964Y-26514857D01*
X79010393Y-26600571D01*
X80349678Y-27886286D02*
X80574678Y-26086286D01*
X81146106Y-26086286D01*
X81278250Y-26172000D01*
X81338964Y-26257714D01*
X81388964Y-26429143D01*
X81356821Y-26686286D01*
X81263964Y-26857714D01*
X81181821Y-26943429D01*
X81028249Y-27029143D01*
X80456821Y-27029143D01*
X82635392Y-27886286D02*
X81778249Y-27886286D01*
X82206821Y-27886286D02*
X82431821Y-26086286D01*
X82256821Y-26343429D01*
X82092535Y-26514857D01*
X81938964Y-26600571D01*
X1311108Y-27800571D02*
X1514679Y-27886286D01*
X1871822Y-27886286D01*
X2025394Y-27800571D01*
X2107537Y-27714857D01*
X2200393Y-27543429D01*
X2221822Y-27372000D01*
X2171823Y-27200571D01*
X2111108Y-27114857D01*
X1978965Y-27029143D01*
X1703965Y-26943429D01*
X1571822Y-26857714D01*
X1511108Y-26772000D01*
X1461108Y-26600571D01*
X1482536Y-26429143D01*
X1575394Y-26257714D01*
X1657536Y-26172000D01*
X1811108Y-26086286D01*
X2168250Y-26086286D01*
X2371822Y-26172000D01*
X3800393Y-26172000D02*
X3668250Y-26086286D01*
X3453964Y-26086286D01*
X3228965Y-26172000D01*
X3064678Y-26343429D01*
X2971822Y-26514857D01*
X2857536Y-26857714D01*
X2825393Y-27114857D01*
X2853965Y-27457714D01*
X2903964Y-27629143D01*
X3025394Y-27800571D01*
X3228964Y-27886286D01*
X3371821Y-27886286D01*
X3596822Y-27800571D01*
X3678965Y-27714857D01*
X3753965Y-27114857D01*
X3468250Y-27114857D01*
D10*
X1209524Y-31366667D02*
X1685715Y-31366667D01*
X1114286Y-31652381D02*
X1447619Y-30652381D01*
X1780953Y-31652381D01*
X2019048Y-30652381D02*
X2638096Y-30652381D01*
X2304762Y-31033333D01*
X2447620Y-31033333D01*
X2542858Y-31080952D01*
X2590477Y-31128571D01*
X2638096Y-31223810D01*
X2638096Y-31461905D01*
X2590477Y-31557143D01*
X2542858Y-31604762D01*
X2447620Y-31652381D01*
X2161905Y-31652381D01*
X2066667Y-31604762D01*
X2019048Y-31557143D01*
X3019048Y-30747619D02*
X3066667Y-30700000D01*
X3161905Y-30652381D01*
X3400001Y-30652381D01*
X3495239Y-30700000D01*
X3542858Y-30747619D01*
X3590477Y-30842857D01*
X3590477Y-30938095D01*
X3542858Y-31080952D01*
X2971429Y-31652381D01*
X3590477Y-31652381D01*
X21609524Y-31366667D02*
X22085715Y-31366667D01*
X21514286Y-31652381D02*
X21847619Y-30652381D01*
X22180953Y-31652381D01*
X22466667Y-30747619D02*
X22514286Y-30700000D01*
X22609524Y-30652381D01*
X22847620Y-30652381D01*
X22942858Y-30700000D01*
X22990477Y-30747619D01*
X23038096Y-30842857D01*
X23038096Y-30938095D01*
X22990477Y-31080952D01*
X22419048Y-31652381D01*
X23038096Y-31652381D01*
X23895239Y-30985714D02*
X23895239Y-31652381D01*
X23657143Y-30604762D02*
X23419048Y-31319048D01*
X24038096Y-31319048D01*
X41809524Y-31366667D02*
X42285715Y-31366667D01*
X41714286Y-31652381D02*
X42047619Y-30652381D01*
X42380953Y-31652381D01*
X43238096Y-31652381D02*
X42666667Y-31652381D01*
X42952381Y-31652381D02*
X42952381Y-30652381D01*
X42857143Y-30795238D01*
X42761905Y-30890476D01*
X42666667Y-30938095D01*
X44095239Y-30652381D02*
X43904762Y-30652381D01*
X43809524Y-30700000D01*
X43761905Y-30747619D01*
X43666667Y-30890476D01*
X43619048Y-31080952D01*
X43619048Y-31461905D01*
X43666667Y-31557143D01*
X43714286Y-31604762D01*
X43809524Y-31652381D01*
X44000001Y-31652381D01*
X44095239Y-31604762D01*
X44142858Y-31557143D01*
X44190477Y-31461905D01*
X44190477Y-31223810D01*
X44142858Y-31128571D01*
X44095239Y-31080952D01*
X44000001Y-31033333D01*
X43809524Y-31033333D01*
X43714286Y-31080952D01*
X43666667Y-31128571D01*
X43619048Y-31223810D01*
X62685714Y-31366667D02*
X63161905Y-31366667D01*
X62590476Y-31652381D02*
X62923809Y-30652381D01*
X63257143Y-31652381D01*
X63733333Y-31080952D02*
X63638095Y-31033333D01*
X63590476Y-30985714D01*
X63542857Y-30890476D01*
X63542857Y-30842857D01*
X63590476Y-30747619D01*
X63638095Y-30700000D01*
X63733333Y-30652381D01*
X63923810Y-30652381D01*
X64019048Y-30700000D01*
X64066667Y-30747619D01*
X64114286Y-30842857D01*
X64114286Y-30890476D01*
X64066667Y-30985714D01*
X64019048Y-31033333D01*
X63923810Y-31080952D01*
X63733333Y-31080952D01*
X63638095Y-31128571D01*
X63590476Y-31176190D01*
X63542857Y-31271429D01*
X63542857Y-31461905D01*
X63590476Y-31557143D01*
X63638095Y-31604762D01*
X63733333Y-31652381D01*
X63923810Y-31652381D01*
X64019048Y-31604762D01*
X64066667Y-31557143D01*
X64114286Y-31461905D01*
X64114286Y-31271429D01*
X64066667Y-31176190D01*
X64019048Y-31128571D01*
X63923810Y-31080952D01*
X80585714Y-31366667D02*
X81061905Y-31366667D01*
X80490476Y-31652381D02*
X80823809Y-30652381D01*
X81157143Y-31652381D01*
X82014286Y-31652381D02*
X81442857Y-31652381D01*
X81728571Y-31652381D02*
X81728571Y-30652381D01*
X81633333Y-30795238D01*
X81538095Y-30890476D01*
X81442857Y-30938095D01*
D11*
X30939858Y-2787143D02*
X31154144Y-2858571D01*
X31511287Y-2858571D01*
X31654144Y-2787143D01*
X31725573Y-2715714D01*
X31797001Y-2572857D01*
X31797001Y-2430000D01*
X31725573Y-2287143D01*
X31654144Y-2215714D01*
X31511287Y-2144286D01*
X31225573Y-2072857D01*
X31082715Y-2001429D01*
X31011287Y-1930000D01*
X30939858Y-1787143D01*
X30939858Y-1644286D01*
X31011287Y-1501429D01*
X31082715Y-1430000D01*
X31225573Y-1358571D01*
X31582715Y-1358571D01*
X31797001Y-1430000D01*
X32725572Y-2144286D02*
X32725572Y-2858571D01*
X32225572Y-1358571D02*
X32725572Y-2144286D01*
X33225572Y-1358571D01*
X33654143Y-2787143D02*
X33868429Y-2858571D01*
X34225572Y-2858571D01*
X34368429Y-2787143D01*
X34439858Y-2715714D01*
X34511286Y-2572857D01*
X34511286Y-2430000D01*
X34439858Y-2287143D01*
X34368429Y-2215714D01*
X34225572Y-2144286D01*
X33939858Y-2072857D01*
X33797000Y-2001429D01*
X33725572Y-1930000D01*
X33654143Y-1787143D01*
X33654143Y-1644286D01*
X33725572Y-1501429D01*
X33797000Y-1430000D01*
X33939858Y-1358571D01*
X34297000Y-1358571D01*
X34511286Y-1430000D01*
X34939857Y-1358571D02*
X35797000Y-1358571D01*
X35368429Y-2858571D02*
X35368429Y-1358571D01*
X36297000Y-2072857D02*
X36797000Y-2072857D01*
X37011286Y-2858571D02*
X36297000Y-2858571D01*
X36297000Y-1358571D01*
X37011286Y-1358571D01*
X37654143Y-2858571D02*
X37654143Y-1358571D01*
X38154143Y-2430000D01*
X38654143Y-1358571D01*
X38654143Y-2858571D01*
X41368429Y-2858571D02*
X40868429Y-2144286D01*
X40511286Y-2858571D02*
X40511286Y-1358571D01*
X41082714Y-1358571D01*
X41225572Y-1430000D01*
X41297000Y-1501429D01*
X41368429Y-1644286D01*
X41368429Y-1858571D01*
X41297000Y-2001429D01*
X41225572Y-2072857D01*
X41082714Y-2144286D01*
X40511286Y-2144286D01*
X42011286Y-2072857D02*
X42511286Y-2072857D01*
X42725572Y-2858571D02*
X42011286Y-2858571D01*
X42011286Y-1358571D01*
X42725572Y-1358571D01*
X43297000Y-2430000D02*
X44011286Y-2430000D01*
X43154143Y-2858571D02*
X43654143Y-1358571D01*
X44154143Y-2858571D01*
X45511286Y-2858571D02*
X45011286Y-2144286D01*
X44654143Y-2858571D02*
X44654143Y-1358571D01*
X45225571Y-1358571D01*
X45368429Y-1430000D01*
X45439857Y-1501429D01*
X45511286Y-1644286D01*
X45511286Y-1858571D01*
X45439857Y-2001429D01*
X45368429Y-2072857D01*
X45225571Y-2144286D01*
X44654143Y-2144286D01*
X47225571Y-2787143D02*
X47439857Y-2858571D01*
X47797000Y-2858571D01*
X47939857Y-2787143D01*
X48011286Y-2715714D01*
X48082714Y-2572857D01*
X48082714Y-2430000D01*
X48011286Y-2287143D01*
X47939857Y-2215714D01*
X47797000Y-2144286D01*
X47511286Y-2072857D01*
X47368428Y-2001429D01*
X47297000Y-1930000D01*
X47225571Y-1787143D01*
X47225571Y-1644286D01*
X47297000Y-1501429D01*
X47368428Y-1430000D01*
X47511286Y-1358571D01*
X47868428Y-1358571D01*
X48082714Y-1430000D01*
X48725571Y-2858571D02*
X48725571Y-1358571D01*
X49439857Y-2858571D02*
X49439857Y-1358571D01*
X49797000Y-1358571D01*
X50011285Y-1430000D01*
X50154143Y-1572857D01*
X50225571Y-1715714D01*
X50297000Y-2001429D01*
X50297000Y-2215714D01*
X50225571Y-2501429D01*
X50154143Y-2644286D01*
X50011285Y-2787143D01*
X49797000Y-2858571D01*
X49439857Y-2858571D01*
X50939857Y-2072857D02*
X51439857Y-2072857D01*
X51654143Y-2858571D02*
X50939857Y-2858571D01*
X50939857Y-1358571D01*
X51654143Y-1358571D01*
D12*
X8299000Y-20468000D02*
X8299000Y-15068000D01*
X4699000Y-20468000D02*
X4699000Y-15068000D01*
X16544700Y-16467500D02*
X16544700Y-12009800D01*
X16544700Y-12009800D02*
X19059300Y-12009800D01*
X19059300Y-12009800D02*
X19059300Y-16467500D01*
X19059300Y-16467500D02*
X16544700Y-16467500D01*
X61680500Y-20201300D02*
X57222800Y-20201300D01*
X57222800Y-20201300D02*
X57222800Y-17686700D01*
X57222800Y-17686700D02*
X61680500Y-17686700D01*
X61680500Y-17686700D02*
X61680500Y-20201300D01*
X65160300Y-7958500D02*
X65160300Y-12416200D01*
X65160300Y-12416200D02*
X62645700Y-12416200D01*
X62645700Y-12416200D02*
X62645700Y-7958500D01*
X62645700Y-7958500D02*
X65160300Y-7958500D01*
X16544700Y-11768500D02*
X16544700Y-7310800D01*
X16544700Y-7310800D02*
X19059300Y-7310800D01*
X19059300Y-7310800D02*
X19059300Y-11768500D01*
X19059300Y-11768500D02*
X16544700Y-11768500D01*
X46237300Y-18499500D02*
X46237300Y-22957200D01*
X46237300Y-22957200D02*
X43722700Y-22957200D01*
X43722700Y-22957200D02*
X43722700Y-18499500D01*
X43722700Y-18499500D02*
X46237300Y-18499500D01*
X48322095Y-22940000D02*
G75*
G03X48322095Y-22940000I-583095J0D01*
G01*
X46839000Y-23840000D02*
X46839000Y-20640000D01*
X46839000Y-20640000D02*
X53239000Y-20640000D01*
X53239000Y-20640000D02*
X53239000Y-23840000D01*
X53239000Y-23840000D02*
X46839000Y-23840000D01*
X58957095Y-16312000D02*
G75*
G03X58957095Y-16312000I-583095J0D01*
G01*
X59274000Y-17212000D02*
X56074000Y-17212000D01*
X56074000Y-17212000D02*
X56074000Y-10812000D01*
X56074000Y-10812000D02*
X59274000Y-10812000D01*
X59274000Y-10812000D02*
X59274000Y-17212000D01*
X58830095Y-7803000D02*
G75*
G03X58830095Y-7803000I-583095J0D01*
G01*
X59147000Y-8703000D02*
X55947000Y-8703000D01*
X55947000Y-8703000D02*
X55947000Y-2303000D01*
X55947000Y-2303000D02*
X59147000Y-2303000D01*
X59147000Y-2303000D02*
X59147000Y-8703000D01*
X42692034Y-14554000D02*
G75*
G03X42692034Y-14554000I-1118034J0D01*
G01*
X43574000Y-16554000D02*
X26574000Y-16554000D01*
X26574000Y-16554000D02*
X26574000Y-4054000D01*
X26574000Y-4054000D02*
X43574000Y-4054000D01*
X43574000Y-4054000D02*
X43574000Y-16554000D01*
X8988200Y-11730400D02*
X15985900Y-11730400D01*
X15985900Y-11730400D02*
X15985900Y-15629300D01*
X15985900Y-15629300D02*
X8988200Y-15629300D01*
X8988200Y-15629300D02*
X8988200Y-11730400D01*
X3284334Y-17904143D02*
X3236715Y-17951762D01*
X3093858Y-17999381D01*
X2998620Y-17999381D01*
X2855762Y-17951762D01*
X2760524Y-17856524D01*
X2712905Y-17761286D01*
X2665286Y-17570810D01*
X2665286Y-17427952D01*
X2712905Y-17237476D01*
X2760524Y-17142238D01*
X2855762Y-17047000D01*
X2998620Y-16999381D01*
X3093858Y-16999381D01*
X3236715Y-17047000D01*
X3284334Y-17094619D01*
X4236715Y-17999381D02*
X3665286Y-17999381D01*
X3951000Y-17999381D02*
X3951000Y-16999381D01*
X3855762Y-17142238D01*
X3760524Y-17237476D01*
X3665286Y-17285095D01*
X17635334Y-17777143D02*
X17587715Y-17824762D01*
X17444858Y-17872381D01*
X17349620Y-17872381D01*
X17206762Y-17824762D01*
X17111524Y-17729524D01*
X17063905Y-17634286D01*
X17016286Y-17443810D01*
X17016286Y-17300952D01*
X17063905Y-17110476D01*
X17111524Y-17015238D01*
X17206762Y-16920000D01*
X17349620Y-16872381D01*
X17444858Y-16872381D01*
X17587715Y-16920000D01*
X17635334Y-16967619D01*
X18016286Y-16967619D02*
X18063905Y-16920000D01*
X18159143Y-16872381D01*
X18397239Y-16872381D01*
X18492477Y-16920000D01*
X18540096Y-16967619D01*
X18587715Y-17062857D01*
X18587715Y-17158095D01*
X18540096Y-17300952D01*
X17968667Y-17872381D01*
X18587715Y-17872381D01*
X59291334Y-21460143D02*
X59243715Y-21507762D01*
X59100858Y-21555381D01*
X59005620Y-21555381D01*
X58862762Y-21507762D01*
X58767524Y-21412524D01*
X58719905Y-21317286D01*
X58672286Y-21126810D01*
X58672286Y-20983952D01*
X58719905Y-20793476D01*
X58767524Y-20698238D01*
X58862762Y-20603000D01*
X59005620Y-20555381D01*
X59100858Y-20555381D01*
X59243715Y-20603000D01*
X59291334Y-20650619D01*
X59624667Y-20555381D02*
X60243715Y-20555381D01*
X59910381Y-20936333D01*
X60053239Y-20936333D01*
X60148477Y-20983952D01*
X60196096Y-21031571D01*
X60243715Y-21126810D01*
X60243715Y-21364905D01*
X60196096Y-21460143D01*
X60148477Y-21507762D01*
X60053239Y-21555381D01*
X59767524Y-21555381D01*
X59672286Y-21507762D01*
X59624667Y-21460143D01*
X63736334Y-7490143D02*
X63688715Y-7537762D01*
X63545858Y-7585381D01*
X63450620Y-7585381D01*
X63307762Y-7537762D01*
X63212524Y-7442524D01*
X63164905Y-7347286D01*
X63117286Y-7156810D01*
X63117286Y-7013952D01*
X63164905Y-6823476D01*
X63212524Y-6728238D01*
X63307762Y-6633000D01*
X63450620Y-6585381D01*
X63545858Y-6585381D01*
X63688715Y-6633000D01*
X63736334Y-6680619D01*
X64593477Y-6918714D02*
X64593477Y-7585381D01*
X64355381Y-6537762D02*
X64117286Y-7252048D01*
X64736334Y-7252048D01*
X17635334Y-6855143D02*
X17587715Y-6902762D01*
X17444858Y-6950381D01*
X17349620Y-6950381D01*
X17206762Y-6902762D01*
X17111524Y-6807524D01*
X17063905Y-6712286D01*
X17016286Y-6521810D01*
X17016286Y-6378952D01*
X17063905Y-6188476D01*
X17111524Y-6093238D01*
X17206762Y-5998000D01*
X17349620Y-5950381D01*
X17444858Y-5950381D01*
X17587715Y-5998000D01*
X17635334Y-6045619D01*
X18540096Y-5950381D02*
X18063905Y-5950381D01*
X18016286Y-6426571D01*
X18063905Y-6378952D01*
X18159143Y-6331333D01*
X18397239Y-6331333D01*
X18492477Y-6378952D01*
X18540096Y-6426571D01*
X18587715Y-6521810D01*
X18587715Y-6759905D01*
X18540096Y-6855143D01*
X18492477Y-6902762D01*
X18397239Y-6950381D01*
X18159143Y-6950381D01*
X18063905Y-6902762D01*
X18016286Y-6855143D01*
X44432334Y-18031143D02*
X44384715Y-18078762D01*
X44241858Y-18126381D01*
X44146620Y-18126381D01*
X44003762Y-18078762D01*
X43908524Y-17983524D01*
X43860905Y-17888286D01*
X43813286Y-17697810D01*
X43813286Y-17554952D01*
X43860905Y-17364476D01*
X43908524Y-17269238D01*
X44003762Y-17174000D01*
X44146620Y-17126381D01*
X44241858Y-17126381D01*
X44384715Y-17174000D01*
X44432334Y-17221619D01*
X45289477Y-17126381D02*
X45099000Y-17126381D01*
X45003762Y-17174000D01*
X44956143Y-17221619D01*
X44860905Y-17364476D01*
X44813286Y-17554952D01*
X44813286Y-17935905D01*
X44860905Y-18031143D01*
X44908524Y-18078762D01*
X45003762Y-18126381D01*
X45194239Y-18126381D01*
X45289477Y-18078762D01*
X45337096Y-18031143D01*
X45384715Y-17935905D01*
X45384715Y-17697810D01*
X45337096Y-17602571D01*
X45289477Y-17554952D01*
X45194239Y-17507333D01*
X45003762Y-17507333D01*
X44908524Y-17554952D01*
X44860905Y-17602571D01*
X44813286Y-17697810D01*
X41082905Y-29334143D02*
X41035286Y-29381762D01*
X40892429Y-29429381D01*
X40797191Y-29429381D01*
X40654333Y-29381762D01*
X40559095Y-29286524D01*
X40511476Y-29191286D01*
X40463857Y-29000810D01*
X40463857Y-28857952D01*
X40511476Y-28667476D01*
X40559095Y-28572238D01*
X40654333Y-28477000D01*
X40797191Y-28429381D01*
X40892429Y-28429381D01*
X41035286Y-28477000D01*
X41082905Y-28524619D01*
X41701952Y-28429381D02*
X41892429Y-28429381D01*
X41987667Y-28477000D01*
X42082905Y-28572238D01*
X42130524Y-28762714D01*
X42130524Y-29096048D01*
X42082905Y-29286524D01*
X41987667Y-29381762D01*
X41892429Y-29429381D01*
X41701952Y-29429381D01*
X41606714Y-29381762D01*
X41511476Y-29286524D01*
X41463857Y-29096048D01*
X41463857Y-28762714D01*
X41511476Y-28572238D01*
X41606714Y-28477000D01*
X41701952Y-28429381D01*
X42559095Y-29429381D02*
X42559095Y-28429381D01*
X43130524Y-29429381D01*
X43130524Y-28429381D01*
X43606714Y-29429381D02*
X43606714Y-28429381D01*
X44178143Y-29429381D01*
X44178143Y-28429381D01*
X45178143Y-29429381D02*
X44606714Y-29429381D01*
X44892428Y-29429381D02*
X44892428Y-28429381D01*
X44797190Y-28572238D01*
X44701952Y-28667476D01*
X44606714Y-28715095D01*
X44980095Y-23603381D02*
X44980095Y-24412905D01*
X45027714Y-24508143D01*
X45075333Y-24555762D01*
X45170571Y-24603381D01*
X45361048Y-24603381D01*
X45456286Y-24555762D01*
X45503905Y-24508143D01*
X45551524Y-24412905D01*
X45551524Y-23603381D01*
X46551524Y-24603381D02*
X45980095Y-24603381D01*
X46265809Y-24603381D02*
X46265809Y-23603381D01*
X46170571Y-23746238D01*
X46075333Y-23841476D01*
X45980095Y-23889095D01*
X54886095Y-17634381D02*
X54886095Y-18443905D01*
X54933714Y-18539143D01*
X54981333Y-18586762D01*
X55076571Y-18634381D01*
X55267048Y-18634381D01*
X55362286Y-18586762D01*
X55409905Y-18539143D01*
X55457524Y-18443905D01*
X55457524Y-17634381D01*
X55886095Y-17729619D02*
X55933714Y-17682000D01*
X56028952Y-17634381D01*
X56267048Y-17634381D01*
X56362286Y-17682000D01*
X56409905Y-17729619D01*
X56457524Y-17824857D01*
X56457524Y-17920095D01*
X56409905Y-18062952D01*
X55838476Y-18634381D01*
X56457524Y-18634381D01*
X56918095Y-8998381D02*
X56918095Y-9807905D01*
X56965714Y-9903143D01*
X57013333Y-9950762D01*
X57108571Y-9998381D01*
X57299048Y-9998381D01*
X57394286Y-9950762D01*
X57441905Y-9903143D01*
X57489524Y-9807905D01*
X57489524Y-8998381D01*
X57870476Y-8998381D02*
X58489524Y-8998381D01*
X58156190Y-9379333D01*
X58299048Y-9379333D01*
X58394286Y-9426952D01*
X58441905Y-9474571D01*
X58489524Y-9569810D01*
X58489524Y-9807905D01*
X58441905Y-9903143D01*
X58394286Y-9950762D01*
X58299048Y-9998381D01*
X58013333Y-9998381D01*
X57918095Y-9950762D01*
X57870476Y-9903143D01*
X33812095Y-17006381D02*
X33812095Y-17815905D01*
X33859714Y-17911143D01*
X33907333Y-17958762D01*
X34002571Y-18006381D01*
X34193048Y-18006381D01*
X34288286Y-17958762D01*
X34335905Y-17911143D01*
X34383524Y-17815905D01*
X34383524Y-17006381D01*
X35288286Y-17339714D02*
X35288286Y-18006381D01*
X35050190Y-16958762D02*
X34812095Y-17673048D01*
X35431143Y-17673048D01*
X6880095Y-12046381D02*
X6880095Y-12855905D01*
X6927714Y-12951143D01*
X6975333Y-12998762D01*
X7070571Y-13046381D01*
X7261048Y-13046381D01*
X7356286Y-12998762D01*
X7403905Y-12951143D01*
X7451524Y-12855905D01*
X7451524Y-12046381D01*
X8403905Y-12046381D02*
X7927714Y-12046381D01*
X7880095Y-12522571D01*
X7927714Y-12474952D01*
X8022952Y-12427333D01*
X8261048Y-12427333D01*
X8356286Y-12474952D01*
X8403905Y-12522571D01*
X8451524Y-12617810D01*
X8451524Y-12855905D01*
X8403905Y-12951143D01*
X8356286Y-12998762D01*
X8261048Y-13046381D01*
X8022952Y-13046381D01*
X7927714Y-12998762D01*
X7880095Y-12951143D01*
X10293333Y-3394381D02*
X10293333Y-2394381D01*
X10626667Y-3108667D01*
X10960000Y-2394381D01*
X10960000Y-3394381D01*
X11864762Y-2394381D02*
X11674285Y-2394381D01*
X11579047Y-2442000D01*
X11531428Y-2489619D01*
X11436190Y-2632476D01*
X11388571Y-2822952D01*
X11388571Y-3203905D01*
X11436190Y-3299143D01*
X11483809Y-3346762D01*
X11579047Y-3394381D01*
X11769524Y-3394381D01*
X11864762Y-3346762D01*
X11912381Y-3299143D01*
X11960000Y-3203905D01*
X11960000Y-2965810D01*
X11912381Y-2870571D01*
X11864762Y-2822952D01*
X11769524Y-2775333D01*
X11579047Y-2775333D01*
X11483809Y-2822952D01*
X11436190Y-2870571D01*
X11388571Y-2965810D01*
X12150476Y-3489619D02*
X12912381Y-3489619D01*
X13674286Y-3394381D02*
X13102857Y-3394381D01*
X13388571Y-3394381D02*
X13388571Y-2394381D01*
X13293333Y-2537238D01*
X13198095Y-2632476D01*
X13102857Y-2680095D01*
X68459333Y-3394381D02*
X68459333Y-2394381D01*
X68792667Y-3108667D01*
X69126000Y-2394381D01*
X69126000Y-3394381D01*
X70030762Y-2394381D02*
X69840285Y-2394381D01*
X69745047Y-2442000D01*
X69697428Y-2489619D01*
X69602190Y-2632476D01*
X69554571Y-2822952D01*
X69554571Y-3203905D01*
X69602190Y-3299143D01*
X69649809Y-3346762D01*
X69745047Y-3394381D01*
X69935524Y-3394381D01*
X70030762Y-3346762D01*
X70078381Y-3299143D01*
X70126000Y-3203905D01*
X70126000Y-2965810D01*
X70078381Y-2870571D01*
X70030762Y-2822952D01*
X69935524Y-2775333D01*
X69745047Y-2775333D01*
X69649809Y-2822952D01*
X69602190Y-2870571D01*
X69554571Y-2965810D01*
X70316476Y-3489619D02*
X71078381Y-3489619D01*
X71268857Y-2489619D02*
X71316476Y-2442000D01*
X71411714Y-2394381D01*
X71649810Y-2394381D01*
X71745048Y-2442000D01*
X71792667Y-2489619D01*
X71840286Y-2584857D01*
X71840286Y-2680095D01*
X71792667Y-2822952D01*
X71221238Y-3394381D01*
X71840286Y-3394381D01*
X49340944Y-11118545D02*
X48835867Y-11623622D01*
X48701180Y-11690965D01*
X48566493Y-11690965D01*
X48431806Y-11623621D01*
X48364462Y-11556278D01*
X48970554Y-12162369D02*
X49677661Y-11455263D01*
X49947035Y-11724637D01*
X49980707Y-11825652D01*
X49980707Y-11892996D01*
X49947035Y-11994011D01*
X49846020Y-12095026D01*
X49745005Y-12128698D01*
X49677662Y-12128698D01*
X49576646Y-12095026D01*
X49307272Y-11825652D01*
X50048050Y-13239866D02*
X49643989Y-12835804D01*
X49846019Y-13037835D02*
X50553126Y-12330728D01*
X50384768Y-12364400D01*
X50250081Y-12364400D01*
X50149066Y-12330728D01*
%LPC*%
D13*
X6499000Y-20468000D03*
X6499000Y-15068000D03*
D14*
X17802000Y-15261000D03*
X17802000Y-13216300D03*
D15*
X60474000Y-18944000D03*
X58429300Y-18944000D03*
D14*
X63903000Y-9165000D03*
X63903000Y-11209700D03*
X17802000Y-10562000D03*
X17802000Y-8517300D03*
X44980000Y-19706000D03*
X44980000Y-21750700D03*
D16*
X81140000Y-36000000D03*
X78600000Y-36000000D03*
X76060000Y-36000000D03*
X73520000Y-36000000D03*
X70980000Y-36000000D03*
X68440000Y-36000000D03*
X65900000Y-36000000D03*
X63360000Y-36000000D03*
X60820000Y-36000000D03*
X58280000Y-36000000D03*
X55740000Y-36000000D03*
X53200000Y-36000000D03*
X50660000Y-36000000D03*
X48120000Y-36000000D03*
X45580000Y-36000000D03*
X43040000Y-36000000D03*
X40500000Y-36000000D03*
X37960000Y-36000000D03*
X35420000Y-36000000D03*
X32880000Y-36000000D03*
X30340000Y-36000000D03*
X27800000Y-36000000D03*
X25260000Y-36000000D03*
X22720000Y-36000000D03*
X20180000Y-36000000D03*
X17640000Y-36000000D03*
X15100000Y-36000000D03*
X12560000Y-36000000D03*
X10020000Y-36000000D03*
X7480000Y-36000000D03*
X4940000Y-36000000D03*
X2400000Y-36000000D03*
D17*
X47139000Y-25040000D03*
X47789000Y-25040000D03*
X48439000Y-25040000D03*
X49089000Y-25040000D03*
X49739000Y-25040000D03*
X50389000Y-25040000D03*
X51039000Y-25040000D03*
X51689000Y-25040000D03*
X52339000Y-25040000D03*
X52989000Y-25040000D03*
X52989000Y-19440000D03*
X52339000Y-19440000D03*
X51689000Y-19440000D03*
X51039000Y-19440000D03*
X50389000Y-19440000D03*
X49739000Y-19440000D03*
X49089000Y-19440000D03*
X48439000Y-19440000D03*
X47789000Y-19440000D03*
X47139000Y-19440000D03*
D18*
X60474000Y-16912000D03*
X60474000Y-16262000D03*
X60474000Y-15612000D03*
X60474000Y-14962000D03*
X60474000Y-14312000D03*
X60474000Y-13662000D03*
X60474000Y-13012000D03*
X60474000Y-12362000D03*
X60474000Y-11712000D03*
X60474000Y-11062000D03*
X54874000Y-11062000D03*
X54874000Y-11712000D03*
X54874000Y-12362000D03*
X54874000Y-13012000D03*
X54874000Y-13662000D03*
X54874000Y-14312000D03*
X54874000Y-14962000D03*
X54874000Y-15612000D03*
X54874000Y-16262000D03*
X54874000Y-16912000D03*
X60347000Y-8403000D03*
X60347000Y-7753000D03*
X60347000Y-7103000D03*
X60347000Y-6453000D03*
X60347000Y-5803000D03*
X60347000Y-5153000D03*
X60347000Y-4503000D03*
X60347000Y-3853000D03*
X60347000Y-3203000D03*
X60347000Y-2553000D03*
X54747000Y-2553000D03*
X54747000Y-3203000D03*
X54747000Y-3853000D03*
X54747000Y-4503000D03*
X54747000Y-5153000D03*
X54747000Y-5803000D03*
X54747000Y-6453000D03*
X54747000Y-7103000D03*
X54747000Y-7753000D03*
X54747000Y-8403000D03*
D19*
X45074000Y-16054000D03*
X45074000Y-15554000D03*
X45074000Y-15054000D03*
X45074000Y-14554000D03*
X45074000Y-14054000D03*
X45074000Y-13554000D03*
X45074000Y-13054000D03*
X45074000Y-12554000D03*
X45074000Y-12054000D03*
X45074000Y-11554000D03*
X45074000Y-11054000D03*
X45074000Y-10554000D03*
X45074000Y-10054000D03*
X45074000Y-9554000D03*
X45074000Y-9054000D03*
X45074000Y-8554000D03*
X45074000Y-8054000D03*
X45074000Y-7554000D03*
X45074000Y-7054000D03*
X45074000Y-6554000D03*
X45074000Y-6054000D03*
X45074000Y-5554000D03*
X45074000Y-5054000D03*
X45074000Y-4554000D03*
X25074000Y-4554000D03*
X25074000Y-5054000D03*
X25074000Y-5554000D03*
X25074000Y-6054000D03*
X25074000Y-6554000D03*
X25074000Y-7054000D03*
X25074000Y-7554000D03*
X25074000Y-8054000D03*
X25074000Y-8554000D03*
X25074000Y-9054000D03*
X25074000Y-9554000D03*
X25074000Y-10054000D03*
X25074000Y-10554000D03*
X25074000Y-11054000D03*
X25074000Y-11554000D03*
X25074000Y-12054000D03*
X25074000Y-12554000D03*
X25074000Y-13054000D03*
X25074000Y-13554000D03*
X25074000Y-14054000D03*
X25074000Y-14554000D03*
X25074000Y-15054000D03*
X25074000Y-15554000D03*
X25074000Y-16054000D03*
D20*
X10182000Y-16785000D03*
X12480700Y-16785000D03*
X14779400Y-16785000D03*
D21*
X12480700Y-10689000D03*
D22*
X6400000Y-6100000D03*
X75800000Y-6100000D03*
D10*
G36*
X51401251Y-11591565D02*
X50835565Y-12157251D01*
X50199169Y-11520855D01*
X50764855Y-10955169D01*
X51401251Y-11591565D01*
X51401251Y-11591565D01*
G37*
G36*
X50727732Y-10918046D02*
X50162046Y-11483732D01*
X49525650Y-10847336D01*
X50091336Y-10281650D01*
X50727732Y-10918046D01*
X50727732Y-10918046D01*
G37*
D23*
G36*
X83473000Y-39873000D02*
X127000Y-39873000D01*
X127000Y-32827000D01*
X83473000Y-32827000D01*
X83473000Y-39873000D01*
X83473000Y-39873000D01*
G37*
X83473000Y-39873000D02*
X127000Y-39873000D01*
X127000Y-32827000D01*
X83473000Y-32827000D01*
X83473000Y-39873000D01*
M02*
