G04 #@! TF.FileFunction,Copper,L2,Bot,Signal*
%FSLAX46Y46*%
G04 Gerber Fmt 4.6, Leading zero omitted, Abs format (unit mm)*
G04 Created by KiCad (PCBNEW 4.0.7) date 07/02/21 11:45:22*
%MOMM*%
%LPD*%
G01*
G04 APERTURE LIST*
%ADD10C,0.200000*%
%ADD11C,0.250000*%
%ADD12R,1.600000X6.000000*%
%ADD13C,6.100000*%
%ADD14C,0.700000*%
%ADD15C,0.600000*%
%ADD16C,0.400000*%
%ADD17C,0.500000*%
%ADD18C,0.203200*%
G04 APERTURE END LIST*
D10*
D11*
X5780952Y-31128571D02*
X5638095Y-31176190D01*
X5590476Y-31223810D01*
X5542857Y-31319048D01*
X5542857Y-31461905D01*
X5590476Y-31557143D01*
X5638095Y-31604762D01*
X5733333Y-31652381D01*
X6114286Y-31652381D01*
X6114286Y-30652381D01*
X5780952Y-30652381D01*
X5685714Y-30700000D01*
X5638095Y-30747619D01*
X5590476Y-30842857D01*
X5590476Y-30938095D01*
X5638095Y-31033333D01*
X5685714Y-31080952D01*
X5780952Y-31128571D01*
X6114286Y-31128571D01*
X5209524Y-30652381D02*
X4590476Y-30652381D01*
X4923810Y-31033333D01*
X4780952Y-31033333D01*
X4685714Y-31080952D01*
X4638095Y-31128571D01*
X4590476Y-31223810D01*
X4590476Y-31461905D01*
X4638095Y-31557143D01*
X4685714Y-31604762D01*
X4780952Y-31652381D01*
X5066667Y-31652381D01*
X5161905Y-31604762D01*
X5209524Y-31557143D01*
X3638095Y-31652381D02*
X4209524Y-31652381D01*
X3923810Y-31652381D02*
X3923810Y-30652381D01*
X4019048Y-30795238D01*
X4114286Y-30890476D01*
X4209524Y-30938095D01*
X31180952Y-31128571D02*
X31038095Y-31176190D01*
X30990476Y-31223810D01*
X30942857Y-31319048D01*
X30942857Y-31461905D01*
X30990476Y-31557143D01*
X31038095Y-31604762D01*
X31133333Y-31652381D01*
X31514286Y-31652381D01*
X31514286Y-30652381D01*
X31180952Y-30652381D01*
X31085714Y-30700000D01*
X31038095Y-30747619D01*
X30990476Y-30842857D01*
X30990476Y-30938095D01*
X31038095Y-31033333D01*
X31085714Y-31080952D01*
X31180952Y-31128571D01*
X31514286Y-31128571D01*
X30561905Y-30747619D02*
X30514286Y-30700000D01*
X30419048Y-30652381D01*
X30180952Y-30652381D01*
X30085714Y-30700000D01*
X30038095Y-30747619D01*
X29990476Y-30842857D01*
X29990476Y-30938095D01*
X30038095Y-31080952D01*
X30609524Y-31652381D01*
X29990476Y-31652381D01*
X29038095Y-31652381D02*
X29609524Y-31652381D01*
X29323810Y-31652381D02*
X29323810Y-30652381D01*
X29419048Y-30795238D01*
X29514286Y-30890476D01*
X29609524Y-30938095D01*
X46480952Y-31128571D02*
X46338095Y-31176190D01*
X46290476Y-31223810D01*
X46242857Y-31319048D01*
X46242857Y-31461905D01*
X46290476Y-31557143D01*
X46338095Y-31604762D01*
X46433333Y-31652381D01*
X46814286Y-31652381D01*
X46814286Y-30652381D01*
X46480952Y-30652381D01*
X46385714Y-30700000D01*
X46338095Y-30747619D01*
X46290476Y-30842857D01*
X46290476Y-30938095D01*
X46338095Y-31033333D01*
X46385714Y-31080952D01*
X46480952Y-31128571D01*
X46814286Y-31128571D01*
X45290476Y-31652381D02*
X45861905Y-31652381D01*
X45576191Y-31652381D02*
X45576191Y-30652381D01*
X45671429Y-30795238D01*
X45766667Y-30890476D01*
X45861905Y-30938095D01*
X44385714Y-30652381D02*
X44861905Y-30652381D01*
X44909524Y-31128571D01*
X44861905Y-31080952D01*
X44766667Y-31033333D01*
X44528571Y-31033333D01*
X44433333Y-31080952D01*
X44385714Y-31128571D01*
X44338095Y-31223810D01*
X44338095Y-31461905D01*
X44385714Y-31557143D01*
X44433333Y-31604762D01*
X44528571Y-31652381D01*
X44766667Y-31652381D01*
X44861905Y-31604762D01*
X44909524Y-31557143D01*
X81504761Y-31128571D02*
X81361904Y-31176190D01*
X81314285Y-31223810D01*
X81266666Y-31319048D01*
X81266666Y-31461905D01*
X81314285Y-31557143D01*
X81361904Y-31604762D01*
X81457142Y-31652381D01*
X81838095Y-31652381D01*
X81838095Y-30652381D01*
X81504761Y-30652381D01*
X81409523Y-30700000D01*
X81361904Y-30747619D01*
X81314285Y-30842857D01*
X81314285Y-30938095D01*
X81361904Y-31033333D01*
X81409523Y-31080952D01*
X81504761Y-31128571D01*
X81838095Y-31128571D01*
X80314285Y-31652381D02*
X80885714Y-31652381D01*
X80600000Y-31652381D02*
X80600000Y-30652381D01*
X80695238Y-30795238D01*
X80790476Y-30890476D01*
X80885714Y-30938095D01*
D12*
X81140000Y-36000000D03*
X78600000Y-36000000D03*
X76060000Y-36000000D03*
X73520000Y-36000000D03*
X70980000Y-36000000D03*
X68440000Y-36000000D03*
X65900000Y-36000000D03*
X63360000Y-36000000D03*
X60820000Y-36000000D03*
X58280000Y-36000000D03*
X55740000Y-36000000D03*
X53200000Y-36000000D03*
X50660000Y-36000000D03*
X48120000Y-36000000D03*
X45580000Y-36000000D03*
X43040000Y-36000000D03*
X40500000Y-36000000D03*
X37960000Y-36000000D03*
X35420000Y-36000000D03*
X32880000Y-36000000D03*
X30340000Y-36000000D03*
X27800000Y-36000000D03*
X25260000Y-36000000D03*
X22720000Y-36000000D03*
X20180000Y-36000000D03*
X17640000Y-36000000D03*
X15100000Y-36000000D03*
X12560000Y-36000000D03*
X10020000Y-36000000D03*
X7480000Y-36000000D03*
X4940000Y-36000000D03*
X2400000Y-36000000D03*
D13*
X6400000Y-6100000D03*
X75800000Y-6100000D03*
D14*
X63268000Y-12848000D03*
X20723000Y-12975000D03*
X24787000Y-18055000D03*
X35074000Y-9419000D03*
X33550000Y-13356000D03*
X38630000Y-13356000D03*
X41424000Y-9419000D03*
X47901000Y-10054000D03*
X50695000Y-7387000D03*
X57807000Y-11959000D03*
X74952000Y-12594000D03*
X81048000Y-10435000D03*
X76476000Y-23897000D03*
X81556000Y-21992000D03*
X72539000Y-20214000D03*
X76222000Y-17293000D03*
X80159000Y-14880000D03*
X70253000Y-14880000D03*
X66824000Y-12467000D03*
X63268000Y-2053000D03*
X65808000Y-4085000D03*
X68983000Y-5228000D03*
X68983000Y-9038000D03*
X70126000Y-25675000D03*
X67840000Y-23389000D03*
X63903000Y-28596000D03*
X62252000Y-23389000D03*
X63141000Y-25802000D03*
X54886000Y-25548000D03*
X57934000Y-24278000D03*
X54886000Y-22627000D03*
X57807000Y-21230000D03*
X54886000Y-19960000D03*
X51457000Y-23262000D03*
X49679000Y-21484000D03*
X42694000Y-27453000D03*
X44091000Y-25421000D03*
X28089000Y-11324000D03*
X22501000Y-11451000D03*
X22374000Y-9165000D03*
X20469000Y-7133000D03*
X41678000Y-4974000D03*
X37614000Y-7260000D03*
X34947000Y-4974000D03*
X32026000Y-7260000D03*
X29740000Y-4974000D03*
X21485000Y-4593000D03*
X24533000Y-2180000D03*
X19834000Y-2434000D03*
X16532000Y-4720000D03*
X12341000Y-4720000D03*
X12341000Y-7514000D03*
X2435000Y-15134000D03*
X5102000Y-12340000D03*
X1800000Y-10689000D03*
X1419000Y-24913000D03*
X3578000Y-22500000D03*
X38503000Y-23770000D03*
X35328000Y-27072000D03*
X33804000Y-23643000D03*
X41678000Y-19198000D03*
X39900000Y-21357000D03*
X37614000Y-19198000D03*
X35582000Y-21103000D03*
X33804000Y-19198000D03*
X26311000Y-24532000D03*
X25422000Y-27453000D03*
X23771000Y-29104000D03*
X31010000Y-20595000D03*
X29994000Y-23262000D03*
X30502000Y-28469000D03*
X29232000Y-25421000D03*
X21231000Y-27961000D03*
X19326000Y-28977000D03*
X17675000Y-26183000D03*
X15389000Y-28215000D03*
X18310000Y-19960000D03*
X13992000Y-22246000D03*
X11960000Y-25294000D03*
X8404000Y-28215000D03*
X6372000Y-25675000D03*
X7769000Y-23516000D03*
X9674000Y-21865000D03*
X51203000Y-15515000D03*
X64284000Y-20976000D03*
X67205000Y-18055000D03*
X15770000Y-8530000D03*
X42821000Y-21738000D03*
X46123000Y-17801000D03*
X10182000Y-13610000D03*
X15135000Y-13737000D03*
D15*
X52219000Y-7768000D03*
X20723000Y-11959000D03*
X41551000Y-15007000D03*
X62125000Y-11705000D03*
X67713000Y-27326000D03*
X65935000Y-27834000D03*
X61998000Y-8403000D03*
X56918000Y-7768000D03*
X60093000Y-28342000D03*
X55775000Y-28977000D03*
X57680000Y-6498000D03*
X57045000Y-5863000D03*
X50695000Y-28342000D03*
X45615000Y-28723000D03*
X58061000Y-5101000D03*
X40535000Y-27834000D03*
X58442000Y-3196000D03*
X21231000Y-17420000D03*
X33296000Y-27834000D03*
X27835000Y-23389000D03*
X23771000Y-19325000D03*
X21866000Y-21865000D03*
X21866000Y-26310000D03*
X19961000Y-22627000D03*
X19453000Y-24913000D03*
X67332000Y-25040000D03*
X66443000Y-25167000D03*
X62252000Y-15134000D03*
X58569000Y-13610000D03*
X58569000Y-15134000D03*
X57426000Y-15261000D03*
X57172000Y-4466000D03*
X57807000Y-3831000D03*
X22628000Y-18182000D03*
X21485000Y-18563000D03*
X22374000Y-20976000D03*
X21104000Y-22500000D03*
X25676000Y-17039000D03*
X47520000Y-17039000D03*
D16*
X26438000Y-16277000D02*
X24025000Y-16277000D01*
X62887000Y-5990000D02*
X62887000Y-8149000D01*
X48790000Y-16277000D02*
X49171000Y-16277000D01*
X41678000Y-16277000D02*
X31772000Y-16277000D01*
X26438000Y-16277000D02*
X31772000Y-16277000D01*
X41678000Y-16277000D02*
X48790000Y-16277000D01*
X59331000Y-2434000D02*
X62252000Y-5355000D01*
X56791000Y-2434000D02*
X59331000Y-2434000D01*
X53108000Y-6117000D02*
X56791000Y-2434000D01*
X53108000Y-12340000D02*
X53108000Y-6117000D01*
X49171000Y-16277000D02*
X53108000Y-12340000D01*
X62887000Y-12467000D02*
X62887000Y-8149000D01*
X63268000Y-12848000D02*
X62887000Y-12467000D01*
X62252000Y-5355000D02*
X62887000Y-5990000D01*
X24025000Y-16277000D02*
X20723000Y-12975000D01*
D11*
X50695000Y-7387000D02*
X50568000Y-7514000D01*
X47901000Y-10054000D02*
X48028000Y-10054000D01*
X41424000Y-9419000D02*
X47266000Y-9419000D01*
X35074000Y-9419000D02*
X33550000Y-10943000D01*
X33550000Y-10943000D02*
X33550000Y-13356000D01*
X38630000Y-13356000D02*
X41424000Y-10562000D01*
X41424000Y-10562000D02*
X41424000Y-9419000D01*
X47266000Y-9419000D02*
X47901000Y-10054000D01*
X48028000Y-10054000D02*
X50568000Y-7514000D01*
D17*
X74952000Y-14880000D02*
X74952000Y-12594000D01*
D11*
X80159000Y-14880000D02*
X81048000Y-13991000D01*
X81048000Y-13991000D02*
X81048000Y-10435000D01*
X66824000Y-12467000D02*
X68983000Y-10308000D01*
D17*
X76476000Y-23897000D02*
X79651000Y-23897000D01*
X79651000Y-23897000D02*
X81556000Y-21992000D01*
X72539000Y-20214000D02*
X75460000Y-17293000D01*
X75460000Y-17293000D02*
X76222000Y-17293000D01*
X80159000Y-14880000D02*
X74952000Y-14880000D01*
X74952000Y-14880000D02*
X70253000Y-14880000D01*
D11*
X66951000Y-5228000D02*
X65808000Y-4085000D01*
X68983000Y-5228000D02*
X66951000Y-5228000D01*
X68983000Y-10308000D02*
X68983000Y-9038000D01*
X65427000Y-20976000D02*
X67840000Y-23389000D01*
X65427000Y-20976000D02*
X64284000Y-20976000D01*
X63141000Y-27834000D02*
X63903000Y-28596000D01*
X63141000Y-25802000D02*
X63141000Y-27834000D01*
X62252000Y-23389000D02*
X63141000Y-24278000D01*
X63141000Y-24278000D02*
X63141000Y-25802000D01*
X56283000Y-22627000D02*
X57934000Y-24278000D01*
X54886000Y-22627000D02*
X56283000Y-22627000D01*
X56537000Y-19960000D02*
X57807000Y-21230000D01*
X54886000Y-19960000D02*
X56537000Y-19960000D01*
D17*
X44091000Y-26056000D02*
X42694000Y-27453000D01*
X44091000Y-25421000D02*
X44091000Y-26056000D01*
D11*
X28089000Y-11324000D02*
X28089000Y-6625000D01*
X27962000Y-11451000D02*
X28089000Y-11324000D01*
X15770000Y-8530000D02*
X19072000Y-8530000D01*
X22501000Y-9292000D02*
X22501000Y-11451000D01*
X22374000Y-9165000D02*
X22501000Y-9292000D01*
X19072000Y-8530000D02*
X20469000Y-7133000D01*
X22501000Y-11451000D02*
X27962000Y-11451000D01*
X39392000Y-7260000D02*
X41678000Y-4974000D01*
X37614000Y-7260000D02*
X39392000Y-7260000D01*
X32661000Y-7260000D02*
X34947000Y-4974000D01*
X32026000Y-7260000D02*
X32661000Y-7260000D01*
X28089000Y-6625000D02*
X29740000Y-4974000D01*
X18818000Y-2434000D02*
X19834000Y-2434000D01*
X16532000Y-4720000D02*
X18818000Y-2434000D01*
X12341000Y-7514000D02*
X12341000Y-4720000D01*
X2435000Y-15134000D02*
X2435000Y-11324000D01*
X2435000Y-11324000D02*
X1800000Y-10689000D01*
X2400000Y-22500000D02*
X3578000Y-22500000D01*
X33804000Y-25548000D02*
X35328000Y-27072000D01*
X33804000Y-23643000D02*
X33804000Y-25548000D01*
X33423000Y-18055000D02*
X33423000Y-18817000D01*
X41678000Y-19579000D02*
X41678000Y-19198000D01*
X39900000Y-21357000D02*
X41678000Y-19579000D01*
X37487000Y-19198000D02*
X37614000Y-19198000D01*
X35582000Y-21103000D02*
X37487000Y-19198000D01*
X33423000Y-18817000D02*
X33804000Y-19198000D01*
X28343000Y-24532000D02*
X26311000Y-24532000D01*
X28343000Y-24532000D02*
X29232000Y-25421000D01*
X31010000Y-18055000D02*
X31010000Y-20595000D01*
X30502000Y-26691000D02*
X30502000Y-28469000D01*
X29232000Y-25421000D02*
X30502000Y-26691000D01*
X15389000Y-28215000D02*
X18564000Y-28215000D01*
X18564000Y-28215000D02*
X19326000Y-28977000D01*
X11960000Y-25294000D02*
X14881000Y-28215000D01*
X14881000Y-28215000D02*
X15389000Y-28215000D01*
X6435500Y-17356500D02*
X6435500Y-18626500D01*
X16024000Y-22246000D02*
X18310000Y-19960000D01*
X13992000Y-22246000D02*
X16024000Y-22246000D01*
X9039000Y-28215000D02*
X11960000Y-25294000D01*
X8404000Y-28215000D02*
X9039000Y-28215000D01*
X6372000Y-24913000D02*
X6372000Y-25675000D01*
X7769000Y-23516000D02*
X6372000Y-24913000D01*
X6435500Y-18626500D02*
X9674000Y-21865000D01*
X48663000Y-17801000D02*
X48917000Y-17801000D01*
X46123000Y-17801000D02*
X48663000Y-17801000D01*
X48917000Y-17801000D02*
X51203000Y-15515000D01*
X24787000Y-18055000D02*
X23390000Y-16658000D01*
X18056000Y-16658000D02*
X15135000Y-13737000D01*
X23390000Y-16658000D02*
X18056000Y-16658000D01*
X67205000Y-18055000D02*
X66570000Y-18690000D01*
X64284000Y-20976000D02*
X66570000Y-18690000D01*
D17*
X2400000Y-36000000D02*
X2400000Y-22500000D01*
X2400000Y-22500000D02*
X2400000Y-21392000D01*
X2400000Y-21392000D02*
X6435500Y-17356500D01*
X6435500Y-17356500D02*
X10182000Y-13610000D01*
D11*
X15135000Y-13737000D02*
X15135000Y-9165000D01*
X15135000Y-9165000D02*
X15770000Y-8530000D01*
X42821000Y-18055000D02*
X42821000Y-21738000D01*
X34439000Y-18055000D02*
X42821000Y-18055000D01*
X42821000Y-18055000D02*
X45869000Y-18055000D01*
X24787000Y-18055000D02*
X31010000Y-18055000D01*
X31010000Y-18055000D02*
X33423000Y-18055000D01*
X33423000Y-18055000D02*
X34439000Y-18055000D01*
X45869000Y-18055000D02*
X46123000Y-17801000D01*
X10309000Y-13737000D02*
X15135000Y-13737000D01*
X10182000Y-13610000D02*
X10309000Y-13737000D01*
X2435000Y-35965000D02*
X2400000Y-36000000D01*
D18*
X52473000Y-8022000D02*
X52219000Y-7768000D01*
X43202000Y-15642000D02*
X49025916Y-15642000D01*
X49025916Y-15642000D02*
X52473000Y-12194916D01*
X52473000Y-12194916D02*
X52473000Y-8530000D01*
X43202000Y-15642000D02*
X41551000Y-15642000D01*
X52473000Y-8530000D02*
X52473000Y-8022000D01*
X20723000Y-11959000D02*
X24406000Y-15642000D01*
X24406000Y-15642000D02*
X32407000Y-15642000D01*
X40916000Y-15642000D02*
X41551000Y-15642000D01*
X40662000Y-15642000D02*
X32407000Y-15642000D01*
X40662000Y-15642000D02*
X40916000Y-15642000D01*
X41551000Y-15642000D02*
X41551000Y-15007000D01*
X62887000Y-20849000D02*
X62887000Y-14880000D01*
X65300000Y-23262000D02*
X65681000Y-23643000D01*
X62887000Y-20849000D02*
X65300000Y-23262000D01*
X67078000Y-26691000D02*
X67713000Y-27326000D01*
X65681000Y-25294000D02*
X67078000Y-26691000D01*
X65681000Y-23643000D02*
X65681000Y-25294000D01*
X62125000Y-14118000D02*
X62125000Y-11705000D01*
X62887000Y-14880000D02*
X62125000Y-14118000D01*
X61490000Y-20722000D02*
X61490000Y-11578000D01*
X64665000Y-23897000D02*
X64665000Y-25802000D01*
X64665000Y-25802000D02*
X65935000Y-27072000D01*
X65935000Y-27072000D02*
X65935000Y-27834000D01*
X64284000Y-23516000D02*
X61490000Y-20722000D01*
X64284000Y-23516000D02*
X64665000Y-23897000D01*
X61490000Y-8911000D02*
X61998000Y-8403000D01*
X61490000Y-11578000D02*
X61490000Y-8911000D01*
X56791000Y-14753000D02*
X56791000Y-15515000D01*
X56918000Y-7768000D02*
X56791000Y-7895000D01*
X56791000Y-7895000D02*
X56791000Y-14753000D01*
X60093000Y-21865000D02*
X60093000Y-28342000D01*
X57680000Y-19452000D02*
X60093000Y-21865000D01*
X57680000Y-16404000D02*
X57680000Y-19452000D01*
X56791000Y-15515000D02*
X57680000Y-16404000D01*
X53489000Y-25675000D02*
X53489000Y-26056000D01*
X53489000Y-17420000D02*
X53489000Y-25675000D01*
X56283000Y-14626000D02*
X54251000Y-16658000D01*
X56918000Y-6498000D02*
X56283000Y-7133000D01*
X57680000Y-6498000D02*
X56918000Y-6498000D01*
X56283000Y-7133000D02*
X56283000Y-14626000D01*
X54251000Y-16658000D02*
X53489000Y-17420000D01*
X55775000Y-28342000D02*
X55775000Y-28977000D01*
X53489000Y-26056000D02*
X55775000Y-28342000D01*
X54505000Y-15769000D02*
X52981000Y-17293000D01*
X55775000Y-14499000D02*
X54505000Y-15769000D01*
X55775000Y-6879000D02*
X55775000Y-14499000D01*
X56791000Y-5863000D02*
X55775000Y-6879000D01*
X57045000Y-5863000D02*
X56791000Y-5863000D01*
X52981000Y-26056000D02*
X50695000Y-28342000D01*
X52981000Y-17293000D02*
X52981000Y-26056000D01*
X56664000Y-5355000D02*
X56918000Y-5101000D01*
X45615000Y-28723000D02*
X45615000Y-26945000D01*
X45615000Y-24024000D02*
X45615000Y-26945000D01*
X55267000Y-14372000D02*
X45615000Y-24024000D01*
X55267000Y-6752000D02*
X55267000Y-14372000D01*
X56664000Y-5355000D02*
X55267000Y-6752000D01*
X56918000Y-5101000D02*
X58061000Y-5101000D01*
X53743000Y-6752000D02*
X53743000Y-6371000D01*
X53743000Y-13991000D02*
X40535000Y-27199000D01*
X53743000Y-6752000D02*
X53743000Y-13991000D01*
X40535000Y-27199000D02*
X40535000Y-27834000D01*
X56918000Y-3196000D02*
X58442000Y-3196000D01*
X53743000Y-6371000D02*
X56918000Y-3196000D01*
X58442000Y-3196000D02*
X58435000Y-3203000D01*
X21231000Y-17420000D02*
X22882000Y-17420000D01*
X22882000Y-17420000D02*
X33042000Y-27580000D01*
X33296000Y-27834000D02*
X33042000Y-27580000D01*
X23771000Y-19325000D02*
X24212260Y-19325000D01*
X27835000Y-22947740D02*
X27835000Y-23389000D01*
X24212260Y-19325000D02*
X27835000Y-22947740D01*
X21866000Y-21865000D02*
X22247000Y-22246000D01*
X22247000Y-25929000D02*
X21866000Y-26310000D01*
X22247000Y-22246000D02*
X22247000Y-25929000D01*
X19707000Y-22881000D02*
X19961000Y-22627000D01*
X19707000Y-24659000D02*
X19707000Y-22881000D01*
X19453000Y-24913000D02*
X19707000Y-24659000D01*
X73520000Y-31482000D02*
X73520000Y-32625000D01*
X67332000Y-25040000D02*
X67332000Y-25294000D01*
X67332000Y-25294000D02*
X73047000Y-31009000D01*
X73520000Y-32625000D02*
X73520000Y-36000000D01*
X73047000Y-31009000D02*
X73520000Y-31482000D01*
X70980000Y-30720000D02*
X70980000Y-29577000D01*
X70980000Y-36000000D02*
X70980000Y-30720000D01*
X66443000Y-25167000D02*
X66570000Y-25167000D01*
X66570000Y-25167000D02*
X67967000Y-26564000D01*
X67967000Y-26564000D02*
X70126000Y-28723000D01*
X70980000Y-29577000D02*
X70126000Y-28723000D01*
X68440000Y-29450000D02*
X68440000Y-28942000D01*
X68440000Y-36000000D02*
X68440000Y-29450000D01*
X65173000Y-23770000D02*
X65173000Y-25421000D01*
X65173000Y-25421000D02*
X65173000Y-25675000D01*
X65173000Y-25675000D02*
X67459000Y-27961000D01*
X62252000Y-20849000D02*
X64030000Y-22627000D01*
X62252000Y-15134000D02*
X62252000Y-20849000D01*
X64030000Y-22627000D02*
X64792000Y-23389000D01*
X64792000Y-23389000D02*
X65173000Y-23770000D01*
X68440000Y-28942000D02*
X67459000Y-27961000D01*
X65300000Y-28215000D02*
X65300000Y-27072000D01*
X63776000Y-23643000D02*
X62887000Y-22754000D01*
X59204000Y-14245000D02*
X58569000Y-13610000D01*
X59204000Y-19071000D02*
X59204000Y-14245000D01*
X62887000Y-22754000D02*
X59204000Y-19071000D01*
X65900000Y-28815000D02*
X65900000Y-36000000D01*
X65900000Y-28815000D02*
X65300000Y-28215000D01*
X64157000Y-24024000D02*
X63776000Y-23643000D01*
X64157000Y-25929000D02*
X64157000Y-24024000D01*
X65300000Y-27072000D02*
X64157000Y-25929000D01*
X61236000Y-27961000D02*
X63360000Y-30085000D01*
X60982000Y-21484000D02*
X61236000Y-21738000D01*
X61236000Y-21738000D02*
X61236000Y-27961000D01*
X58569000Y-15134000D02*
X58696000Y-15261000D01*
X58696000Y-15261000D02*
X58696000Y-19198000D01*
X58696000Y-19198000D02*
X60982000Y-21484000D01*
X63360000Y-30085000D02*
X63360000Y-36000000D01*
X60728000Y-28088000D02*
X60728000Y-21865000D01*
X60728000Y-35908000D02*
X60728000Y-28088000D01*
X58188000Y-16023000D02*
X58188000Y-19325000D01*
X58188000Y-19325000D02*
X60220000Y-21357000D01*
X60220000Y-21357000D02*
X60601000Y-21738000D01*
X58188000Y-16023000D02*
X57426000Y-15261000D01*
X60728000Y-21865000D02*
X60601000Y-21738000D01*
X57426000Y-15261000D02*
X57299000Y-15388000D01*
X60820000Y-36000000D02*
X60728000Y-35908000D01*
X60820000Y-36000000D02*
X60728000Y-35908000D01*
X56918000Y-4466000D02*
X57172000Y-4466000D01*
X56918000Y-4466000D02*
X56664000Y-4720000D01*
X45488000Y-23516000D02*
X45107000Y-23897000D01*
X45107000Y-23897000D02*
X45107000Y-28088000D01*
X45107000Y-28088000D02*
X43075000Y-30120000D01*
X43075000Y-30120000D02*
X43075000Y-35965000D01*
X45488000Y-23516000D02*
X54759000Y-14245000D01*
X54759000Y-14245000D02*
X54759000Y-6625000D01*
X54759000Y-6625000D02*
X56029000Y-5355000D01*
X56029000Y-5355000D02*
X56664000Y-4720000D01*
X56664000Y-4720000D02*
X56664000Y-4720000D01*
X43075000Y-35965000D02*
X43040000Y-36000000D01*
X43075000Y-35965000D02*
X43040000Y-36000000D01*
X54251000Y-6879000D02*
X54251000Y-6498000D01*
X54251000Y-6879000D02*
X54251000Y-14118000D01*
X54251000Y-14118000D02*
X41297000Y-27072000D01*
X41297000Y-27072000D02*
X41297000Y-28088000D01*
X41297000Y-28088000D02*
X40500000Y-28885000D01*
X40500000Y-36000000D02*
X40500000Y-28885000D01*
X56918000Y-3831000D02*
X57807000Y-3831000D01*
X54251000Y-6498000D02*
X56918000Y-3831000D01*
X23136000Y-19579000D02*
X23136000Y-20087000D01*
X23136000Y-18690000D02*
X23136000Y-19579000D01*
X22628000Y-18182000D02*
X23136000Y-18690000D01*
X27800000Y-31355000D02*
X27800000Y-36000000D01*
X23771000Y-27326000D02*
X27800000Y-31355000D01*
X23771000Y-20722000D02*
X23771000Y-27326000D01*
X23136000Y-20087000D02*
X23771000Y-20722000D01*
X23263000Y-27326000D02*
X23263000Y-27453000D01*
X21485000Y-19071000D02*
X23263000Y-20849000D01*
X23263000Y-20849000D02*
X23263000Y-27326000D01*
X21485000Y-18563000D02*
X21485000Y-19071000D01*
X25260000Y-29450000D02*
X25260000Y-36000000D01*
X23263000Y-27453000D02*
X25260000Y-29450000D01*
X22374000Y-20976000D02*
X22720000Y-21322000D01*
X22720000Y-21322000D02*
X22720000Y-24243000D01*
X22720000Y-24243000D02*
X22720000Y-36000000D01*
X20180000Y-23424000D02*
X21104000Y-22500000D01*
X20180000Y-25202000D02*
X20180000Y-36000000D01*
X20180000Y-25202000D02*
X20180000Y-23424000D01*
X47393000Y-16912000D02*
X25803000Y-16912000D01*
X25803000Y-16912000D02*
X25676000Y-17039000D01*
X47520000Y-17039000D02*
X47393000Y-16912000D01*
D11*
G36*
X83100000Y-29875000D02*
X72657725Y-29875000D01*
X68030671Y-25247947D01*
X68056874Y-25184844D01*
X68057126Y-24896421D01*
X67946984Y-24629857D01*
X67743216Y-24425733D01*
X67476844Y-24315126D01*
X67188421Y-24314874D01*
X66921857Y-24425016D01*
X66811631Y-24535050D01*
X66587844Y-24442126D01*
X66299421Y-24441874D01*
X66207600Y-24479814D01*
X66207600Y-23643000D01*
X66167515Y-23441479D01*
X66138221Y-23397637D01*
X66053362Y-23270637D01*
X65672364Y-22889640D01*
X65672362Y-22889637D01*
X63413600Y-20630876D01*
X63413600Y-14880000D01*
X63373515Y-14678479D01*
X63259363Y-14507638D01*
X62651600Y-13899876D01*
X62651600Y-13327497D01*
X62828425Y-13504630D01*
X63113167Y-13622865D01*
X63421481Y-13623134D01*
X63706429Y-13505396D01*
X63924630Y-13287575D01*
X64042865Y-13002833D01*
X64043134Y-12694519D01*
X63925396Y-12409571D01*
X63707575Y-12191370D01*
X63512000Y-12110160D01*
X63512000Y-6966423D01*
X71424243Y-6966423D01*
X72088893Y-8575001D01*
X73318526Y-9806782D01*
X74925941Y-10474239D01*
X76666423Y-10475757D01*
X78275001Y-9811107D01*
X79506782Y-8581474D01*
X80174239Y-6974059D01*
X80175757Y-5233577D01*
X79511107Y-3624999D01*
X78281474Y-2393218D01*
X76674059Y-1725761D01*
X74933577Y-1724243D01*
X73324999Y-2388893D01*
X72093218Y-3618526D01*
X71425761Y-5225941D01*
X71424243Y-6966423D01*
X63512000Y-6966423D01*
X63512000Y-5990005D01*
X63512001Y-5990000D01*
X63464425Y-5750823D01*
X63328942Y-5548058D01*
X63328939Y-5548056D01*
X62693942Y-4913058D01*
X59772942Y-1992058D01*
X59570177Y-1856575D01*
X59331000Y-1809000D01*
X56791005Y-1809000D01*
X56791000Y-1808999D01*
X56551823Y-1856575D01*
X56349058Y-1992058D01*
X56349056Y-1992061D01*
X52666058Y-5675058D01*
X52530575Y-5877823D01*
X52483000Y-6117000D01*
X52483000Y-7092604D01*
X52363844Y-7043126D01*
X52075421Y-7042874D01*
X51808857Y-7153016D01*
X51604733Y-7356784D01*
X51494126Y-7623156D01*
X51493874Y-7911579D01*
X51604016Y-8178143D01*
X51807784Y-8382267D01*
X51946400Y-8439825D01*
X51946400Y-11976792D01*
X48807792Y-15115400D01*
X42275906Y-15115400D01*
X42276126Y-14863421D01*
X42165984Y-14596857D01*
X41962216Y-14392733D01*
X41695844Y-14282126D01*
X41407421Y-14281874D01*
X41140857Y-14392016D01*
X40936733Y-14595784D01*
X40826126Y-14862156D01*
X40825905Y-15115400D01*
X24624125Y-15115400D01*
X21448018Y-11939294D01*
X21448126Y-11815421D01*
X21337984Y-11548857D01*
X21134216Y-11344733D01*
X20867844Y-11234126D01*
X20579421Y-11233874D01*
X20312857Y-11344016D01*
X20108733Y-11547784D01*
X19998126Y-11814156D01*
X19997874Y-12102579D01*
X20108016Y-12369143D01*
X20170370Y-12431606D01*
X20066370Y-12535425D01*
X19948135Y-12820167D01*
X19947866Y-13128481D01*
X20065604Y-13413429D01*
X20283425Y-13631630D01*
X20568167Y-13749865D01*
X20614021Y-13749905D01*
X23583058Y-16718942D01*
X23785822Y-16854425D01*
X24025000Y-16902000D01*
X24951119Y-16902000D01*
X24950874Y-17182579D01*
X25061016Y-17449143D01*
X25264784Y-17653267D01*
X25531156Y-17763874D01*
X25819579Y-17764126D01*
X26086143Y-17653984D01*
X26290267Y-17450216D01*
X26295090Y-17438600D01*
X46900660Y-17438600D01*
X46905016Y-17449143D01*
X47108784Y-17653267D01*
X47375156Y-17763874D01*
X47663579Y-17764126D01*
X47930143Y-17653984D01*
X48134267Y-17450216D01*
X48244874Y-17183844D01*
X48245120Y-16902000D01*
X49171000Y-16902000D01*
X49410177Y-16854425D01*
X49612942Y-16718942D01*
X53216400Y-13115484D01*
X53216400Y-13772875D01*
X40162638Y-26826638D01*
X40048485Y-26997479D01*
X40008400Y-27199000D01*
X40008400Y-27335270D01*
X39920733Y-27422784D01*
X39810126Y-27689156D01*
X39809874Y-27977579D01*
X39920016Y-28244143D01*
X40123784Y-28448267D01*
X40171991Y-28468284D01*
X40127638Y-28512638D01*
X40013485Y-28683479D01*
X39973400Y-28885000D01*
X39973400Y-29875000D01*
X27064725Y-29875000D01*
X24297600Y-27107876D01*
X24297600Y-20722000D01*
X24257515Y-20520479D01*
X24143363Y-20349638D01*
X23843789Y-20050064D01*
X23914579Y-20050126D01*
X24111356Y-19968820D01*
X27191271Y-23048735D01*
X27110126Y-23244156D01*
X27109874Y-23532579D01*
X27220016Y-23799143D01*
X27423784Y-24003267D01*
X27690156Y-24113874D01*
X27978579Y-24114126D01*
X28245143Y-24003984D01*
X28449267Y-23800216D01*
X28469284Y-23752009D01*
X32570982Y-27853707D01*
X32570874Y-27977579D01*
X32681016Y-28244143D01*
X32884784Y-28448267D01*
X33151156Y-28558874D01*
X33439579Y-28559126D01*
X33706143Y-28448984D01*
X33910267Y-28245216D01*
X34020874Y-27978844D01*
X34021126Y-27690421D01*
X33910984Y-27423857D01*
X33707216Y-27219733D01*
X33440844Y-27109126D01*
X33315742Y-27109017D01*
X23254362Y-17047638D01*
X23083521Y-16933485D01*
X23069012Y-16930599D01*
X22882000Y-16893400D01*
X21729730Y-16893400D01*
X21642216Y-16805733D01*
X21375844Y-16695126D01*
X21087421Y-16694874D01*
X20820857Y-16805016D01*
X20616733Y-17008784D01*
X20506126Y-17275156D01*
X20505874Y-17563579D01*
X20616016Y-17830143D01*
X20819784Y-18034267D01*
X20938905Y-18083730D01*
X20870733Y-18151784D01*
X20760126Y-18418156D01*
X20759874Y-18706579D01*
X20870016Y-18973143D01*
X20958400Y-19061681D01*
X20958400Y-19071000D01*
X20994101Y-19250479D01*
X20998485Y-19272521D01*
X21112638Y-19443362D01*
X22010867Y-20341592D01*
X21963857Y-20361016D01*
X21759733Y-20564784D01*
X21649126Y-20831156D01*
X21648874Y-21119579D01*
X21666762Y-21162872D01*
X21455857Y-21250016D01*
X21251733Y-21453784D01*
X21141126Y-21720156D01*
X21141078Y-21775032D01*
X20960421Y-21774874D01*
X20693857Y-21885016D01*
X20489733Y-22088784D01*
X20477513Y-22118214D01*
X20372216Y-22012733D01*
X20105844Y-21902126D01*
X19817421Y-21901874D01*
X19550857Y-22012016D01*
X19346733Y-22215784D01*
X19236126Y-22482156D01*
X19235974Y-22656298D01*
X19220485Y-22679479D01*
X19180400Y-22881000D01*
X19180400Y-24241184D01*
X19042857Y-24298016D01*
X18838733Y-24501784D01*
X18728126Y-24768156D01*
X18727874Y-25056579D01*
X18838016Y-25323143D01*
X19041784Y-25527267D01*
X19308156Y-25637874D01*
X19596579Y-25638126D01*
X19653400Y-25614648D01*
X19653400Y-29875000D01*
X500000Y-29875000D01*
X500000Y-6966423D01*
X2024243Y-6966423D01*
X2688893Y-8575001D01*
X3918526Y-9806782D01*
X5525941Y-10474239D01*
X7266423Y-10475757D01*
X8875001Y-9811107D01*
X10106782Y-8581474D01*
X10774239Y-6974059D01*
X10775757Y-5233577D01*
X10111107Y-3624999D01*
X8881474Y-2393218D01*
X7274059Y-1725761D01*
X5533577Y-1724243D01*
X3924999Y-2388893D01*
X2693218Y-3618526D01*
X2025761Y-5225941D01*
X2024243Y-6966423D01*
X500000Y-6966423D01*
X500000Y-500000D01*
X83100000Y-500000D01*
X83100000Y-29875000D01*
X83100000Y-29875000D01*
G37*
X83100000Y-29875000D02*
X72657725Y-29875000D01*
X68030671Y-25247947D01*
X68056874Y-25184844D01*
X68057126Y-24896421D01*
X67946984Y-24629857D01*
X67743216Y-24425733D01*
X67476844Y-24315126D01*
X67188421Y-24314874D01*
X66921857Y-24425016D01*
X66811631Y-24535050D01*
X66587844Y-24442126D01*
X66299421Y-24441874D01*
X66207600Y-24479814D01*
X66207600Y-23643000D01*
X66167515Y-23441479D01*
X66138221Y-23397637D01*
X66053362Y-23270637D01*
X65672364Y-22889640D01*
X65672362Y-22889637D01*
X63413600Y-20630876D01*
X63413600Y-14880000D01*
X63373515Y-14678479D01*
X63259363Y-14507638D01*
X62651600Y-13899876D01*
X62651600Y-13327497D01*
X62828425Y-13504630D01*
X63113167Y-13622865D01*
X63421481Y-13623134D01*
X63706429Y-13505396D01*
X63924630Y-13287575D01*
X64042865Y-13002833D01*
X64043134Y-12694519D01*
X63925396Y-12409571D01*
X63707575Y-12191370D01*
X63512000Y-12110160D01*
X63512000Y-6966423D01*
X71424243Y-6966423D01*
X72088893Y-8575001D01*
X73318526Y-9806782D01*
X74925941Y-10474239D01*
X76666423Y-10475757D01*
X78275001Y-9811107D01*
X79506782Y-8581474D01*
X80174239Y-6974059D01*
X80175757Y-5233577D01*
X79511107Y-3624999D01*
X78281474Y-2393218D01*
X76674059Y-1725761D01*
X74933577Y-1724243D01*
X73324999Y-2388893D01*
X72093218Y-3618526D01*
X71425761Y-5225941D01*
X71424243Y-6966423D01*
X63512000Y-6966423D01*
X63512000Y-5990005D01*
X63512001Y-5990000D01*
X63464425Y-5750823D01*
X63328942Y-5548058D01*
X63328939Y-5548056D01*
X62693942Y-4913058D01*
X59772942Y-1992058D01*
X59570177Y-1856575D01*
X59331000Y-1809000D01*
X56791005Y-1809000D01*
X56791000Y-1808999D01*
X56551823Y-1856575D01*
X56349058Y-1992058D01*
X56349056Y-1992061D01*
X52666058Y-5675058D01*
X52530575Y-5877823D01*
X52483000Y-6117000D01*
X52483000Y-7092604D01*
X52363844Y-7043126D01*
X52075421Y-7042874D01*
X51808857Y-7153016D01*
X51604733Y-7356784D01*
X51494126Y-7623156D01*
X51493874Y-7911579D01*
X51604016Y-8178143D01*
X51807784Y-8382267D01*
X51946400Y-8439825D01*
X51946400Y-11976792D01*
X48807792Y-15115400D01*
X42275906Y-15115400D01*
X42276126Y-14863421D01*
X42165984Y-14596857D01*
X41962216Y-14392733D01*
X41695844Y-14282126D01*
X41407421Y-14281874D01*
X41140857Y-14392016D01*
X40936733Y-14595784D01*
X40826126Y-14862156D01*
X40825905Y-15115400D01*
X24624125Y-15115400D01*
X21448018Y-11939294D01*
X21448126Y-11815421D01*
X21337984Y-11548857D01*
X21134216Y-11344733D01*
X20867844Y-11234126D01*
X20579421Y-11233874D01*
X20312857Y-11344016D01*
X20108733Y-11547784D01*
X19998126Y-11814156D01*
X19997874Y-12102579D01*
X20108016Y-12369143D01*
X20170370Y-12431606D01*
X20066370Y-12535425D01*
X19948135Y-12820167D01*
X19947866Y-13128481D01*
X20065604Y-13413429D01*
X20283425Y-13631630D01*
X20568167Y-13749865D01*
X20614021Y-13749905D01*
X23583058Y-16718942D01*
X23785822Y-16854425D01*
X24025000Y-16902000D01*
X24951119Y-16902000D01*
X24950874Y-17182579D01*
X25061016Y-17449143D01*
X25264784Y-17653267D01*
X25531156Y-17763874D01*
X25819579Y-17764126D01*
X26086143Y-17653984D01*
X26290267Y-17450216D01*
X26295090Y-17438600D01*
X46900660Y-17438600D01*
X46905016Y-17449143D01*
X47108784Y-17653267D01*
X47375156Y-17763874D01*
X47663579Y-17764126D01*
X47930143Y-17653984D01*
X48134267Y-17450216D01*
X48244874Y-17183844D01*
X48245120Y-16902000D01*
X49171000Y-16902000D01*
X49410177Y-16854425D01*
X49612942Y-16718942D01*
X53216400Y-13115484D01*
X53216400Y-13772875D01*
X40162638Y-26826638D01*
X40048485Y-26997479D01*
X40008400Y-27199000D01*
X40008400Y-27335270D01*
X39920733Y-27422784D01*
X39810126Y-27689156D01*
X39809874Y-27977579D01*
X39920016Y-28244143D01*
X40123784Y-28448267D01*
X40171991Y-28468284D01*
X40127638Y-28512638D01*
X40013485Y-28683479D01*
X39973400Y-28885000D01*
X39973400Y-29875000D01*
X27064725Y-29875000D01*
X24297600Y-27107876D01*
X24297600Y-20722000D01*
X24257515Y-20520479D01*
X24143363Y-20349638D01*
X23843789Y-20050064D01*
X23914579Y-20050126D01*
X24111356Y-19968820D01*
X27191271Y-23048735D01*
X27110126Y-23244156D01*
X27109874Y-23532579D01*
X27220016Y-23799143D01*
X27423784Y-24003267D01*
X27690156Y-24113874D01*
X27978579Y-24114126D01*
X28245143Y-24003984D01*
X28449267Y-23800216D01*
X28469284Y-23752009D01*
X32570982Y-27853707D01*
X32570874Y-27977579D01*
X32681016Y-28244143D01*
X32884784Y-28448267D01*
X33151156Y-28558874D01*
X33439579Y-28559126D01*
X33706143Y-28448984D01*
X33910267Y-28245216D01*
X34020874Y-27978844D01*
X34021126Y-27690421D01*
X33910984Y-27423857D01*
X33707216Y-27219733D01*
X33440844Y-27109126D01*
X33315742Y-27109017D01*
X23254362Y-17047638D01*
X23083521Y-16933485D01*
X23069012Y-16930599D01*
X22882000Y-16893400D01*
X21729730Y-16893400D01*
X21642216Y-16805733D01*
X21375844Y-16695126D01*
X21087421Y-16694874D01*
X20820857Y-16805016D01*
X20616733Y-17008784D01*
X20506126Y-17275156D01*
X20505874Y-17563579D01*
X20616016Y-17830143D01*
X20819784Y-18034267D01*
X20938905Y-18083730D01*
X20870733Y-18151784D01*
X20760126Y-18418156D01*
X20759874Y-18706579D01*
X20870016Y-18973143D01*
X20958400Y-19061681D01*
X20958400Y-19071000D01*
X20994101Y-19250479D01*
X20998485Y-19272521D01*
X21112638Y-19443362D01*
X22010867Y-20341592D01*
X21963857Y-20361016D01*
X21759733Y-20564784D01*
X21649126Y-20831156D01*
X21648874Y-21119579D01*
X21666762Y-21162872D01*
X21455857Y-21250016D01*
X21251733Y-21453784D01*
X21141126Y-21720156D01*
X21141078Y-21775032D01*
X20960421Y-21774874D01*
X20693857Y-21885016D01*
X20489733Y-22088784D01*
X20477513Y-22118214D01*
X20372216Y-22012733D01*
X20105844Y-21902126D01*
X19817421Y-21901874D01*
X19550857Y-22012016D01*
X19346733Y-22215784D01*
X19236126Y-22482156D01*
X19235974Y-22656298D01*
X19220485Y-22679479D01*
X19180400Y-22881000D01*
X19180400Y-24241184D01*
X19042857Y-24298016D01*
X18838733Y-24501784D01*
X18728126Y-24768156D01*
X18727874Y-25056579D01*
X18838016Y-25323143D01*
X19041784Y-25527267D01*
X19308156Y-25637874D01*
X19596579Y-25638126D01*
X19653400Y-25614648D01*
X19653400Y-29875000D01*
X500000Y-29875000D01*
X500000Y-6966423D01*
X2024243Y-6966423D01*
X2688893Y-8575001D01*
X3918526Y-9806782D01*
X5525941Y-10474239D01*
X7266423Y-10475757D01*
X8875001Y-9811107D01*
X10106782Y-8581474D01*
X10774239Y-6974059D01*
X10775757Y-5233577D01*
X10111107Y-3624999D01*
X8881474Y-2393218D01*
X7274059Y-1725761D01*
X5533577Y-1724243D01*
X3924999Y-2388893D01*
X2693218Y-3618526D01*
X2025761Y-5225941D01*
X2024243Y-6966423D01*
X500000Y-6966423D01*
X500000Y-500000D01*
X83100000Y-500000D01*
X83100000Y-29875000D01*
G36*
X21720400Y-25585709D02*
X21455857Y-25695016D01*
X21251733Y-25898784D01*
X21141126Y-26165156D01*
X21140874Y-26453579D01*
X21251016Y-26720143D01*
X21454784Y-26924267D01*
X21721156Y-27034874D01*
X22009579Y-27035126D01*
X22193400Y-26959173D01*
X22193400Y-29875000D01*
X20706600Y-29875000D01*
X20706600Y-23642124D01*
X21123707Y-23225018D01*
X21247579Y-23225126D01*
X21514143Y-23114984D01*
X21718267Y-22911216D01*
X21720400Y-22906079D01*
X21720400Y-25585709D01*
X21720400Y-25585709D01*
G37*
X21720400Y-25585709D02*
X21455857Y-25695016D01*
X21251733Y-25898784D01*
X21141126Y-26165156D01*
X21140874Y-26453579D01*
X21251016Y-26720143D01*
X21454784Y-26924267D01*
X21721156Y-27034874D01*
X22009579Y-27035126D01*
X22193400Y-26959173D01*
X22193400Y-29875000D01*
X20706600Y-29875000D01*
X20706600Y-23642124D01*
X21123707Y-23225018D01*
X21247579Y-23225126D01*
X21514143Y-23114984D01*
X21718267Y-22911216D01*
X21720400Y-22906079D01*
X21720400Y-25585709D01*
G36*
X24733400Y-29668125D02*
X24733400Y-29875000D01*
X23246600Y-29875000D01*
X23246600Y-28181324D01*
X24733400Y-29668125D01*
X24733400Y-29668125D01*
G37*
X24733400Y-29668125D02*
X24733400Y-29875000D01*
X23246600Y-29875000D01*
X23246600Y-28181324D01*
X24733400Y-29668125D01*
G36*
X44580400Y-27869876D02*
X42702638Y-29747638D01*
X42617537Y-29875000D01*
X41026600Y-29875000D01*
X41026600Y-29103124D01*
X41669362Y-28460363D01*
X41783515Y-28289521D01*
X41792541Y-28244143D01*
X41823600Y-28088000D01*
X41823600Y-27290124D01*
X44580400Y-24533324D01*
X44580400Y-27869876D01*
X44580400Y-27869876D01*
G37*
X44580400Y-27869876D02*
X42702638Y-29747638D01*
X42617537Y-29875000D01*
X41026600Y-29875000D01*
X41026600Y-29103124D01*
X41669362Y-28460363D01*
X41783515Y-28289521D01*
X41792541Y-28244143D01*
X41823600Y-28088000D01*
X41823600Y-27290124D01*
X44580400Y-24533324D01*
X44580400Y-27869876D01*
G36*
X56264400Y-15515000D02*
X56287944Y-15633362D01*
X56304485Y-15716521D01*
X56418638Y-15887362D01*
X57153400Y-16622125D01*
X57153400Y-19452000D01*
X57193485Y-19653521D01*
X57307638Y-19824362D01*
X59566400Y-22083125D01*
X59566400Y-27843270D01*
X59478733Y-27930784D01*
X59368126Y-28197156D01*
X59367874Y-28485579D01*
X59478016Y-28752143D01*
X59681784Y-28956267D01*
X59948156Y-29066874D01*
X60201400Y-29067095D01*
X60201400Y-29875000D01*
X44064724Y-29875000D01*
X44943459Y-28996265D01*
X45000016Y-29133143D01*
X45203784Y-29337267D01*
X45470156Y-29447874D01*
X45758579Y-29448126D01*
X46025143Y-29337984D01*
X46229267Y-29134216D01*
X46339874Y-28867844D01*
X46340126Y-28579421D01*
X46229984Y-28312857D01*
X46141600Y-28224319D01*
X46141600Y-24242124D01*
X52454400Y-17929325D01*
X52454400Y-25837875D01*
X50675294Y-27616982D01*
X50551421Y-27616874D01*
X50284857Y-27727016D01*
X50080733Y-27930784D01*
X49970126Y-28197156D01*
X49969874Y-28485579D01*
X50080016Y-28752143D01*
X50283784Y-28956267D01*
X50550156Y-29066874D01*
X50838579Y-29067126D01*
X51105143Y-28956984D01*
X51309267Y-28753216D01*
X51419874Y-28486844D01*
X51419983Y-28361741D01*
X53235000Y-26546725D01*
X55207437Y-28519162D01*
X55160733Y-28565784D01*
X55050126Y-28832156D01*
X55049874Y-29120579D01*
X55160016Y-29387143D01*
X55363784Y-29591267D01*
X55630156Y-29701874D01*
X55918579Y-29702126D01*
X56185143Y-29591984D01*
X56389267Y-29388216D01*
X56499874Y-29121844D01*
X56500126Y-28833421D01*
X56389984Y-28566857D01*
X56301600Y-28478319D01*
X56301600Y-28342000D01*
X56261515Y-28140479D01*
X56238878Y-28106600D01*
X56147362Y-27969637D01*
X54015600Y-25837876D01*
X54015600Y-17638124D01*
X54623363Y-17030362D01*
X54623365Y-17030359D01*
X56264400Y-15389324D01*
X56264400Y-15515000D01*
X56264400Y-15515000D01*
G37*
X56264400Y-15515000D02*
X56287944Y-15633362D01*
X56304485Y-15716521D01*
X56418638Y-15887362D01*
X57153400Y-16622125D01*
X57153400Y-19452000D01*
X57193485Y-19653521D01*
X57307638Y-19824362D01*
X59566400Y-22083125D01*
X59566400Y-27843270D01*
X59478733Y-27930784D01*
X59368126Y-28197156D01*
X59367874Y-28485579D01*
X59478016Y-28752143D01*
X59681784Y-28956267D01*
X59948156Y-29066874D01*
X60201400Y-29067095D01*
X60201400Y-29875000D01*
X44064724Y-29875000D01*
X44943459Y-28996265D01*
X45000016Y-29133143D01*
X45203784Y-29337267D01*
X45470156Y-29447874D01*
X45758579Y-29448126D01*
X46025143Y-29337984D01*
X46229267Y-29134216D01*
X46339874Y-28867844D01*
X46340126Y-28579421D01*
X46229984Y-28312857D01*
X46141600Y-28224319D01*
X46141600Y-24242124D01*
X52454400Y-17929325D01*
X52454400Y-25837875D01*
X50675294Y-27616982D01*
X50551421Y-27616874D01*
X50284857Y-27727016D01*
X50080733Y-27930784D01*
X49970126Y-28197156D01*
X49969874Y-28485579D01*
X50080016Y-28752143D01*
X50283784Y-28956267D01*
X50550156Y-29066874D01*
X50838579Y-29067126D01*
X51105143Y-28956984D01*
X51309267Y-28753216D01*
X51419874Y-28486844D01*
X51419983Y-28361741D01*
X53235000Y-26546725D01*
X55207437Y-28519162D01*
X55160733Y-28565784D01*
X55050126Y-28832156D01*
X55049874Y-29120579D01*
X55160016Y-29387143D01*
X55363784Y-29591267D01*
X55630156Y-29701874D01*
X55918579Y-29702126D01*
X56185143Y-29591984D01*
X56389267Y-29388216D01*
X56499874Y-29121844D01*
X56500126Y-28833421D01*
X56389984Y-28566857D01*
X56301600Y-28478319D01*
X56301600Y-28342000D01*
X56261515Y-28140479D01*
X56238878Y-28106600D01*
X56147362Y-27969637D01*
X54015600Y-25837876D01*
X54015600Y-17638124D01*
X54623363Y-17030362D01*
X54623365Y-17030359D01*
X56264400Y-15389324D01*
X56264400Y-15515000D01*
G36*
X62514638Y-23126363D02*
X62514641Y-23126365D01*
X63403638Y-24015363D01*
X63403641Y-24015365D01*
X63630400Y-24242125D01*
X63630400Y-25929000D01*
X63666101Y-26108479D01*
X63670485Y-26130521D01*
X63784638Y-26301362D01*
X64773400Y-27290125D01*
X64773400Y-28215000D01*
X64813262Y-28415400D01*
X64813485Y-28416521D01*
X64927638Y-28587362D01*
X65373400Y-29033125D01*
X65373400Y-29875000D01*
X63840849Y-29875000D01*
X63776384Y-29778521D01*
X63732363Y-29712638D01*
X61762600Y-27742876D01*
X61762600Y-22374325D01*
X62514638Y-23126363D01*
X62514638Y-23126363D01*
G37*
X62514638Y-23126363D02*
X62514641Y-23126365D01*
X63403638Y-24015363D01*
X63403641Y-24015365D01*
X63630400Y-24242125D01*
X63630400Y-25929000D01*
X63666101Y-26108479D01*
X63670485Y-26130521D01*
X63784638Y-26301362D01*
X64773400Y-27290125D01*
X64773400Y-28215000D01*
X64813262Y-28415400D01*
X64813485Y-28416521D01*
X64927638Y-28587362D01*
X65373400Y-29033125D01*
X65373400Y-29875000D01*
X63840849Y-29875000D01*
X63776384Y-29778521D01*
X63732363Y-29712638D01*
X61762600Y-27742876D01*
X61762600Y-22374325D01*
X62514638Y-23126363D01*
G36*
X61810058Y-5796942D02*
X62262000Y-6248883D01*
X62262000Y-7727604D01*
X62142844Y-7678126D01*
X61854421Y-7677874D01*
X61587857Y-7788016D01*
X61383733Y-7991784D01*
X61273126Y-8258156D01*
X61273017Y-8383259D01*
X61117638Y-8538638D01*
X61003485Y-8709479D01*
X60963400Y-8911000D01*
X60963400Y-20085676D01*
X59730600Y-18852876D01*
X59730600Y-14245000D01*
X59690515Y-14043479D01*
X59674922Y-14020143D01*
X59576363Y-13872638D01*
X59294018Y-13590293D01*
X59294126Y-13466421D01*
X59183984Y-13199857D01*
X58980216Y-12995733D01*
X58713844Y-12885126D01*
X58425421Y-12884874D01*
X58158857Y-12995016D01*
X57954733Y-13198784D01*
X57844126Y-13465156D01*
X57843874Y-13753579D01*
X57954016Y-14020143D01*
X58157784Y-14224267D01*
X58424156Y-14334874D01*
X58549259Y-14334983D01*
X58623322Y-14409047D01*
X58425421Y-14408874D01*
X58158857Y-14519016D01*
X57954733Y-14722784D01*
X57942513Y-14752214D01*
X57837216Y-14646733D01*
X57570844Y-14536126D01*
X57317600Y-14535905D01*
X57317600Y-8387340D01*
X57328143Y-8382984D01*
X57532267Y-8179216D01*
X57642874Y-7912844D01*
X57643126Y-7624421D01*
X57532984Y-7357857D01*
X57329216Y-7153733D01*
X57101533Y-7059191D01*
X57136125Y-7024600D01*
X57181270Y-7024600D01*
X57268784Y-7112267D01*
X57535156Y-7222874D01*
X57823579Y-7223126D01*
X58090143Y-7112984D01*
X58294267Y-6909216D01*
X58404874Y-6642844D01*
X58405126Y-6354421D01*
X58294984Y-6087857D01*
X58091216Y-5883733D01*
X57951951Y-5825905D01*
X58204579Y-5826126D01*
X58471143Y-5715984D01*
X58675267Y-5512216D01*
X58785874Y-5245844D01*
X58786126Y-4957421D01*
X58675984Y-4690857D01*
X58472216Y-4486733D01*
X58263246Y-4399961D01*
X58421267Y-4242216D01*
X58531874Y-3975844D01*
X58531922Y-3921079D01*
X58585579Y-3921126D01*
X58852143Y-3810984D01*
X59056267Y-3607216D01*
X59166874Y-3340844D01*
X59167037Y-3153921D01*
X61810058Y-5796942D01*
X61810058Y-5796942D01*
G37*
X61810058Y-5796942D02*
X62262000Y-6248883D01*
X62262000Y-7727604D01*
X62142844Y-7678126D01*
X61854421Y-7677874D01*
X61587857Y-7788016D01*
X61383733Y-7991784D01*
X61273126Y-8258156D01*
X61273017Y-8383259D01*
X61117638Y-8538638D01*
X61003485Y-8709479D01*
X60963400Y-8911000D01*
X60963400Y-20085676D01*
X59730600Y-18852876D01*
X59730600Y-14245000D01*
X59690515Y-14043479D01*
X59674922Y-14020143D01*
X59576363Y-13872638D01*
X59294018Y-13590293D01*
X59294126Y-13466421D01*
X59183984Y-13199857D01*
X58980216Y-12995733D01*
X58713844Y-12885126D01*
X58425421Y-12884874D01*
X58158857Y-12995016D01*
X57954733Y-13198784D01*
X57844126Y-13465156D01*
X57843874Y-13753579D01*
X57954016Y-14020143D01*
X58157784Y-14224267D01*
X58424156Y-14334874D01*
X58549259Y-14334983D01*
X58623322Y-14409047D01*
X58425421Y-14408874D01*
X58158857Y-14519016D01*
X57954733Y-14722784D01*
X57942513Y-14752214D01*
X57837216Y-14646733D01*
X57570844Y-14536126D01*
X57317600Y-14535905D01*
X57317600Y-8387340D01*
X57328143Y-8382984D01*
X57532267Y-8179216D01*
X57642874Y-7912844D01*
X57643126Y-7624421D01*
X57532984Y-7357857D01*
X57329216Y-7153733D01*
X57101533Y-7059191D01*
X57136125Y-7024600D01*
X57181270Y-7024600D01*
X57268784Y-7112267D01*
X57535156Y-7222874D01*
X57823579Y-7223126D01*
X58090143Y-7112984D01*
X58294267Y-6909216D01*
X58404874Y-6642844D01*
X58405126Y-6354421D01*
X58294984Y-6087857D01*
X58091216Y-5883733D01*
X57951951Y-5825905D01*
X58204579Y-5826126D01*
X58471143Y-5715984D01*
X58675267Y-5512216D01*
X58785874Y-5245844D01*
X58786126Y-4957421D01*
X58675984Y-4690857D01*
X58472216Y-4486733D01*
X58263246Y-4399961D01*
X58421267Y-4242216D01*
X58531874Y-3975844D01*
X58531922Y-3921079D01*
X58585579Y-3921126D01*
X58852143Y-3810984D01*
X59056267Y-3607216D01*
X59166874Y-3340844D01*
X59167037Y-3153921D01*
X61810058Y-5796942D01*
M02*
