M48
;DRILL file {KiCad 4.0.7} date 07/02/21 11:45:33
;FORMAT={-:-/ absolute / metric / decimal}
FMAT,2
METRIC,TZ
T1C0.400
T2C0.500
T3C6.100
%
G90
G05
M71
T1
X19.453Y-24.913
X19.961Y-22.627
X20.723Y-11.959
X21.104Y-22.5
X21.231Y-17.42
X21.485Y-18.563
X21.866Y-21.865
X21.866Y-26.31
X22.374Y-20.976
X22.628Y-18.182
X23.771Y-19.325
X25.676Y-17.039
X27.835Y-23.389
X33.296Y-27.834
X40.535Y-27.834
X41.551Y-15.007
X45.615Y-28.723
X47.52Y-17.039
X50.695Y-28.342
X52.219Y-7.768
X55.775Y-28.977
X56.918Y-7.768
X57.045Y-5.863
X57.172Y-4.466
X57.426Y-15.261
X57.68Y-6.498
X57.807Y-3.831
X58.061Y-5.101
X58.442Y-3.196
X58.569Y-13.61
X58.569Y-15.134
X60.093Y-28.342
X61.998Y-8.403
X62.125Y-11.705
X62.252Y-15.134
X65.935Y-27.834
X66.443Y-25.167
X67.332Y-25.04
X67.713Y-27.326
T2
X1.419Y-24.913
X1.8Y-10.689
X2.435Y-15.134
X3.578Y-22.5
X5.102Y-12.34
X6.372Y-25.675
X7.769Y-23.516
X8.404Y-28.215
X9.674Y-21.865
X10.182Y-13.61
X11.96Y-25.294
X12.341Y-4.72
X12.341Y-7.514
X13.992Y-22.246
X15.135Y-13.737
X15.389Y-28.215
X15.77Y-8.53
X16.532Y-4.72
X17.675Y-26.183
X18.31Y-19.96
X19.326Y-28.977
X19.834Y-2.434
X20.469Y-7.133
X20.723Y-12.975
X21.231Y-27.961
X21.485Y-4.593
X22.374Y-9.165
X22.501Y-11.451
X23.771Y-29.104
X24.533Y-2.18
X24.787Y-18.055
X25.422Y-27.453
X26.311Y-24.532
X28.089Y-11.324
X29.232Y-25.421
X29.74Y-4.974
X29.994Y-23.262
X30.502Y-28.469
X31.01Y-20.595
X32.026Y-7.26
X33.55Y-13.356
X33.804Y-19.198
X33.804Y-23.643
X34.947Y-4.974
X35.074Y-9.419
X35.328Y-27.072
X35.582Y-21.103
X37.614Y-7.26
X37.614Y-19.198
X38.503Y-23.77
X38.63Y-13.356
X39.9Y-21.357
X41.424Y-9.419
X41.678Y-4.974
X41.678Y-19.198
X42.694Y-27.453
X42.821Y-21.738
X44.091Y-25.421
X46.123Y-17.801
X47.901Y-10.054
X49.679Y-21.484
X50.695Y-7.387
X51.203Y-15.515
X51.457Y-23.262
X54.886Y-19.96
X54.886Y-22.627
X54.886Y-25.548
X57.807Y-11.959
X57.807Y-21.23
X57.934Y-24.278
X62.252Y-23.389
X63.141Y-25.802
X63.268Y-2.053
X63.268Y-12.848
X63.903Y-28.596
X64.284Y-20.976
X65.808Y-4.085
X66.824Y-12.467
X67.205Y-18.055
X67.84Y-23.389
X68.983Y-5.228
X68.983Y-9.038
X70.126Y-25.675
X70.253Y-14.88
X72.539Y-20.214
X74.952Y-12.594
X76.222Y-17.293
X76.476Y-23.897
X80.159Y-14.88
X81.048Y-10.435
X81.556Y-21.992
T3
X6.4Y-6.1
X75.8Y-6.1
T0
M30
