M48
;DRILL file {KiCad 4.0.7} date 05/24/21 14:21:44
;FORMAT={-:-/ absolute / metric / decimal}
FMAT,2
METRIC,TZ
T1C0.400
T2C0.500
T3C1.020
T4C3.200
%
G90
G05
M71
T1
X2.154Y-21.158
X2.154Y-35.636
X2.154Y-52.908
X3.932Y-57.226
X37.206Y-54.686
X37.968Y-51.892
X38.73Y-52.654
X39.238Y-30.556
X39.238Y-31.826
X39.238Y-33.096
X39.238Y-36.652
X39.746Y-53.416
X44.318Y-45.034
X44.572Y-30.302
X44.572Y-31.572
X44.572Y-32.842
X44.572Y-35.382
X44.572Y-36.652
X44.572Y-57.226
X44.572Y-58.496
X44.572Y-59.766
X44.572Y-61.036
X44.572Y-62.306
X44.572Y-63.576
X44.572Y-64.846
X49.144Y-18.872
X49.144Y-46.812
X49.398Y-32.842
X49.398Y-43.256
X49.398Y-49.352
X50.414Y-20.396
T2
X1.392Y-29.032
X1.392Y-32.842
X1.392Y-47.066
X1.392Y-50.368
X2.154Y-65.1
X2.662Y-71.45
X2.916Y-11.252
X3.424Y-25.73
X3.424Y-67.894
X4.694Y-60.782
X4.694Y-62.052
X4.948Y-59.258
X5.456Y-26.746
X5.964Y-69.672
X6.472Y-40.462
X6.472Y-44.018
X6.98Y-16.332
X7.234Y-30.81
X7.234Y-33.35
X7.234Y-48.082
X7.488Y-49.606
X7.488Y-51.384
X7.488Y-53.416
X7.742Y-18.364
X7.742Y-20.65
X7.742Y-36.906
X7.996Y-44.018
X8.758Y-10.744
X9.012Y-41.478
X9.012Y-72.72
X10.028Y-76.53
X11.044Y-67.894
X11.298Y-40.208
X11.552Y-59.258
X12.06Y-7.188
X12.314Y-18.11
X12.314Y-60.02
X12.314Y-79.832
X12.568Y-28.778
X13.33Y-15.062
X13.33Y-48.844
X13.838Y-25.984
X13.838Y-36.398
X13.838Y-69.164
X14.346Y-3.124
X14.346Y-71.45
X15.87Y-33.604
X15.87Y-55.194
X16.124Y-46.558
X16.632Y-36.906
X16.632Y-51.892
X20.696Y-68.402
X21.204Y-14.554
X21.204Y-20.65
X21.204Y-25.73
X22.474Y-69.672
X22.474Y-80.086
X23.744Y-18.11
X23.744Y-23.19
X23.744Y-28.27
X24.252Y-46.304
X24.252Y-53.416
X24.252Y-61.544
X25.522Y-5.41
X25.522Y-39.7
X25.522Y-42.494
X26.03Y-49.86
X26.03Y-57.734
X26.03Y-65.354
X26.792Y-16.84
X26.792Y-21.666
X26.792Y-27.
X26.792Y-32.08
X26.792Y-36.144
X27.3Y-10.744
X27.3Y-68.91
X29.078Y-40.208
X29.586Y-47.828
X29.586Y-54.94
X30.348Y-44.526
X30.348Y-51.638
X30.856Y-13.284
X30.856Y-24.46
X30.856Y-29.286
X30.856Y-34.62
X31.11Y-19.38
X34.412Y-5.41
X35.174Y-70.688
X35.682Y-12.014
X35.682Y-37.16
X35.682Y-60.02
X35.936Y-64.846
X35.936Y-67.64
X36.444Y-38.938
X36.698Y-15.316
X36.952Y-35.382
X37.46Y-33.096
X37.714Y-45.034
X37.714Y-62.306
X37.714Y-79.832
X37.968Y-7.95
X38.73Y-66.116
X39.238Y-3.124
X39.238Y-39.954
X39.746Y-25.222
X41.016Y-25.73
X42.286Y-72.212
X42.54Y-53.416
X43.048Y-7.95
X43.048Y-79.832
X43.302Y-39.192
X43.556Y-54.94
X43.81Y-70.942
X44.064Y-13.03
X44.064Y-17.094
X47.62Y-10.744
X49.144Y-27.762
X49.398Y-30.81
X49.652Y-71.45
X50.414Y-12.522
X50.922Y-68.656
X51.43Y-22.682
X51.43Y-48.844
X51.43Y-53.924
T3
X12.314Y-74.244
X13.584Y-41.478
X13.584Y-44.018
X14.854Y-74.244
X17.394Y-74.244
X18.41Y-10.49
X18.41Y-13.03
X18.41Y-15.57
X18.41Y-18.11
X18.41Y-20.65
X18.41Y-23.19
X18.41Y-25.73
X18.41Y-28.27
X18.41Y-30.81
X18.41Y-33.35
X18.41Y-35.89
X18.41Y-38.43
X18.41Y-40.97
X18.41Y-43.51
X18.41Y-46.05
X18.41Y-48.59
X18.41Y-51.13
X18.41Y-53.67
X18.41Y-56.21
X18.41Y-58.75
X18.41Y-61.29
X18.41Y-63.83
X18.41Y-66.37
X18.41Y-68.91
X19.934Y-74.244
X22.474Y-74.244
X25.014Y-74.244
X27.554Y-74.244
X30.094Y-74.244
X32.634Y-74.244
X33.65Y-10.49
X33.65Y-13.03
X33.65Y-15.57
X33.65Y-18.11
X33.65Y-20.65
X33.65Y-23.19
X33.65Y-25.73
X33.65Y-28.27
X33.65Y-30.81
X33.65Y-33.35
X33.65Y-35.89
X33.65Y-38.43
X33.65Y-40.97
X33.65Y-43.51
X33.65Y-46.05
X33.65Y-48.59
X33.65Y-51.13
X33.65Y-53.67
X33.65Y-56.21
X33.65Y-58.75
X33.65Y-61.29
X33.65Y-63.83
X33.65Y-66.37
X33.65Y-68.91
X35.174Y-74.244
X37.714Y-74.244
X40.254Y-74.244
T4
X5.Y-4.
X5.Y-77.6
X48.1Y-4.
X48.1Y-77.6
T0
M30
