G04 #@! TF.FileFunction,Soldermask,Bot*
%FSLAX46Y46*%
G04 Gerber Fmt 4.6, Leading zero omitted, Abs format (unit mm)*
G04 Created by KiCad (PCBNEW 4.0.7) date 05/24/21 14:21:38*
%MOMM*%
%LPD*%
G01*
G04 APERTURE LIST*
%ADD10C,0.200000*%
%ADD11C,0.300000*%
%ADD12C,2.000000*%
%ADD13C,7.200000*%
G04 APERTURE END LIST*
D10*
D11*
X32906356Y-4014476D02*
X32605167Y-4119238D01*
X32081357Y-4119238D01*
X31858737Y-4014476D01*
X31740880Y-3909714D01*
X31609929Y-3700190D01*
X31583738Y-3490667D01*
X31662309Y-3281143D01*
X31753976Y-3176381D01*
X31950404Y-3071619D01*
X32356357Y-2966857D01*
X32552786Y-2862095D01*
X32644452Y-2757333D01*
X32723023Y-2547810D01*
X32696833Y-2338286D01*
X32565880Y-2128762D01*
X32448024Y-2024000D01*
X32225405Y-1919238D01*
X31701595Y-1919238D01*
X31400405Y-2024000D01*
X29305167Y-2024000D02*
X29501595Y-1919238D01*
X29815881Y-1919238D01*
X30143262Y-2024000D01*
X30378976Y-2233524D01*
X30509928Y-2443048D01*
X30667071Y-2862095D01*
X30706357Y-3176381D01*
X30653976Y-3595429D01*
X30575405Y-3804952D01*
X30392071Y-4014476D01*
X30090881Y-4119238D01*
X29881357Y-4119238D01*
X29553976Y-4014476D01*
X29436119Y-3909714D01*
X29344453Y-3176381D01*
X29763500Y-3176381D01*
X27825405Y-1919238D02*
X27615881Y-1919238D01*
X27419452Y-2024000D01*
X27327785Y-2128762D01*
X27249214Y-2338286D01*
X27196834Y-2757333D01*
X27262310Y-3281143D01*
X27419452Y-3700190D01*
X27550404Y-3909714D01*
X27668261Y-4014476D01*
X27890881Y-4119238D01*
X28100405Y-4119238D01*
X28296833Y-4014476D01*
X28388500Y-3909714D01*
X28467071Y-3700190D01*
X28519452Y-3281143D01*
X28453976Y-2757333D01*
X28296833Y-2338286D01*
X28165881Y-2128762D01*
X28048024Y-2024000D01*
X27825405Y-1919238D01*
X25730167Y-1919238D02*
X25520643Y-1919238D01*
X25324214Y-2024000D01*
X25232547Y-2128762D01*
X25153976Y-2338286D01*
X25101596Y-2757333D01*
X25167072Y-3281143D01*
X25324214Y-3700190D01*
X25455166Y-3909714D01*
X25573023Y-4014476D01*
X25795643Y-4119238D01*
X26005167Y-4119238D01*
X26201595Y-4014476D01*
X26293262Y-3909714D01*
X26371833Y-3700190D01*
X26424214Y-3281143D01*
X26358738Y-2757333D01*
X26201595Y-2338286D01*
X26070643Y-2128762D01*
X25952786Y-2024000D01*
X25730167Y-1919238D01*
X24184928Y-2128762D02*
X24067071Y-2024000D01*
X23844453Y-1919238D01*
X23320643Y-1919238D01*
X23124214Y-2024000D01*
X23032547Y-2128762D01*
X22953977Y-2338286D01*
X22980167Y-2547810D01*
X23124214Y-2862095D01*
X24538500Y-4119238D01*
X23176596Y-4119238D01*
X22233738Y-4119238D02*
X21958738Y-1919238D01*
X21120643Y-1919238D01*
X20924214Y-2024000D01*
X20832548Y-2128762D01*
X20753977Y-2338286D01*
X20793262Y-2652571D01*
X20924215Y-2862095D01*
X21042071Y-2966857D01*
X21264690Y-3071619D01*
X22102785Y-3071619D01*
X18881358Y-4119238D02*
X20138500Y-4119238D01*
X19509929Y-4119238D02*
X19234929Y-1919238D01*
X19483738Y-2233524D01*
X19719453Y-2443048D01*
X19942071Y-2547810D01*
D12*
X12314000Y-74244000D03*
X14854000Y-74244000D03*
X17394000Y-74244000D03*
X19934000Y-74244000D03*
X25014000Y-74244000D03*
X22474000Y-74244000D03*
X27554000Y-74244000D03*
X30094000Y-74244000D03*
X32634000Y-74244000D03*
X35174000Y-74244000D03*
X37714000Y-74244000D03*
X40254000Y-74244000D03*
X13584000Y-41478000D03*
X13584000Y-44018000D03*
X18410000Y-10490000D03*
X18410000Y-13030000D03*
X18410000Y-15570000D03*
X18410000Y-18110000D03*
X18410000Y-20650000D03*
X18410000Y-23190000D03*
X18410000Y-25730000D03*
X18410000Y-28270000D03*
X18410000Y-30810000D03*
X18410000Y-33350000D03*
X18410000Y-35890000D03*
X18410000Y-38430000D03*
X18410000Y-40970000D03*
X18410000Y-43510000D03*
X18410000Y-46050000D03*
X18410000Y-48590000D03*
X18410000Y-51130000D03*
X18410000Y-53670000D03*
X18410000Y-56210000D03*
X18410000Y-58750000D03*
X18410000Y-61290000D03*
X18410000Y-63830000D03*
X18410000Y-66370000D03*
X18410000Y-68910000D03*
X33650000Y-68910000D03*
X33650000Y-66370000D03*
X33650000Y-63830000D03*
X33650000Y-61290000D03*
X33650000Y-58750000D03*
X33650000Y-56210000D03*
X33650000Y-53670000D03*
X33650000Y-51130000D03*
X33650000Y-48590000D03*
X33650000Y-46050000D03*
X33650000Y-43510000D03*
X33650000Y-40970000D03*
X33650000Y-38430000D03*
X33650000Y-35890000D03*
X33650000Y-33350000D03*
X33650000Y-30810000D03*
X33650000Y-28270000D03*
X33650000Y-25730000D03*
X33650000Y-23190000D03*
X33650000Y-20650000D03*
X33650000Y-18110000D03*
X33650000Y-15570000D03*
X33650000Y-13030000D03*
X33650000Y-10490000D03*
D13*
X48100000Y-77600000D03*
X5000000Y-77600000D03*
X5000000Y-4000000D03*
X48100000Y-4000000D03*
M02*
