G04 #@! TF.FileFunction,Legend,Top*
%FSLAX46Y46*%
G04 Gerber Fmt 4.6, Leading zero omitted, Abs format (unit mm)*
G04 Created by KiCad (PCBNEW 4.0.7) date 05/24/21 14:21:38*
%MOMM*%
%LPD*%
G01*
G04 APERTURE LIST*
%ADD10C,0.200000*%
%ADD11C,0.150000*%
%ADD12C,0.300000*%
%ADD13R,1.600000X1.700000*%
%ADD14R,1.700000X1.600000*%
%ADD15C,2.000000*%
%ADD16R,3.000000X0.900000*%
%ADD17C,7.200000*%
G04 APERTURE END LIST*
D10*
X40706381Y-81506476D02*
X39706381Y-81506476D01*
X39706381Y-81268381D01*
X39754000Y-81125523D01*
X39849238Y-81030285D01*
X39944476Y-80982666D01*
X40134952Y-80935047D01*
X40277810Y-80935047D01*
X40468286Y-80982666D01*
X40563524Y-81030285D01*
X40658762Y-81125523D01*
X40706381Y-81268381D01*
X40706381Y-81506476D01*
X39706381Y-80316000D02*
X39706381Y-80125523D01*
X39754000Y-80030285D01*
X39849238Y-79935047D01*
X40039714Y-79887428D01*
X40373048Y-79887428D01*
X40563524Y-79935047D01*
X40658762Y-80030285D01*
X40706381Y-80125523D01*
X40706381Y-80316000D01*
X40658762Y-80411238D01*
X40563524Y-80506476D01*
X40373048Y-80554095D01*
X40039714Y-80554095D01*
X39849238Y-80506476D01*
X39754000Y-80411238D01*
X39706381Y-80316000D01*
X40658762Y-79506476D02*
X40706381Y-79363619D01*
X40706381Y-79125523D01*
X40658762Y-79030285D01*
X40611143Y-78982666D01*
X40515905Y-78935047D01*
X40420667Y-78935047D01*
X40325429Y-78982666D01*
X40277810Y-79030285D01*
X40230190Y-79125523D01*
X40182571Y-79316000D01*
X40134952Y-79411238D01*
X40087333Y-79458857D01*
X39992095Y-79506476D01*
X39896857Y-79506476D01*
X39801619Y-79458857D01*
X39754000Y-79411238D01*
X39706381Y-79316000D01*
X39706381Y-79077904D01*
X39754000Y-78935047D01*
X40706381Y-78506476D02*
X39706381Y-78506476D01*
X40182571Y-78506476D02*
X40182571Y-77935047D01*
X40706381Y-77935047D02*
X39706381Y-77935047D01*
X40706381Y-76982666D02*
X40706381Y-77458857D01*
X39706381Y-77458857D01*
X40706381Y-76649333D02*
X39706381Y-76649333D01*
X39706381Y-76411238D01*
X39754000Y-76268380D01*
X39849238Y-76173142D01*
X39944476Y-76125523D01*
X40134952Y-76077904D01*
X40277810Y-76077904D01*
X40468286Y-76125523D01*
X40563524Y-76173142D01*
X40658762Y-76268380D01*
X40706381Y-76411238D01*
X40706381Y-76649333D01*
X38166381Y-78077714D02*
X37166381Y-78077714D01*
X37166381Y-77839619D01*
X37214000Y-77696761D01*
X37309238Y-77601523D01*
X37404476Y-77553904D01*
X37594952Y-77506285D01*
X37737810Y-77506285D01*
X37928286Y-77553904D01*
X38023524Y-77601523D01*
X38118762Y-77696761D01*
X38166381Y-77839619D01*
X38166381Y-78077714D01*
X37166381Y-76887238D02*
X37166381Y-76696761D01*
X37214000Y-76601523D01*
X37309238Y-76506285D01*
X37499714Y-76458666D01*
X37833048Y-76458666D01*
X38023524Y-76506285D01*
X38118762Y-76601523D01*
X38166381Y-76696761D01*
X38166381Y-76887238D01*
X38118762Y-76982476D01*
X38023524Y-77077714D01*
X37833048Y-77125333D01*
X37499714Y-77125333D01*
X37309238Y-77077714D01*
X37214000Y-76982476D01*
X37166381Y-76887238D01*
X35626381Y-80752476D02*
X34626381Y-80752476D01*
X34626381Y-80514381D01*
X34674000Y-80371523D01*
X34769238Y-80276285D01*
X34864476Y-80228666D01*
X35054952Y-80181047D01*
X35197810Y-80181047D01*
X35388286Y-80228666D01*
X35483524Y-80276285D01*
X35578762Y-80371523D01*
X35626381Y-80514381D01*
X35626381Y-80752476D01*
X34626381Y-79562000D02*
X34626381Y-79371523D01*
X34674000Y-79276285D01*
X34769238Y-79181047D01*
X34959714Y-79133428D01*
X35293048Y-79133428D01*
X35483524Y-79181047D01*
X35578762Y-79276285D01*
X35626381Y-79371523D01*
X35626381Y-79562000D01*
X35578762Y-79657238D01*
X35483524Y-79752476D01*
X35293048Y-79800095D01*
X34959714Y-79800095D01*
X34769238Y-79752476D01*
X34674000Y-79657238D01*
X34626381Y-79562000D01*
X35531143Y-78133428D02*
X35578762Y-78181047D01*
X35626381Y-78323904D01*
X35626381Y-78419142D01*
X35578762Y-78562000D01*
X35483524Y-78657238D01*
X35388286Y-78704857D01*
X35197810Y-78752476D01*
X35054952Y-78752476D01*
X34864476Y-78704857D01*
X34769238Y-78657238D01*
X34674000Y-78562000D01*
X34626381Y-78419142D01*
X34626381Y-78323904D01*
X34674000Y-78181047D01*
X34721619Y-78133428D01*
X35626381Y-77228666D02*
X35626381Y-77704857D01*
X34626381Y-77704857D01*
X35626381Y-76895333D02*
X34626381Y-76895333D01*
X35626381Y-76323904D02*
X35054952Y-76752476D01*
X34626381Y-76323904D02*
X35197810Y-76895333D01*
X33038762Y-80657238D02*
X33086381Y-80514381D01*
X33086381Y-80276285D01*
X33038762Y-80181047D01*
X32991143Y-80133428D01*
X32895905Y-80085809D01*
X32800667Y-80085809D01*
X32705429Y-80133428D01*
X32657810Y-80181047D01*
X32610190Y-80276285D01*
X32562571Y-80466762D01*
X32514952Y-80562000D01*
X32467333Y-80609619D01*
X32372095Y-80657238D01*
X32276857Y-80657238D01*
X32181619Y-80609619D01*
X32134000Y-80562000D01*
X32086381Y-80466762D01*
X32086381Y-80228666D01*
X32134000Y-80085809D01*
X33038762Y-79704857D02*
X33086381Y-79562000D01*
X33086381Y-79323904D01*
X33038762Y-79228666D01*
X32991143Y-79181047D01*
X32895905Y-79133428D01*
X32800667Y-79133428D01*
X32705429Y-79181047D01*
X32657810Y-79228666D01*
X32610190Y-79323904D01*
X32562571Y-79514381D01*
X32514952Y-79609619D01*
X32467333Y-79657238D01*
X32372095Y-79704857D01*
X32276857Y-79704857D01*
X32181619Y-79657238D01*
X32134000Y-79609619D01*
X32086381Y-79514381D01*
X32086381Y-79276285D01*
X32134000Y-79133428D01*
X32086381Y-78847714D02*
X32086381Y-78276285D01*
X33086381Y-78562000D02*
X32086381Y-78562000D01*
X32991143Y-77371523D02*
X33038762Y-77419142D01*
X33086381Y-77561999D01*
X33086381Y-77657237D01*
X33038762Y-77800095D01*
X32943524Y-77895333D01*
X32848286Y-77942952D01*
X32657810Y-77990571D01*
X32514952Y-77990571D01*
X32324476Y-77942952D01*
X32229238Y-77895333D01*
X32134000Y-77800095D01*
X32086381Y-77657237D01*
X32086381Y-77561999D01*
X32134000Y-77419142D01*
X32181619Y-77371523D01*
X32562571Y-76942952D02*
X32562571Y-76609618D01*
X33086381Y-76466761D02*
X33086381Y-76942952D01*
X32086381Y-76942952D01*
X32086381Y-76466761D01*
X30498762Y-80681048D02*
X30546381Y-80538191D01*
X30546381Y-80300095D01*
X30498762Y-80204857D01*
X30451143Y-80157238D01*
X30355905Y-80109619D01*
X30260667Y-80109619D01*
X30165429Y-80157238D01*
X30117810Y-80204857D01*
X30070190Y-80300095D01*
X30022571Y-80490572D01*
X29974952Y-80585810D01*
X29927333Y-80633429D01*
X29832095Y-80681048D01*
X29736857Y-80681048D01*
X29641619Y-80633429D01*
X29594000Y-80585810D01*
X29546381Y-80490572D01*
X29546381Y-80252476D01*
X29594000Y-80109619D01*
X30498762Y-79728667D02*
X30546381Y-79585810D01*
X30546381Y-79347714D01*
X30498762Y-79252476D01*
X30451143Y-79204857D01*
X30355905Y-79157238D01*
X30260667Y-79157238D01*
X30165429Y-79204857D01*
X30117810Y-79252476D01*
X30070190Y-79347714D01*
X30022571Y-79538191D01*
X29974952Y-79633429D01*
X29927333Y-79681048D01*
X29832095Y-79728667D01*
X29736857Y-79728667D01*
X29641619Y-79681048D01*
X29594000Y-79633429D01*
X29546381Y-79538191D01*
X29546381Y-79300095D01*
X29594000Y-79157238D01*
X29546381Y-78871524D02*
X29546381Y-78300095D01*
X30546381Y-78585810D02*
X29546381Y-78585810D01*
X29546381Y-77776286D02*
X29546381Y-77585809D01*
X29594000Y-77490571D01*
X29689238Y-77395333D01*
X29879714Y-77347714D01*
X30213048Y-77347714D01*
X30403524Y-77395333D01*
X30498762Y-77490571D01*
X30546381Y-77585809D01*
X30546381Y-77776286D01*
X30498762Y-77871524D01*
X30403524Y-77966762D01*
X30213048Y-78014381D01*
X29879714Y-78014381D01*
X29689238Y-77966762D01*
X29594000Y-77871524D01*
X29546381Y-77776286D01*
X30022571Y-76919143D02*
X30022571Y-76585809D01*
X30546381Y-76442952D02*
X30546381Y-76919143D01*
X29546381Y-76919143D01*
X29546381Y-76442952D01*
X27958762Y-80728667D02*
X28006381Y-80585810D01*
X28006381Y-80347714D01*
X27958762Y-80252476D01*
X27911143Y-80204857D01*
X27815905Y-80157238D01*
X27720667Y-80157238D01*
X27625429Y-80204857D01*
X27577810Y-80252476D01*
X27530190Y-80347714D01*
X27482571Y-80538191D01*
X27434952Y-80633429D01*
X27387333Y-80681048D01*
X27292095Y-80728667D01*
X27196857Y-80728667D01*
X27101619Y-80681048D01*
X27054000Y-80633429D01*
X27006381Y-80538191D01*
X27006381Y-80300095D01*
X27054000Y-80157238D01*
X27958762Y-79776286D02*
X28006381Y-79633429D01*
X28006381Y-79395333D01*
X27958762Y-79300095D01*
X27911143Y-79252476D01*
X27815905Y-79204857D01*
X27720667Y-79204857D01*
X27625429Y-79252476D01*
X27577810Y-79300095D01*
X27530190Y-79395333D01*
X27482571Y-79585810D01*
X27434952Y-79681048D01*
X27387333Y-79728667D01*
X27292095Y-79776286D01*
X27196857Y-79776286D01*
X27101619Y-79728667D01*
X27054000Y-79681048D01*
X27006381Y-79585810D01*
X27006381Y-79347714D01*
X27054000Y-79204857D01*
X27006381Y-78919143D02*
X27006381Y-78347714D01*
X28006381Y-78633429D02*
X27006381Y-78633429D01*
X27006381Y-78109619D02*
X28006381Y-77871524D01*
X27292095Y-77681047D01*
X28006381Y-77490571D01*
X27006381Y-77252476D01*
X27482571Y-76871524D02*
X27482571Y-76538190D01*
X28006381Y-76395333D02*
X28006381Y-76871524D01*
X27006381Y-76871524D01*
X27006381Y-76395333D01*
X24466381Y-78784095D02*
X24466381Y-78165047D01*
X24847333Y-78498381D01*
X24847333Y-78355523D01*
X24894952Y-78260285D01*
X24942571Y-78212666D01*
X25037810Y-78165047D01*
X25275905Y-78165047D01*
X25371143Y-78212666D01*
X25418762Y-78260285D01*
X25466381Y-78355523D01*
X25466381Y-78641238D01*
X25418762Y-78736476D01*
X25371143Y-78784095D01*
X24466381Y-77879333D02*
X25466381Y-77546000D01*
X24466381Y-77212666D01*
X24466381Y-76974571D02*
X24466381Y-76355523D01*
X24847333Y-76688857D01*
X24847333Y-76545999D01*
X24894952Y-76450761D01*
X24942571Y-76403142D01*
X25037810Y-76355523D01*
X25275905Y-76355523D01*
X25371143Y-76403142D01*
X25418762Y-76450761D01*
X25466381Y-76545999D01*
X25466381Y-76831714D01*
X25418762Y-76926952D01*
X25371143Y-76974571D01*
X21974000Y-78307904D02*
X21926381Y-78403142D01*
X21926381Y-78545999D01*
X21974000Y-78688857D01*
X22069238Y-78784095D01*
X22164476Y-78831714D01*
X22354952Y-78879333D01*
X22497810Y-78879333D01*
X22688286Y-78831714D01*
X22783524Y-78784095D01*
X22878762Y-78688857D01*
X22926381Y-78545999D01*
X22926381Y-78450761D01*
X22878762Y-78307904D01*
X22831143Y-78260285D01*
X22497810Y-78260285D01*
X22497810Y-78450761D01*
X22926381Y-77831714D02*
X21926381Y-77831714D01*
X22926381Y-77260285D01*
X21926381Y-77260285D01*
X22926381Y-76784095D02*
X21926381Y-76784095D01*
X21926381Y-76546000D01*
X21974000Y-76403142D01*
X22069238Y-76307904D01*
X22164476Y-76260285D01*
X22354952Y-76212666D01*
X22497810Y-76212666D01*
X22688286Y-76260285D01*
X22783524Y-76307904D01*
X22878762Y-76403142D01*
X22926381Y-76546000D01*
X22926381Y-76784095D01*
X20386381Y-80054000D02*
X19386381Y-80054000D01*
X19386381Y-79815905D01*
X19434000Y-79673047D01*
X19529238Y-79577809D01*
X19624476Y-79530190D01*
X19814952Y-79482571D01*
X19957810Y-79482571D01*
X20148286Y-79530190D01*
X20243524Y-79577809D01*
X20338762Y-79673047D01*
X20386381Y-79815905D01*
X20386381Y-80054000D01*
X20386381Y-79054000D02*
X19386381Y-79054000D01*
X20386381Y-78577810D02*
X19386381Y-78577810D01*
X20386381Y-78006381D01*
X19386381Y-78006381D01*
X19386381Y-77339715D02*
X19386381Y-77149238D01*
X19434000Y-77054000D01*
X19529238Y-76958762D01*
X19719714Y-76911143D01*
X20053048Y-76911143D01*
X20243524Y-76958762D01*
X20338762Y-77054000D01*
X20386381Y-77149238D01*
X20386381Y-77339715D01*
X20338762Y-77434953D01*
X20243524Y-77530191D01*
X20053048Y-77577810D01*
X19719714Y-77577810D01*
X19529238Y-77530191D01*
X19434000Y-77434953D01*
X19386381Y-77339715D01*
X19862571Y-76482572D02*
X19862571Y-76149238D01*
X20386381Y-76006381D02*
X20386381Y-76482572D01*
X19386381Y-76482572D01*
X19386381Y-76006381D01*
X17560667Y-80030190D02*
X17560667Y-79553999D01*
X17846381Y-80125428D02*
X16846381Y-79792095D01*
X17846381Y-79458761D01*
X17846381Y-79125428D02*
X16846381Y-79125428D01*
X17846381Y-78649238D02*
X16846381Y-78649238D01*
X17846381Y-78077809D01*
X16846381Y-78077809D01*
X16846381Y-77411143D02*
X16846381Y-77220666D01*
X16894000Y-77125428D01*
X16989238Y-77030190D01*
X17179714Y-76982571D01*
X17513048Y-76982571D01*
X17703524Y-77030190D01*
X17798762Y-77125428D01*
X17846381Y-77220666D01*
X17846381Y-77411143D01*
X17798762Y-77506381D01*
X17703524Y-77601619D01*
X17513048Y-77649238D01*
X17179714Y-77649238D01*
X16989238Y-77601619D01*
X16894000Y-77506381D01*
X16846381Y-77411143D01*
X17322571Y-76554000D02*
X17322571Y-76220666D01*
X17846381Y-76077809D02*
X17846381Y-76554000D01*
X16846381Y-76554000D01*
X16846381Y-76077809D01*
X15258762Y-81014381D02*
X15306381Y-80871524D01*
X15306381Y-80633428D01*
X15258762Y-80538190D01*
X15211143Y-80490571D01*
X15115905Y-80442952D01*
X15020667Y-80442952D01*
X14925429Y-80490571D01*
X14877810Y-80538190D01*
X14830190Y-80633428D01*
X14782571Y-80823905D01*
X14734952Y-80919143D01*
X14687333Y-80966762D01*
X14592095Y-81014381D01*
X14496857Y-81014381D01*
X14401619Y-80966762D01*
X14354000Y-80919143D01*
X14306381Y-80823905D01*
X14306381Y-80585809D01*
X14354000Y-80442952D01*
X15306381Y-80014381D02*
X14306381Y-80014381D01*
X15306381Y-79538191D02*
X14306381Y-79538191D01*
X15306381Y-78966762D01*
X14306381Y-78966762D01*
X15211143Y-77919143D02*
X15258762Y-77966762D01*
X15306381Y-78109619D01*
X15306381Y-78204857D01*
X15258762Y-78347715D01*
X15163524Y-78442953D01*
X15068286Y-78490572D01*
X14877810Y-78538191D01*
X14734952Y-78538191D01*
X14544476Y-78490572D01*
X14449238Y-78442953D01*
X14354000Y-78347715D01*
X14306381Y-78204857D01*
X14306381Y-78109619D01*
X14354000Y-77966762D01*
X14401619Y-77919143D01*
X15306381Y-77014381D02*
X15306381Y-77490572D01*
X14306381Y-77490572D01*
X15306381Y-76681048D02*
X14306381Y-76681048D01*
X15306381Y-76109619D02*
X14734952Y-76538191D01*
X14306381Y-76109619D02*
X14877810Y-76681048D01*
X12718762Y-78339619D02*
X12766381Y-78196762D01*
X12766381Y-77958666D01*
X12718762Y-77863428D01*
X12671143Y-77815809D01*
X12575905Y-77768190D01*
X12480667Y-77768190D01*
X12385429Y-77815809D01*
X12337810Y-77863428D01*
X12290190Y-77958666D01*
X12242571Y-78149143D01*
X12194952Y-78244381D01*
X12147333Y-78292000D01*
X12052095Y-78339619D01*
X11956857Y-78339619D01*
X11861619Y-78292000D01*
X11814000Y-78244381D01*
X11766381Y-78149143D01*
X11766381Y-77911047D01*
X11814000Y-77768190D01*
X12766381Y-77339619D02*
X11766381Y-77339619D01*
X12766381Y-76863429D02*
X11766381Y-76863429D01*
X12766381Y-76292000D01*
X11766381Y-76292000D01*
D11*
X7043500Y-25996700D02*
X11501200Y-25996700D01*
X11501200Y-25996700D02*
X11501200Y-28511300D01*
X11501200Y-28511300D02*
X7043500Y-28511300D01*
X7043500Y-28511300D02*
X7043500Y-25996700D01*
X5697300Y-40271500D02*
X5697300Y-44729200D01*
X5697300Y-44729200D02*
X3182700Y-44729200D01*
X3182700Y-44729200D02*
X3182700Y-40271500D01*
X3182700Y-40271500D02*
X5697300Y-40271500D01*
X5773500Y-58000700D02*
X10231200Y-58000700D01*
X10231200Y-58000700D02*
X10231200Y-60515300D01*
X10231200Y-60515300D02*
X5773500Y-60515300D01*
X5773500Y-60515300D02*
X5773500Y-58000700D01*
X41460500Y-13779300D02*
X37002800Y-13779300D01*
X37002800Y-13779300D02*
X37002800Y-11264700D01*
X37002800Y-11264700D02*
X41460500Y-11264700D01*
X41460500Y-11264700D02*
X41460500Y-13779300D01*
X47048500Y-27749300D02*
X42590800Y-27749300D01*
X42590800Y-27749300D02*
X42590800Y-25234700D01*
X42590800Y-25234700D02*
X47048500Y-25234700D01*
X47048500Y-25234700D02*
X47048500Y-27749300D01*
X48572500Y-41719300D02*
X44114800Y-41719300D01*
X44114800Y-41719300D02*
X44114800Y-39204700D01*
X44114800Y-39204700D02*
X48572500Y-39204700D01*
X48572500Y-39204700D02*
X48572500Y-41719300D01*
X48572500Y-55943300D02*
X44114800Y-55943300D01*
X44114800Y-55943300D02*
X44114800Y-53428700D01*
X44114800Y-53428700D02*
X48572500Y-53428700D01*
X48572500Y-53428700D02*
X48572500Y-55943300D01*
X23477300Y-39255500D02*
X23477300Y-43713200D01*
X23477300Y-43713200D02*
X20962700Y-43713200D01*
X20962700Y-43713200D02*
X20962700Y-39255500D01*
X20962700Y-39255500D02*
X23477300Y-39255500D01*
X13317300Y-60845500D02*
X13317300Y-65303200D01*
X13317300Y-65303200D02*
X10802700Y-65303200D01*
X10802700Y-65303200D02*
X10802700Y-60845500D01*
X10802700Y-60845500D02*
X13317300Y-60845500D01*
X18664000Y-72974000D02*
X21204000Y-72974000D01*
X21204000Y-72974000D02*
X21204000Y-75514000D01*
X21204000Y-75514000D02*
X18664000Y-75514000D01*
X11044000Y-72974000D02*
X18664000Y-72974000D01*
X18664000Y-75514000D02*
X11044000Y-75514000D01*
X11044000Y-75514000D02*
X11044000Y-72974000D01*
X26284000Y-75514000D02*
X21204000Y-75514000D01*
X21204000Y-75514000D02*
X21204000Y-72974000D01*
X21204000Y-72974000D02*
X26284000Y-72974000D01*
X26284000Y-72974000D02*
X26284000Y-75514000D01*
X26284000Y-72974000D02*
X41524000Y-72974000D01*
X41524000Y-72974000D02*
X41524000Y-75514000D01*
X41524000Y-75514000D02*
X26284000Y-75514000D01*
X26284000Y-75514000D02*
X26284000Y-72974000D01*
X14854000Y-40208000D02*
X14854000Y-45288000D01*
X14854000Y-45288000D02*
X12314000Y-45288000D01*
X12314000Y-45288000D02*
X12314000Y-40208000D01*
X12314000Y-40208000D02*
X14854000Y-40208000D01*
X5722700Y-65290500D02*
X5722700Y-60832800D01*
X5722700Y-60832800D02*
X8237300Y-60832800D01*
X8237300Y-60832800D02*
X8237300Y-65290500D01*
X8237300Y-65290500D02*
X5722700Y-65290500D01*
X31097300Y-62115500D02*
X31097300Y-66573200D01*
X31097300Y-66573200D02*
X28582700Y-66573200D01*
X28582700Y-66573200D02*
X28582700Y-62115500D01*
X28582700Y-62115500D02*
X31097300Y-62115500D01*
X28582700Y-62242500D02*
X28582700Y-57784800D01*
X28582700Y-57784800D02*
X31097300Y-57784800D01*
X31097300Y-57784800D02*
X31097300Y-62242500D01*
X31097300Y-62242500D02*
X28582700Y-62242500D01*
X23477300Y-34683500D02*
X23477300Y-39141200D01*
X23477300Y-39141200D02*
X20962700Y-39141200D01*
X20962700Y-39141200D02*
X20962700Y-34683500D01*
X20962700Y-34683500D02*
X23477300Y-34683500D01*
X44381500Y-67652700D02*
X48839200Y-67652700D01*
X48839200Y-67652700D02*
X48839200Y-70167300D01*
X48839200Y-70167300D02*
X44381500Y-70167300D01*
X44381500Y-70167300D02*
X44381500Y-67652700D01*
X8262700Y-65290500D02*
X8262700Y-60832800D01*
X8262700Y-60832800D02*
X10777300Y-60832800D01*
X10777300Y-60832800D02*
X10777300Y-65290500D01*
X10777300Y-65290500D02*
X8262700Y-65290500D01*
X8148555Y-55722000D02*
G75*
G03X8148555Y-55722000I-360555J0D01*
G01*
X8388000Y-56322000D02*
X6288000Y-56322000D01*
X6288000Y-56322000D02*
X6288000Y-55422000D01*
X6288000Y-55422000D02*
X6288000Y-52522000D01*
X6288000Y-52522000D02*
X6288000Y-46222000D01*
X6288000Y-46222000D02*
X8388000Y-46222000D01*
X8388000Y-46222000D02*
X8388000Y-56322000D01*
X8148555Y-38704000D02*
G75*
G03X8148555Y-38704000I-360555J0D01*
G01*
X8388000Y-39304000D02*
X6288000Y-39304000D01*
X6288000Y-39304000D02*
X6288000Y-38404000D01*
X6288000Y-38404000D02*
X6288000Y-35504000D01*
X6288000Y-35504000D02*
X6288000Y-29204000D01*
X6288000Y-29204000D02*
X8388000Y-29204000D01*
X8388000Y-29204000D02*
X8388000Y-39304000D01*
X8148555Y-23972000D02*
G75*
G03X8148555Y-23972000I-360555J0D01*
G01*
X8388000Y-24572000D02*
X6288000Y-24572000D01*
X6288000Y-24572000D02*
X6288000Y-23672000D01*
X6288000Y-23672000D02*
X6288000Y-20772000D01*
X6288000Y-20772000D02*
X6288000Y-14472000D01*
X6288000Y-14472000D02*
X8388000Y-14472000D01*
X8388000Y-14472000D02*
X8388000Y-24572000D01*
X44124555Y-15042000D02*
G75*
G03X44124555Y-15042000I-360555J0D01*
G01*
X43164000Y-14442000D02*
X45264000Y-14442000D01*
X45264000Y-14442000D02*
X45264000Y-15342000D01*
X45264000Y-15342000D02*
X45264000Y-18242000D01*
X45264000Y-18242000D02*
X45264000Y-24542000D01*
X45264000Y-24542000D02*
X43164000Y-24542000D01*
X43164000Y-24542000D02*
X43164000Y-14442000D01*
X44124555Y-43236000D02*
G75*
G03X44124555Y-43236000I-360555J0D01*
G01*
X43164000Y-42636000D02*
X45264000Y-42636000D01*
X45264000Y-42636000D02*
X45264000Y-43536000D01*
X45264000Y-43536000D02*
X45264000Y-46436000D01*
X45264000Y-46436000D02*
X45264000Y-52736000D01*
X45264000Y-52736000D02*
X43164000Y-52736000D01*
X43164000Y-52736000D02*
X43164000Y-42636000D01*
X23639903Y-11760000D02*
G75*
G03X23639903Y-11760000I-1419903J0D01*
G01*
X19680000Y-9220000D02*
X32380000Y-9220000D01*
X32380000Y-9220000D02*
X32380000Y-70180000D01*
X32380000Y-70180000D02*
X19680000Y-70180000D01*
X19680000Y-70180000D02*
X19680000Y-9220000D01*
X44124555Y-29012000D02*
G75*
G03X44124555Y-29012000I-360555J0D01*
G01*
X43164000Y-28412000D02*
X45264000Y-28412000D01*
X45264000Y-28412000D02*
X45264000Y-29312000D01*
X45264000Y-29312000D02*
X45264000Y-32212000D01*
X45264000Y-32212000D02*
X45264000Y-38512000D01*
X45264000Y-38512000D02*
X43164000Y-38512000D01*
X43164000Y-38512000D02*
X43164000Y-28412000D01*
X44124555Y-57206000D02*
G75*
G03X44124555Y-57206000I-360555J0D01*
G01*
X43164000Y-56606000D02*
X45264000Y-56606000D01*
X45264000Y-56606000D02*
X45264000Y-57506000D01*
X45264000Y-57506000D02*
X45264000Y-60406000D01*
X45264000Y-60406000D02*
X45264000Y-66706000D01*
X45264000Y-66706000D02*
X43164000Y-66706000D01*
X43164000Y-66706000D02*
X43164000Y-56606000D01*
X12655334Y-27611143D02*
X12607715Y-27658762D01*
X12464858Y-27706381D01*
X12369620Y-27706381D01*
X12226762Y-27658762D01*
X12131524Y-27563524D01*
X12083905Y-27468286D01*
X12036286Y-27277810D01*
X12036286Y-27134952D01*
X12083905Y-26944476D01*
X12131524Y-26849238D01*
X12226762Y-26754000D01*
X12369620Y-26706381D01*
X12464858Y-26706381D01*
X12607715Y-26754000D01*
X12655334Y-26801619D01*
X13607715Y-27706381D02*
X13036286Y-27706381D01*
X13322000Y-27706381D02*
X13322000Y-26706381D01*
X13226762Y-26849238D01*
X13131524Y-26944476D01*
X13036286Y-26992095D01*
X6813334Y-42851143D02*
X6765715Y-42898762D01*
X6622858Y-42946381D01*
X6527620Y-42946381D01*
X6384762Y-42898762D01*
X6289524Y-42803524D01*
X6241905Y-42708286D01*
X6194286Y-42517810D01*
X6194286Y-42374952D01*
X6241905Y-42184476D01*
X6289524Y-42089238D01*
X6384762Y-41994000D01*
X6527620Y-41946381D01*
X6622858Y-41946381D01*
X6765715Y-41994000D01*
X6813334Y-42041619D01*
X7194286Y-42041619D02*
X7241905Y-41994000D01*
X7337143Y-41946381D01*
X7575239Y-41946381D01*
X7670477Y-41994000D01*
X7718096Y-42041619D01*
X7765715Y-42136857D01*
X7765715Y-42232095D01*
X7718096Y-42374952D01*
X7146667Y-42946381D01*
X7765715Y-42946381D01*
X9861334Y-57583143D02*
X9813715Y-57630762D01*
X9670858Y-57678381D01*
X9575620Y-57678381D01*
X9432762Y-57630762D01*
X9337524Y-57535524D01*
X9289905Y-57440286D01*
X9242286Y-57249810D01*
X9242286Y-57106952D01*
X9289905Y-56916476D01*
X9337524Y-56821238D01*
X9432762Y-56726000D01*
X9575620Y-56678381D01*
X9670858Y-56678381D01*
X9813715Y-56726000D01*
X9861334Y-56773619D01*
X10194667Y-56678381D02*
X10813715Y-56678381D01*
X10480381Y-57059333D01*
X10623239Y-57059333D01*
X10718477Y-57106952D01*
X10766096Y-57154571D01*
X10813715Y-57249810D01*
X10813715Y-57487905D01*
X10766096Y-57583143D01*
X10718477Y-57630762D01*
X10623239Y-57678381D01*
X10337524Y-57678381D01*
X10242286Y-57630762D01*
X10194667Y-57583143D01*
X39071334Y-10847143D02*
X39023715Y-10894762D01*
X38880858Y-10942381D01*
X38785620Y-10942381D01*
X38642762Y-10894762D01*
X38547524Y-10799524D01*
X38499905Y-10704286D01*
X38452286Y-10513810D01*
X38452286Y-10370952D01*
X38499905Y-10180476D01*
X38547524Y-10085238D01*
X38642762Y-9990000D01*
X38785620Y-9942381D01*
X38880858Y-9942381D01*
X39023715Y-9990000D01*
X39071334Y-10037619D01*
X39928477Y-10275714D02*
X39928477Y-10942381D01*
X39690381Y-9894762D02*
X39452286Y-10609048D01*
X40071334Y-10609048D01*
X47961334Y-26849143D02*
X47913715Y-26896762D01*
X47770858Y-26944381D01*
X47675620Y-26944381D01*
X47532762Y-26896762D01*
X47437524Y-26801524D01*
X47389905Y-26706286D01*
X47342286Y-26515810D01*
X47342286Y-26372952D01*
X47389905Y-26182476D01*
X47437524Y-26087238D01*
X47532762Y-25992000D01*
X47675620Y-25944381D01*
X47770858Y-25944381D01*
X47913715Y-25992000D01*
X47961334Y-26039619D01*
X48866096Y-25944381D02*
X48389905Y-25944381D01*
X48342286Y-26420571D01*
X48389905Y-26372952D01*
X48485143Y-26325333D01*
X48723239Y-26325333D01*
X48818477Y-26372952D01*
X48866096Y-26420571D01*
X48913715Y-26515810D01*
X48913715Y-26753905D01*
X48866096Y-26849143D01*
X48818477Y-26896762D01*
X48723239Y-26944381D01*
X48485143Y-26944381D01*
X48389905Y-26896762D01*
X48342286Y-26849143D01*
X49485334Y-40819143D02*
X49437715Y-40866762D01*
X49294858Y-40914381D01*
X49199620Y-40914381D01*
X49056762Y-40866762D01*
X48961524Y-40771524D01*
X48913905Y-40676286D01*
X48866286Y-40485810D01*
X48866286Y-40342952D01*
X48913905Y-40152476D01*
X48961524Y-40057238D01*
X49056762Y-39962000D01*
X49199620Y-39914381D01*
X49294858Y-39914381D01*
X49437715Y-39962000D01*
X49485334Y-40009619D01*
X50342477Y-39914381D02*
X50152000Y-39914381D01*
X50056762Y-39962000D01*
X50009143Y-40009619D01*
X49913905Y-40152476D01*
X49866286Y-40342952D01*
X49866286Y-40723905D01*
X49913905Y-40819143D01*
X49961524Y-40866762D01*
X50056762Y-40914381D01*
X50247239Y-40914381D01*
X50342477Y-40866762D01*
X50390096Y-40819143D01*
X50437715Y-40723905D01*
X50437715Y-40485810D01*
X50390096Y-40390571D01*
X50342477Y-40342952D01*
X50247239Y-40295333D01*
X50056762Y-40295333D01*
X49961524Y-40342952D01*
X49913905Y-40390571D01*
X49866286Y-40485810D01*
X49485334Y-55043143D02*
X49437715Y-55090762D01*
X49294858Y-55138381D01*
X49199620Y-55138381D01*
X49056762Y-55090762D01*
X48961524Y-54995524D01*
X48913905Y-54900286D01*
X48866286Y-54709810D01*
X48866286Y-54566952D01*
X48913905Y-54376476D01*
X48961524Y-54281238D01*
X49056762Y-54186000D01*
X49199620Y-54138381D01*
X49294858Y-54138381D01*
X49437715Y-54186000D01*
X49485334Y-54233619D01*
X49818667Y-54138381D02*
X50485334Y-54138381D01*
X50056762Y-55138381D01*
X22053334Y-44883143D02*
X22005715Y-44930762D01*
X21862858Y-44978381D01*
X21767620Y-44978381D01*
X21624762Y-44930762D01*
X21529524Y-44835524D01*
X21481905Y-44740286D01*
X21434286Y-44549810D01*
X21434286Y-44406952D01*
X21481905Y-44216476D01*
X21529524Y-44121238D01*
X21624762Y-44026000D01*
X21767620Y-43978381D01*
X21862858Y-43978381D01*
X22005715Y-44026000D01*
X22053334Y-44073619D01*
X22624762Y-44406952D02*
X22529524Y-44359333D01*
X22481905Y-44311714D01*
X22434286Y-44216476D01*
X22434286Y-44168857D01*
X22481905Y-44073619D01*
X22529524Y-44026000D01*
X22624762Y-43978381D01*
X22815239Y-43978381D01*
X22910477Y-44026000D01*
X22958096Y-44073619D01*
X23005715Y-44168857D01*
X23005715Y-44216476D01*
X22958096Y-44311714D01*
X22910477Y-44359333D01*
X22815239Y-44406952D01*
X22624762Y-44406952D01*
X22529524Y-44454571D01*
X22481905Y-44502190D01*
X22434286Y-44597429D01*
X22434286Y-44787905D01*
X22481905Y-44883143D01*
X22529524Y-44930762D01*
X22624762Y-44978381D01*
X22815239Y-44978381D01*
X22910477Y-44930762D01*
X22958096Y-44883143D01*
X23005715Y-44787905D01*
X23005715Y-44597429D01*
X22958096Y-44502190D01*
X22910477Y-44454571D01*
X22815239Y-44406952D01*
X11575905Y-66822381D02*
X11575905Y-65822381D01*
X11814000Y-65822381D01*
X11956858Y-65870000D01*
X12052096Y-65965238D01*
X12099715Y-66060476D01*
X12147334Y-66250952D01*
X12147334Y-66393810D01*
X12099715Y-66584286D01*
X12052096Y-66679524D01*
X11956858Y-66774762D01*
X11814000Y-66822381D01*
X11575905Y-66822381D01*
X13099715Y-66822381D02*
X12528286Y-66822381D01*
X12814000Y-66822381D02*
X12814000Y-65822381D01*
X12718762Y-65965238D01*
X12623524Y-66060476D01*
X12528286Y-66108095D01*
X15790667Y-71664381D02*
X15790667Y-72378667D01*
X15743047Y-72521524D01*
X15647809Y-72616762D01*
X15504952Y-72664381D01*
X15409714Y-72664381D01*
X16790667Y-72664381D02*
X16219238Y-72664381D01*
X16504952Y-72664381D02*
X16504952Y-71664381D01*
X16409714Y-71807238D01*
X16314476Y-71902476D01*
X16219238Y-71950095D01*
X23410667Y-71664381D02*
X23410667Y-72378667D01*
X23363047Y-72521524D01*
X23267809Y-72616762D01*
X23124952Y-72664381D01*
X23029714Y-72664381D01*
X23839238Y-71759619D02*
X23886857Y-71712000D01*
X23982095Y-71664381D01*
X24220191Y-71664381D01*
X24315429Y-71712000D01*
X24363048Y-71759619D01*
X24410667Y-71854857D01*
X24410667Y-71950095D01*
X24363048Y-72092952D01*
X23791619Y-72664381D01*
X24410667Y-72664381D01*
X33570667Y-71664381D02*
X33570667Y-72378667D01*
X33523047Y-72521524D01*
X33427809Y-72616762D01*
X33284952Y-72664381D01*
X33189714Y-72664381D01*
X33951619Y-71664381D02*
X34570667Y-71664381D01*
X34237333Y-72045333D01*
X34380191Y-72045333D01*
X34475429Y-72092952D01*
X34523048Y-72140571D01*
X34570667Y-72235810D01*
X34570667Y-72473905D01*
X34523048Y-72569143D01*
X34475429Y-72616762D01*
X34380191Y-72664381D01*
X34094476Y-72664381D01*
X33999238Y-72616762D01*
X33951619Y-72569143D01*
X13004667Y-45756381D02*
X13004667Y-46470667D01*
X12957047Y-46613524D01*
X12861809Y-46708762D01*
X12718952Y-46756381D01*
X12623714Y-46756381D01*
X13480857Y-46756381D02*
X13480857Y-45756381D01*
X13861810Y-45756381D01*
X13957048Y-45804000D01*
X14004667Y-45851619D01*
X14052286Y-45946857D01*
X14052286Y-46089714D01*
X14004667Y-46184952D01*
X13957048Y-46232571D01*
X13861810Y-46280190D01*
X13480857Y-46280190D01*
X15004667Y-46756381D02*
X14433238Y-46756381D01*
X14718952Y-46756381D02*
X14718952Y-45756381D01*
X14623714Y-45899238D01*
X14528476Y-45994476D01*
X14433238Y-46042095D01*
X7067334Y-66822381D02*
X6734000Y-66346190D01*
X6495905Y-66822381D02*
X6495905Y-65822381D01*
X6876858Y-65822381D01*
X6972096Y-65870000D01*
X7019715Y-65917619D01*
X7067334Y-66012857D01*
X7067334Y-66155714D01*
X7019715Y-66250952D01*
X6972096Y-66298571D01*
X6876858Y-66346190D01*
X6495905Y-66346190D01*
X8019715Y-66822381D02*
X7448286Y-66822381D01*
X7734000Y-66822381D02*
X7734000Y-65822381D01*
X7638762Y-65965238D01*
X7543524Y-66060476D01*
X7448286Y-66108095D01*
X29673334Y-68092381D02*
X29340000Y-67616190D01*
X29101905Y-68092381D02*
X29101905Y-67092381D01*
X29482858Y-67092381D01*
X29578096Y-67140000D01*
X29625715Y-67187619D01*
X29673334Y-67282857D01*
X29673334Y-67425714D01*
X29625715Y-67520952D01*
X29578096Y-67568571D01*
X29482858Y-67616190D01*
X29101905Y-67616190D01*
X30054286Y-67187619D02*
X30101905Y-67140000D01*
X30197143Y-67092381D01*
X30435239Y-67092381D01*
X30530477Y-67140000D01*
X30578096Y-67187619D01*
X30625715Y-67282857D01*
X30625715Y-67378095D01*
X30578096Y-67520952D01*
X30006667Y-68092381D01*
X30625715Y-68092381D01*
X29673334Y-57170381D02*
X29340000Y-56694190D01*
X29101905Y-57170381D02*
X29101905Y-56170381D01*
X29482858Y-56170381D01*
X29578096Y-56218000D01*
X29625715Y-56265619D01*
X29673334Y-56360857D01*
X29673334Y-56503714D01*
X29625715Y-56598952D01*
X29578096Y-56646571D01*
X29482858Y-56694190D01*
X29101905Y-56694190D01*
X30006667Y-56170381D02*
X30625715Y-56170381D01*
X30292381Y-56551333D01*
X30435239Y-56551333D01*
X30530477Y-56598952D01*
X30578096Y-56646571D01*
X30625715Y-56741810D01*
X30625715Y-56979905D01*
X30578096Y-57075143D01*
X30530477Y-57122762D01*
X30435239Y-57170381D01*
X30149524Y-57170381D01*
X30054286Y-57122762D01*
X30006667Y-57075143D01*
X22053334Y-34310381D02*
X21720000Y-33834190D01*
X21481905Y-34310381D02*
X21481905Y-33310381D01*
X21862858Y-33310381D01*
X21958096Y-33358000D01*
X22005715Y-33405619D01*
X22053334Y-33500857D01*
X22053334Y-33643714D01*
X22005715Y-33738952D01*
X21958096Y-33786571D01*
X21862858Y-33834190D01*
X21481905Y-33834190D01*
X22910477Y-33643714D02*
X22910477Y-34310381D01*
X22672381Y-33262762D02*
X22434286Y-33977048D01*
X23053334Y-33977048D01*
X46437334Y-71394381D02*
X46104000Y-70918190D01*
X45865905Y-71394381D02*
X45865905Y-70394381D01*
X46246858Y-70394381D01*
X46342096Y-70442000D01*
X46389715Y-70489619D01*
X46437334Y-70584857D01*
X46437334Y-70727714D01*
X46389715Y-70822952D01*
X46342096Y-70870571D01*
X46246858Y-70918190D01*
X45865905Y-70918190D01*
X47342096Y-70394381D02*
X46865905Y-70394381D01*
X46818286Y-70870571D01*
X46865905Y-70822952D01*
X46961143Y-70775333D01*
X47199239Y-70775333D01*
X47294477Y-70822952D01*
X47342096Y-70870571D01*
X47389715Y-70965810D01*
X47389715Y-71203905D01*
X47342096Y-71299143D01*
X47294477Y-71346762D01*
X47199239Y-71394381D01*
X46961143Y-71394381D01*
X46865905Y-71346762D01*
X46818286Y-71299143D01*
X9353334Y-66822381D02*
X9020000Y-66346190D01*
X8781905Y-66822381D02*
X8781905Y-65822381D01*
X9162858Y-65822381D01*
X9258096Y-65870000D01*
X9305715Y-65917619D01*
X9353334Y-66012857D01*
X9353334Y-66155714D01*
X9305715Y-66250952D01*
X9258096Y-66298571D01*
X9162858Y-66346190D01*
X8781905Y-66346190D01*
X10210477Y-65822381D02*
X10020000Y-65822381D01*
X9924762Y-65870000D01*
X9877143Y-65917619D01*
X9781905Y-66060476D01*
X9734286Y-66250952D01*
X9734286Y-66631905D01*
X9781905Y-66727143D01*
X9829524Y-66774762D01*
X9924762Y-66822381D01*
X10115239Y-66822381D01*
X10210477Y-66774762D01*
X10258096Y-66727143D01*
X10305715Y-66631905D01*
X10305715Y-66393810D01*
X10258096Y-66298571D01*
X10210477Y-66250952D01*
X10115239Y-66203333D01*
X9924762Y-66203333D01*
X9829524Y-66250952D01*
X9781905Y-66298571D01*
X9734286Y-66393810D01*
X6726095Y-56678381D02*
X6726095Y-57487905D01*
X6773714Y-57583143D01*
X6821333Y-57630762D01*
X6916571Y-57678381D01*
X7107048Y-57678381D01*
X7202286Y-57630762D01*
X7249905Y-57583143D01*
X7297524Y-57487905D01*
X7297524Y-56678381D01*
X8297524Y-57678381D02*
X7726095Y-57678381D01*
X8011809Y-57678381D02*
X8011809Y-56678381D01*
X7916571Y-56821238D01*
X7821333Y-56916476D01*
X7726095Y-56964095D01*
X7234095Y-39660381D02*
X7234095Y-40469905D01*
X7281714Y-40565143D01*
X7329333Y-40612762D01*
X7424571Y-40660381D01*
X7615048Y-40660381D01*
X7710286Y-40612762D01*
X7757905Y-40565143D01*
X7805524Y-40469905D01*
X7805524Y-39660381D01*
X8234095Y-39755619D02*
X8281714Y-39708000D01*
X8376952Y-39660381D01*
X8615048Y-39660381D01*
X8710286Y-39708000D01*
X8757905Y-39755619D01*
X8805524Y-39850857D01*
X8805524Y-39946095D01*
X8757905Y-40088952D01*
X8186476Y-40660381D01*
X8805524Y-40660381D01*
X5202095Y-24928381D02*
X5202095Y-25737905D01*
X5249714Y-25833143D01*
X5297333Y-25880762D01*
X5392571Y-25928381D01*
X5583048Y-25928381D01*
X5678286Y-25880762D01*
X5725905Y-25833143D01*
X5773524Y-25737905D01*
X5773524Y-24928381D01*
X6154476Y-24928381D02*
X6773524Y-24928381D01*
X6440190Y-25309333D01*
X6583048Y-25309333D01*
X6678286Y-25356952D01*
X6725905Y-25404571D01*
X6773524Y-25499810D01*
X6773524Y-25737905D01*
X6725905Y-25833143D01*
X6678286Y-25880762D01*
X6583048Y-25928381D01*
X6297333Y-25928381D01*
X6202095Y-25880762D01*
X6154476Y-25833143D01*
X45080095Y-12990381D02*
X45080095Y-13799905D01*
X45127714Y-13895143D01*
X45175333Y-13942762D01*
X45270571Y-13990381D01*
X45461048Y-13990381D01*
X45556286Y-13942762D01*
X45603905Y-13895143D01*
X45651524Y-13799905D01*
X45651524Y-12990381D01*
X46556286Y-13323714D02*
X46556286Y-13990381D01*
X46318190Y-12942762D02*
X46080095Y-13657048D01*
X46699143Y-13657048D01*
X42032095Y-41184381D02*
X42032095Y-41993905D01*
X42079714Y-42089143D01*
X42127333Y-42136762D01*
X42222571Y-42184381D01*
X42413048Y-42184381D01*
X42508286Y-42136762D01*
X42555905Y-42089143D01*
X42603524Y-41993905D01*
X42603524Y-41184381D01*
X43555905Y-41184381D02*
X43079714Y-41184381D01*
X43032095Y-41660571D01*
X43079714Y-41612952D01*
X43174952Y-41565333D01*
X43413048Y-41565333D01*
X43508286Y-41612952D01*
X43555905Y-41660571D01*
X43603524Y-41755810D01*
X43603524Y-41993905D01*
X43555905Y-42089143D01*
X43508286Y-42136762D01*
X43413048Y-42184381D01*
X43174952Y-42184381D01*
X43079714Y-42136762D01*
X43032095Y-42089143D01*
X25268095Y-7402381D02*
X25268095Y-8211905D01*
X25315714Y-8307143D01*
X25363333Y-8354762D01*
X25458571Y-8402381D01*
X25649048Y-8402381D01*
X25744286Y-8354762D01*
X25791905Y-8307143D01*
X25839524Y-8211905D01*
X25839524Y-7402381D01*
X26744286Y-7402381D02*
X26553809Y-7402381D01*
X26458571Y-7450000D01*
X26410952Y-7497619D01*
X26315714Y-7640476D01*
X26268095Y-7830952D01*
X26268095Y-8211905D01*
X26315714Y-8307143D01*
X26363333Y-8354762D01*
X26458571Y-8402381D01*
X26649048Y-8402381D01*
X26744286Y-8354762D01*
X26791905Y-8307143D01*
X26839524Y-8211905D01*
X26839524Y-7973810D01*
X26791905Y-7878571D01*
X26744286Y-7830952D01*
X26649048Y-7783333D01*
X26458571Y-7783333D01*
X26363333Y-7830952D01*
X26315714Y-7878571D01*
X26268095Y-7973810D01*
X40508095Y-26960381D02*
X40508095Y-27769905D01*
X40555714Y-27865143D01*
X40603333Y-27912762D01*
X40698571Y-27960381D01*
X40889048Y-27960381D01*
X40984286Y-27912762D01*
X41031905Y-27865143D01*
X41079524Y-27769905D01*
X41079524Y-26960381D01*
X41460476Y-26960381D02*
X42127143Y-26960381D01*
X41698571Y-27960381D01*
X41524095Y-55408381D02*
X41524095Y-56217905D01*
X41571714Y-56313143D01*
X41619333Y-56360762D01*
X41714571Y-56408381D01*
X41905048Y-56408381D01*
X42000286Y-56360762D01*
X42047905Y-56313143D01*
X42095524Y-56217905D01*
X42095524Y-55408381D01*
X42714571Y-55836952D02*
X42619333Y-55789333D01*
X42571714Y-55741714D01*
X42524095Y-55646476D01*
X42524095Y-55598857D01*
X42571714Y-55503619D01*
X42619333Y-55456000D01*
X42714571Y-55408381D01*
X42905048Y-55408381D01*
X43000286Y-55456000D01*
X43047905Y-55503619D01*
X43095524Y-55598857D01*
X43095524Y-55646476D01*
X43047905Y-55741714D01*
X43000286Y-55789333D01*
X42905048Y-55836952D01*
X42714571Y-55836952D01*
X42619333Y-55884571D01*
X42571714Y-55932190D01*
X42524095Y-56027429D01*
X42524095Y-56217905D01*
X42571714Y-56313143D01*
X42619333Y-56360762D01*
X42714571Y-56408381D01*
X42905048Y-56408381D01*
X43000286Y-56360762D01*
X43047905Y-56313143D01*
X43095524Y-56217905D01*
X43095524Y-56027429D01*
X43047905Y-55932190D01*
X43000286Y-55884571D01*
X42905048Y-55836952D01*
D10*
X46461333Y-73680381D02*
X46461333Y-72680381D01*
X46794667Y-73394667D01*
X47128000Y-72680381D01*
X47128000Y-73680381D01*
X47508952Y-72680381D02*
X48128000Y-72680381D01*
X47794666Y-73061333D01*
X47937524Y-73061333D01*
X48032762Y-73108952D01*
X48080381Y-73156571D01*
X48128000Y-73251810D01*
X48128000Y-73489905D01*
X48080381Y-73585143D01*
X48032762Y-73632762D01*
X47937524Y-73680381D01*
X47651809Y-73680381D01*
X47556571Y-73632762D01*
X47508952Y-73585143D01*
X48318476Y-73775619D02*
X49080381Y-73775619D01*
X49223238Y-72680381D02*
X49842286Y-72680381D01*
X49508952Y-73061333D01*
X49651810Y-73061333D01*
X49747048Y-73108952D01*
X49794667Y-73156571D01*
X49842286Y-73251810D01*
X49842286Y-73489905D01*
X49794667Y-73585143D01*
X49747048Y-73632762D01*
X49651810Y-73680381D01*
X49366095Y-73680381D01*
X49270857Y-73632762D01*
X49223238Y-73585143D01*
X3281333Y-73680381D02*
X3281333Y-72680381D01*
X3614667Y-73394667D01*
X3948000Y-72680381D01*
X3948000Y-73680381D01*
X4328952Y-72680381D02*
X4948000Y-72680381D01*
X4614666Y-73061333D01*
X4757524Y-73061333D01*
X4852762Y-73108952D01*
X4900381Y-73156571D01*
X4948000Y-73251810D01*
X4948000Y-73489905D01*
X4900381Y-73585143D01*
X4852762Y-73632762D01*
X4757524Y-73680381D01*
X4471809Y-73680381D01*
X4376571Y-73632762D01*
X4328952Y-73585143D01*
X5138476Y-73775619D02*
X5900381Y-73775619D01*
X6090857Y-72775619D02*
X6138476Y-72728000D01*
X6233714Y-72680381D01*
X6471810Y-72680381D01*
X6567048Y-72728000D01*
X6614667Y-72775619D01*
X6662286Y-72870857D01*
X6662286Y-72966095D01*
X6614667Y-73108952D01*
X6043238Y-73680381D01*
X6662286Y-73680381D01*
X3281333Y-8910381D02*
X3281333Y-7910381D01*
X3614667Y-8624667D01*
X3948000Y-7910381D01*
X3948000Y-8910381D01*
X4328952Y-7910381D02*
X4948000Y-7910381D01*
X4614666Y-8291333D01*
X4757524Y-8291333D01*
X4852762Y-8338952D01*
X4900381Y-8386571D01*
X4948000Y-8481810D01*
X4948000Y-8719905D01*
X4900381Y-8815143D01*
X4852762Y-8862762D01*
X4757524Y-8910381D01*
X4471809Y-8910381D01*
X4376571Y-8862762D01*
X4328952Y-8815143D01*
X5138476Y-9005619D02*
X5900381Y-9005619D01*
X6662286Y-8910381D02*
X6090857Y-8910381D01*
X6376571Y-8910381D02*
X6376571Y-7910381D01*
X6281333Y-8053238D01*
X6186095Y-8148476D01*
X6090857Y-8196095D01*
X46461333Y-8910381D02*
X46461333Y-7910381D01*
X46794667Y-8624667D01*
X47128000Y-7910381D01*
X47128000Y-8910381D01*
X47508952Y-7910381D02*
X48128000Y-7910381D01*
X47794666Y-8291333D01*
X47937524Y-8291333D01*
X48032762Y-8338952D01*
X48080381Y-8386571D01*
X48128000Y-8481810D01*
X48128000Y-8719905D01*
X48080381Y-8815143D01*
X48032762Y-8862762D01*
X47937524Y-8910381D01*
X47651809Y-8910381D01*
X47556571Y-8862762D01*
X47508952Y-8815143D01*
X48318476Y-9005619D02*
X49080381Y-9005619D01*
X49747048Y-8243714D02*
X49747048Y-8910381D01*
X49508952Y-7862762D02*
X49270857Y-8577048D01*
X49889905Y-8577048D01*
%LPC*%
D12*
X18899644Y-4014476D02*
X19200833Y-4119238D01*
X19724643Y-4119238D01*
X19947263Y-4014476D01*
X20065120Y-3909714D01*
X20196071Y-3700190D01*
X20222262Y-3490667D01*
X20143691Y-3281143D01*
X20052024Y-3176381D01*
X19855596Y-3071619D01*
X19449643Y-2966857D01*
X19253214Y-2862095D01*
X19161548Y-2757333D01*
X19082977Y-2547810D01*
X19109167Y-2338286D01*
X19240120Y-2128762D01*
X19357976Y-2024000D01*
X19580595Y-1919238D01*
X20104405Y-1919238D01*
X20405595Y-2024000D01*
X22500833Y-2024000D02*
X22304405Y-1919238D01*
X21990119Y-1919238D01*
X21662738Y-2024000D01*
X21427024Y-2233524D01*
X21296072Y-2443048D01*
X21138929Y-2862095D01*
X21099643Y-3176381D01*
X21152024Y-3595429D01*
X21230595Y-3804952D01*
X21413929Y-4014476D01*
X21715119Y-4119238D01*
X21924643Y-4119238D01*
X22252024Y-4014476D01*
X22369881Y-3909714D01*
X22461547Y-3176381D01*
X22042500Y-3176381D01*
X23980595Y-1919238D02*
X24190119Y-1919238D01*
X24386548Y-2024000D01*
X24478215Y-2128762D01*
X24556786Y-2338286D01*
X24609166Y-2757333D01*
X24543690Y-3281143D01*
X24386548Y-3700190D01*
X24255596Y-3909714D01*
X24137739Y-4014476D01*
X23915119Y-4119238D01*
X23705595Y-4119238D01*
X23509167Y-4014476D01*
X23417500Y-3909714D01*
X23338929Y-3700190D01*
X23286548Y-3281143D01*
X23352024Y-2757333D01*
X23509167Y-2338286D01*
X23640119Y-2128762D01*
X23757976Y-2024000D01*
X23980595Y-1919238D01*
X26075833Y-1919238D02*
X26285357Y-1919238D01*
X26481786Y-2024000D01*
X26573453Y-2128762D01*
X26652024Y-2338286D01*
X26704404Y-2757333D01*
X26638928Y-3281143D01*
X26481786Y-3700190D01*
X26350834Y-3909714D01*
X26232977Y-4014476D01*
X26010357Y-4119238D01*
X25800833Y-4119238D01*
X25604405Y-4014476D01*
X25512738Y-3909714D01*
X25434167Y-3700190D01*
X25381786Y-3281143D01*
X25447262Y-2757333D01*
X25604405Y-2338286D01*
X25735357Y-2128762D01*
X25853214Y-2024000D01*
X26075833Y-1919238D01*
X27621072Y-2128762D02*
X27738929Y-2024000D01*
X27961547Y-1919238D01*
X28485357Y-1919238D01*
X28681786Y-2024000D01*
X28773453Y-2128762D01*
X28852023Y-2338286D01*
X28825833Y-2547810D01*
X28681786Y-2862095D01*
X27267500Y-4119238D01*
X28629404Y-4119238D01*
X29572262Y-4119238D02*
X29847262Y-1919238D01*
X30685357Y-1919238D01*
X30881786Y-2024000D01*
X30973452Y-2128762D01*
X31052023Y-2338286D01*
X31012738Y-2652571D01*
X30881785Y-2862095D01*
X30763929Y-2966857D01*
X30541310Y-3071619D01*
X29703215Y-3071619D01*
X32924642Y-4119238D02*
X31667500Y-4119238D01*
X32296071Y-4119238D02*
X32571071Y-1919238D01*
X32322262Y-2233524D01*
X32086547Y-2443048D01*
X31863929Y-2547810D01*
D13*
X8250000Y-27254000D03*
X10294700Y-27254000D03*
D14*
X4440000Y-41478000D03*
X4440000Y-43522700D03*
D13*
X6980000Y-59258000D03*
X9024700Y-59258000D03*
X40254000Y-12522000D03*
X38209300Y-12522000D03*
X45842000Y-26492000D03*
X43797300Y-26492000D03*
X47366000Y-40462000D03*
X45321300Y-40462000D03*
X47366000Y-54686000D03*
X45321300Y-54686000D03*
D14*
X22220000Y-40462000D03*
X22220000Y-42506700D03*
X12060000Y-62052000D03*
X12060000Y-64096700D03*
D15*
X12314000Y-74244000D03*
X14854000Y-74244000D03*
X17394000Y-74244000D03*
X19934000Y-74244000D03*
X25014000Y-74244000D03*
X22474000Y-74244000D03*
X27554000Y-74244000D03*
X30094000Y-74244000D03*
X32634000Y-74244000D03*
X35174000Y-74244000D03*
X37714000Y-74244000D03*
X40254000Y-74244000D03*
X13584000Y-41478000D03*
X13584000Y-44018000D03*
D14*
X6980000Y-64084000D03*
X6980000Y-62039300D03*
X29840000Y-63322000D03*
X29840000Y-65366700D03*
X29840000Y-61036000D03*
X29840000Y-58991300D03*
X22220000Y-35890000D03*
X22220000Y-37934700D03*
D13*
X45588000Y-68910000D03*
X47632700Y-68910000D03*
D14*
X9520000Y-64084000D03*
X9520000Y-62039300D03*
D16*
X10028000Y-55702000D03*
X10028000Y-54432000D03*
X10028000Y-53162000D03*
X10028000Y-51892000D03*
X10028000Y-50622000D03*
X10028000Y-49352000D03*
X10028000Y-48082000D03*
X4630500Y-48082000D03*
X4630500Y-49352000D03*
X4630500Y-50622000D03*
X4630500Y-51892000D03*
X4630500Y-53162000D03*
X4630500Y-54432000D03*
X4630500Y-55702000D03*
X10028000Y-46812000D03*
X4630500Y-46812000D03*
X10028000Y-38684000D03*
X10028000Y-37414000D03*
X10028000Y-36144000D03*
X10028000Y-34874000D03*
X10028000Y-33604000D03*
X10028000Y-32334000D03*
X10028000Y-31064000D03*
X4630500Y-31064000D03*
X4630500Y-32334000D03*
X4630500Y-33604000D03*
X4630500Y-34874000D03*
X4630500Y-36144000D03*
X4630500Y-37414000D03*
X4630500Y-38684000D03*
X10028000Y-29794000D03*
X4630500Y-29794000D03*
X10028000Y-23952000D03*
X10028000Y-22682000D03*
X10028000Y-21412000D03*
X10028000Y-20142000D03*
X10028000Y-18872000D03*
X10028000Y-17602000D03*
X10028000Y-16332000D03*
X4630500Y-16332000D03*
X4630500Y-17602000D03*
X4630500Y-18872000D03*
X4630500Y-20142000D03*
X4630500Y-21412000D03*
X4630500Y-22682000D03*
X4630500Y-23952000D03*
X10028000Y-15062000D03*
X4630500Y-15062000D03*
X41524000Y-15062000D03*
X41524000Y-16332000D03*
X41524000Y-17602000D03*
X41524000Y-18872000D03*
X41524000Y-20142000D03*
X41524000Y-21412000D03*
X41524000Y-22682000D03*
X46921500Y-22682000D03*
X46921500Y-21412000D03*
X46921500Y-20142000D03*
X46921500Y-18872000D03*
X46921500Y-17602000D03*
X46921500Y-16332000D03*
X46921500Y-15062000D03*
X41524000Y-23952000D03*
X46921500Y-23952000D03*
X41524000Y-43256000D03*
X41524000Y-44526000D03*
X41524000Y-45796000D03*
X41524000Y-47066000D03*
X41524000Y-48336000D03*
X41524000Y-49606000D03*
X41524000Y-50876000D03*
X46921500Y-50876000D03*
X46921500Y-49606000D03*
X46921500Y-48336000D03*
X46921500Y-47066000D03*
X46921500Y-45796000D03*
X46921500Y-44526000D03*
X46921500Y-43256000D03*
X41524000Y-52146000D03*
X46921500Y-52146000D03*
D15*
X18410000Y-10490000D03*
X18410000Y-13030000D03*
X18410000Y-15570000D03*
X18410000Y-18110000D03*
X18410000Y-20650000D03*
X18410000Y-23190000D03*
X18410000Y-25730000D03*
X18410000Y-28270000D03*
X18410000Y-30810000D03*
X18410000Y-33350000D03*
X18410000Y-35890000D03*
X18410000Y-38430000D03*
X18410000Y-40970000D03*
X18410000Y-43510000D03*
X18410000Y-46050000D03*
X18410000Y-48590000D03*
X18410000Y-51130000D03*
X18410000Y-53670000D03*
X18410000Y-56210000D03*
X18410000Y-58750000D03*
X18410000Y-61290000D03*
X18410000Y-63830000D03*
X18410000Y-66370000D03*
X18410000Y-68910000D03*
X33650000Y-68910000D03*
X33650000Y-66370000D03*
X33650000Y-63830000D03*
X33650000Y-61290000D03*
X33650000Y-58750000D03*
X33650000Y-56210000D03*
X33650000Y-53670000D03*
X33650000Y-51130000D03*
X33650000Y-48590000D03*
X33650000Y-46050000D03*
X33650000Y-43510000D03*
X33650000Y-40970000D03*
X33650000Y-38430000D03*
X33650000Y-35890000D03*
X33650000Y-33350000D03*
X33650000Y-30810000D03*
X33650000Y-28270000D03*
X33650000Y-25730000D03*
X33650000Y-23190000D03*
X33650000Y-20650000D03*
X33650000Y-18110000D03*
X33650000Y-15570000D03*
X33650000Y-13030000D03*
X33650000Y-10490000D03*
D16*
X41524000Y-29032000D03*
X41524000Y-30302000D03*
X41524000Y-31572000D03*
X41524000Y-32842000D03*
X41524000Y-34112000D03*
X41524000Y-35382000D03*
X41524000Y-36652000D03*
X46921500Y-36652000D03*
X46921500Y-35382000D03*
X46921500Y-34112000D03*
X46921500Y-32842000D03*
X46921500Y-31572000D03*
X46921500Y-30302000D03*
X46921500Y-29032000D03*
X41524000Y-37922000D03*
X46921500Y-37922000D03*
X41524000Y-57226000D03*
X41524000Y-58496000D03*
X41524000Y-59766000D03*
X41524000Y-61036000D03*
X41524000Y-62306000D03*
X41524000Y-63576000D03*
X41524000Y-64846000D03*
X46921500Y-64846000D03*
X46921500Y-63576000D03*
X46921500Y-62306000D03*
X46921500Y-61036000D03*
X46921500Y-59766000D03*
X46921500Y-58496000D03*
X46921500Y-57226000D03*
X41524000Y-66116000D03*
X46921500Y-66116000D03*
D17*
X48100000Y-77600000D03*
X5000000Y-77600000D03*
X5000000Y-4000000D03*
X48100000Y-4000000D03*
M02*
